<?xml version="1.0" encoding="UTF-8"?>
<svg xmlns="http://www.w3.org/2000/svg" xmlns:xlink="http://www.w3.org/1999/xlink" width="120pt" height="90pt" viewBox="0 0 120 90" version="1.1">
<g id="surface1">
<path style=" stroke:none;fill-rule:nonzero;fill:rgb(0%,0%,0%);fill-opacity:1;" d="M 35.125 30.175781 C 34.949219 30.066406 34.960938 30 35.1875 29.796875 C 35.5625 29.460938 35.78125 28.789062 35.601562 28.535156 C 35.339844 28.175781 34.9375 28.34375 34.40625 29.027344 C 34.023438 29.527344 33.835938 29.675781 33.554688 29.699219 C 33.035156 29.738281 32.976562 29.542969 33.351562 29.019531 C 33.980469 28.140625 33.640625 27.992188 32.398438 28.605469 C 31.476562 29.058594 31.003906 29.183594 30.730469 29.035156 C 30.601562 28.96875 30.726562 28.855469 31.191406 28.621094 C 31.542969 28.445312 31.917969 28.195312 32.023438 28.070312 C 32.195312 27.863281 32.179688 27.820312 31.882812 27.710938 C 31.484375 27.5625 31.199219 27.609375 30.492188 27.929688 C 29.925781 28.191406 29.511719 28.234375 29.199219 28.070312 C 28.90625 27.914062 28.960938 27.847656 29.5 27.699219 C 29.769531 27.625 30.296875 27.414062 30.664062 27.226562 C 31.039062 27.042969 31.441406 26.890625 31.566406 26.890625 C 31.6875 26.890625 32.15625 27.03125 32.605469 27.199219 C 33.507812 27.546875 34.90625 27.914062 35.316406 27.914062 C 35.722656 27.917969 35.792969 27.695312 35.460938 27.46875 C 35.292969 27.359375 34.664062 27.136719 34.058594 26.972656 C 32.46875 26.554688 31.714844 26.566406 29.941406 27.054688 C 28.460938 27.457031 28.113281 27.464844 27.9375 27.09375 C 27.800781 26.796875 28.253906 26.589844 29.683594 26.296875 C 32.035156 25.816406 32.539062 25.621094 33.128906 24.960938 C 33.683594 24.339844 33.640625 23.550781 33.007812 22.65625 C 32.78125 22.34375 31.300781 20.546875 30.640625 19.792969 C 30.011719 19.070312 28.863281 18.140625 28.339844 17.921875 C 28.113281 17.824219 27.398438 17.683594 26.753906 17.605469 C 25.28125 17.429688 24.902344 17.5 24.757812 17.972656 C 24.585938 18.550781 25.035156 20.183594 25.734375 21.496094 C 26.003906 22 25.941406 22.609375 25.585938 22.957031 C 25.203125 23.335938 24.460938 23.925781 23.753906 24.425781 C 22.792969 25.101562 22.570312 25.351562 22.304688 26.089844 C 22.085938 26.703125 21.519531 27.359375 21.019531 27.578125 C 20.890625 27.632812 20.609375 27.65625 20.382812 27.625 C 20.0625 27.582031 19.976562 27.515625 19.976562 27.316406 C 19.976562 27.0625 19.964844 27.058594 19.308594 27.117188 C 18.765625 27.164062 18.597656 27.144531 18.421875 27.015625 C 18.125 26.800781 18.128906 26.792969 18.765625 26.367188 C 19.699219 25.742188 19.425781 25.6875 17.960938 26.207031 C 16.914062 26.574219 16.519531 26.625 16.363281 26.410156 C 16.296875 26.320312 16.492188 26.140625 16.929688 25.886719 C 17.316406 25.664062 17.53125 25.472656 17.449219 25.429688 C 17.367188 25.386719 16.921875 25.425781 16.386719 25.527344 C 15.878906 25.625 15.300781 25.691406 15.101562 25.679688 C 14.132812 25.605469 15.234375 24.933594 16.644531 24.738281 C 17.488281 24.617188 17.402344 24.605469 19.265625 25.175781 C 19.703125 25.3125 20.023438 25.359375 20.230469 25.316406 C 20.511719 25.257812 20.480469 25.222656 19.914062 24.960938 C 18.277344 24.203125 16.933594 24.136719 13.691406 24.660156 C 12.914062 24.785156 12.566406 24.773438 12.453125 24.621094 C 12.210938 24.285156 13.339844 23.964844 15.636719 23.71875 C 17.484375 23.523438 17.914062 23.425781 19.125 22.921875 C 20.21875 22.464844 20.679688 21.980469 20.753906 21.199219 C 20.816406 20.597656 20.789062 20.535156 19.257812 17.441406 C 18.617188 16.144531 18.53125 16.046875 17.75 15.703125 C 16.304688 15.066406 14.273438 14.402344 13.207031 14.222656 L 12.136719 14.039062 L 9.40625 14.402344 C 6.117188 14.835938 4.917969 14.917969 4.769531 14.714844 C 4.714844 14.636719 4.75 14.480469 4.847656 14.363281 C 5.082031 14.089844 6.363281 13.839844 9.71875 13.410156 C 11.671875 13.160156 12.332031 13.039062 12.492188 12.910156 C 12.746094 12.703125 13.039062 11.78125 13.082031 11.046875 C 13.117188 10.414062 12.84375 10.136719 11.945312 9.902344 C 11.101562 9.675781 9.820312 9.710938 7.21875 10.03125 C 4.539062 10.359375 3.472656 10.375 2.707031 10.105469 C 1.925781 9.832031 1.394531 9.246094 1.488281 8.761719 C 1.617188 8.117188 2.539062 7.808594 4.707031 7.683594 C 5.605469 7.628906 5.609375 7.632812 6.238281 7.992188 C 6.859375 8.347656 6.878906 8.351562 7.460938 8.25 C 7.910156 8.171875 8.195312 8.03125 8.636719 7.664062 C 9.304688 7.109375 9.363281 7.082031 10.785156 6.625 C 12.054688 6.222656 13.71875 5.90625 14.175781 5.980469 C 14.625 6.058594 14.980469 5.882812 14.980469 5.589844 C 14.980469 5.316406 15.664062 4.113281 16.132812 3.558594 C 16.695312 2.902344 19.191406 1.628906 20.773438 1.195312 C 21.386719 1.027344 21.558594 1.140625 21.691406 1.808594 C 21.835938 2.542969 21.40625 3.46875 20.457031 4.46875 C 20.027344 4.925781 19.695312 5.304688 19.71875 5.316406 C 19.738281 5.328125 20.1875 5.140625 20.714844 4.902344 C 21.722656 4.441406 23.167969 4.03125 24.449219 3.84375 C 24.871094 3.78125 25.742188 3.644531 26.386719 3.539062 C 27.351562 3.378906 27.628906 3.363281 27.972656 3.445312 C 28.464844 3.566406 28.429688 3.726562 27.675781 4.734375 C 27.023438 5.601562 26.632812 5.859375 25.167969 6.386719 C 23.398438 7.023438 21.253906 7.734375 21.105469 7.734375 C 20.871094 7.734375 20.78125 8 20.78125 8.6875 C 20.78125 9.0625 20.667969 9.640625 20.523438 9.976562 L 20.261719 10.582031 L 21.128906 10.996094 C 21.601562 11.222656 22.09375 11.398438 22.222656 11.386719 C 22.347656 11.378906 22.527344 11.199219 22.625 10.988281 C 22.769531 10.671875 22.996094 10.519531 23.96875 10.066406 C 24.972656 9.605469 25.1875 9.539062 25.460938 9.617188 C 25.953125 9.757812 25.851562 9.90625 24.894531 10.457031 C 24.40625 10.734375 24.007812 11.019531 24.007812 11.089844 C 24.007812 11.160156 24.292969 11.320312 24.640625 11.449219 C 25.367188 11.71875 25.523438 11.871094 25.296875 12.097656 C 25.070312 12.320312 25.09375 12.550781 25.34375 12.5 C 25.453125 12.476562 26.109375 12.242188 26.796875 11.984375 C 27.484375 11.722656 28.1875 11.484375 28.363281 11.453125 C 28.742188 11.390625 28.796875 11.15625 28.433594 11.15625 C 28.292969 11.15625 27.761719 11.304688 27.246094 11.492188 C 26.300781 11.832031 25.941406 11.835938 25.941406 11.5 C 25.941406 11.367188 26.679688 11.015625 27.351562 10.824219 L 27.714844 10.722656 L 27.296875 10.386719 C 26.941406 10.101562 26.878906 9.957031 26.878906 9.425781 C 26.878906 8.757812 27.085938 8.214844 27.445312 7.953125 C 27.617188 7.828125 27.78125 7.808594 28.242188 7.851562 C 28.851562 7.914062 30.972656 8.609375 31.488281 8.917969 C 31.929688 9.183594 32.070312 9.074219 32.070312 8.472656 C 32.070312 7.835938 32.601562 6.929688 33.074219 6.753906 C 33.371094 6.644531 33.488281 6.65625 34.175781 6.839844 C 34.976562 7.054688 36.03125 7.582031 36.195312 7.847656 C 36.382812 8.152344 36.777344 7.945312 37.140625 7.347656 C 37.746094 6.351562 38.023438 6.109375 38.554688 6.109375 C 40.65625 6.109375 42.066406 8.015625 40.886719 9.265625 C 40.457031 9.722656 40.515625 9.800781 41.28125 9.769531 L 41.945312 9.742188 L 41.988281 9.144531 C 42.066406 8.121094 42.628906 7.632812 44.230469 7.203125 C 44.964844 7.007812 45.316406 6.957031 45.761719 6.996094 C 46.679688 7.074219 46.933594 7.316406 46.898438 8.074219 C 46.882812 8.425781 46.875 8.746094 46.886719 8.777344 C 46.894531 8.8125 47.15625 8.75 47.472656 8.636719 C 48.066406 8.421875 50.46875 7.90625 50.875 7.90625 C 51.003906 7.90625 51.316406 7.960938 51.574219 8.03125 C 52.140625 8.1875 52.441406 8.773438 52.191406 9.246094 C 51.828125 9.949219 50.347656 10.984375 49.703125 10.984375 C 49.261719 10.984375 49.496094 11.242188 50.132812 11.457031 C 50.820312 11.6875 51.09375 11.675781 51.09375 11.414062 C 51.09375 11.054688 51.734375 10.472656 52.414062 10.210938 C 54.203125 9.523438 56.03125 9.308594 56.8125 9.695312 C 57.15625 9.871094 57.21875 9.976562 57.21875 10.378906 C 57.210938 11.136719 56.566406 11.683594 54.761719 12.46875 C 53.9375 12.828125 53.910156 13 54.683594 12.914062 C 55.058594 12.875 55.296875 12.914062 55.703125 13.078125 C 56.296875 13.320312 56.699219 13.339844 57.589844 13.167969 C 60.042969 12.707031 60.394531 11.925781 58.742188 10.609375 C 56.5625 8.867188 56.117188 8.597656 53.59375 7.523438 C 51.949219 6.820312 48.640625 5.757812 47.355469 5.515625 C 46.886719 5.429688 45.410156 5.125 44.082031 4.84375 C 42.75 4.558594 41.261719 4.261719 40.773438 4.179688 C 39.347656 3.941406 39.101562 3.761719 39.5625 3.292969 C 39.917969 2.925781 40.449219 2.867188 42.746094 2.953125 C 46.601562 3.09375 49.457031 3.5625 53.195312 4.664062 C 55.648438 5.386719 59.574219 7.199219 60.710938 8.136719 C 61.007812 8.378906 61.375 8.628906 61.53125 8.691406 C 61.882812 8.832031 63.027344 9.707031 63.492188 10.195312 C 63.683594 10.394531 64.027344 10.933594 64.257812 11.386719 C 64.597656 12.070312 64.660156 12.355469 64.609375 12.992188 C 64.527344 13.957031 64.023438 14.578125 62.527344 15.542969 C 60.417969 16.898438 60.609375 16.652344 60.617188 18.070312 C 60.621094 18.757812 60.691406 19.609375 60.777344 19.960938 C 60.945312 20.6875 61.234375 20.882812 62.4375 21.074219 C 63.332031 21.214844 65.347656 21.257812 66.277344 21.152344 C 67.398438 21.019531 68.003906 21.207031 69.769531 22.214844 C 70.171875 22.445312 70.441406 22.675781 70.410156 22.761719 C 70.339844 22.960938 69.730469 23 69.28125 22.832031 C 68.824219 22.664062 68.183594 22.660156 68.183594 22.824219 C 68.183594 22.890625 68.4375 23.050781 68.75 23.175781 C 69.109375 23.320312 69.3125 23.476562 69.3125 23.601562 C 69.3125 23.914062 69.058594 23.925781 68.328125 23.644531 C 67.503906 23.328125 67.148438 23.304688 67.304688 23.578125 C 67.367188 23.683594 67.589844 23.890625 67.800781 24.042969 C 68.21875 24.335938 68.300781 24.628906 67.980469 24.691406 C 67.871094 24.714844 67.511719 24.59375 67.179688 24.425781 C 66.496094 24.078125 66.261719 24.117188 66.539062 24.523438 C 66.816406 24.925781 66.78125 25.128906 66.410156 25.308594 C 66.132812 25.441406 66.027344 25.449219 65.710938 25.359375 C 64.65625 25.058594 64.597656 24.375 65.550781 23.371094 C 66.152344 22.730469 66.203125 22.570312 65.832031 22.496094 C 65.433594 22.414062 65.28125 22.507812 64.671875 23.203125 C 64.175781 23.769531 64.097656 23.941406 64.085938 24.546875 C 64.074219 25.167969 64.117188 25.269531 64.515625 25.578125 C 65.015625 25.960938 65.070312 26.136719 64.722656 26.289062 C 64.527344 26.375 64.394531 26.339844 63.980469 26.105469 C 63.21875 25.675781 62.972656 25.304688 62.996094 24.625 C 63.003906 24.292969 62.960938 23.984375 62.898438 23.933594 C 62.835938 23.878906 62.0625 23.765625 61.183594 23.679688 C 60.304688 23.59375 59.289062 23.441406 58.925781 23.347656 C 58.351562 23.191406 58.21875 23.097656 57.890625 22.613281 C 57.683594 22.308594 57.304688 21.625 57.050781 21.097656 C 56.496094 19.949219 56.242188 19.667969 55.613281 19.492188 C 54.832031 19.28125 54.402344 19.328125 53.796875 19.703125 C 53.007812 20.191406 51.769531 21.546875 51.5625 22.144531 C 51.054688 23.621094 51.851562 24.550781 54.683594 25.769531 C 55.382812 26.074219 56.128906 26.441406 56.339844 26.585938 C 56.84375 26.9375 56.925781 27.386719 56.515625 27.519531 C 56.285156 27.59375 56.195312 27.59375 56.140625 27.515625 C 56.027344 27.351562 55.121094 26.769531 54.851562 26.6875 C 54.320312 26.53125 54.257812 26.785156 54.695312 27.304688 C 55.195312 27.894531 55.207031 27.945312 54.871094 28.125 C 54.4375 28.355469 54.167969 28.277344 53.71875 27.789062 C 53.480469 27.53125 53.226562 27.316406 53.160156 27.316406 C 53.023438 27.316406 53.128906 27.714844 53.382812 28.15625 C 53.578125 28.503906 53.34375 28.6875 52.703125 28.6875 C 52.324219 28.6875 52.210938 28.628906 51.957031 28.300781 C 51.519531 27.738281 51.1875 27.785156 51.332031 28.390625 C 51.453125 28.921875 51.285156 29.113281 50.6875 29.113281 C 50.367188 29.113281 50.292969 29.039062 50.0625 28.503906 C 49.601562 27.421875 49.699219 27.308594 51.523438 26.804688 C 52.9375 26.410156 53.421875 26.160156 52.953125 26.066406 C 52.644531 26.003906 51.226562 26.304688 50.382812 26.617188 C 49.144531 27.074219 48.953125 27.367188 49.152344 28.550781 C 49.226562 28.996094 49.195312 29.167969 49.023438 29.257812 C 48.683594 29.4375 48.3125 29.359375 48.167969 29.074219 C 47.949219 28.644531 47.898438 27.144531 48.074219 26.28125 C 48.257812 25.363281 48.238281 25.332031 46.941406 24.550781 C 46.066406 24.027344 45.449219 23.457031 45.453125 23.175781 C 45.453125 23.03125 45.640625 22.703125 45.875 22.445312 C 46.976562 21.207031 47.289062 20.359375 46.828125 19.882812 C 46.519531 19.570312 46.371094 19.542969 44.429688 19.488281 C 43.527344 19.464844 42.28125 19.425781 41.660156 19.40625 C 41.039062 19.386719 39.699219 19.347656 38.679688 19.320312 C 36.351562 19.253906 36.246094 19.242188 35.722656 18.984375 C 35.15625 18.707031 35.164062 18.566406 35.75 18.632812 C 36.59375 18.734375 36.886719 18.167969 36.054688 18.050781 C 35.480469 17.96875 35.3125 17.988281 34.972656 18.167969 C 34.5625 18.382812 34.554688 18.804688 34.941406 19.199219 C 35.105469 19.359375 35.589844 19.839844 36.023438 20.261719 C 38.105469 22.304688 38.523438 22.765625 38.78125 23.296875 C 39.042969 23.832031 39.042969 23.90625 38.796875 24.4375 C 38.648438 24.75 38.3125 25.269531 38.046875 25.59375 C 37.667969 26.046875 37.503906 26.441406 37.308594 27.320312 C 37.167969 27.945312 36.886719 28.777344 36.679688 29.167969 C 36.125 30.210938 35.65625 30.515625 35.125 30.175781 Z M 35.621094 26.488281 C 35.957031 26.386719 36.21875 26.164062 36.585938 25.675781 C 36.863281 25.308594 37.066406 24.941406 37.039062 24.867188 C 37.011719 24.789062 36.78125 24.6875 36.527344 24.640625 C 36.160156 24.578125 35.980469 24.59375 35.640625 24.730469 C 35.105469 24.9375 34.472656 25.621094 34.363281 26.097656 C 34.292969 26.417969 34.328125 26.46875 34.667969 26.542969 C 34.878906 26.585938 35.078125 26.625 35.109375 26.628906 C 35.136719 26.632812 35.371094 26.570312 35.621094 26.488281 Z M 51.222656 25.390625 C 51.285156 25.15625 49.246094 23.265625 48.644531 22.996094 C 48.050781 22.734375 47.578125 22.726562 47.398438 22.976562 C 47.222656 23.222656 47.460938 23.46875 47.878906 23.46875 C 48.058594 23.46875 48.246094 23.535156 48.304688 23.621094 C 48.363281 23.703125 48.648438 23.972656 48.945312 24.21875 C 49.238281 24.46875 49.480469 24.703125 49.480469 24.738281 C 49.480469 24.777344 49.746094 24.992188 50.074219 25.210938 C 50.6875 25.628906 51.136719 25.699219 51.222656 25.390625 Z M 21.871094 23.847656 C 22.683594 23.566406 22.992188 22.953125 22.351562 22.886719 C 22.046875 22.855469 20.929688 23.269531 20.339844 23.632812 C 19.9375 23.878906 19.867188 24.117188 20.179688 24.179688 C 20.402344 24.222656 21.304688 24.042969 21.871094 23.847656 Z M 35.910156 23.523438 C 36.730469 22.988281 36.878906 22.773438 36.597656 22.539062 C 36.394531 22.371094 35.636719 22.394531 35.371094 22.582031 C 35.074219 22.785156 34.488281 23.597656 34.488281 23.800781 C 34.488281 23.976562 34.621094 24.070312 34.886719 24.070312 C 34.992188 24.070312 35.453125 23.824219 35.910156 23.523438 Z M 63.558594 22.921875 C 63.671875 22.769531 63.144531 22.515625 62.21875 22.273438 C 61.820312 22.167969 61.363281 22.019531 61.207031 21.949219 C 60.796875 21.757812 60.523438 21.921875 60.71875 22.242188 C 61.011719 22.710938 63.316406 23.261719 63.558594 22.921875 Z M 50.253906 22.511719 C 50.363281 22.457031 50.449219 22.34375 50.449219 22.265625 C 50.449219 22.066406 49.449219 21.398438 48.921875 21.25 C 48.523438 21.136719 48.460938 21.136719 48.277344 21.269531 C 47.941406 21.515625 48.1875 21.828125 49.035156 22.230469 C 49.914062 22.648438 49.972656 22.664062 50.253906 22.511719 Z M 23.703125 21.785156 C 23.339844 21.355469 22.804688 20.992188 22.535156 20.988281 C 21.875 20.988281 22.085938 21.535156 22.921875 21.996094 C 23.367188 22.242188 23.457031 22.257812 23.664062 22.148438 C 23.863281 22.042969 23.871094 21.980469 23.703125 21.785156 Z M 34.78125 22.164062 C 35.023438 22.007812 34.636719 21.050781 34.214844 20.75 C 33.84375 20.484375 33.378906 20.40625 33.183594 20.574219 C 32.847656 20.859375 33.511719 21.988281 34.121094 22.179688 C 34.496094 22.292969 34.578125 22.292969 34.78125 22.164062 Z M 59.148438 21.335938 C 59.417969 21.070312 59.339844 20.296875 59 19.898438 C 58.675781 19.519531 58.503906 19.464844 58.21875 19.644531 C 57.847656 19.882812 57.835938 20.21875 58.195312 20.792969 C 58.390625 21.113281 58.585938 21.402344 58.621094 21.4375 C 58.742188 21.550781 58.976562 21.507812 59.148438 21.335938 Z M 50.742188 20.785156 C 50.773438 20.648438 50.734375 20.515625 50.652344 20.484375 C 50.574219 20.457031 50.195312 20.175781 49.8125 19.855469 C 49.429688 19.539062 49.023438 19.28125 48.90625 19.28125 C 48.113281 19.28125 47.996094 19.558594 48.554688 20.109375 C 49.460938 21.003906 50.621094 21.359375 50.742188 20.785156 Z M 51.847656 19.539062 C 52.289062 19.066406 50.914062 18.476562 50.449219 18.9375 C 50.242188 19.140625 50.484375 19.664062 50.820312 19.738281 C 51.21875 19.828125 51.65625 19.742188 51.847656 19.539062 Z M 23.195312 19.371094 C 23.289062 19.28125 23.363281 18.972656 23.363281 18.691406 C 23.363281 18.261719 23.292969 18.136719 22.960938 17.9375 C 22.566406 17.703125 22.550781 17.703125 22.3125 17.863281 C 22.035156 18.054688 21.980469 18.972656 22.230469 19.316406 C 22.417969 19.578125 22.953125 19.609375 23.195312 19.371094 Z M 33.53125 19.359375 C 33.980469 19.121094 33.871094 18.914062 33.25 18.847656 C 32.964844 18.816406 32.394531 18.667969 31.972656 18.523438 C 30.777344 18.101562 30.527344 18.167969 31.085938 18.75 C 31.414062 19.09375 32.449219 19.535156 32.914062 19.535156 C 33.070312 19.535156 33.347656 19.457031 33.53125 19.359375 Z M 47.285156 19.058594 C 47.488281 18.785156 46.714844 18.402344 46.257812 18.550781 C 45.976562 18.644531 46.082031 18.921875 46.457031 19.058594 C 46.910156 19.230469 47.164062 19.230469 47.285156 19.058594 Z M 57.015625 18.796875 C 57.53125 18.726562 57.800781 18.195312 57.433594 17.980469 C 57.078125 17.773438 56.496094 17.769531 56.65625 17.976562 C 56.972656 18.382812 56.574219 18.613281 55.863281 18.441406 C 55.367188 18.324219 55.304688 17.964844 55.703125 17.554688 C 55.941406 17.308594 56.003906 17.296875 56.628906 17.339844 C 57 17.371094 57.511719 17.417969 57.765625 17.449219 C 58.527344 17.542969 58.203125 17.3125 57.191406 17.039062 C 55.628906 16.621094 54.925781 16.847656 54.707031 17.84375 C 54.605469 18.292969 54.617188 18.308594 55.191406 18.578125 C 55.773438 18.847656 56.253906 18.90625 57.015625 18.796875 Z M 58.960938 18.359375 C 58.992188 18.085938 58.945312 17.910156 58.839844 17.910156 C 58.75 17.910156 58.667969 17.960938 58.660156 18.019531 C 58.652344 18.078125 58.617188 18.183594 58.582031 18.253906 C 58.300781 18.808594 58.300781 18.867188 58.609375 18.839844 C 58.855469 18.8125 58.921875 18.71875 58.960938 18.359375 Z M 43.683594 18.351562 C 43.964844 18.230469 44.023438 18.144531 43.941406 17.96875 C 43.796875 17.664062 43.375 17.683594 42.882812 18.011719 C 42.503906 18.265625 42.5 18.277344 42.792969 18.394531 C 43.183594 18.542969 43.246094 18.539062 43.683594 18.351562 Z M 50.449219 18.148438 C 50.449219 17.460938 47.90625 16.453125 47.414062 16.945312 C 47.03125 17.320312 48.257812 18.160156 49.519531 18.390625 C 50.121094 18.5 50.449219 18.414062 50.449219 18.148438 Z M 40.9375 18 C 41.894531 17.726562 42.425781 17.089844 42.085938 16.617188 C 41.867188 16.3125 40.902344 16.074219 40.414062 16.207031 C 39.8125 16.371094 39.164062 16.734375 39.164062 16.90625 C 39.164062 17.167969 39.472656 17.398438 39.820312 17.398438 C 40.257812 17.398438 40.375 17.1875 40.0625 16.953125 C 39.730469 16.703125 39.738281 16.652344 40.140625 16.539062 C 40.542969 16.425781 41.066406 16.578125 41.394531 16.902344 C 41.574219 17.078125 41.570312 17.160156 41.363281 17.421875 C 40.746094 18.207031 38 17.890625 38 17.03125 C 38 16.320312 39.070312 15.855469 41.824219 15.359375 C 43.507812 15.058594 44.292969 14.847656 44.566406 14.628906 C 44.953125 14.316406 44.722656 14.191406 44.15625 14.40625 C 43.460938 14.667969 42.078125 14.972656 41.257812 15.042969 C 40.101562 15.144531 38.128906 15.582031 37.679688 15.835938 C 36.082031 16.742188 36.613281 17.980469 38.679688 18.164062 C 39.371094 18.226562 40.398438 18.152344 40.9375 18 Z M 33.195312 17.941406 C 33.195312 17.917969 33.085938 17.785156 32.945312 17.644531 C 32.773438 17.46875 32.402344 17.3125 31.816406 17.171875 C 30.945312 16.960938 30.617188 16.960938 30.617188 17.183594 C 30.617188 17.308594 31.554688 17.726562 32.304688 17.933594 C 32.722656 18.046875 33.195312 18.050781 33.195312 17.941406 Z M 58.671875 17.738281 C 58.671875 17.691406 58.59375 17.65625 58.5 17.65625 C 58.40625 17.65625 58.375 17.691406 58.429688 17.738281 C 58.484375 17.789062 58.5625 17.824219 58.601562 17.824219 C 58.640625 17.824219 58.671875 17.789062 58.671875 17.738281 Z M 52.800781 17.621094 C 52.988281 17.363281 51.425781 16.371094 50.835938 16.371094 C 50.496094 16.371094 50.394531 16.582031 50.617188 16.8125 C 50.929688 17.136719 52.105469 17.738281 52.421875 17.738281 C 52.585938 17.738281 52.757812 17.683594 52.800781 17.621094 Z M 24.066406 17.015625 C 24.328125 16.886719 24.523438 16.652344 24.648438 16.320312 C 24.945312 15.523438 25.136719 15.265625 25.675781 14.941406 C 26.796875 14.261719 28.824219 14.207031 29.878906 14.824219 C 30.277344 15.058594 30.503906 15.050781 30.375 14.8125 C 30.164062 14.421875 29.4375 14.171875 28.191406 14.0625 C 25.804688 13.847656 25.222656 14.136719 24.449219 15.941406 C 24.273438 16.351562 24.171875 16.433594 23.605469 16.601562 C 22.847656 16.828125 22.128906 16.851562 21.316406 16.667969 C 20.578125 16.503906 20.445312 16.574219 20.964844 16.851562 C 21.816406 17.300781 23.324219 17.382812 24.066406 17.015625 Z M 44.625 17 C 44.726562 16.878906 44.855469 16.503906 44.914062 16.160156 C 45.003906 15.574219 44.988281 15.53125 44.671875 15.476562 C 44.480469 15.445312 44.125 15.472656 43.882812 15.53125 C 43.351562 15.667969 43.230469 16.046875 43.511719 16.738281 C 43.757812 17.351562 44.230469 17.460938 44.625 17 Z M 35.0625 16.789062 C 35.277344 16.605469 34.695312 16.453125 33.382812 16.351562 C 32.253906 16.265625 32.027344 16.269531 31.90625 16.371094 C 31.742188 16.515625 31.980469 16.699219 32.46875 16.804688 C 32.957031 16.910156 34.933594 16.898438 35.0625 16.789062 Z M 54.445312 16.78125 C 54.796875 16.597656 54.648438 16.371094 53.894531 15.941406 C 53.398438 15.660156 53.015625 15.515625 52.757812 15.515625 C 51.90625 15.515625 52.179688 16.109375 53.25 16.585938 C 53.976562 16.90625 54.15625 16.9375 54.445312 16.78125 Z M 29.398438 16.679688 C 29.992188 16.546875 30.296875 16.324219 30.296875 16.019531 C 30.296875 15.832031 30.285156 15.832031 29.820312 16.066406 C 29.390625 16.289062 29.269531 16.304688 28.578125 16.253906 C 27.457031 16.171875 27.070312 16.007812 27.070312 15.613281 C 27.070312 15.347656 27.144531 15.269531 27.472656 15.191406 C 27.691406 15.136719 27.984375 15.117188 28.117188 15.144531 C 28.402344 15.199219 28.441406 15.480469 28.183594 15.566406 C 27.882812 15.664062 28.386719 15.769531 28.714844 15.679688 C 29.105469 15.566406 29.082031 15.355469 28.65625 15.117188 C 28.15625 14.835938 27.554688 14.863281 26.960938 15.195312 C 26.078125 15.6875 25.847656 16.152344 26.363281 16.378906 C 27.238281 16.761719 28.46875 16.886719 29.398438 16.679688 Z M 58.316406 16.449219 C 58.378906 16.167969 57.851562 15.808594 57.488281 15.882812 C 56.902344 16.003906 57.394531 16.757812 58.015625 16.695312 C 58.15625 16.679688 58.289062 16.570312 58.316406 16.449219 Z M 48.644531 16.382812 C 49.902344 16.316406 50.308594 16.175781 49.886719 15.949219 C 49.695312 15.847656 49.390625 15.84375 48.011719 15.925781 C 46.398438 16.019531 45.761719 16.15625 46.003906 16.363281 C 46.128906 16.46875 46.921875 16.476562 48.644531 16.382812 Z M 23.285156 15.941406 C 23.429688 15.855469 23.589844 15.640625 23.632812 15.457031 C 23.699219 15.1875 23.644531 15.097656 23.3125 14.933594 C 22.609375 14.582031 20.660156 14.453125 20.109375 14.71875 C 19.910156 14.8125 19.816406 14.980469 19.816406 15.230469 C 19.816406 15.632812 20.042969 15.730469 20.199219 15.394531 C 20.253906 15.28125 20.554688 15.105469 20.863281 15.003906 C 21.355469 14.84375 21.5 14.832031 21.992188 14.917969 C 22.832031 15.066406 23.179688 15.535156 22.625 15.777344 C 22.429688 15.863281 22.261719 15.867188 21.898438 15.796875 C 21.375 15.691406 21.121094 15.792969 21.425781 15.984375 C 21.796875 16.222656 22.851562 16.195312 23.285156 15.941406 Z M 35.210938 15.601562 C 35.210938 15.394531 35.183594 15.386719 33.84375 15.363281 C 32.460938 15.335938 31.746094 15.4375 31.746094 15.652344 C 31.746094 15.785156 32.382812 15.832031 34.003906 15.824219 C 35.183594 15.816406 35.210938 15.808594 35.210938 15.601562 Z M 60.808594 15.078125 C 61.480469 14.476562 61.535156 14.339844 61.144531 14.257812 C 60.964844 14.222656 60.71875 14.300781 60.386719 14.496094 C 59.984375 14.734375 59.75 14.796875 59.085938 14.832031 C 58.464844 14.863281 58.257812 14.910156 58.214844 15.03125 C 58.105469 15.34375 58.355469 15.613281 58.875 15.726562 C 59.613281 15.890625 60.074219 15.738281 60.808594 15.078125 Z M 55.988281 15.5625 C 56.136719 15.355469 54.351562 14.0625 53.917969 14.0625 C 53.542969 14.0625 53.355469 14.25 53.546875 14.4375 C 53.734375 14.628906 54.492188 15.167969 55.027344 15.496094 C 55.386719 15.714844 55.851562 15.746094 55.988281 15.5625 Z M 50.105469 15.222656 C 50.289062 15.125 50.269531 15.089844 49.953125 15 C 49.6875 14.925781 49.078125 14.910156 47.796875 14.949219 C 46.816406 14.976562 45.996094 15 45.976562 15.003906 C 45.953125 15.003906 45.933594 15.078125 45.933594 15.167969 C 45.933594 15.398438 46.257812 15.429688 48.191406 15.378906 C 49.308594 15.351562 49.960938 15.296875 50.105469 15.222656 Z M 40.171875 14.550781 C 40.503906 14.476562 40.773438 14.394531 40.773438 14.375 C 40.773438 14.355469 40.539062 14.261719 40.25 14.171875 C 39.960938 14.082031 39.519531 13.847656 39.265625 13.652344 C 38.730469 13.242188 38.757812 12.996094 39.421875 12.164062 C 39.632812 11.894531 39.808594 11.652344 39.808594 11.628906 C 39.808594 11.535156 38.875 11.585938 38.726562 11.691406 C 38.644531 11.75 38.488281 11.957031 38.382812 12.152344 C 38.140625 12.605469 37.4375 12.921875 36.527344 12.996094 C 36.144531 13.027344 35.734375 13.082031 35.617188 13.121094 C 35.308594 13.222656 35.554688 13.496094 35.898438 13.433594 C 37.304688 13.191406 37.566406 13.171875 37.71875 13.296875 C 37.957031 13.496094 37.910156 13.535156 37.226562 13.722656 C 36.875 13.816406 36.582031 13.953125 36.582031 14.023438 C 36.582031 14.175781 36.753906 14.179688 37.578125 14.046875 C 38.128906 13.960938 38.246094 13.96875 38.484375 14.097656 C 38.742188 14.242188 38.742188 14.257812 38.457031 14.347656 C 37.65625 14.609375 37.222656 14.855469 37.382812 14.957031 C 37.546875 15.0625 38.636719 14.902344 40.171875 14.550781 Z M 34.714844 14.757812 C 35.851562 14.417969 35.167969 14.175781 33.46875 14.316406 C 32.21875 14.421875 31.441406 14.617188 31.714844 14.765625 C 32.1875 15.015625 33.867188 15.011719 34.714844 14.757812 Z M 52.542969 14.753906 C 52.542969 14.574219 52.128906 14.449219 51.972656 14.582031 C 51.820312 14.714844 52.019531 14.917969 52.296875 14.917969 C 52.433594 14.917969 52.542969 14.84375 52.542969 14.753906 Z M 19.027344 14.519531 C 19.21875 14.398438 19.113281 14.316406 18.132812 13.839844 C 16.964844 13.269531 16.503906 13.132812 16.234375 13.277344 C 16.023438 13.390625 16.863281 13.953125 17.851562 14.359375 C 18.683594 14.703125 18.730469 14.710938 19.027344 14.519531 Z M 56.738281 14.4375 C 56.738281 14.035156 55.929688 13.515625 55.195312 13.449219 C 54.585938 13.394531 54.746094 13.753906 55.535156 14.21875 C 56.367188 14.710938 56.738281 14.777344 56.738281 14.4375 Z M 24.328125 14.175781 C 24.328125 14.046875 22.507812 13.550781 22.027344 13.550781 C 21.671875 13.550781 21.484375 13.785156 21.695312 13.960938 C 21.78125 14.035156 22.320312 14.179688 22.890625 14.285156 C 23.945312 14.480469 24.328125 14.449219 24.328125 14.175781 Z M 50.140625 14.265625 C 50.382812 14.113281 50.289062 14.0625 49.613281 13.984375 C 48.949219 13.90625 46.441406 14.015625 46.222656 14.132812 C 45.835938 14.335938 46.320312 14.40625 48.113281 14.398438 C 49.503906 14.394531 49.992188 14.359375 50.140625 14.265625 Z M 59.910156 14.097656 C 60.332031 13.957031 60.542969 13.652344 60.308594 13.527344 C 60.191406 13.464844 59.878906 13.480469 59.285156 13.570312 C 58.816406 13.644531 58.230469 13.730469 57.984375 13.757812 C 57.507812 13.8125 57.394531 14.035156 57.746094 14.222656 C 57.992188 14.351562 59.390625 14.273438 59.910156 14.097656 Z M 42.992188 13.972656 C 43.507812 13.875 43.914062 13.515625 43.8125 13.238281 C 43.722656 12.996094 43.09375 12.867188 42.546875 12.976562 C 42.140625 13.058594 42.046875 13.042969 41.757812 12.859375 C 41.316406 12.578125 41.320312 12.214844 41.765625 12.089844 C 42.375 11.917969 43.574219 12.039062 44.308594 12.347656 C 44.671875 12.5 44.96875 12.679688 44.96875 12.75 C 44.96875 12.949219 45.363281 12.832031 45.421875 12.617188 C 45.453125 12.515625 45.394531 12.375 45.289062 12.308594 C 44.988281 12.117188 42.933594 11.738281 42.109375 11.726562 L 41.351562 11.710938 L 40.820312 12.265625 C 40.273438 12.847656 40.164062 13.242188 40.496094 13.46875 C 40.730469 13.625 42.066406 14.0625 42.324219 14.0625 C 42.421875 14.0625 42.722656 14.023438 42.992188 13.972656 Z M 33.4375 13.628906 C 33.707031 13.5625 33.921875 13.445312 33.921875 13.375 C 33.921875 13.191406 31.253906 13.222656 30.695312 13.414062 C 29.898438 13.691406 30.285156 13.804688 31.90625 13.777344 C 32.484375 13.765625 33.171875 13.699219 33.4375 13.628906 Z M 25.457031 13.414062 C 25.457031 13.335938 25.285156 13.292969 24.996094 13.292969 C 24.742188 13.292969 24.335938 13.210938 24.09375 13.109375 C 23.71875 12.953125 23.664062 12.875 23.734375 12.617188 C 23.777344 12.449219 23.867188 12.242188 23.929688 12.160156 C 24.003906 12.0625 23.953125 11.992188 23.78125 11.960938 C 23.132812 11.828125 22.695312 12.460938 23.03125 13.050781 C 23.273438 13.480469 24.234375 13.757812 24.996094 13.617188 C 25.25 13.570312 25.457031 13.480469 25.457031 13.414062 Z M 20.195312 13.511719 C 20.304688 13.359375 18.480469 12.457031 17.914062 12.378906 C 17.472656 12.320312 16.980469 12.527344 17.117188 12.71875 C 17.167969 12.785156 17.65625 13.019531 18.203125 13.238281 C 19.226562 13.644531 20.019531 13.753906 20.195312 13.511719 Z M 52.542969 13.464844 C 52.542969 13.417969 52.488281 13.378906 52.414062 13.378906 C 52.34375 13.378906 51.566406 13.089844 50.6875 12.738281 C 48.871094 12.007812 47.519531 11.609375 45.585938 11.230469 C 41.648438 10.460938 38.90625 10.316406 35.003906 10.675781 C 33.386719 10.824219 31.257812 11.304688 29.382812 11.945312 C 27.324219 12.644531 26.832031 12.976562 28.660156 12.425781 C 29.554688 12.160156 33.796875 11.183594 34.40625 11.105469 C 34.582031 11.082031 35.617188 11.015625 36.707031 10.960938 C 39.15625 10.839844 41.828125 10.960938 43.839844 11.289062 C 45.816406 11.613281 49.183594 12.496094 51.335938 13.261719 C 52.15625 13.550781 52.542969 13.617188 52.542969 13.464844 Z M 49.390625 13.386719 C 49.625 13.1875 48.035156 12.898438 47.160156 12.984375 C 46.679688 13.035156 46.578125 13.082031 46.578125 13.253906 C 46.578125 13.460938 46.601562 13.464844 47.941406 13.464844 C 48.691406 13.464844 49.339844 13.429688 49.390625 13.386719 Z M 62.566406 13.09375 C 63.289062 12.804688 62.796875 12.316406 62.003906 12.535156 C 61.382812 12.710938 61.28125 12.867188 61.667969 13.074219 C 61.96875 13.234375 62.207031 13.238281 62.566406 13.09375 Z M 32.59375 12.636719 C 32.863281 12.324219 32.429688 12.125 31.714844 12.234375 C 31.300781 12.296875 31.171875 12.367188 31.132812 12.546875 C 31.039062 12.96875 32.246094 13.042969 32.59375 12.636719 Z M 21.601562 12.542969 C 21.609375 12.507812 21.636719 12.414062 21.667969 12.335938 C 21.738281 12.136719 21.371094 11.886719 20.429688 11.492188 C 19.496094 11.101562 19.078125 11.066406 18.820312 11.367188 C 18.550781 11.679688 18.839844 11.945312 19.847656 12.304688 C 20.613281 12.578125 21.570312 12.710938 21.601562 12.542969 Z M 34.710938 12.308594 C 35.125 12.085938 34.804688 11.796875 34.148438 11.796875 C 33.699219 11.796875 33.589844 11.832031 33.546875 11.996094 C 33.519531 12.105469 33.535156 12.25 33.582031 12.316406 C 33.699219 12.476562 34.398438 12.472656 34.710938 12.308594 Z M 53.554688 12.160156 C 54.46875 11.890625 55.171875 11.527344 55.542969 11.136719 C 56.046875 10.613281 56.011719 10.34375 55.445312 10.34375 C 55.0625 10.34375 55.046875 10.363281 55.089844 10.792969 C 55.132812 11.210938 55.105469 11.25 54.707031 11.328125 C 54.191406 11.433594 54.125 11.40625 53.914062 11.003906 C 53.824219 10.835938 53.652344 10.679688 53.527344 10.660156 C 53.34375 10.625 53.320312 10.722656 53.410156 11.183594 C 53.511719 11.699219 53.492188 11.753906 53.179688 11.84375 C 52.996094 11.894531 52.742188 11.917969 52.617188 11.890625 C 52.304688 11.828125 52.15625 11.992188 52.390625 12.140625 C 52.628906 12.296875 53.078125 12.300781 53.554688 12.160156 Z M 36.988281 12.007812 C 37.21875 11.621094 36.117188 11.429688 35.710938 11.78125 C 35.570312 11.902344 35.597656 11.960938 35.847656 12.058594 C 36.308594 12.238281 36.863281 12.214844 36.988281 12.007812 Z M 15.257812 11.15625 C 15.796875 10.984375 16.105469 10.605469 15.828125 10.460938 C 15.5 10.285156 14.878906 10.476562 14.523438 10.863281 C 14.332031 11.074219 14.171875 11.261719 14.171875 11.285156 C 14.171875 11.382812 14.78125 11.3125 15.257812 11.15625 Z M 30.503906 10.554688 C 31.074219 9.972656 30.664062 9.339844 29.410156 8.84375 C 28.675781 8.558594 28.460938 8.511719 28.269531 8.59375 C 27.925781 8.746094 27.988281 8.859375 28.402344 8.839844 C 28.828125 8.816406 29.328125 8.917969 29.328125 9.023438 C 29.328125 9.066406 29.039062 9.175781 28.683594 9.273438 C 27.804688 9.511719 27.871094 9.632812 28.792969 9.488281 C 29.207031 9.421875 29.605469 9.386719 29.679688 9.410156 C 29.960938 9.503906 29.792969 9.675781 29.296875 9.792969 C 29.015625 9.859375 28.75 9.96875 28.710938 10.03125 C 28.65625 10.128906 28.792969 10.140625 29.390625 10.09375 C 30.0625 10.039062 30.132812 10.050781 30.132812 10.203125 C 30.132812 10.292969 29.933594 10.449219 29.691406 10.546875 C 29.316406 10.695312 29.285156 10.738281 29.488281 10.8125 C 29.882812 10.953125 30.199219 10.875 30.503906 10.554688 Z M 18.152344 10.417969 C 19.457031 10.066406 19.941406 9.359375 18.875 9.359375 C 18.050781 9.359375 17.074219 9.957031 17.074219 10.460938 C 17.074219 10.691406 17.140625 10.6875 18.152344 10.417969 Z M 49.355469 10.546875 C 50.035156 10.351562 51.09375 9.519531 51.09375 9.175781 C 51.09375 9.011719 50.433594 8.847656 49.796875 8.847656 C 49.234375 8.847656 49.148438 9.046875 49.652344 9.191406 C 49.867188 9.25 49.96875 9.351562 49.933594 9.472656 C 49.882812 9.667969 49.675781 9.6875 48.714844 9.570312 C 47.996094 9.484375 48.03125 9.660156 48.757812 9.785156 C 49.195312 9.863281 49.320312 9.929688 49.320312 10.09375 C 49.320312 10.257812 49.21875 10.316406 48.835938 10.355469 C 48.300781 10.410156 48.203125 10.523438 48.636719 10.582031 C 48.789062 10.605469 48.941406 10.625 48.96875 10.632812 C 48.996094 10.636719 49.171875 10.597656 49.355469 10.546875 Z M 32.886719 10.339844 C 33.425781 10.191406 33.378906 10.070312 32.648438 9.707031 L 32.230469 9.5 L 32.230469 9.984375 C 32.230469 10.253906 32.269531 10.472656 32.320312 10.472656 C 32.371094 10.472656 32.625 10.410156 32.886719 10.339844 Z M 46.617188 10.277344 C 46.65625 10.21875 46.609375 9.984375 46.515625 9.753906 L 46.339844 9.339844 L 45.8125 9.6875 C 45.042969 10.199219 45.128906 10.324219 46.28125 10.375 C 46.425781 10.378906 46.578125 10.335938 46.617188 10.277344 Z M 44.273438 9.679688 C 44.730469 9.433594 45.222656 9.078125 45.367188 8.890625 C 45.691406 8.46875 45.796875 7.898438 45.578125 7.753906 C 45.386719 7.632812 44.671875 7.617188 44.34375 7.726562 C 44.03125 7.832031 44.265625 7.992188 44.726562 7.992188 C 45.195312 7.992188 45.304688 8.070312 45.179688 8.328125 C 45.089844 8.503906 45.007812 8.519531 44.292969 8.484375 C 43.417969 8.4375 43.316406 8.554688 44.0625 8.746094 C 44.726562 8.917969 44.558594 9.152344 43.792969 9.121094 C 43.105469 9.089844 42.996094 9.230469 43.597656 9.375 C 43.820312 9.429688 44 9.523438 44 9.585938 C 44 9.644531 43.820312 9.761719 43.597656 9.835938 C 43.207031 9.972656 43.058594 10.128906 43.320312 10.128906 C 43.390625 10.128906 43.820312 9.925781 44.273438 9.679688 Z M 37.015625 9.871094 C 37.207031 9.871094 37.238281 9.816406 37.152344 9.636719 C 37.039062 9.394531 36.785156 9.1875 36.605469 9.1875 C 36.457031 9.1875 36.109375 9.8125 36.210938 9.898438 C 36.257812 9.9375 36.402344 9.949219 36.535156 9.921875 C 36.664062 9.894531 36.882812 9.871094 37.015625 9.871094 Z M 15.503906 9.703125 C 15.859375 9.699219 17.023438 9.148438 17.328125 8.835938 C 17.453125 8.703125 17.558594 8.507812 17.558594 8.398438 C 17.558594 8.058594 16.695312 7.441406 15.867188 7.183594 C 14.003906 6.605469 11.59375 7.238281 11.59375 8.304688 C 11.59375 9.179688 13.027344 9.851562 14.65625 9.742188 C 14.96875 9.71875 15.347656 9.703125 15.503906 9.703125 Z M 13.625 9.191406 C 11.929688 9.011719 12.105469 8.113281 13.9375 7.597656 C 14.90625 7.324219 15.707031 7.359375 16.351562 7.699219 C 16.835938 7.957031 16.855469 8.148438 16.429688 8.589844 C 15.902344 9.136719 14.976562 9.335938 13.625 9.191406 Z M 15.320312 8.492188 C 15.730469 8.183594 15.617188 7.992188 15.023438 7.992188 C 14.46875 7.992188 13.527344 8.285156 13.527344 8.460938 C 13.527344 8.53125 13.523438 8.617188 13.519531 8.652344 C 13.503906 8.742188 14.183594 8.820312 14.621094 8.777344 C 14.820312 8.757812 15.136719 8.628906 15.320312 8.492188 Z M 39.546875 9.148438 C 40.105469 8.410156 40.226562 7.851562 39.921875 7.460938 C 39.613281 7.066406 38.941406 6.8125 38.609375 6.960938 C 38.277344 7.105469 38.449219 7.257812 39.089844 7.382812 C 39.519531 7.464844 39.648438 7.535156 39.648438 7.699219 C 39.648438 7.902344 39.625 7.90625 38.757812 7.851562 C 37.976562 7.800781 37.878906 7.8125 37.96875 7.933594 C 38.023438 8.011719 38.351562 8.121094 38.699219 8.175781 C 39.148438 8.246094 39.324219 8.320312 39.324219 8.441406 C 39.324219 8.589844 39.25 8.601562 38.613281 8.550781 C 37.527344 8.464844 37.480469 8.746094 38.5625 8.890625 C 38.804688 8.921875 39.003906 8.988281 39.003906 9.03125 C 39.003906 9.199219 38.664062 9.445312 38.433594 9.445312 C 38.113281 9.445312 38.132812 9.589844 38.46875 9.6875 C 38.914062 9.820312 39.117188 9.71875 39.546875 9.148438 Z M 35.136719 9.570312 C 35.246094 9.5 35.367188 9.183594 35.40625 8.867188 C 35.464844 8.390625 35.417969 8.242188 35.144531 8.011719 C 34.863281 7.773438 34.722656 7.734375 34.179688 7.734375 C 33.410156 7.734375 33.167969 7.878906 33.796875 7.957031 C 34.046875 7.992188 34.300781 8.058594 34.367188 8.109375 C 34.566406 8.269531 34.503906 8.417969 34.238281 8.417969 C 34.097656 8.417969 33.832031 8.460938 33.648438 8.511719 C 33.382812 8.589844 33.363281 8.621094 33.539062 8.683594 C 33.664062 8.722656 33.960938 8.757812 34.207031 8.757812 C 34.542969 8.761719 34.648438 8.800781 34.648438 8.929688 C 34.648438 9.027344 34.554688 9.101562 34.4375 9.101562 C 34.324219 9.101562 34.085938 9.160156 33.914062 9.226562 C 33.617188 9.34375 33.625 9.355469 34.125 9.410156 C 34.414062 9.441406 34.648438 9.519531 34.648438 9.582031 C 34.648438 9.738281 34.882812 9.734375 35.136719 9.570312 Z M 4.558594 9.28125 C 5.050781 9.058594 5.1875 8.765625 4.914062 8.542969 C 4.152344 7.929688 2.199219 8.46875 2.828125 9.121094 C 3.222656 9.527344 3.886719 9.589844 4.558594 9.28125 Z M 3.402344 9.171875 C 2.777344 8.839844 3.683594 8.316406 4.339844 8.632812 C 4.726562 8.820312 4.746094 8.960938 4.410156 9.140625 C 4.105469 9.300781 3.671875 9.3125 3.402344 9.171875 Z M 7.472656 9.445312 C 7.960938 9.347656 8.011719 9.144531 7.574219 9.019531 C 7.152344 8.898438 6.984375 8.910156 6.6875 9.066406 C 6.5 9.167969 6.476562 9.242188 6.601562 9.363281 C 6.792969 9.554688 6.894531 9.5625 7.472656 9.445312 Z M 60.359375 9.363281 C 60.628906 9.203125 60.628906 9.1875 60.316406 8.957031 C 59.652344 8.472656 56.378906 6.941406 54.105469 6.050781 C 52.070312 5.257812 47.75 4.058594 46.933594 4.058594 C 46.453125 4.058594 46.195312 4.210938 46.394531 4.375 C 46.453125 4.421875 47.335938 4.664062 48.355469 4.914062 C 50.621094 5.464844 52.632812 6.152344 55.304688 7.289062 C 57.132812 8.0625 59.480469 9.285156 59.480469 9.460938 C 59.480469 9.59375 60.078125 9.527344 60.359375 9.363281 Z M 10.113281 8.578125 C 10.078125 8.386719 9.96875 8.28125 9.78125 8.261719 C 9.554688 8.242188 9.496094 8.292969 9.496094 8.523438 C 9.496094 8.832031 9.792969 9.066406 10.023438 8.941406 C 10.101562 8.902344 10.144531 8.738281 10.113281 8.578125 Z M 19.113281 7.605469 C 18.992188 7.4375 18.699219 7.46875 18.457031 7.675781 C 18.324219 7.789062 18.34375 7.84375 18.527344 7.90625 C 18.84375 8.007812 19.253906 7.800781 19.113281 7.605469 Z M 21.382812 6.953125 C 23.453125 6.359375 25.140625 5.578125 25.769531 4.925781 C 26.382812 4.285156 25.867188 4.234375 24 4.75 C 21.375 5.472656 18.65625 7.222656 20.152344 7.222656 C 20.320312 7.222656 20.871094 7.101562 21.382812 6.953125 Z M 18.054688 6.601562 C 18.574219 6.3125 18.90625 6.023438 18.789062 5.964844 C 18.667969 5.898438 17.398438 6.570312 17.398438 6.699219 C 17.398438 6.851562 17.683594 6.808594 18.054688 6.601562 Z M 17.429688 5.488281 C 18.839844 4.628906 20 3.601562 20.234375 3.003906 C 20.453125 2.445312 20.492188 2.089844 20.335938 2.089844 C 20.054688 2.089844 18.121094 3.300781 17.589844 3.808594 C 17.167969 4.214844 16.269531 5.660156 16.269531 5.933594 C 16.269531 6.125 16.585938 6.003906 17.429688 5.488281 Z M 3.253906 13.441406 C 3.09375 13.332031 2.65625 12.277344 2.476562 11.582031 C 2.390625 11.234375 2.425781 11.175781 2.859375 10.953125 C 3.292969 10.734375 3.460938 10.710938 4.683594 10.6875 C 5.425781 10.671875 6.902344 10.554688 7.964844 10.433594 C 11.144531 10.058594 11.035156 10.0625 11.363281 10.398438 C 11.804688 10.84375 12.199219 11.746094 12.085938 12.042969 C 12.023438 12.203125 11.832031 12.347656 11.59375 12.410156 C 11.03125 12.558594 10.632812 12.347656 10.609375 11.890625 C 10.589844 11.429688 10.425781 11.132812 10.167969 11.085938 C 10.003906 11.058594 9.96875 11.199219 10.007812 11.714844 C 10.0625 12.375 10.0625 12.378906 9.605469 12.460938 C 9.015625 12.566406 8.894531 12.496094 8.691406 11.925781 C 8.515625 11.433594 8.097656 11.09375 7.835938 11.230469 C 7.738281 11.285156 7.753906 11.566406 7.882812 12.003906 C 8.113281 12.785156 7.984375 12.976562 7.261719 12.933594 C 6.894531 12.910156 6.828125 12.847656 6.644531 12.351562 C 6.316406 11.464844 6.28125 11.410156 6.027344 11.410156 C 5.753906 11.410156 5.722656 11.746094 5.9375 12.339844 C 6.117188 12.828125 6 13.050781 5.578125 13.019531 C 5.355469 13 5.171875 12.875 4.996094 12.605469 C 4.671875 12.113281 4.539062 12.011719 4.234375 12.011719 C 4.03125 12.011719 3.996094 12.125 4.035156 12.675781 C 4.0625 13.039062 4.027344 13.382812 3.960938 13.445312 C 3.800781 13.578125 3.453125 13.578125 3.253906 13.441406 Z M 24.8125 11.195312 C 24.699219 11.125 24.636719 11.054688 24.671875 11.042969 C 24.707031 11.035156 25.117188 10.859375 25.582031 10.65625 C 26.460938 10.273438 26.945312 10.226562 27.046875 10.507812 C 27.105469 10.671875 26.804688 10.839844 25.863281 11.160156 C 25.277344 11.359375 25.078125 11.367188 24.8125 11.195312 Z M 24.8125 11.195312 "/>
</g>
</svg>
