<?xml version="1.0" encoding="UTF-8"?>
<svg xmlns="http://www.w3.org/2000/svg" xmlns:xlink="http://www.w3.org/1999/xlink" width="120pt" height="90pt" viewBox="0 0 120 90" version="1.1">
<g id="surface1">
<path style=" stroke:none;fill-rule:nonzero;fill:rgb(0%,0%,0%);fill-opacity:1;" d="M 14.132812 17.449219 C 13.964844 17.390625 13.914062 17.191406 13.9375 16.679688 C 13.96875 16.03125 13.949219 15.988281 13.636719 15.988281 C 13.265625 15.988281 13.046875 16.214844 12.828125 16.828125 C 12.679688 17.257812 12.355469 17.46875 11.972656 17.394531 C 11.601562 17.316406 11.507812 17.101562 11.695312 16.753906 C 11.894531 16.386719 11.90625 15.730469 11.714844 15.730469 C 11.410156 15.730469 10.855469 16.046875 10.4375 16.457031 C 10.144531 16.746094 9.882812 16.894531 9.640625 16.910156 C 8.984375 16.960938 9.0625 16.703125 9.921875 15.996094 C 11.113281 15.011719 12.773438 12.867188 12.878906 12.179688 C 12.933594 11.820312 12.40625 12.027344 11.890625 12.5625 C 8.304688 16.3125 7.816406 16.710938 7.34375 16.246094 C 7.203125 16.105469 7.285156 15.988281 7.796875 15.582031 C 8.570312 14.972656 8.671875 14.828125 8.40625 14.710938 C 8.113281 14.582031 7.476562 14.910156 6.953125 15.460938 C 6.664062 15.761719 6.464844 15.882812 6.300781 15.847656 C 5.816406 15.75 5.867188 15.488281 6.472656 15.007812 C 6.800781 14.746094 7.023438 14.507812 6.964844 14.476562 C 6.910156 14.445312 6.496094 14.605469 6.046875 14.824219 C 5.378906 15.15625 5.1875 15.210938 4.996094 15.128906 C 4.605469 14.957031 4.726562 14.804688 5.648438 14.316406 C 6.847656 13.679688 6.828125 13.507812 5.601562 13.839844 C 5.273438 13.929688 4.828125 14.101562 4.613281 14.226562 C 4.140625 14.496094 3.867188 14.507812 3.625 14.265625 C 3.472656 14.117188 3.511719 14.050781 3.898438 13.835938 C 4.296875 13.613281 6.21875 12.933594 8.183594 12.320312 C 8.542969 12.207031 9.277344 11.890625 9.820312 11.617188 C 10.628906 11.214844 10.757812 11.113281 10.53125 11.066406 C 10.363281 11.03125 9.882812 11.109375 9.324219 11.257812 C 8.058594 11.59375 4.796875 12.730469 3.996094 13.113281 C 3.289062 13.453125 2.828125 13.457031 2.828125 13.121094 C 2.828125 12.976562 3.105469 12.816406 3.875 12.527344 C 4.453125 12.308594 4.925781 12.074219 4.925781 12.003906 C 4.925781 11.828125 4.300781 11.851562 3.589844 12.050781 C 2.90625 12.246094 2.402344 12.273438 2.300781 12.117188 C 2.171875 11.921875 2.367188 11.800781 3.257812 11.53125 C 4.199219 11.246094 4.546875 10.976562 4.210938 10.789062 C 4.046875 10.695312 3.871094 10.703125 3.246094 10.8125 C 2.652344 10.921875 2.429688 10.929688 2.253906 10.851562 C 1.871094 10.683594 1.980469 10.617188 2.867188 10.476562 C 3.332031 10.402344 3.820312 10.308594 3.953125 10.261719 C 4.429688 10.097656 3.605469 10.050781 2.839844 10.199219 C 2.148438 10.332031 2.089844 10.328125 1.898438 10.195312 C 1.785156 10.113281 1.71875 10.007812 1.746094 9.960938 C 1.878906 9.738281 5.195312 9.3125 7.746094 9.1875 C 9.460938 9.105469 9.988281 8.996094 9.808594 8.746094 C 9.730469 8.636719 9.488281 8.625 8.308594 8.675781 C 6.972656 8.730469 6.867188 8.722656 6.234375 8.511719 C 5.460938 8.25 5.414062 8.109375 5.875 7.421875 C 6.046875 7.167969 6.390625 6.566406 6.640625 6.082031 C 7.097656 5.203125 7.105469 5.195312 7.941406 4.882812 C 10.738281 3.839844 10.332031 3.9375 11.984375 3.917969 C 14.007812 3.890625 13.972656 3.871094 14.066406 5.308594 L 14.136719 6.453125 L 13.359375 7.054688 C 12.933594 7.386719 12.304688 7.875 11.964844 8.136719 C 11.289062 8.660156 11.058594 9.050781 11.054688 9.683594 C 11.050781 10.0625 11.113281 10.128906 11.816406 10.5 C 13.289062 11.277344 13.65625 11.382812 14.957031 11.417969 C 15.804688 11.4375 16.425781 11.398438 17.203125 11.273438 C 18.265625 11.101562 18.28125 11.09375 18.59375 10.65625 C 19.75 9.035156 19.730469 8.84375 18.230469 7.308594 C 17.011719 6.0625 16.914062 5.882812 16.984375 5.027344 C 17.011719 4.660156 17.171875 4.515625 18.804688 3.359375 C 20.769531 1.96875 20.933594 1.875 21.484375 1.875 C 21.996094 1.875 22.121094 2.097656 21.78125 2.40625 C 21.394531 2.75 21.582031 2.804688 22.386719 2.578125 C 23.230469 2.339844 23.574219 2.339844 23.714844 2.570312 C 23.792969 2.707031 23.695312 2.808594 23.320312 2.992188 C 22.71875 3.285156 22.644531 3.542969 23.183594 3.476562 C 23.382812 3.453125 23.777344 3.382812 24.058594 3.324219 C 24.476562 3.230469 24.613281 3.230469 24.824219 3.324219 C 25.210938 3.496094 25.140625 3.570312 24.351562 3.824219 C 23.140625 4.210938 23.574219 4.527344 24.855469 4.1875 C 26.117188 3.855469 26.5 4.191406 25.441406 4.699219 C 24.941406 4.9375 24.886719 4.996094 25.125 5.023438 C 25.285156 5.039062 25.589844 4.992188 25.804688 4.917969 C 26.292969 4.75 26.597656 4.746094 26.914062 4.914062 C 27.246094 5.089844 27.097656 5.25 26.394531 5.480469 C 25.929688 5.628906 25.863281 5.675781 26.09375 5.703125 C 26.253906 5.722656 26.558594 5.675781 26.773438 5.601562 C 27.910156 5.207031 28.234375 5.6875 27.144531 6.152344 C 26.457031 6.449219 26.542969 6.621094 27.253906 6.375 C 27.46875 6.296875 27.757812 6.238281 27.894531 6.238281 C 28.242188 6.238281 28.214844 6.691406 27.859375 6.851562 C 27.386719 7.070312 26.042969 7.40625 24.511719 7.6875 C 22.476562 8.066406 21.902344 8.203125 21.582031 8.390625 C 21.339844 8.535156 21.332031 8.566406 21.535156 8.636719 C 21.9375 8.773438 22.90625 8.613281 25.921875 7.910156 C 26.792969 7.707031 27.828125 7.519531 28.078125 7.519531 C 28.378906 7.519531 28.527344 7.894531 28.316406 8.105469 C 28.21875 8.199219 27.976562 8.289062 27.777344 8.304688 C 27.132812 8.355469 27.394531 8.5 28.078125 8.476562 C 28.671875 8.453125 28.757812 8.472656 28.84375 8.660156 C 29.039062 9.074219 28.589844 9.292969 27.769531 9.183594 C 27.550781 9.15625 27.324219 9.171875 27.265625 9.21875 C 27.207031 9.269531 27.417969 9.332031 27.773438 9.367188 C 28.726562 9.457031 28.972656 9.554688 28.917969 9.8125 C 28.863281 10.0625 28.707031 10.082031 27.617188 9.96875 C 26.957031 9.902344 26.761719 10.035156 27.375 10.132812 C 28.425781 10.300781 28.804688 10.449219 28.753906 10.675781 C 28.699219 10.925781 28.503906 10.9375 27.378906 10.757812 C 26.085938 10.550781 26.316406 10.867188 27.726562 11.234375 C 28.632812 11.46875 28.890625 11.6875 28.546875 11.933594 C 28.363281 12.070312 28.285156 12.0625 27.515625 11.8125 C 27.058594 11.660156 26.613281 11.539062 26.527344 11.539062 C 26.15625 11.539062 26.421875 11.777344 27.1875 12.136719 C 27.792969 12.421875 27.976562 12.5625 27.894531 12.671875 C 27.738281 12.882812 27.484375 12.859375 26.84375 12.570312 C 26.308594 12.324219 25.5625 12.222656 25.5625 12.390625 C 25.5625 12.433594 25.921875 12.703125 26.367188 12.984375 C 27.230469 13.535156 27.320312 13.675781 26.917969 13.855469 C 26.699219 13.949219 26.558594 13.902344 25.894531 13.523438 C 25.472656 13.277344 25.042969 13.078125 24.9375 13.078125 C 24.832031 13.078125 24.667969 13.171875 24.574219 13.28125 C 24.417969 13.460938 24.484375 13.542969 25.140625 13.96875 C 25.945312 14.496094 26.019531 14.621094 25.625 14.796875 C 25.402344 14.894531 25.265625 14.851562 24.617188 14.484375 C 24.203125 14.25 23.613281 13.898438 23.304688 13.707031 C 21.875 12.816406 19.679688 11.625 19.46875 11.625 C 19.292969 11.625 19.257812 11.691406 19.328125 11.878906 C 19.460938 12.226562 20.089844 12.734375 21.4375 13.582031 C 24.140625 15.28125 24.433594 15.507812 24.109375 15.675781 C 23.96875 15.75 23.734375 15.660156 23.164062 15.320312 C 22.746094 15.070312 22.355469 14.894531 22.296875 14.925781 C 22.164062 14.996094 22.546875 15.402344 22.890625 15.554688 C 23.222656 15.699219 23.214844 15.976562 22.875 16.046875 C 22.613281 16.101562 21.832031 15.726562 21.652344 15.460938 C 21.609375 15.398438 21.53125 15.367188 21.476562 15.390625 C 21.421875 15.417969 21.535156 15.605469 21.722656 15.808594 C 21.976562 16.082031 22.023438 16.214844 21.902344 16.316406 C 21.628906 16.546875 21.265625 16.523438 21.0625 16.265625 C 20.828125 15.964844 20.183594 15.558594 19.9375 15.558594 C 19.667969 15.558594 19.714844 15.734375 20.089844 16.105469 C 20.503906 16.515625 20.453125 16.800781 19.964844 16.800781 C 19.691406 16.800781 19.5 16.683594 19.160156 16.328125 C 18.910156 16.070312 18.636719 15.859375 18.546875 15.863281 C 18.269531 15.875 18.273438 16.140625 18.558594 16.457031 C 18.882812 16.820312 18.683594 17.183594 18.15625 17.183594 C 17.757812 17.183594 17.691406 17.125 17.363281 16.472656 C 17.183594 16.125 17.007812 15.945312 16.851562 15.945312 C 16.566406 15.945312 16.582031 16.363281 16.882812 16.875 C 17.058594 17.167969 17.046875 17.214844 16.785156 17.320312 C 16.324219 17.496094 15.933594 17.332031 15.8125 16.90625 C 15.679688 16.445312 15.402344 16.0625 15.242188 16.113281 C 15.175781 16.136719 15.066406 16.414062 15.003906 16.734375 C 14.859375 17.453125 14.652344 17.625 14.132812 17.449219 Z M 17.542969 15.09375 C 19.472656 14.886719 20.5625 14.683594 20.5625 14.535156 C 20.5625 14.425781 19.84375 14.425781 18.386719 14.539062 C 17.765625 14.585938 16.277344 14.628906 15.082031 14.628906 C 12.503906 14.632812 12.339844 14.648438 12.339844 14.921875 C 12.339844 15.414062 14.046875 15.472656 17.542969 15.09375 Z M 15.554688 13.859375 C 15.683594 13.730469 15.550781 13.027344 15.324219 12.652344 C 15.226562 12.488281 14.652344 12.335938 14.476562 12.429688 C 14.425781 12.457031 14.347656 12.792969 14.308594 13.179688 C 14.242188 13.765625 14.273438 13.894531 14.503906 13.980469 C 14.832031 14.109375 15.363281 14.046875 15.554688 13.859375 Z M 9.542969 13.804688 C 9.773438 13.488281 8.371094 12.8125 7.75 12.9375 C 7.339844 13.023438 7.472656 13.253906 8.128906 13.601562 C 8.777344 13.945312 9.378906 14.03125 9.542969 13.804688 Z M 18.25 13.445312 C 18.140625 13.082031 17.375 12.375 17.167969 12.441406 C 16.824219 12.554688 17.125 13.390625 17.617188 13.695312 C 18 13.925781 18.355469 13.789062 18.25 13.445312 Z M 24.160156 12.398438 C 24.613281 12.113281 24.929688 11.636719 25.304688 10.683594 C 25.445312 10.332031 25.664062 9.777344 25.792969 9.449219 C 26.039062 8.824219 26.015625 8.71875 25.625 8.71875 C 25.351562 8.71875 24.917969 9.207031 24.917969 9.515625 C 24.917969 9.9375 24.066406 11.488281 23.519531 12.054688 C 22.746094 12.867188 23.105469 13.0625 24.160156 12.398438 Z M 10.550781 12.433594 C 11.0625 12.125 11.171875 11.933594 10.894531 11.839844 C 10.65625 11.761719 9.28125 12.46875 9.382812 12.617188 C 9.535156 12.824219 10.03125 12.75 10.550781 12.433594 Z M 6.34375 11.488281 C 6.558594 11.285156 5.707031 10.050781 5.324219 10.011719 C 5.074219 9.988281 5.046875 10.027344 5.132812 10.355469 C 5.242188 10.777344 5.867188 11.625 6.066406 11.625 C 6.136719 11.625 6.261719 11.5625 6.34375 11.488281 Z M 22.414062 11.371094 C 22.554688 11.140625 22.257812 10.882812 21.664062 10.71875 C 21.191406 10.589844 21.148438 10.59375 20.824219 10.765625 L 20.480469 10.949219 L 21.085938 11.246094 C 21.757812 11.574219 22.265625 11.625 22.414062 11.371094 Z M 8.789062 10.832031 C 9.496094 10.640625 9.921875 10.398438 9.730469 10.296875 C 9.582031 10.21875 7.699219 10.515625 7.488281 10.652344 C 7.246094 10.804688 7.421875 11.027344 7.785156 11.027344 C 7.949219 11.027344 8.398438 10.941406 8.789062 10.832031 Z M 8.390625 9.972656 C 8.90625 9.902344 9.214844 9.808594 9.25 9.71875 C 9.292969 9.597656 9.167969 9.574219 8.574219 9.574219 C 7.589844 9.574219 7.019531 9.699219 7.019531 9.914062 C 7.019531 10.117188 7.261719 10.128906 8.390625 9.972656 Z M 23.878906 9.730469 C 24.050781 9.4375 23.550781 9.292969 22.589844 9.347656 C 21.894531 9.390625 21.542969 9.496094 21.535156 9.667969 C 21.527344 9.777344 22.296875 9.902344 23.011719 9.910156 C 23.648438 9.914062 23.78125 9.886719 23.878906 9.730469 Z M 8.4375 7.929688 C 8.890625 7.691406 8.464844 7.179688 7.90625 7.292969 C 7.773438 7.320312 7.574219 7.445312 7.46875 7.570312 C 7.300781 7.765625 7.316406 7.8125 7.582031 7.914062 C 7.957031 8.058594 8.1875 8.066406 8.4375 7.929688 Z M 11.316406 7.453125 C 12.238281 6.886719 12.269531 6.851562 12.652344 5.914062 C 12.9375 5.207031 12.996094 4.925781 12.863281 4.855469 C 12.582031 4.707031 12.21875 4.832031 12.101562 5.125 C 11.839844 5.75 11.179688 6.714844 10.902344 6.875 C 10.078125 7.351562 9.632812 8.035156 10.148438 8.035156 C 10.273438 8.035156 10.800781 7.773438 11.316406 7.453125 Z M 20.535156 7.703125 C 20.769531 7.625 20.5 7.242188 19.117188 5.703125 C 18.355469 4.847656 18.046875 4.792969 18.210938 5.542969 C 18.328125 6.058594 18.835938 6.722656 19.621094 7.371094 C 20.140625 7.796875 20.191406 7.816406 20.535156 7.703125 Z M 22.964844 7.101562 C 23.773438 6.75 23.484375 6.613281 22.488281 6.882812 C 21.714844 7.089844 21.574219 7.171875 21.800781 7.292969 C 22.015625 7.40625 22.429688 7.339844 22.964844 7.101562 Z M 25.398438 6.675781 C 25.398438 6.546875 24.898438 5.945312 24.675781 5.808594 C 24.5625 5.738281 24.175781 5.394531 23.816406 5.039062 C 23.171875 4.40625 21.617188 3.328125 21.347656 3.328125 C 21.078125 3.328125 21.210938 3.546875 21.746094 3.96875 C 22.5625 4.617188 24.039062 5.898438 24.351562 6.238281 C 24.507812 6.402344 24.707031 6.585938 24.796875 6.644531 C 24.980469 6.765625 25.398438 6.789062 25.398438 6.675781 Z M 10.050781 6.5625 C 10.15625 6.507812 10.246094 6.390625 10.246094 6.304688 C 10.246094 6.171875 10.09375 6.152344 9.125 6.152344 C 7.980469 6.152344 7.652344 6.238281 7.984375 6.449219 C 8.304688 6.65625 9.730469 6.730469 10.050781 6.5625 Z M 22.375 6.070312 C 22.789062 5.875 22.859375 5.800781 22.707031 5.714844 C 22.363281 5.53125 20.550781 6.019531 20.796875 6.230469 C 21.007812 6.410156 21.835938 6.328125 22.375 6.070312 Z M 9.921875 5.511719 C 10.167969 5.355469 10 4.953125 9.691406 4.953125 C 9.160156 4.953125 8.953125 5.066406 8.953125 5.347656 C 8.953125 5.597656 9.007812 5.640625 9.335938 5.640625 C 9.550781 5.640625 9.8125 5.582031 9.921875 5.511719 Z M 20.703125 5.03125 C 21.347656 4.914062 21.59375 4.691406 21.3125 4.484375 C 21.113281 4.34375 21.0625 4.34375 20.351562 4.511719 C 19.835938 4.632812 19.59375 4.738281 19.59375 4.851562 C 19.59375 5.144531 19.855469 5.1875 20.703125 5.03125 Z M 13.601562 10.59375 C 13.011719 10.433594 12.503906 10.128906 11.925781 9.59375 C 11.628906 9.320312 11.628906 9.316406 12.046875 8.867188 C 12.277344 8.621094 12.925781 8.09375 13.488281 7.695312 C 14.460938 7.007812 14.511719 6.945312 14.542969 6.453125 C 14.558594 6.171875 14.621094 5.449219 14.679688 4.855469 C 14.804688 3.554688 14.71875 3.46875 13.210938 3.367188 C 12.15625 3.296875 8.835938 3.378906 7.984375 3.496094 C 7.675781 3.535156 7.078125 3.597656 6.65625 3.625 C 6.050781 3.671875 5.890625 3.65625 5.890625 3.558594 C 5.890625 3.488281 6.15625 3.398438 6.496094 3.347656 C 6.828125 3.296875 7.824219 3.121094 8.710938 2.957031 C 11.921875 2.355469 15.199219 1.925781 16.015625 1.996094 C 16.34375 2.027344 16.722656 2.058594 16.855469 2.070312 C 17.292969 2.105469 17.265625 1.941406 16.800781 1.757812 C 16.390625 1.59375 16.148438 1.578125 14.503906 1.59375 C 12.488281 1.613281 12.460938 1.605469 12.917969 1.121094 C 13.179688 0.839844 13.628906 0.75 13.628906 0.976562 C 13.628906 1.046875 13.738281 1.105469 13.871094 1.105469 C 14.003906 1.105469 14.113281 1.054688 14.113281 0.988281 C 14.113281 0.828125 14.488281 0.675781 14.695312 0.746094 C 14.789062 0.78125 14.910156 0.875 14.96875 0.957031 C 15.109375 1.160156 15.507812 1.144531 15.613281 0.933594 C 15.714844 0.722656 16.1875 0.710938 16.3125 0.914062 C 16.359375 0.996094 16.4375 1.121094 16.480469 1.191406 C 16.542969 1.292969 16.617188 1.28125 16.851562 1.128906 C 17.289062 0.84375 17.660156 0.878906 17.660156 1.203125 L 17.660156 1.46875 L 17.957031 1.273438 C 18.125 1.164062 18.335938 1.105469 18.441406 1.140625 C 18.96875 1.3125 18.335938 2.234375 16.984375 3.257812 L 16.34375 3.742188 L 16.410156 4.710938 C 16.449219 5.246094 16.578125 6.007812 16.695312 6.410156 C 16.898438 7.105469 16.941406 7.15625 17.757812 7.625 C 18.757812 8.203125 18.972656 8.632812 18.625 9.355469 C 18.171875 10.296875 17.71875 10.484375 15.402344 10.679688 C 14.179688 10.785156 14.347656 10.792969 13.601562 10.59375 Z M 16.835938 9.851562 C 17.054688 9.761719 17.339844 9.539062 17.472656 9.347656 C 17.828125 8.828125 17.621094 8.417969 16.769531 7.972656 C 15.984375 7.5625 15.953125 7.503906 15.804688 6.15625 C 15.753906 5.664062 15.675781 5.242188 15.636719 5.222656 C 15.546875 5.171875 15.546875 5.1875 15.511719 6.496094 L 15.484375 7.5625 L 14.945312 7.707031 C 14.144531 7.917969 13.625 8.203125 13.273438 8.617188 L 12.957031 8.988281 L 13.3125 9.429688 C 13.875 10.132812 13.929688 10.148438 15.273438 10.074219 C 15.988281 10.03125 16.59375 9.945312 16.835938 9.851562 Z M 15.214844 9.847656 C 14.578125 9.824219 14.398438 9.777344 14.046875 9.53125 C 13.574219 9.203125 13.535156 9.007812 13.859375 8.59375 C 14.140625 8.234375 14.53125 8.117188 15.449219 8.117188 C 16.179688 8.117188 16.457031 8.214844 16.839844 8.609375 C 17.085938 8.863281 16.820312 9.410156 16.324219 9.679688 C 16.035156 9.839844 15.828125 9.871094 15.214844 9.847656 Z M 15.691406 9.269531 C 16.339844 9.027344 16 8.585938 15.214844 8.648438 C 14.980469 8.664062 14.789062 8.761719 14.683594 8.917969 C 14.550781 9.121094 14.578125 9.183594 14.832031 9.28125 C 15.21875 9.429688 15.253906 9.429688 15.691406 9.269531 Z M 13.441406 2.785156 C 13.496094 2.640625 13.433594 2.628906 12.882812 2.683594 C 12.035156 2.769531 11.867188 2.839844 12.34375 2.914062 C 12.96875 3.007812 13.378906 2.960938 13.441406 2.785156 Z M 16.503906 2.667969 C 16.542969 2.441406 16.476562 2.371094 16.160156 2.296875 C 15.597656 2.160156 15.082031 2.320312 15.082031 2.632812 C 15.082031 2.949219 15.203125 3 15.882812 2.96875 C 16.394531 2.949219 16.457031 2.917969 16.503906 2.667969 Z M 16.503906 2.667969 "/>
</g>
</svg>
