<?xml version="1.0" encoding="UTF-8"?>
<svg xmlns="http://www.w3.org/2000/svg" xmlns:xlink="http://www.w3.org/1999/xlink" width="120pt" height="90pt" viewBox="0 0 120 90" version="1.1">
<g id="surface1">
<path style=" stroke:none;fill-rule:nonzero;fill:rgb(0%,0%,0%);fill-opacity:1;" d="M 15.378906 19.191406 C 15.320312 19.164062 15.269531 18.972656 15.269531 18.773438 C 15.269531 18.433594 15.234375 18.40625 14.753906 18.347656 C 14.214844 18.285156 14.210938 18.289062 13.449219 18.863281 C 13.25 19.011719 13.011719 19.078125 12.6875 19.078125 C 11.722656 19.078125 11.902344 18.550781 13.308594 17.253906 C 13.636719 16.953125 13.898438 16.570312 13.96875 16.289062 C 14.035156 16.03125 14.191406 15.769531 14.316406 15.710938 C 14.921875 15.414062 17.375 15.117188 17.601562 15.3125 C 17.769531 15.457031 17.394531 15.898438 16.722656 16.34375 C 16.160156 16.714844 15.753906 17.191406 15.753906 17.476562 C 15.753906 17.621094 15.949219 17.652344 17.769531 17.796875 C 19.378906 17.925781 19.402344 17.933594 19.617188 18.34375 C 19.929688 18.933594 19.8125 19.117188 19.109375 19.148438 C 18.578125 19.171875 18.46875 19.140625 18.140625 18.875 C 17.808594 18.609375 17.183594 18.433594 16.96875 18.550781 C 16.921875 18.574219 16.882812 18.683594 16.882812 18.789062 C 16.882812 18.894531 16.769531 19.042969 16.628906 19.117188 C 16.375 19.25 15.578125 19.300781 15.378906 19.191406 Z M 20.519531 18.886719 C 20.480469 18.78125 20.371094 18.441406 20.277344 18.132812 C 20.183594 17.824219 19.925781 17.332031 19.703125 17.042969 C 19.480469 16.753906 19.300781 16.382812 19.300781 16.214844 L 19.300781 15.914062 L 20.316406 15.914062 C 21.488281 15.914062 21.71875 16 21.71875 16.425781 C 21.722656 16.589844 21.796875 16.871094 21.890625 17.046875 C 22.054688 17.363281 22.070312 17.367188 22.894531 17.382812 C 23.359375 17.390625 23.84375 17.40625 23.976562 17.417969 C 24.109375 17.429688 24.675781 17.441406 25.234375 17.445312 C 26.074219 17.453125 26.3125 17.488281 26.632812 17.660156 C 27.144531 17.929688 27.449219 18.527344 27.214844 18.800781 C 26.9375 19.121094 26.238281 19.035156 25.832031 18.628906 C 25.441406 18.246094 24.78125 18.171875 24.78125 18.515625 C 24.78125 18.628906 24.652344 18.804688 24.488281 18.910156 C 24.082031 19.175781 23.375 19.089844 23.238281 18.757812 C 23.066406 18.335938 23.023438 18.308594 22.53125 18.308594 C 22.097656 18.308594 22.042969 18.339844 22.042969 18.558594 C 22.042969 18.988281 21.898438 19.078125 21.222656 19.078125 C 20.703125 19.078125 20.585938 19.046875 20.519531 18.886719 Z M 4.066406 16.351562 C 3.417969 16.199219 3.023438 15.878906 2.996094 15.484375 C 2.957031 14.945312 3.113281 14.753906 3.707031 14.621094 C 4.359375 14.480469 4.4375 14.472656 5.976562 14.453125 C 6.867188 14.441406 7.28125 14.46875 7.371094 14.546875 C 7.441406 14.609375 7.550781 15.003906 7.617188 15.425781 C 7.75 16.320312 7.722656 16.339844 6.402344 16.34375 C 5.914062 16.34375 5.261719 16.363281 4.953125 16.386719 C 4.640625 16.40625 4.242188 16.390625 4.066406 16.351562 Z M 8.246094 15.796875 C 8.191406 15.683594 8.171875 15.5 8.203125 15.390625 C 8.253906 15.199219 8.355469 15.183594 9.949219 15.089844 C 10.878906 15.039062 12.71875 14.929688 14.035156 14.847656 C 15.695312 14.746094 16.480469 14.726562 16.597656 14.789062 C 17.011719 15.007812 16.519531 15.121094 13.714844 15.433594 C 12.132812 15.613281 10.386719 15.8125 9.835938 15.878906 C 8.496094 16.042969 8.359375 16.035156 8.246094 15.796875 Z M 19.929688 15.679688 C 19.921875 15.644531 19.929688 15.261719 19.945312 14.824219 C 19.957031 14.390625 19.910156 14.035156 19.832031 14.035156 C 19.757812 14.035156 19.546875 14.371094 19.367188 14.78125 C 19.085938 15.433594 19 15.527344 18.730469 15.5 C 18.375 15.46875 17.6875 15.160156 17.6875 15.03125 C 17.6875 14.898438 18.476562 14.050781 18.65625 13.992188 C 18.847656 13.929688 18.875 13.605469 18.691406 13.605469 C 18.621094 13.605469 18.429688 13.730469 18.265625 13.882812 C 17.867188 14.253906 17.195312 14.632812 16.941406 14.632812 C 16.828125 14.632812 16.675781 14.574219 16.597656 14.5 C 16.472656 14.382812 16.410156 14.382812 15.984375 14.5 C 15.699219 14.578125 15.085938 14.632812 14.433594 14.632812 C 13.84375 14.632812 12.828125 14.667969 12.179688 14.710938 C 11.527344 14.757812 10.324219 14.816406 9.503906 14.847656 C 8.1875 14.894531 8 14.886719 7.90625 14.753906 C 7.59375 14.324219 8.289062 14.246094 13.242188 14.167969 L 16.296875 14.117188 L 17.152344 13.585938 C 17.621094 13.289062 18.007812 13.019531 18.007812 12.980469 C 18.011719 12.851562 17.347656 13.160156 16.859375 13.511719 C 16.359375 13.871094 16.171875 13.929688 15.996094 13.777344 C 15.851562 13.652344 15.59375 13.671875 15.59375 13.804688 C 15.59375 13.894531 14.789062 13.945312 11.953125 14.03125 C 9.835938 14.097656 8.261719 14.113281 8.179688 14.066406 C 8.105469 14.023438 8.019531 13.882812 7.988281 13.746094 L 7.933594 13.503906 L 11.773438 13.503906 L 15.609375 13.5 L 16.125 13.136719 C 16.410156 12.933594 16.875 12.683594 17.164062 12.578125 C 17.453125 12.472656 17.6875 12.351562 17.6875 12.3125 C 17.6875 12.144531 17.300781 12.261719 16.476562 12.675781 C 16 12.914062 15.519531 13.09375 15.414062 13.074219 C 15.308594 13.058594 15.128906 12.878906 15.019531 12.679688 C 14.828125 12.335938 14.835938 12.308594 15.199219 12.183594 C 15.792969 11.976562 17.839844 11.554688 18.246094 11.554688 C 18.691406 11.554688 18.980469 11.722656 19.527344 12.300781 C 19.960938 12.761719 20.203125 12.851562 20.375 12.621094 C 20.523438 12.410156 19.496094 11.386719 19.042969 11.292969 C 18.503906 11.183594 17.246094 11.328125 15.976562 11.636719 C 14.6875 11.953125 14.566406 11.957031 14.316406 11.664062 C 14.132812 11.449219 14.101562 11.441406 13.949219 11.585938 C 13.796875 11.730469 13.554688 11.738281 10.738281 11.710938 L 7.691406 11.683594 L 7.691406 11.125 L 9.425781 11.132812 C 10.378906 11.136719 11.761719 11.167969 12.5 11.199219 C 13.894531 11.261719 14.070312 11.246094 13.839844 11.089844 C 13.761719 11.039062 13.574219 10.792969 13.417969 10.539062 C 13.230469 10.234375 13.09375 10.117188 13.007812 10.191406 C 12.902344 10.28125 12.378906 10.285156 10.375 10.21875 C 9 10.175781 7.839844 10.121094 7.796875 10.097656 C 7.753906 10.074219 7.761719 9.949219 7.808594 9.8125 C 7.890625 9.585938 7.933594 9.570312 8.480469 9.625 C 8.800781 9.65625 9.605469 9.699219 10.273438 9.726562 C 10.9375 9.75 11.832031 9.800781 12.261719 9.839844 C 13.003906 9.90625 13.035156 9.898438 12.949219 9.726562 C 12.898438 9.625 12.855469 9.496094 12.855469 9.4375 C 12.851562 9.261719 12.574219 9.316406 12.476562 9.511719 C 12.394531 9.679688 12.3125 9.691406 11.609375 9.640625 C 11.183594 9.613281 10.164062 9.5625 9.34375 9.53125 L 7.851562 9.476562 L 7.851562 9.152344 C 7.851562 8.972656 7.90625 8.8125 7.972656 8.789062 C 8.039062 8.769531 9.039062 8.824219 10.191406 8.90625 C 11.34375 8.992188 12.34375 9.035156 12.410156 9 C 12.480469 8.960938 12.433594 8.78125 12.3125 8.597656 C 12.1875 8.414062 11.832031 7.761719 11.515625 7.148438 C 10.476562 5.117188 10.472656 5.097656 11.101562 4.617188 C 11.320312 4.449219 11.492188 4.402344 11.800781 4.433594 C 12.261719 4.480469 12.273438 4.5 12.03125 4.867188 C 11.769531 5.265625 11.96875 5.40625 12.265625 5.039062 C 12.582031 4.652344 12.8125 4.570312 13.113281 4.730469 C 13.316406 4.835938 13.28125 4.933594 12.84375 5.476562 C 12.167969 6.320312 12.457031 6.472656 13.191406 5.660156 C 13.492188 5.328125 13.789062 5.054688 13.847656 5.054688 C 13.90625 5.054688 14.066406 5.113281 14.199219 5.183594 C 14.417969 5.300781 14.394531 5.386719 13.96875 6.011719 C 13.449219 6.777344 13.558594 7.125 14.105469 6.449219 C 14.289062 6.222656 14.488281 5.933594 14.546875 5.800781 C 14.667969 5.554688 15.0625 5.492188 15.398438 5.671875 C 15.675781 5.816406 15.632812 6.070312 15.246094 6.507812 C 15.0625 6.71875 14.855469 7.007812 14.785156 7.148438 C 14.71875 7.289062 14.609375 7.472656 14.546875 7.554688 C 14.480469 7.640625 14.5 7.707031 14.59375 7.707031 C 14.683594 7.707031 14.96875 7.386719 15.230469 7 C 15.558594 6.515625 15.816406 6.269531 16.054688 6.210938 C 16.28125 6.15625 16.367188 6.078125 16.300781 5.996094 C 16.242188 5.925781 16.160156 5.773438 16.113281 5.664062 C 16.019531 5.433594 15.929688 5.429688 17.847656 5.699219 C 19.089844 5.871094 19.257812 5.941406 19.328125 6.335938 C 19.378906 6.621094 19.351562 6.636719 18.84375 6.664062 C 18.550781 6.679688 17.976562 6.628906 17.566406 6.558594 C 16.65625 6.390625 16.722656 6.390625 16.722656 6.589844 C 16.722656 6.679688 16.46875 7.050781 16.15625 7.410156 C 15.582031 8.082031 15.476562 8.304688 15.738281 8.304688 C 15.878906 8.304688 16.164062 8.011719 16.800781 7.214844 C 16.960938 7.015625 17.140625 6.851562 17.199219 6.851562 C 17.375 6.851562 18.011719 7.238281 18.011719 7.339844 C 18.011719 7.394531 17.757812 7.753906 17.445312 8.144531 C 16.539062 9.285156 16.765625 9.433594 17.761719 8.347656 C 18.085938 7.996094 18.40625 7.691406 18.476562 7.667969 C 18.546875 7.644531 18.765625 7.703125 18.960938 7.800781 C 19.304688 7.96875 19.3125 8.195312 18.980469 8.433594 C 18.570312 8.726562 18.023438 9.355469 18.109375 9.433594 C 18.230469 9.535156 18.808594 9.183594 18.8125 9.003906 C 18.816406 8.867188 19.648438 8.304688 19.847656 8.304688 C 20.039062 8.304688 20.417969 8.574219 20.421875 8.722656 C 20.425781 8.785156 20.097656 9.125 19.695312 9.480469 C 19.292969 9.832031 19.007812 10.144531 19.0625 10.171875 C 19.191406 10.242188 20.199219 9.609375 20.441406 9.308594 C 20.542969 9.179688 20.699219 9.074219 20.785156 9.074219 C 20.957031 9.074219 21.542969 9.417969 21.550781 9.527344 C 21.554688 9.5625 21.265625 9.804688 20.90625 10.0625 C 20.144531 10.609375 20.261719 10.667969 21.15625 10.1875 C 21.5 9.996094 21.855469 9.84375 21.945312 9.84375 C 22.183594 9.84375 23.007812 10.285156 23.007812 10.414062 C 23.007812 10.476562 22.878906 10.527344 22.722656 10.527344 C 22.390625 10.527344 21.234375 10.925781 21.234375 11.039062 C 21.234375 11.136719 22.347656 10.9375 22.921875 10.734375 C 23.328125 10.59375 23.359375 10.597656 23.738281 10.785156 C 23.957031 10.894531 24.136719 11.03125 24.136719 11.085938 C 24.136719 11.140625 23.683594 11.273438 23.128906 11.382812 C 21.355469 11.71875 21.546875 11.835938 23.480469 11.59375 C 24.050781 11.519531 24.570312 11.492188 24.640625 11.53125 C 24.707031 11.566406 24.878906 11.742188 25.019531 11.917969 L 25.269531 12.238281 L 24.421875 12.238281 C 23.328125 12.242188 22.363281 12.324219 22.363281 12.421875 C 22.363281 12.460938 23.007812 12.484375 23.800781 12.472656 C 24.589844 12.460938 25.273438 12.46875 25.316406 12.496094 C 25.363281 12.519531 25.449219 12.679688 25.511719 12.855469 L 25.621094 13.175781 L 24.03125 13.125 C 22.246094 13.066406 22.066406 13.195312 23.734375 13.335938 C 24.964844 13.445312 25.589844 13.570312 25.589844 13.714844 C 25.589844 14.015625 25.03125 14.652344 24.660156 14.785156 C 24.25 14.925781 24.246094 14.925781 23.421875 14.4375 C 22.96875 14.167969 22.515625 13.949219 22.410156 13.949219 C 21.933594 13.949219 22.09375 14.15625 22.921875 14.609375 C 23.964844 15.179688 24 15.355469 23.125 15.59375 C 22.5625 15.75 22.492188 15.753906 22.121094 15.621094 C 21.804688 15.511719 21.71875 15.410156 21.71875 15.148438 C 21.71875 14.722656 21.457031 14.347656 21.214844 14.425781 C 21.089844 14.464844 21.0625 14.683594 21.132812 15.113281 L 21.230469 15.746094 L 20.585938 15.746094 C 20.234375 15.746094 19.9375 15.714844 19.929688 15.679688 Z M 3.539062 13.972656 C 3.15625 13.871094 2.96875 13.742188 2.847656 13.507812 C 2.632812 13.082031 2.785156 12.796875 3.371094 12.539062 C 3.765625 12.359375 4.039062 12.320312 4.925781 12.308594 C 6.320312 12.289062 7.097656 12.320312 7.253906 12.398438 C 7.324219 12.4375 7.394531 12.828125 7.414062 13.269531 L 7.449219 14.078125 L 5.757812 14.09375 C 4.460938 14.109375 3.941406 14.078125 3.539062 13.972656 Z M 9.023438 13.289062 C 7.855469 13.257812 7.855469 13.257812 7.855469 13.007812 C 7.855469 12.871094 7.910156 12.742188 7.980469 12.71875 C 8.140625 12.667969 11.152344 12.628906 13.199219 12.648438 L 14.753906 12.664062 L 14.921875 12.921875 C 15.015625 13.0625 15.039062 13.191406 14.980469 13.210938 C 14.8125 13.265625 10.359375 13.324219 9.023438 13.289062 Z M 26.007812 12.730469 C 25.847656 12.199219 25.578125 11.824219 24.996094 11.332031 C 24.542969 10.949219 24.507812 10.878906 24.71875 10.769531 C 24.855469 10.699219 24.910156 10.582031 24.847656 10.496094 C 24.75 10.359375 24.726562 10.359375 24.4375 10.496094 C 24.199219 10.609375 24.085938 10.621094 23.9375 10.539062 C 23.785156 10.460938 23.785156 10.402344 23.941406 10.269531 C 24.050781 10.179688 24.136719 10.039062 24.136719 9.964844 C 24.136719 9.835938 24.097656 9.835938 23.714844 9.96875 C 23.296875 10.117188 23.296875 10.117188 22.5 9.675781 C 21.769531 9.269531 21.714844 9.210938 21.816406 8.929688 C 21.921875 8.632812 21.910156 8.625 21.507812 8.675781 C 21.179688 8.722656 21.046875 8.691406 20.898438 8.546875 C 20.796875 8.445312 20.511719 8.273438 20.269531 8.164062 C 19.929688 8.011719 19.847656 7.914062 19.90625 7.730469 C 19.988281 7.472656 21.84375 6.402344 22.074219 6.476562 C 22.535156 6.628906 24.339844 6.003906 24.515625 5.628906 C 24.566406 5.523438 24.828125 5.367188 25.101562 5.28125 C 25.675781 5.105469 25.613281 4.9375 25.019531 5.054688 C 24.6875 5.121094 24.582031 5.101562 24.367188 4.929688 C 24.074219 4.691406 23.203125 4.511719 22.75 4.59375 C 22.238281 4.691406 21.414062 5.152344 21.230469 5.449219 C 21.097656 5.664062 21.113281 5.828125 21.289062 6.148438 L 21.523438 6.566406 L 20.984375 6.792969 C 20.691406 6.917969 20.382812 7.023438 20.300781 7.023438 C 20.222656 7.023438 20.027344 6.871094 19.867188 6.683594 C 19.402344 6.136719 19.777344 4.859375 20.53125 4.445312 C 21.003906 4.179688 22.324219 3.75 22.972656 3.648438 C 23.46875 3.566406 24.832031 3.933594 25.800781 4.402344 C 26.769531 4.875 26.957031 4.761719 26.019531 4.269531 C 24.507812 3.472656 23.214844 3.261719 21.835938 3.585938 C 20.9375 3.792969 19.710938 4.621094 19.4375 5.203125 C 19.335938 5.410156 19.15625 5.601562 19.035156 5.628906 C 18.703125 5.695312 16.964844 5.324219 16.574219 5.105469 C 16.3125 4.957031 16.257812 4.851562 16.335938 4.640625 C 16.457031 4.324219 16.601562 4.308594 17.160156 4.542969 C 17.386719 4.636719 17.789062 4.710938 18.054688 4.710938 L 18.539062 4.710938 L 17.835938 4.417969 C 16.996094 4.066406 16.878906 3.921875 17.125 3.539062 C 17.441406 3.054688 17.605469 3.039062 18.0625 3.453125 C 18.472656 3.824219 19.09375 4.113281 19.484375 4.113281 C 19.59375 4.113281 19.527344 4.027344 19.335938 3.921875 C 18.984375 3.722656 18.167969 2.820312 18.175781 2.636719 C 18.179688 2.480469 19.4375 2.039062 19.710938 2.09375 C 19.839844 2.121094 19.945312 2.25 19.945312 2.390625 C 19.945312 2.703125 20.324219 3.191406 20.691406 3.351562 C 20.941406 3.460938 20.960938 3.457031 20.863281 3.316406 C 20.800781 3.230469 20.707031 2.84375 20.648438 2.457031 L 20.546875 1.75 L 21.261719 1.605469 C 21.652344 1.527344 22.015625 1.460938 22.070312 1.460938 C 22.121094 1.460938 22.128906 1.722656 22.082031 2.039062 C 21.988281 2.703125 22.140625 2.6875 22.605469 1.996094 C 22.890625 1.566406 22.988281 1.503906 23.464844 1.453125 C 24.207031 1.375 24.238281 1.492188 23.679688 2.242188 C 23.417969 2.589844 23.226562 2.886719 23.257812 2.902344 C 23.386719 2.976562 23.691406 2.789062 24.050781 2.410156 C 24.265625 2.183594 24.628906 1.882812 24.859375 1.738281 C 25.238281 1.5 25.324219 1.484375 25.753906 1.5625 C 26.019531 1.609375 26.234375 1.707031 26.234375 1.773438 C 26.234375 1.839844 25.863281 2.144531 25.414062 2.449219 C 24.960938 2.753906 24.648438 3.003906 24.714844 3.003906 C 24.78125 3.003906 25.296875 2.769531 25.855469 2.484375 C 26.417969 2.195312 26.992188 1.976562 27.128906 1.992188 C 27.269531 2.007812 27.503906 2.125 27.652344 2.253906 L 27.917969 2.484375 L 26.988281 2.925781 C 25.941406 3.421875 25.890625 3.574219 26.890625 3.222656 C 27.6875 2.941406 28.511719 2.851562 28.769531 3.015625 C 28.867188 3.078125 28.996094 3.230469 29.050781 3.351562 C 29.175781 3.609375 28.9375 3.738281 28.050781 3.902344 C 27.714844 3.964844 27.480469 4.046875 27.523438 4.085938 C 27.566406 4.125 27.675781 4.144531 27.765625 4.125 C 28.40625 4.003906 29.167969 4.019531 29.457031 4.15625 C 29.667969 4.257812 29.902344 4.289062 30.179688 4.25 C 30.835938 4.164062 32.683594 4.359375 33.550781 4.609375 C 33.992188 4.738281 34.5625 4.996094 34.820312 5.183594 C 35.242188 5.488281 35.285156 5.578125 35.226562 6.019531 C 35.15625 6.5625 34.707031 6.980469 34.195312 6.980469 C 33.996094 6.980469 33.777344 6.851562 33.558594 6.609375 C 33.375 6.40625 33.011719 6.164062 32.753906 6.070312 C 32.332031 5.914062 32.109375 5.902344 30.667969 5.949219 C 28.785156 6.007812 27.371094 6.183594 27.074219 6.398438 C 26.773438 6.613281 27.152344 6.644531 27.953125 6.464844 C 28.710938 6.296875 30.957031 6.148438 31.691406 6.222656 C 32.3125 6.28125 33.210938 6.859375 33.132812 7.144531 C 33.09375 7.296875 32.960938 7.324219 32.109375 7.335938 C 30.824219 7.355469 27.785156 7.75 27.089844 7.988281 C 26.652344 8.136719 25.957031 9.042969 25.839844 9.613281 C 25.726562 10.179688 25.765625 10.308594 26.410156 11.417969 C 26.574219 11.699219 26.609375 12.753906 26.457031 12.957031 C 26.289062 13.191406 26.117188 13.105469 26.007812 12.730469 Z M 23.09375 9.410156 C 23.152344 9.363281 23.15625 9.261719 23.101562 9.1875 C 23.023438 9.082031 22.960938 9.074219 22.765625 9.160156 C 22.632812 9.21875 22.527344 9.320312 22.527344 9.382812 C 22.527344 9.523438 22.945312 9.542969 23.09375 9.410156 Z M 24.269531 9.132812 C 24.296875 9.003906 24.246094 8.902344 24.152344 8.902344 C 23.925781 8.902344 23.617188 9.226562 23.742188 9.335938 C 23.917969 9.488281 24.214844 9.371094 24.269531 9.132812 Z M 25.300781 8.886719 C 25.148438 8.804688 25.105469 8.828125 25.105469 8.988281 C 25.105469 9.148438 25.148438 9.171875 25.300781 9.089844 C 25.449219 9.011719 25.449219 8.964844 25.300781 8.886719 Z M 23.460938 8.542969 C 23.671875 8.429688 23.726562 8.132812 23.535156 8.136719 C 23.230469 8.144531 22.816406 8.394531 22.902344 8.515625 C 23.019531 8.671875 23.199219 8.683594 23.460938 8.542969 Z M 24.871094 8.296875 C 25.019531 8.171875 24.847656 8.101562 24.539062 8.164062 C 24.394531 8.195312 24.324219 8.257812 24.378906 8.304688 C 24.507812 8.414062 24.734375 8.414062 24.871094 8.296875 Z M 22.046875 7.871094 C 22.148438 7.769531 22.179688 7.664062 22.121094 7.632812 C 22.011719 7.578125 21.558594 7.855469 21.558594 7.976562 C 21.558594 8.113281 21.871094 8.042969 22.046875 7.871094 Z M 26.074219 7.960938 C 26.074219 7.914062 25.964844 7.875 25.832031 7.875 C 25.699219 7.875 25.589844 7.914062 25.589844 7.960938 C 25.589844 8.007812 25.699219 8.046875 25.832031 8.046875 C 25.964844 8.046875 26.074219 8.007812 26.074219 7.960938 Z M 20.878906 7.527344 C 20.921875 7.328125 20.914062 7.324219 20.675781 7.488281 C 20.378906 7.6875 20.355469 7.816406 20.632812 7.769531 C 20.742188 7.75 20.851562 7.640625 20.878906 7.527344 Z M 23.5625 7.570312 C 23.804688 7.441406 23.914062 7.191406 23.722656 7.191406 C 23.425781 7.191406 23.007812 7.394531 23.007812 7.539062 C 23.007812 7.738281 23.21875 7.753906 23.5625 7.570312 Z M 25.171875 7.351562 C 25.113281 7.300781 24.984375 7.308594 24.851562 7.367188 C 24.726562 7.421875 24.667969 7.503906 24.71875 7.546875 C 24.773438 7.597656 24.902344 7.585938 25.039062 7.527344 C 25.160156 7.472656 25.222656 7.394531 25.171875 7.351562 Z M 22.605469 7.019531 C 22.976562 6.804688 22.855469 6.734375 22.304688 6.847656 C 21.882812 6.929688 21.78125 7.027344 21.988281 7.136719 C 22.160156 7.226562 22.296875 7.203125 22.605469 7.019531 Z M 24.617188 6.683594 C 24.746094 6.640625 24.804688 6.578125 24.746094 6.546875 C 24.597656 6.46875 24.136719 6.566406 24.136719 6.675781 C 24.136719 6.785156 24.304688 6.789062 24.617188 6.683594 Z M 28.734375 4.925781 C 28.734375 4.730469 28.191406 4.640625 27.996094 4.808594 C 27.828125 4.953125 28.140625 5.15625 28.476562 5.121094 C 28.617188 5.105469 28.734375 5.019531 28.734375 4.925781 Z M 7.777344 12.425781 C 7.730469 12.402344 7.691406 12.277344 7.691406 12.148438 C 7.691406 11.964844 7.785156 11.90625 8.144531 11.871094 C 8.613281 11.820312 13.75 11.882812 14.101562 11.941406 C 14.210938 11.960938 14.304688 12.074219 14.304688 12.191406 L 14.304688 12.410156 L 11.601562 12.425781 C 10.117188 12.433594 8.667969 12.449219 8.382812 12.457031 C 8.09375 12.464844 7.824219 12.449219 7.777344 12.425781 Z M 4.078125 12.0625 C 3.109375 11.976562 2.742188 11.792969 2.601562 11.320312 C 2.503906 11 2.542969 10.9375 2.984375 10.703125 C 3.460938 10.449219 3.523438 10.441406 4.929688 10.441406 C 5.726562 10.441406 6.554688 10.476562 6.769531 10.519531 C 7.132812 10.59375 7.15625 10.640625 7.171875 11.324219 C 7.1875 12.003906 7.164062 12.054688 6.835938 12.101562 C 6.367188 12.167969 5.058594 12.148438 4.078125 12.0625 Z M 9.871094 10.980469 C 7.84375 10.945312 7.660156 10.914062 7.722656 10.632812 L 7.773438 10.398438 L 9.464844 10.414062 C 12.183594 10.4375 13.144531 10.511719 13.257812 10.703125 C 13.421875 10.972656 13.203125 11.042969 12.238281 11.023438 C 11.734375 11.011719 10.667969 10.996094 9.871094 10.980469 Z M 4.710938 10.234375 C 3.429688 10.089844 3.253906 10.042969 3.039062 9.792969 C 2.691406 9.390625 2.808594 8.992188 3.355469 8.722656 C 3.914062 8.445312 4.140625 8.433594 5.808594 8.574219 C 7.410156 8.707031 7.457031 8.738281 7.226562 9.554688 C 7.125 9.921875 6.949219 10.25 6.84375 10.289062 C 6.570312 10.378906 5.859375 10.359375 4.710938 10.234375 Z M 18.464844 7.292969 C 17.652344 6.875 17.628906 6.855469 18.03125 6.851562 C 18.972656 6.847656 19.433594 6.949219 19.636719 7.207031 C 19.800781 7.417969 19.792969 7.480469 19.578125 7.59375 C 19.347656 7.71875 19.25 7.691406 18.464844 7.292969 Z M 22.042969 6.191406 C 21.679688 6.113281 21.5625 5.984375 21.5625 5.640625 C 21.558594 5.089844 22.925781 4.636719 23.746094 4.921875 C 24.300781 5.113281 24.359375 5.238281 24.082031 5.59375 C 23.738281 6.027344 22.707031 6.332031 22.042969 6.191406 Z M 22.042969 6.191406 "/>
</g>
</svg>
