<?xml version="1.0" encoding="UTF-8"?>
<svg xmlns="http://www.w3.org/2000/svg" xmlns:xlink="http://www.w3.org/1999/xlink" width="120pt" height="90pt" viewBox="0 0 120 90" version="1.1">
<g id="surface1">
<path style=" stroke:none;fill-rule:nonzero;fill:rgb(0%,0%,0%);fill-opacity:1;" d="M 52.464844 89.726562 C 51.496094 89.273438 48.722656 85.234375 47.992188 83.203125 C 47.679688 82.328125 43.128906 77.707031 41.71875 76.832031 C 39.128906 75.214844 36.128906 71.890625 34.777344 69.128906 C 32.378906 64.238281 32.511719 56.996094 35.148438 48.773438 C 37.269531 42.15625 37.664062 42.878906 38.128906 54.265625 C 38.296875 58.339844 38.691406 62.617188 39.03125 64.023438 C 40.035156 68.175781 44.71875 75.316406 44.707031 72.667969 C 44.707031 72.375 44.164062 71.402344 43.5 70.511719 C 41.984375 68.484375 40.066406 64.59375 40.585938 64.59375 C 40.796875 64.59375 41.605469 65.03125 42.386719 65.566406 C 43.164062 66.101562 45.4375 67.109375 47.445312 67.804688 C 52.199219 69.457031 54.433594 70.832031 56.085938 73.125 C 58.332031 76.25 58.75 79.765625 57.46875 84.703125 C 56.355469 89.007812 54.640625 90.726562 52.464844 89.726562 Z M 109.679688 83.253906 C 109.300781 82.027344 108.613281 78.28125 108.152344 74.929688 C 107.605469 70.921875 107.09375 68.585938 106.652344 68.121094 C 106.28125 67.734375 105.976562 66.941406 105.976562 66.367188 C 105.976562 64.996094 103.398438 61.292969 100.871094 59.03125 C 99.140625 57.484375 98.175781 57.1875 93.855469 56.867188 C 90.636719 56.628906 88.710938 56.191406 88.484375 55.644531 C 88.28125 55.175781 88.015625 51.910156 87.882812 48.386719 C 87.753906 44.867188 87.238281 39.417969 86.742188 36.277344 C 85.425781 27.949219 84.753906 22.875 84.65625 20.597656 C 84.484375 16.4375 87.054688 14.851562 91.207031 16.546875 C 92.007812 16.875 93.816406 17.210938 95.230469 17.289062 C 96.636719 17.367188 98.140625 17.6875 98.570312 18 C 99.644531 18.785156 99.921875 21.054688 99.25 23.613281 C 98.371094 26.960938 98.539062 27.753906 100.390625 29 C 102.667969 30.527344 104.3125 30.441406 107.304688 28.628906 C 110.632812 26.609375 114.457031 22.53125 116.742188 18.5625 C 117.1875 17.789062 117.90625 17.375 118.566406 17.511719 C 119.566406 17.714844 119.664062 17.984375 119.769531 20.839844 C 119.933594 25.265625 119.078125 29.019531 115.601562 39.214844 C 112.179688 49.226562 112.132812 49.601562 113.25 57.867188 C 113.632812 60.683594 114.058594 65.578125 114.195312 68.742188 C 114.433594 74.101562 114.382812 74.777344 113.449219 78.53125 C 112.898438 80.757812 111.980469 83.226562 111.40625 84.027344 L 110.367188 85.484375 Z M 11.75 74.5625 C 9.621094 73.910156 7.875 71.035156 7.875 68.1875 C 7.875 66.34375 7.925781 66.304688 10.335938 66.3125 C 13.742188 66.316406 16.613281 64.414062 17.605469 61.496094 C 18.839844 57.859375 18.960938 55.234375 18 52.921875 C 16.710938 49.820312 14.292969 48.273438 5.777344 45.105469 C 3.152344 44.128906 2.332031 41.960938 0.632812 31.527344 C -0.34375 25.523438 0.292969 23.683594 3.339844 23.683594 C 4.75 23.683594 5.445312 23.15625 7.285156 20.683594 C 11.210938 15.40625 20.402344 7.355469 23.921875 6.105469 C 24.625 5.855469 25.554688 5.914062 25.992188 6.234375 C 26.8125 6.835938 32.675781 24.375 32.675781 26.230469 C 32.675781 26.78125 31.929688 30.835938 31.019531 35.238281 C 30.109375 39.640625 29.449219 43.417969 29.558594 43.632812 C 29.820312 44.140625 29.761719 44.335938 31.378906 37.320312 C 33.015625 30.222656 33.105469 29.964844 33.820312 30.503906 C 34.421875 30.957031 36.320312 38.140625 36.320312 39.964844 C 36.320312 40.613281 35.824219 42.667969 35.214844 44.527344 C 33.8125 48.828125 32.449219 55.667969 31.902344 61.117188 C 31.425781 65.898438 30.363281 68.183594 28.613281 68.183594 C 27.320312 68.183594 27.3125 67.523438 28.5 61.761719 C 29.011719 59.28125 29.375 56.398438 29.300781 55.359375 C 29.179688 53.625 29.09375 53.769531 28.269531 57.058594 C 26.835938 62.75 25.351562 67.582031 24.042969 70.808594 L 22.832031 73.792969 L 19.640625 74.28125 C 14.320312 75.109375 13.597656 75.128906 11.75 74.5625 Z M 23.445312 56.476562 C 23.511719 54.230469 23.417969 52.390625 23.238281 52.390625 C 22.808594 52.390625 22.472656 54.972656 22.46875 58.371094 C 22.460938 62.800781 23.304688 61.15625 23.445312 56.476562 Z M 24.011719 40.082031 C 25.140625 38.917969 25.644531 36.4375 25.472656 32.90625 C 25.261719 28.480469 23.902344 25.820312 21.597656 25.308594 C 20.148438 24.984375 19.769531 25.21875 18.496094 27.207031 C 16.832031 29.796875 16 33.578125 16.601562 35.792969 C 16.816406 36.570312 17.605469 38.21875 18.359375 39.449219 C 19.617188 41.511719 19.875 41.652344 21.550781 41.21875 C 22.554688 40.957031 23.660156 40.445312 24.011719 40.082031 Z M 19.152344 38.5625 C 18.125 37.207031 17.886719 36.398438 17.796875 34.019531 C 17.707031 31.667969 17.871094 30.761719 18.671875 29.183594 C 20.050781 26.472656 21.238281 26.046875 22.804688 27.699219 C 24 28.957031 24.113281 29.355469 24.210938 32.714844 C 24.34375 37.125 23.632812 39.125 21.703125 39.773438 C 20.695312 40.109375 20.113281 39.835938 19.152344 38.5625 Z M 7.492188 36.78125 C 7.46875 33.128906 6.425781 29.066406 5.507812 29.066406 C 4.457031 29.066406 4.449219 30.765625 5.488281 35.382812 C 6.578125 40.238281 7.519531 40.894531 7.492188 36.78125 Z M 56.195312 67.683594 C 53.292969 66.371094 52.734375 65.894531 52.734375 64.746094 C 52.734375 63.347656 56.734375 52.542969 57.292969 52.429688 C 57.691406 52.347656 59.234375 63.066406 59.273438 66.207031 C 59.296875 67.980469 59.175781 68.171875 58.113281 68.097656 C 57.457031 68.050781 56.597656 67.867188 56.195312 67.683594 Z M 62.34375 67.097656 C 62.230469 66.5 62.285156 65.609375 62.46875 65.121094 C 62.65625 64.632812 63.273438 61.8125 63.839844 58.851562 C 65.199219 51.765625 65.414062 51.269531 66.222656 53.296875 C 66.882812 54.957031 67.90625 64.746094 67.539062 65.910156 C 67.304688 66.65625 64.472656 68.183594 63.320312 68.183594 C 62.898438 68.183594 62.460938 67.691406 62.34375 67.097656 Z M 60.242188 64.464844 C 59.824219 60.582031 58.609375 50.480469 58.390625 49.113281 C 58.214844 47.996094 58.710938 46.152344 60.375 41.726562 C 61.597656 38.480469 62.730469 35.984375 62.894531 36.179688 C 63.054688 36.375 63.574219 38.789062 64.046875 41.542969 C 64.898438 46.445312 64.902344 46.636719 64.300781 50.371094 C 63.265625 56.804688 61.320312 65.539062 60.859375 65.84375 C 60.617188 66 60.339844 65.382812 60.242188 64.464844 Z M 46.078125 64.789062 C 45.324219 64.632812 44.710938 64.207031 44.710938 63.839844 C 44.710938 63.472656 45.480469 61.1875 46.417969 58.757812 C 48.273438 53.960938 48.257812 53.960938 49.683594 58.585938 C 50.566406 61.453125 50.585938 58.691406 49.714844 54.253906 L 48.792969 49.582031 L 50.40625 45.503906 C 51.292969 43.261719 52.332031 40.019531 52.71875 38.296875 C 53.855469 33.242188 54.386719 34.136719 55.460938 42.890625 L 56.09375 48.101562 L 54.324219 55.089844 C 52.53125 62.164062 51.824219 63.96875 51.074219 63.402344 C 50.847656 63.234375 50.449219 63.589844 50.195312 64.199219 C 49.738281 65.28125 48.996094 65.386719 46.078125 64.789062 Z M 70.242188 64.460938 C 70.242188 63.941406 71 60.644531 71.929688 57.132812 C 73.816406 49.988281 74.097656 50.023438 74.304688 57.417969 L 74.429688 62.082031 L 73.15625 63.269531 C 71.105469 65.175781 70.238281 65.53125 70.242188 64.460938 Z M 68.660156 62.441406 C 68.558594 61.453125 68.21875 58.339844 67.898438 55.519531 C 67.582031 52.699219 67.324219 49.46875 67.328125 48.339844 C 67.335938 46.15625 71.511719 29.425781 72.050781 29.425781 C 72.660156 29.425781 73.144531 34.109375 73.242188 40.910156 L 73.335938 47.726562 L 71.628906 54.546875 C 70.691406 58.296875 69.679688 62.007812 69.378906 62.796875 C 68.847656 64.207031 68.835938 64.199219 68.660156 62.441406 Z M 41.535156 61.238281 C 41.183594 60.1875 40.898438 58.140625 40.898438 56.695312 C 40.898438 53.675781 44.332031 37.226562 44.882812 37.570312 C 45.355469 37.855469 47.210938 47.222656 47.242188 49.441406 C 47.277344 52.292969 43.492188 63.15625 42.460938 63.15625 C 42.300781 63.15625 41.886719 62.296875 41.535156 61.238281 Z M 75.351562 53.933594 L 74.886719 46.027344 L 76.613281 39.699219 C 78.636719 32.28125 78.851562 31.738281 79.378906 32.777344 C 79.832031 33.667969 79.917969 34.460938 80.269531 41.417969 L 80.53125 46.589844 L 78.816406 52.902344 C 77.871094 56.371094 76.808594 59.800781 76.457031 60.523438 C 75.839844 61.78125 75.792969 61.507812 75.351562 53.933594 Z M 78.765625 59.265625 C 78.570312 58.242188 80.082031 52.195312 81.015625 50.292969 C 81.445312 49.417969 81.5625 49.523438 81.855469 51.058594 C 82.199219 52.820312 82.390625 55.457031 82.3125 57.273438 C 82.277344 58.160156 80.1875 60.285156 79.355469 60.285156 C 79.144531 60.285156 78.875 59.828125 78.765625 59.265625 Z M 83.367188 57.148438 C 83.367188 54.289062 86.015625 43.785156 86.738281 43.78125 C 86.890625 43.78125 87.011719 46.507812 87.011719 49.839844 C 87.011719 55.289062 86.933594 56.011719 86.203125 57.015625 C 85.1875 58.417969 83.367188 58.5 83.367188 57.148438 Z M 38.738281 45.640625 C 38.210938 42.71875 37.78125 39.890625 37.777344 39.359375 C 37.773438 37.449219 40.796875 22.195312 41.140625 22.417969 C 41.328125 22.542969 42.089844 24.800781 42.824219 27.4375 L 44.164062 32.230469 L 43.105469 38.183594 C 42.519531 41.457031 41.925781 44.460938 41.785156 44.855469 C 41.640625 45.25 41.324219 46.785156 41.085938 48.265625 C 40.839844 49.746094 40.429688 50.957031 40.167969 50.957031 C 39.910156 50.957031 39.269531 48.5625 38.738281 45.640625 Z M 82.660156 48.265625 C 82.324219 45.886719 82.4375 44.769531 83.632812 38.609375 L 84.980469 31.648438 L 85.816406 35.550781 L 86.65625 39.453125 L 85.101562 45.191406 C 84.25 48.347656 83.433594 50.9375 83.292969 50.945312 C 83.152344 50.953125 82.867188 49.746094 82.660156 48.265625 Z M 47.9375 44.316406 C 47.203125 43.140625 45.804688 36.472656 45.804688 34.152344 C 45.804688 32 49.78125 16.503906 50.472656 15.976562 C 50.730469 15.773438 51.171875 16.214844 51.453125 16.953125 C 52.140625 18.78125 53.832031 27.976562 53.832031 29.890625 C 53.828125 31.671875 49.460938 45.1875 48.882812 45.203125 C 48.667969 45.210938 48.242188 44.8125 47.9375 44.316406 Z M 57.292969 42.523438 C 56.238281 37.355469 55.375 29.773438 55.671875 28.238281 C 55.925781 26.914062 58.226562 20.207031 59.203125 17.949219 C 59.582031 17.066406 62.167969 28.773438 62.195312 31.511719 C 62.207031 32.460938 61.578125 34.882812 60.804688 36.894531 C 60.027344 38.90625 59.199219 41.277344 58.964844 42.164062 C 58.460938 44.09375 57.652344 44.265625 57.292969 42.523438 Z M 66.3125 42.183594 C 65.585938 40.433594 64.023438 31.96875 64.226562 30.878906 C 64.640625 28.683594 70.425781 12.347656 70.683594 12.65625 C 70.828125 12.835938 71.289062 15.136719 71.699219 17.777344 L 72.453125 22.578125 L 70.179688 31.761719 C 67.734375 41.625 66.957031 43.726562 66.3125 42.183594 Z M 81.25 39.027344 C 79.792969 27.289062 79.757812 28.042969 81.96875 23.015625 C 83.167969 20.285156 83.34375 20.105469 83.652344 21.289062 C 83.839844 22.015625 84.09375 24.34375 84.214844 26.46875 C 84.40625 29.75 84.269531 31.09375 83.332031 35.441406 C 81.914062 42.003906 81.675781 42.425781 81.25 39.027344 Z M 74.859375 40.429688 C 74.722656 40.167969 74.613281 38.925781 74.613281 37.671875 C 74.613281 36.421875 74.371094 33.808594 74.070312 31.871094 C 73.335938 27.109375 73.382812 23.4375 74.210938 20.246094 C 74.8125 17.964844 76.789062 13.515625 76.808594 14.40625 C 76.816406 14.574219 77.285156 17.441406 77.859375 20.773438 C 79.0625 27.761719 79.019531 28.316406 76.707031 36.066406 C 75.144531 41.292969 75.214844 41.132812 74.859375 40.429688 Z M 35.902344 34.269531 C 35.371094 32.589844 34.679688 30 34.367188 28.511719 C 33.808594 25.847656 33.824219 25.695312 35.289062 19.003906 C 36.109375 15.261719 36.960938 12.207031 37.1875 12.214844 C 37.769531 12.230469 39.007812 14.996094 39.738281 17.917969 C 40.355469 20.402344 40.351562 20.425781 38.679688 28.863281 C 37.753906 33.515625 36.96875 37.320312 36.9375 37.320312 C 36.898438 37.320312 36.433594 35.945312 35.902344 34.269531 Z M 44.132812 28.578125 C 43.789062 27.269531 43.066406 24.582031 42.527344 22.609375 C 41.988281 20.632812 41.625 18.535156 41.71875 17.941406 C 42.191406 15.074219 45.449219 2.152344 45.699219 2.15625 C 46.296875 2.164062 48.230469 6.355469 49.066406 9.464844 L 49.9375 12.695312 L 47.839844 21.023438 C 45.285156 31.167969 44.976562 31.800781 44.132812 28.578125 Z M 63.019531 27.128906 C 62.777344 26.65625 62.582031 25.886719 62.582031 25.421875 C 62.582031 24.957031 62.15625 22.75 61.636719 20.519531 C 60.484375 15.554688 60.589844 14.765625 63.503906 6.617188 C 65.480469 1.09375 66.234375 -0.015625 67.148438 1.265625 C 67.769531 2.132812 69.875 9.011719 69.875 10.171875 C 69.875 10.761719 69.21875 13.089844 68.414062 15.34375 C 67.613281 17.597656 66.957031 19.601562 66.957031 19.800781 C 66.957031 20.5 64.011719 27.992188 63.738281 27.992188 C 63.582031 27.992188 63.257812 27.601562 63.019531 27.128906 Z M 53.542969 20.632812 C 52.949219 17.378906 52.351562 14 52.214844 13.125 C 51.941406 11.386719 52.238281 9.976562 53.960938 4.84375 C 55.328125 0.769531 56.230469 0.605469 56.929688 4.304688 C 57.1875 5.6875 57.757812 8.578125 58.191406 10.726562 C 58.796875 13.707031 58.898438 15.015625 58.621094 16.222656 C 58.117188 18.394531 55.164062 26.511719 54.867188 26.535156 C 54.734375 26.546875 54.140625 23.890625 53.542969 20.632812 Z M 79 22.070312 C 78.765625 19.996094 78.394531 17.378906 78.175781 16.25 C 77.847656 14.570312 77.90625 13.714844 78.472656 11.582031 C 79.164062 9.007812 80.667969 6.101562 81.308594 6.101562 C 81.578125 6.101562 82.960938 14.824219 83.132812 17.65625 C 83.179688 18.34375 79.90625 25.835938 79.558594 25.835938 C 79.488281 25.835938 79.234375 24.140625 79 22.070312 Z M 30.128906 14.242188 C 28.492188 9.402344 27.316406 5.242188 27.488281 4.902344 C 27.660156 4.5625 29.21875 3.945312 30.957031 3.527344 C 33.800781 2.84375 34.199219 2.894531 35.019531 4.074219 C 36.609375 6.363281 36.710938 8.375 35.511719 13.996094 C 34.921875 16.757812 34.253906 19.90625 34.023438 20.992188 C 33.796875 22.078125 33.492188 22.964844 33.347656 22.964844 C 33.203125 22.964844 31.753906 19.039062 30.128906 14.242188 Z M 72.335938 15.101562 C 71.511719 9.570312 71.503906 9.691406 72.839844 5.597656 C 73.894531 2.371094 74.027344 2.183594 74.609375 3.214844 C 75.234375 4.328125 76.074219 8.8125 76.074219 11.035156 C 76.074219 12.5 73.839844 19.285156 73.339844 19.335938 C 73.136719 19.359375 72.6875 17.453125 72.335938 15.101562 Z M 83.214844 11.773438 C 82.453125 5.417969 82.660156 4.449219 84.519531 5.664062 C 86.3125 6.832031 88.109375 9.164062 88.109375 10.308594 C 88.109375 11.117188 84.476562 17.226562 84 17.226562 C 83.925781 17.226562 83.570312 14.773438 83.214844 11.773438 Z M 39.691406 15.609375 C 39.492188 15.117188 38.996094 13.40625 38.585938 11.804688 L 37.839844 8.898438 L 38.90625 5.265625 C 39.925781 1.796875 40.054688 1.613281 41.847656 1.195312 C 44.9375 0.476562 44.996094 1.074219 42.703125 10.0625 C 41.113281 16.296875 40.460938 17.496094 39.691406 15.609375 Z M 59.199219 9.535156 C 57.878906 5.335938 57.046875 1.492188 57.296875 0.710938 C 57.417969 0.320312 58.90625 0 60.597656 0 C 63.460938 0 63.675781 0.101562 63.675781 1.476562 C 63.675781 2.894531 61.136719 10.941406 60.40625 11.824219 C 60.214844 12.058594 59.671875 11.03125 59.199219 9.535156 Z M 76.867188 8.542969 C 75.871094 3.320312 76.097656 2.429688 78.140625 3.507812 C 79.546875 4.246094 79.59375 5.746094 78.289062 8.207031 L 77.195312 10.269531 Z M 49.667969 7.304688 C 49.375 6.191406 48.878906 4.859375 48.566406 4.34375 C 48.253906 3.832031 47.992188 2.84375 47.992188 2.148438 C 47.992188 0.363281 52.546875 -0.675781 53.359375 0.921875 C 53.828125 1.847656 53.746094 2.417969 52.675781 5.640625 C 51.296875 9.789062 50.445312 10.261719 49.667969 7.304688 Z M 69.746094 4.878906 C 69.378906 3.035156 69.277344 1.605469 69.484375 1.199219 C 70.011719 0.160156 72.425781 1.320312 72.425781 2.613281 C 72.425781 3.882812 71.0625 7.894531 70.632812 7.894531 C 70.480469 7.894531 70.078125 6.539062 69.746094 4.878906 Z M 36.410156 5.035156 C 35.710938 2.832031 35.863281 2.152344 37.050781 2.152344 C 37.863281 2.152344 38.148438 2.488281 38.148438 3.445312 C 38.148438 4.671875 37.507812 6.460938 37.066406 6.460938 C 36.953125 6.460938 36.660156 5.816406 36.410156 5.035156 Z M 36.410156 5.035156 "/>
</g>
</svg>
