<?xml version="1.0" encoding="UTF-8"?>
<svg xmlns="http://www.w3.org/2000/svg" xmlns:xlink="http://www.w3.org/1999/xlink" width="120pt" height="90pt" viewBox="0 0 120 90" version="1.1">
<g id="surface1">
<path style=" stroke:none;fill-rule:nonzero;fill:rgb(0%,0%,0%);fill-opacity:1;" d="M 0.21875 89.488281 C 0.0585938 89.054688 0.136719 88.488281 0.628906 86.613281 C 0.964844 85.324219 1.410156 83.855469 1.613281 83.347656 C 1.820312 82.835938 2.796875 79.964844 3.78125 76.964844 C 4.765625 73.960938 5.707031 71.410156 5.867188 71.300781 C 6.03125 71.179688 6.359375 71.253906 6.597656 71.453125 C 7.140625 71.914062 7.253906 71.519531 7.019531 70.011719 C 6.734375 68.207031 6.921875 65.324219 7.390625 64.199219 C 7.859375 63.082031 8.890625 61.835938 9.347656 61.835938 C 9.523438 61.835938 9.921875 62.074219 10.238281 62.367188 C 11.105469 63.175781 11.328125 62.664062 10.984375 60.648438 C 10.550781 58.113281 10.691406 55.757812 11.40625 53.699219 C 12.078125 51.761719 12.628906 51.359375 14.222656 51.640625 C 16.535156 52.046875 16.625 51.921875 19.597656 44.066406 C 20.855469 40.738281 23.273438 36.027344 24.222656 35.0625 C 24.894531 34.375 26.308594 33.746094 27.699219 33.511719 C 29.609375 33.191406 30.847656 34.332031 38.941406 43.851562 C 41.195312 46.503906 43.277344 47.539062 46.132812 47.429688 C 48.4375 47.34375 49.394531 46.78125 50.828125 44.667969 C 51.902344 43.082031 54.664062 37.398438 59.6875 26.441406 C 64.601562 15.714844 66.933594 12.070312 69.566406 11.015625 C 71.453125 10.257812 74.285156 11.148438 76.339844 13.144531 C 78.324219 15.070312 80.839844 19.6875 82.324219 24.140625 C 82.671875 25.1875 83.117188 26.363281 83.3125 26.75 C 83.507812 27.136719 83.90625 28.304688 84.199219 29.34375 C 84.496094 30.386719 85.007812 31.988281 85.34375 32.90625 C 85.679688 33.824219 86.441406 36.027344 87.039062 37.800781 C 88.09375 40.929688 88.84375 42.894531 91.234375 48.796875 C 93.25 53.761719 95.609375 56.074219 96.585938 54.035156 C 97.230469 52.6875 97.109375 52.3125 95.953125 52.109375 C 94.285156 51.808594 93.515625 50.6875 91.03125 44.960938 C 89.824219 42.175781 88.835938 39.734375 88.835938 39.535156 C 88.835938 39.070312 87.496094 34.742188 86.648438 32.46875 C 86.292969 31.515625 86 30.621094 86 30.480469 C 86 30.195312 84.097656 24.378906 83.457031 22.707031 C 83.222656 22.097656 82.742188 20.84375 82.390625 19.921875 C 81.152344 16.675781 79.25 13.1875 77.664062 11.253906 C 75.796875 8.980469 72.367188 7.46875 69.804688 7.789062 C 67.390625 8.09375 66.269531 9.078125 63.828125 13.035156 C 61.910156 16.148438 56.765625 26.964844 55.257812 31.050781 C 52.890625 37.480469 50.480469 42.21875 48.75 43.855469 C 47.839844 44.710938 44.007812 44.746094 42.566406 43.910156 C 40.769531 42.871094 36.648438 38.707031 34.789062 36.058594 C 33.058594 33.59375 30.878906 31.714844 28.984375 31.054688 C 25.25 29.75 21.886719 33.433594 18.9375 42.070312 C 16.804688 48.320312 16.433594 49.101562 15.472656 49.425781 C 14.789062 49.652344 14.632812 49.574219 14.277344 48.835938 C 13.785156 47.804688 13.769531 47.320312 14.195312 46.460938 C 14.507812 45.832031 14.539062 45.835938 14.96875 46.589844 C 15.398438 47.339844 15.871094 47.625 15.871094 47.136719 C 15.871094 47.003906 15.683594 46.511719 15.453125 46.039062 C 14.980469 45.066406 14.925781 44.328125 15.277344 43.679688 C 15.46875 43.324219 15.644531 43.425781 16.136719 44.175781 C 17.058594 45.5625 17.375 44.886719 16.605469 43.179688 C 16.128906 42.109375 16.105469 40.59375 16.570312 40.398438 C 16.726562 40.332031 17.074219 40.640625 17.34375 41.085938 C 18.167969 42.4375 18.535156 40.996094 17.855469 39.074219 C 17.46875 37.980469 17.484375 37.070312 17.894531 36.496094 C 18.105469 36.199219 18.285156 36.335938 18.695312 37.105469 C 19.121094 37.898438 19.289062 38.019531 19.546875 37.714844 C 19.960938 37.21875 19.957031 36.167969 19.535156 35.316406 C 19.113281 34.46875 19.109375 33.210938 19.523438 32.378906 C 19.828125 31.757812 19.859375 31.78125 20.296875 32.875 C 20.792969 34.105469 21.15625 34.332031 21.300781 33.496094 C 21.40625 32.882812 20.933594 30.679688 20.695312 30.679688 C 20.40625 30.679688 20.523438 29.605469 20.855469 29.210938 C 21.382812 28.582031 21.679688 28.765625 21.941406 29.894531 C 22.222656 31.113281 22.671875 31.632812 22.933594 31.046875 C 23.066406 30.757812 23.015625 30.234375 22.761719 29.203125 C 22.445312 27.914062 22.433594 27.675781 22.644531 26.996094 C 23.015625 25.820312 23.429688 26.066406 23.847656 27.714844 C 24.445312 30.089844 25.078125 29.570312 24.613281 27.089844 C 24.371094 25.789062 24.371094 25.65625 24.640625 25.21875 C 25.203125 24.304688 25.863281 24.902344 25.863281 26.324219 C 25.863281 26.699219 25.976562 27.496094 26.117188 28.089844 C 26.324219 28.992188 26.429688 29.121094 26.738281 28.867188 C 27.054688 28.609375 27.128906 28.210938 27.195312 26.375 C 27.273438 24.441406 27.324219 24.175781 27.667969 24.070312 C 28.25 23.886719 28.53125 24.644531 28.53125 26.429688 C 28.53125 28.476562 28.660156 29.199219 29.027344 29.199219 C 29.445312 29.199219 29.6875 28.40625 29.835938 26.546875 C 29.953125 25.058594 30 24.9375 30.441406 25.011719 C 31.050781 25.113281 31.226562 25.710938 31.136719 27.402344 C 31.003906 29.886719 31.71875 30.378906 32.132812 28.085938 C 32.425781 26.449219 32.804688 26.175781 33.253906 27.28125 C 33.558594 28.035156 33.605469 28.867188 33.375 29.402344 C 33.167969 29.882812 33.09375 31.503906 33.253906 32.074219 C 33.554688 33.152344 34.042969 32.558594 34.390625 30.683594 C 34.582031 29.660156 34.800781 28.828125 34.882812 28.828125 C 35.214844 28.828125 35.71875 30.402344 35.632812 31.175781 C 35.585938 31.617188 35.5 32.414062 35.441406 32.945312 C 35.371094 33.597656 35.425781 34.109375 35.609375 34.523438 C 36.019531 35.433594 36.164062 35.289062 36.660156 33.476562 C 37.15625 31.648438 37.542969 31.378906 37.925781 32.59375 C 38.148438 33.292969 38.148438 33.542969 37.933594 34.675781 C 37.625 36.316406 37.628906 37.148438 37.941406 37.726562 C 38.207031 38.210938 38.300781 38.027344 39.421875 34.957031 C 39.773438 33.988281 39.855469 33.917969 40.097656 34.375 C 40.328125 34.800781 40.359375 35.289062 40.265625 37.191406 C 40.148438 39.65625 40.269531 40.183594 40.859375 39.765625 C 41.125 39.578125 41.191406 39.203125 41.191406 37.875 C 41.191406 35.953125 41.5 35.441406 42.160156 36.273438 C 42.535156 36.746094 42.578125 37.042969 42.59375 39.210938 C 42.605469 41.394531 42.640625 41.632812 42.96875 41.738281 C 43.289062 41.835938 43.347656 41.625 43.449219 40.070312 C 43.621094 37.46875 43.773438 36.988281 44.445312 36.988281 L 45.023438 36.988281 L 45.023438 39.121094 C 45.027344 41.417969 45.113281 41.917969 45.5625 42.285156 C 45.949219 42.605469 46.066406 41.433594 45.886719 39.007812 C 45.710938 36.613281 45.773438 36.246094 46.375 36.246094 C 46.890625 36.246094 46.898438 36.273438 47.183594 38.746094 C 47.324219 39.957031 47.464844 40.371094 47.789062 40.554688 C 48.507812 40.957031 48.628906 40.203125 48.183594 38.082031 C 47.882812 36.648438 47.828125 36.046875 47.964844 35.570312 C 48.296875 34.398438 48.820312 34.824219 49.226562 36.59375 C 49.714844 38.722656 50.117188 39.289062 50.445312 38.304688 C 50.773438 37.324219 50.773438 37.320312 50.019531 35.5 C 49.308594 33.785156 49.277344 33.054688 49.875 32.222656 C 50.203125 31.765625 50.285156 31.875 50.96875 33.617188 C 51.378906 34.652344 51.816406 35.503906 51.949219 35.503906 C 52.382812 35.503906 52.195312 33.8125 51.589844 32.234375 C 50.921875 30.496094 50.929688 29.355469 51.617188 28.972656 C 51.949219 28.785156 52.136719 29.035156 52.65625 30.335938 C 53.117188 31.492188 53.371094 31.855469 53.585938 31.675781 C 53.859375 31.441406 53.851562 31.328125 53.503906 30.03125 C 53.300781 29.269531 52.988281 28.285156 52.8125 27.847656 C 52.539062 27.160156 52.523438 26.941406 52.710938 26.269531 C 53.011719 25.214844 53.542969 25.285156 54.03125 26.449219 C 54.621094 27.859375 54.992188 28.222656 55.28125 27.6875 C 55.605469 27.09375 55.445312 26.054688 54.75 24.132812 C 54.195312 22.609375 54.191406 22.585938 54.496094 21.746094 L 54.804688 20.898438 L 55.691406 22.464844 C 56.613281 24.097656 56.941406 24.253906 57.242188 23.191406 C 57.382812 22.695312 57.316406 22.269531 56.914062 21.152344 C 56.164062 19.050781 56.128906 18.585938 56.644531 17.519531 C 57.101562 16.582031 57.515625 16.300781 57.515625 16.929688 C 57.515625 17.617188 58.386719 19.554688 58.695312 19.554688 C 58.871094 19.554688 59.015625 19.429688 59.015625 19.273438 C 59.015625 18.878906 58.382812 15.054688 58.277344 14.824219 C 58.140625 14.515625 58.5 13.296875 58.855469 12.875 C 59.132812 12.542969 59.285156 12.714844 59.855469 14.007812 C 60.882812 16.339844 61.429688 15.242188 60.613281 12.492188 C 60.375 11.695312 60.183594 10.734375 60.183594 10.363281 C 60.183594 9.703125 61.128906 7.816406 61.285156 8.167969 C 61.328125 8.261719 61.527344 9.070312 61.730469 9.960938 C 61.972656 11.039062 62.222656 11.621094 62.472656 11.703125 C 63.023438 11.875 62.964844 10.394531 62.351562 8.589844 C 61.800781 6.964844 61.730469 6.140625 62.089844 5.476562 C 62.503906 4.710938 62.875 5.207031 63.332031 7.132812 C 63.628906 8.394531 63.875 8.988281 64.097656 8.988281 C 64.558594 8.988281 64.589844 8.007812 64.191406 6.164062 C 63.730469 4.039062 63.757812 3.410156 64.335938 2.875 C 64.964844 2.300781 65.144531 2.570312 65.265625 4.273438 C 65.421875 6.386719 65.640625 7.316406 65.988281 7.316406 C 66.589844 7.316406 66.703125 6.492188 66.445312 4.023438 C 66.171875 1.40625 66.335938 0.601562 67.082031 0.917969 C 67.417969 1.058594 67.523438 1.371094 67.597656 2.445312 C 67.765625 4.90625 67.921875 5.644531 68.300781 5.765625 C 68.773438 5.917969 68.9375 4.601562 68.691406 2.632812 C 68.539062 1.414062 68.554688 1.128906 68.792969 0.734375 C 69.152344 0.144531 69.621094 0.140625 69.78125 0.722656 C 69.851562 0.972656 69.890625 1.765625 69.867188 2.484375 C 69.8125 4.207031 70.207031 5.4375 70.625 4.867188 C 70.847656 4.566406 70.9375 3.90625 70.976562 2.347656 C 71.03125 0.0195312 71.195312 -0.347656 71.910156 0.257812 C 72.351562 0.632812 72.363281 0.707031 72.253906 2.648438 C 72.152344 4.429688 72.179688 4.699219 72.480469 5.058594 C 72.765625 5.398438 72.875 5.304688 73.164062 4.484375 C 73.351562 3.949219 73.507812 3.046875 73.507812 2.476562 C 73.507812 1.910156 73.554688 1.179688 73.609375 0.859375 C 73.734375 0.136719 74.335938 0.09375 74.757812 0.777344 C 75.054688 1.261719 75.054688 1.378906 74.792969 3.429688 C 74.484375 5.832031 74.523438 6.207031 75.082031 6.207031 C 75.585938 6.207031 75.816406 5.535156 76.058594 3.363281 C 76.292969 1.261719 76.605469 0.96875 77.261719 2.230469 L 77.722656 3.113281 L 77.28125 4.558594 C 76.738281 6.339844 76.695312 7.691406 77.179688 7.691406 C 77.390625 7.691406 77.632812 7.246094 77.804688 6.527344 C 77.960938 5.886719 78.246094 4.941406 78.4375 4.429688 L 78.785156 3.496094 L 79.3125 4.363281 C 79.601562 4.839844 79.839844 5.335938 79.839844 5.460938 C 79.839844 5.585938 79.652344 6.257812 79.421875 6.949219 C 78.664062 9.234375 79.082031 9.558594 80.0625 7.441406 C 80.6875 6.09375 80.691406 6.085938 81.015625 6.808594 C 81.339844 7.527344 81.335938 7.542969 80.828125 9.085938 C 80.203125 10.980469 80.214844 12.273438 80.863281 12.4375 C 81.167969 12.519531 81.488281 12.199219 81.882812 11.417969 C 82.574219 10.070312 82.738281 10.027344 83.070312 11.089844 C 83.304688 11.835938 83.289062 11.980469 82.832031 13.140625 C 81.847656 15.632812 82.460938 16.882812 83.589844 14.683594 L 84.183594 13.515625 L 85.175781 15.625 L 84.503906 17.140625 C 84.136719 17.976562 83.835938 18.945312 83.835938 19.292969 C 83.835938 20.308594 84.785156 20.101562 85.472656 18.9375 L 86.054688 17.949219 L 86.445312 18.957031 C 86.875 20.070312 86.957031 21.039062 86.621094 21.039062 C 86.257812 21.039062 85.269531 23.09375 85.402344 23.570312 C 85.609375 24.320312 86.230469 24.023438 86.828125 22.886719 C 87.363281 21.867188 87.417969 21.835938 87.699219 22.402344 C 88.144531 23.296875 88.070312 24.226562 87.515625 24.738281 C 86.769531 25.425781 86.40625 26.457031 86.664062 27.152344 C 86.960938 27.941406 87.25 27.859375 88.101562 26.746094 C 88.820312 25.8125 88.859375 25.796875 89.175781 26.429688 C 89.671875 27.433594 89.574219 27.867188 88.667969 28.722656 C 88.054688 29.300781 87.835938 29.707031 87.835938 30.265625 C 87.835938 31.613281 88.363281 31.859375 89.097656 30.859375 C 89.890625 29.773438 90.195312 29.726562 90.566406 30.640625 C 90.878906 31.402344 90.914062 31.304688 89.589844 33.390625 C 89.359375 33.753906 89.167969 34.304688 89.167969 34.605469 C 89.167969 35.644531 89.628906 35.550781 90.390625 34.355469 C 91.027344 33.355469 91.195312 33.238281 91.410156 33.636719 C 91.8125 34.378906 91.71875 35.011719 91.042969 36.132812 C 90.222656 37.488281 90.132812 37.8125 90.40625 38.421875 C 90.597656 38.847656 90.75 38.75 91.386719 37.773438 C 91.804688 37.136719 92.175781 36.617188 92.21875 36.617188 C 92.261719 36.617188 92.421875 37.046875 92.578125 37.574219 C 92.855469 38.527344 92.851562 38.546875 92.179688 39.832031 C 91.394531 41.324219 91.324219 42.066406 91.929688 42.40625 C 92.265625 42.59375 92.472656 42.398438 92.898438 41.472656 C 93.472656 40.238281 93.789062 40.226562 94.121094 41.421875 C 94.296875 42.046875 94.238281 42.28125 93.660156 43.300781 C 93.296875 43.941406 93 44.6875 93 44.953125 C 93 45.878906 93.519531 45.882812 94.132812 44.960938 C 94.90625 43.789062 95.125 43.796875 95.371094 45 C 95.550781 45.886719 95.519531 46.054688 95.007812 46.988281 C 94.625 47.679688 94.480469 48.203125 94.550781 48.617188 C 94.703125 49.507812 94.921875 49.375 95.621094 47.964844 C 96.347656 46.507812 96.917969 44.160156 97.75 39.242188 C 98.285156 36.082031 99.257812 31.523438 99.5 31.054688 C 99.554688 30.953125 99.8125 30.035156 100.074219 29.011719 C 100.769531 26.3125 101.511719 24.234375 102.453125 22.355469 C 103.300781 20.65625 104.136719 19.953125 105.335938 19.9375 C 106.128906 19.925781 106.324219 19.378906 106.328125 17.164062 C 106.328125 15.394531 106.789062 12.890625 107.117188 12.875 C 107.183594 12.871094 107.691406 11.957031 108.242188 10.847656 C 109.539062 8.222656 109.914062 8.191406 112.082031 10.507812 C 112.960938 11.445312 113.71875 12.449219 113.769531 12.738281 C 113.867188 13.308594 113.777344 13.621094 112.65625 16.667969 C 110.246094 23.207031 109.324219 25.824219 109.324219 26.136719 C 109.324219 26.328125 109.167969 26.804688 108.972656 27.195312 C 108.777344 27.582031 108.402344 28.59375 108.140625 29.441406 L 107.664062 30.984375 L 105.984375 31.109375 L 104.304688 31.238281 L 103.804688 32.535156 C 103.140625 34.269531 102.496094 37.28125 102.5 38.65625 C 102.5 39.269531 102.648438 40.484375 102.828125 41.359375 C 103.175781 43.074219 103.832031 43.953125 105.035156 44.3125 C 105.546875 44.46875 105.765625 44.824219 106.226562 46.257812 C 107.617188 50.566406 109.167969 51.613281 114.183594 51.625 C 116.078125 51.632812 117.679688 51.757812 117.75 51.90625 C 117.9375 52.328125 117.503906 53.265625 116.324219 55 C 115.730469 55.875 114.703125 57.667969 114.046875 58.984375 C 113.394531 60.300781 112.195312 62.421875 111.382812 63.703125 C 110.574219 64.976562 109.695312 66.417969 109.4375 66.894531 C 108.792969 68.089844 108.476562 68.011719 106.792969 66.226562 C 105.582031 64.949219 105.296875 64.769531 105.082031 65.164062 C 104.648438 65.96875 104.785156 67.144531 105.429688 68.125 C 106.273438 69.40625 106.566406 70.484375 106.332031 71.453125 C 106.089844 72.460938 105.683594 72.421875 105.015625 71.328125 C 104.714844 70.839844 104.242188 70.226562 103.960938 69.964844 C 103.492188 69.535156 103.417969 69.5625 103.140625 70.332031 C 102.753906 71.398438 102.929688 72.242188 103.832031 73.632812 C 104.535156 74.71875 104.65625 75.660156 104.21875 76.734375 C 103.957031 77.386719 103.90625 77.332031 103.0625 75.554688 C 102.101562 73.53125 101.769531 73.304688 101.488281 74.46875 C 101.332031 75.125 101.414062 75.527344 102.0625 77.285156 C 102.6875 78.972656 102.792969 79.464844 102.65625 80.042969 C 102.34375 81.328125 101.890625 80.875 101.351562 78.738281 C 100.75 76.363281 100.550781 76.023438 100.210938 76.773438 C 99.988281 77.273438 100.027344 77.605469 100.589844 79.835938 C 101.191406 82.226562 101.203125 82.363281 100.910156 82.839844 C 100.382812 83.695312 100.242188 83.4375 99.679688 80.589844 C 99.125 77.773438 98.796875 77.074219 98.394531 77.824219 C 98.066406 78.425781 98.109375 79.996094 98.519531 82.367188 C 98.921875 84.722656 98.855469 85.574219 98.257812 85.574219 C 97.9375 85.574219 97.8125 85.332031 97.734375 84.550781 C 97.460938 81.894531 97.128906 79.628906 96.980469 79.429688 C 96.890625 79.304688 96.710938 79.398438 96.582031 79.640625 C 96.40625 79.964844 96.359375 80.722656 96.410156 82.542969 C 96.445312 83.902344 96.527344 85.308594 96.589844 85.660156 C 96.683594 86.214844 96.597656 86.3125 96.015625 86.3125 C 95.640625 86.3125 95.332031 86.269531 95.328125 86.222656 C 95.21875 82.691406 95.085938 80.828125 94.910156 80.417969 C 94.726562 79.988281 94.664062 80.140625 94.519531 81.347656 C 94.425781 82.144531 94.300781 83.589844 94.246094 84.570312 L 94.144531 86.351562 L 93.53125 86.242188 C 92.964844 86.132812 92.921875 86.039062 92.945312 85.011719 C 92.960938 84.40625 93.042969 83.195312 93.128906 82.328125 C 93.25 81.152344 93.230469 80.589844 93.070312 80.101562 C 92.726562 79.066406 92.300781 79.953125 91.976562 82.410156 C 91.613281 85.113281 91.46875 85.457031 90.921875 84.898438 C 90.425781 84.398438 90.402344 83.773438 90.785156 81.394531 C 91.054688 79.71875 91.054688 79.59375 90.773438 78.984375 C 90.492188 78.371094 90.457031 78.394531 90.066406 79.453125 C 89.839844 80.058594 89.546875 81.105469 89.417969 81.773438 C 89.167969 83.058594 88.789062 83.292969 88.292969 82.457031 C 87.894531 81.785156 87.929688 80.988281 88.421875 79.316406 C 88.871094 77.816406 88.84375 76.84375 88.34375 76.488281 C 87.855469 76.144531 87.238281 76.902344 86.867188 78.3125 C 86.480469 79.757812 86.351562 79.863281 85.792969 79.175781 C 85.164062 78.390625 85.167969 78.050781 85.847656 76.417969 C 86.210938 75.542969 86.503906 74.675781 86.503906 74.480469 C 86.503906 73.890625 86 72.964844 85.683594 72.964844 C 85.390625 72.964844 84.203125 74.839844 83.976562 75.660156 C 83.835938 76.15625 83.003906 75.429688 83.003906 74.804688 C 83.003906 74.585938 83.351562 73.582031 83.78125 72.570312 C 84.484375 70.890625 84.539062 70.636719 84.367188 69.800781 C 84.113281 68.554688 83.886719 68.632812 82.765625 70.378906 C 81.847656 71.8125 81.785156 71.855469 81.40625 71.300781 C 81.183594 70.980469 81.007812 70.566406 81.007812 70.390625 C 81.007812 70.207031 81.34375 69.398438 81.757812 68.589844 C 82.527344 67.078125 82.691406 65.976562 82.265625 65.191406 C 81.910156 64.535156 81.355469 65.042969 80.558594 66.746094 C 79.890625 68.183594 79.835938 68.230469 79.351562 67.78125 C 79.070312 67.519531 78.839844 67.109375 78.839844 66.871094 C 78.839844 66.628906 79.175781 65.714844 79.589844 64.839844 C 80.003906 63.96875 80.339844 63.027344 80.339844 62.757812 C 80.339844 62.007812 79.523438 60.734375 79.203125 60.980469 C 79.050781 61.097656 78.535156 62.03125 78.058594 63.058594 C 77.203125 64.898438 77.191406 64.910156 76.769531 64.292969 C 76.535156 63.949219 76.34375 63.5 76.34375 63.289062 C 76.34375 63.074219 76.726562 61.988281 77.203125 60.878906 C 77.984375 59.03125 78.042969 58.78125 77.871094 57.9375 C 77.765625 57.429688 77.578125 57.011719 77.453125 57.011719 C 77.328125 57.011719 76.835938 58.011719 76.355469 59.234375 L 75.488281 61.457031 L 74.992188 60.886719 C 74.453125 60.273438 74.445312 60.359375 75.289062 57.667969 C 75.90625 55.707031 75.972656 54.980469 75.570312 54.636719 C 75.203125 54.324219 74.949219 54.859375 74.351562 57.230469 C 73.816406 59.339844 73.5 59.664062 72.921875 58.71875 C 72.613281 58.222656 72.613281 58.136719 72.878906 56.902344 C 73.339844 54.746094 73.421875 53.070312 73.085938 52.648438 C 72.378906 51.769531 71.847656 53.136719 71.84375 55.832031 C 71.835938 57.605469 71.648438 58.222656 71.160156 58.066406 C 70.789062 57.949219 70.753906 57.746094 70.675781 55.1875 C 70.59375 52.445312 70.464844 51.914062 70.03125 52.527344 C 69.847656 52.785156 69.835938 53.335938 69.960938 55.296875 C 70.136719 58.03125 70.085938 58.433594 69.523438 58.582031 C 69.167969 58.671875 69.109375 58.46875 68.933594 56.542969 C 68.714844 54.171875 68.503906 53.464844 68.105469 53.804688 C 67.628906 54.207031 67.621094 55.207031 68.070312 57.25 C 68.601562 59.671875 68.613281 60.03125 68.164062 60.65625 C 67.769531 61.203125 67.585938 60.84375 67.097656 58.605469 C 66.738281 56.964844 66.507812 56.753906 66.152344 57.738281 C 65.722656 58.917969 65.769531 59.757812 66.347656 61.222656 C 66.929688 62.699219 66.953125 62.992188 66.542969 63.8125 C 66.101562 64.699219 65.761719 64.574219 65.421875 63.414062 C 64.878906 61.558594 64.113281 60.832031 63.914062 61.984375 C 63.796875 62.675781 64.269531 64.6875 64.6875 65.265625 C 65.105469 65.84375 65.105469 66.730469 64.683594 67.574219 C 64.367188 68.21875 64.335938 68.183594 63.617188 66.421875 C 62.988281 64.886719 62.828125 64.675781 62.570312 65.023438 C 62.0625 65.707031 62.125 66.757812 62.757812 68.125 C 63.457031 69.632812 63.492188 70.308594 62.933594 71.476562 C 62.457031 72.472656 62.5 72.519531 62.035156 70.460938 C 61.664062 68.835938 60.996094 68.035156 60.648438 68.808594 C 60.359375 69.453125 60.652344 71.785156 61.105469 72.449219 C 61.605469 73.175781 61.632812 74.101562 61.171875 74.742188 C 60.863281 75.171875 60.761719 75.046875 60.105469 73.4375 C 59.429688 71.789062 59.355469 71.707031 59.097656 72.265625 C 58.757812 73 58.929688 73.933594 59.746094 75.863281 L 60.265625 77.097656 L 59.796875 77.992188 C 59.539062 78.488281 59.265625 78.898438 59.183594 78.898438 C 59.101562 78.898438 58.867188 78.222656 58.664062 77.410156 C 58.457031 76.589844 58.117188 75.671875 57.914062 75.371094 C 57.578125 74.886719 57.507812 74.886719 57.277344 75.402344 C 56.996094 76.035156 57.027344 76.269531 57.804688 79.019531 C 58.1875 80.378906 58.195312 80.480469 57.921875 81.152344 C 57.761719 81.542969 57.546875 81.859375 57.4375 81.859375 C 57.261719 81.859375 56.601562 79.632812 56.316406 78.0625 C 56.164062 77.242188 55.542969 77.207031 55.40625 78.003906 C 55.3125 78.554688 55.722656 80.726562 56.226562 82.351562 C 56.40625 82.921875 56.375 83.128906 56.023438 83.765625 C 55.675781 84.410156 55.589844 84.441406 55.441406 83.972656 C 55.347656 83.671875 55.023438 82.644531 54.722656 81.6875 C 53.824219 78.835938 53.371094 80.046875 54.09375 83.378906 C 54.605469 85.734375 54.613281 86.003906 54.191406 86.589844 C 53.707031 87.261719 53.449219 86.847656 53.199219 84.988281 C 52.902344 82.75 52.453125 81.511719 52.164062 82.136719 C 51.992188 82.515625 51.992188 82.90625 52.167969 84.179688 C 52.289062 85.046875 52.398438 86.257812 52.410156 86.867188 C 52.4375 87.894531 52.390625 87.988281 51.820312 88.09375 C 51.226562 88.207031 51.203125 88.164062 51.101562 86.796875 C 50.9375 84.503906 50.511719 82.230469 50.253906 82.230469 C 49.914062 82.230469 49.820312 82.988281 49.792969 85.851562 C 49.769531 88.632812 49.535156 89.125 48.769531 88.011719 C 48.394531 87.460938 48.375 87.273438 48.46875 85.023438 C 48.554688 82.964844 48.527344 82.585938 48.285156 82.375 C 47.867188 82.019531 47.511719 83 47.40625 84.769531 C 47.28125 86.800781 47.011719 87.285156 46.34375 86.671875 C 45.90625 86.269531 45.84375 86.050781 45.925781 85.230469 C 46.242188 82.167969 46.238281 81.949219 45.867188 81.5 C 45.417969 80.96875 45.175781 81.351562 44.660156 83.394531 C 44.460938 84.179688 44.238281 84.828125 44.171875 84.828125 C 44.097656 84.828125 43.851562 84.453125 43.617188 83.992188 L 43.191406 83.160156 L 43.480469 81.398438 L 43.769531 79.644531 L 43.324219 78.65625 L 42.882812 77.667969 L 42.414062 78.789062 C 42.152344 79.410156 41.820312 80.308594 41.671875 80.792969 C 41.421875 81.601562 41.367188 81.625 40.960938 81.144531 C 40.417969 80.496094 40.414062 80.03125 40.941406 78.300781 C 41.171875 77.550781 41.359375 76.636719 41.359375 76.277344 C 41.359375 75.5625 40.9375 74.445312 40.671875 74.445312 C 40.40625 74.445312 39.601562 75.46875 39.363281 76.109375 C 38.941406 77.238281 38.589844 77.4375 38.296875 76.71875 C 38.046875 76.105469 38.066406 75.933594 38.613281 74.234375 C 39.234375 72.277344 39.316406 71.660156 38.984375 71.382812 C 38.59375 71.046875 38.042969 71.8125 37.601562 73.300781 C 37.230469 74.539062 37.101562 74.734375 36.851562 74.433594 C 36.332031 73.8125 36.332031 73.414062 36.855469 71.808594 C 37.488281 69.863281 37.515625 68.621094 36.941406 68.136719 C 36.410156 67.6875 35.972656 68.230469 35.5 69.925781 L 35.15625 71.15625 L 34.675781 70.136719 C 34.230469 69.1875 34.214844 69.054688 34.449219 68.347656 C 34.933594 66.882812 35.359375 65.355469 35.363281 65.078125 C 35.363281 64.46875 34.695312 64.851562 34.226562 65.726562 C 33.628906 66.847656 33.5 66.871094 33.109375 65.902344 C 32.8125 65.175781 32.816406 65.128906 33.253906 64.125 C 33.75 62.96875 33.8125 62.136719 33.457031 61.480469 C 33.171875 60.957031 32.800781 61.324219 32.222656 62.699219 C 31.886719 63.488281 31.769531 63.570312 31.4375 63.242188 C 30.855469 62.652344 30.8125 61.890625 31.289062 60.632812 C 31.855469 59.132812 31.796875 57.613281 31.164062 57.453125 C 30.796875 57.359375 30.632812 57.613281 30.269531 58.84375 C 29.785156 60.46875 29.53125 60.683594 29.1875 59.765625 C 29.023438 59.316406 29.007812 58.757812 29.140625 57.355469 C 29.28125 55.808594 29.265625 55.441406 29.03125 54.96875 C 28.878906 54.664062 28.679688 54.414062 28.585938 54.414062 C 28.257812 54.414062 27.855469 55.808594 27.773438 57.226562 C 27.730469 58.015625 27.628906 58.796875 27.554688 58.964844 C 27.449219 59.203125 26.832031 58.835938 26.402344 58.285156 C 26.375 58.25 26.429688 57.5 26.515625 56.621094 C 26.71875 54.628906 26.539062 53.816406 25.859375 53.589844 C 24.992188 53.308594 24.617188 54.300781 24.617188 56.886719 L 24.617188 59.050781 L 24.078125 59.167969 C 23.550781 59.28125 23.535156 59.246094 23.535156 57.847656 C 23.535156 55.859375 23.210938 54.921875 22.726562 55.5 C 22.390625 55.898438 22.371094 56.117188 22.46875 58.289062 C 22.570312 60.417969 22.546875 60.683594 22.234375 61.050781 C 21.757812 61.617188 21.746094 61.605469 21.453125 60.347656 C 21.296875 59.683594 21.0625 59.238281 20.863281 59.238281 C 20.480469 59.238281 20.484375 59.171875 20.722656 60.695312 C 20.867188 61.617188 20.863281 62.097656 20.695312 62.785156 C 20.578125 63.28125 20.414062 63.691406 20.332031 63.691406 C 20.167969 63.691406 19.371094 59.871094 19.371094 59.070312 C 19.371094 58.441406 20.875 55.691406 22.453125 53.429688 C 24.59375 50.367188 26.289062 50.066406 29.03125 52.277344 C 30.804688 53.703125 32.039062 55.425781 34.78125 60.300781 C 35.972656 62.421875 37.132812 64.421875 37.359375 64.746094 C 37.589844 65.066406 38.152344 66.027344 38.613281 66.878906 C 39.070312 67.726562 40.605469 70.160156 42.027344 72.277344 C 45.289062 77.15625 47.234375 78.960938 49.773438 79.480469 C 51.128906 79.757812 51.914062 79.367188 53.625 77.5625 C 55.003906 76.105469 58.480469 69.582031 61.503906 62.773438 C 62.546875 60.417969 63.46875 58.496094 63.550781 58.496094 C 63.632812 58.496094 64.25 57.335938 64.917969 55.921875 C 66.253906 53.117188 67.699219 50.890625 68.449219 50.488281 C 68.714844 50.347656 69.023438 50.074219 69.132812 49.878906 C 69.410156 49.390625 71.640625 49.445312 72.765625 49.964844 C 74.582031 50.808594 77.601562 54.230469 79.226562 57.292969 C 79.632812 58.054688 80.554688 59.765625 81.273438 61.09375 C 81.996094 62.414062 83.148438 64.699219 83.839844 66.15625 C 87.023438 72.921875 89.375 76.050781 91.917969 76.902344 C 94.753906 77.851562 96.136719 77.472656 98.160156 75.195312 C 99.222656 73.992188 99.515625 73.53125 101.59375 69.695312 C 102.589844 67.851562 102.898438 66.652344 102.507812 66.117188 C 102.347656 65.890625 100.828125 68 100.828125 68.449219 C 100.828125 69.019531 97.988281 72.644531 96.824219 73.546875 C 95.691406 74.433594 95.417969 74.503906 93.75 74.332031 C 91.835938 74.144531 90.675781 73.441406 89.695312 71.882812 C 89.421875 71.453125 89.152344 71.105469 89.089844 71.105469 C 88.738281 71.105469 83.285156 60.527344 81.761719 56.890625 C 81.113281 55.339844 79.019531 51.449219 78.832031 51.449219 C 78.753906 51.449219 78.4375 50.964844 78.136719 50.375 C 76.550781 47.277344 73.675781 45.359375 70.59375 45.339844 L 68.597656 45.328125 L 67.167969 46.855469 C 65.1875 48.972656 64.65625 49.953125 59.933594 60.191406 C 55.332031 70.164062 54.285156 72.144531 52.6875 73.84375 C 51.695312 74.898438 51.460938 74.996094 49.9375 74.996094 C 48.378906 74.988281 48.183594 74.898438 46.824219 73.578125 C 44.820312 71.628906 43.199219 69.527344 40.917969 65.933594 C 39.589844 63.832031 38.179688 61.671875 37.890625 61.277344 C 37.742188 61.070312 36.796875 59.492188 35.789062 57.773438 C 34.777344 56.054688 33.578125 54.144531 33.117188 53.53125 C 32.65625 52.917969 31.902344 51.878906 31.441406 51.222656 C 29.582031 48.574219 26.0625 47.140625 24.421875 48.363281 C 23.980469 48.691406 23.132812 49.660156 22.535156 50.511719 C 21.210938 52.402344 18.515625 57.1875 18.308594 58.011719 C 18.210938 58.410156 18.257812 59.246094 18.457031 60.46875 C 19.269531 65.492188 18.246094 69.367188 16.117188 69.328125 C 15.566406 69.316406 15.023438 69.054688 14.714844 68.644531 C 13.929688 67.617188 13.738281 68.339844 14.144531 70.808594 C 14.679688 74.066406 14.210938 76.773438 12.839844 78.371094 C 12.335938 78.957031 11.25 79.054688 10.890625 78.546875 C 10.75 78.347656 10.5 78.378906 10.265625 78.613281 C 9.9375 78.949219 9.875 79.285156 9.875 80.761719 C 9.875 81.890625 9.769531 82.804688 9.582031 83.304688 C 9.191406 84.375 6.628906 86.777344 4.613281 87.976562 C 3.703125 88.511719 2.679688 89.191406 2.332031 89.480469 C 1.523438 90.175781 0.476562 90.171875 0.21875 89.488281 Z M 4.753906 83.71875 C 5.273438 83.304688 5.804688 82.976562 5.929688 82.976562 C 6.054688 82.976562 6.292969 82.640625 6.457031 82.230469 C 6.625 81.824219 6.851562 81.492188 6.960938 81.492188 C 7.070312 81.492188 7.359375 81.144531 7.601562 80.722656 C 8.21875 79.640625 8.191406 78.128906 7.527344 76.890625 C 6.960938 75.828125 6.828125 75.757812 6.375 76.300781 C 5.941406 76.820312 3.339844 84.457031 3.59375 84.457031 C 3.710938 84.457031 4.230469 84.125 4.753906 83.71875 Z M 12.453125 74.351562 C 12.84375 73.609375 12.878906 73.347656 12.773438 71.902344 C 12.640625 70.054688 11.882812 67.632812 11.050781 66.382812 C 9.984375 64.78125 8.203125 65.734375 8.210938 67.886719 C 8.21875 69.871094 9.5625 74.03125 10.453125 74.835938 C 11.113281 75.429688 12.003906 75.21875 12.453125 74.351562 Z M 10.535156 72.644531 C 9.910156 71.902344 9.214844 69.585938 9.210938 68.234375 C 9.207031 67.515625 9.292969 67.398438 9.820312 67.398438 C 10.332031 67.398438 10.546875 67.675781 11.136719 69.078125 C 11.90625 70.921875 12.191406 72.515625 11.839844 73.011719 C 11.503906 73.488281 11.167969 73.394531 10.535156 72.644531 Z M 95.480469 71.109375 C 96.085938 70.707031 96.804688 69.972656 97.078125 69.480469 C 97.550781 68.636719 97.5625 68.542969 97.300781 67.898438 C 97.148438 67.519531 96.511719 64.976562 95.886719 62.242188 C 95.242188 59.441406 94.558594 56.964844 94.316406 56.5625 C 93.765625 55.648438 92.691406 55.472656 91.699219 56.136719 C 91.273438 56.425781 90.546875 56.757812 90.085938 56.878906 C 89.074219 57.148438 88.988281 57.285156 89.417969 58 C 89.753906 58.566406 89.863281 58.5625 92.835938 57.878906 C 93.722656 57.675781 93.769531 57.707031 93.96875 58.695312 C 94.097656 59.328125 94.121094 59.851562 94.027344 60.066406 C 93.824219 60.515625 92.867188 60.96875 91.445312 61.292969 C 90.292969 61.558594 89.855469 62.242188 90.351562 63.003906 C 90.582031 63.367188 93.683594 63.1875 94.164062 62.792969 C 94.492188 62.519531 94.757812 62.941406 94.898438 63.933594 C 94.992188 64.605469 94.921875 64.792969 94.460938 65.117188 C 94.160156 65.332031 93.488281 65.613281 92.964844 65.75 C 92.441406 65.886719 91.882812 66.203125 91.726562 66.464844 C 91.457031 66.894531 91.460938 66.953125 91.765625 67.320312 C 92.011719 67.609375 92.566406 67.507812 93.898438 66.949219 C 95.414062 66.304688 95.722656 66.269531 95.847656 66.699219 C 95.976562 67.160156 96.0625 68.878906 95.953125 68.878906 C 95.929688 68.878906 95.5 69.214844 95 69.621094 C 94.5 70.023438 93.734375 70.46875 93.292969 70.597656 C 92.855469 70.726562 92.5 70.960938 92.5 71.121094 C 92.5 72.050781 94.085938 72.042969 95.480469 71.109375 Z M 51.007812 70.3125 C 52.441406 69.765625 54.519531 67.574219 55.753906 65.308594 C 57.351562 62.390625 57.160156 61.476562 55.484375 64.015625 C 54.285156 65.832031 51.894531 67.96875 50.4375 68.535156 C 49.40625 68.9375 49.292969 68.914062 48.996094 68.253906 C 48.507812 67.160156 48.753906 66.359375 49.660156 66.09375 C 50.085938 65.960938 50.789062 65.539062 51.214844 65.148438 C 51.644531 64.753906 52.097656 64.429688 52.222656 64.429688 C 52.53125 64.429688 54.867188 61.914062 55.226562 61.191406 C 55.855469 59.929688 55.324219 59.007812 54.59375 60.105469 C 54.226562 60.667969 50.878906 63.136719 49.976562 63.511719 C 49.167969 63.847656 48.652344 63.195312 48.71875 61.914062 C 48.761719 61.140625 48.894531 60.863281 49.351562 60.597656 C 51.289062 59.488281 53.703125 57.652344 54.039062 57.039062 C 54.40625 56.371094 54.414062 56.277344 54.160156 55.699219 C 53.902344 55.117188 53.816406 55.128906 52.828125 55.90625 C 52.246094 56.363281 51.148438 57.113281 50.386719 57.574219 C 49.0625 58.375 48.992188 58.382812 48.644531 57.753906 C 48.097656 56.769531 48.472656 56.070312 50.167969 54.914062 C 50.957031 54.375 51.675781 53.816406 51.769531 53.671875 C 51.859375 53.527344 52.144531 53.296875 52.402344 53.15625 C 52.730469 52.984375 52.855469 52.714844 52.816406 52.273438 C 52.742188 51.503906 52.660156 51.519531 50.769531 52.734375 C 49.078125 53.816406 47.972656 53.859375 47.882812 52.847656 C 47.828125 52.183594 49.023438 50.777344 50.328125 49.972656 C 50.664062 49.765625 51.046875 49.433594 51.1875 49.238281 C 51.40625 48.921875 51.40625 48.808594 51.164062 48.273438 C 50.960938 47.820312 50.8125 47.761719 50.578125 48.042969 C 50.40625 48.25 49.804688 48.761719 49.238281 49.183594 C 47.210938 50.707031 46.523438 52.191406 46.523438 55.054688 C 46.523438 56.558594 47.203125 64.292969 47.535156 66.59375 C 47.644531 67.34375 47.875 68.578125 48.046875 69.34375 C 48.339844 70.648438 48.410156 70.738281 49.136719 70.738281 C 49.5625 70.738281 50.402344 70.542969 51.007812 70.3125 Z M 46.75 69.210938 C 47.074219 68.171875 46.867188 66.949219 46.285156 66.480469 C 45.71875 66.035156 45.289062 66.582031 45.222656 67.851562 C 45.117188 69.765625 46.257812 70.773438 46.75 69.210938 Z M 90.585938 68.996094 C 90.757812 68.464844 90.703125 68.0625 90.25 66.492188 C 89.953125 65.460938 89.433594 63.496094 89.097656 62.121094 C 88.335938 59.011719 88.015625 58.554688 87.414062 59.707031 L 86.972656 60.550781 L 87.566406 62.398438 C 87.894531 63.414062 88.3125 64.859375 88.496094 65.613281 C 88.855469 67.085938 89.945312 69.621094 90.214844 69.621094 C 90.304688 69.621094 90.472656 69.339844 90.585938 68.996094 Z M 100.671875 65.527344 C 101.128906 64.804688 101.351562 63.316406 101.007812 63.316406 C 100.792969 63.316406 98.84375 65.921875 98.722656 66.375 C 98.664062 66.578125 98.71875 66.878906 98.839844 67.042969 C 99.09375 67.390625 99.9375 66.6875 100.671875 65.527344 Z M 16.820312 64.734375 C 17.511719 63.28125 17.257812 60.980469 16.082031 58.078125 C 15.394531 56.390625 14.425781 55.160156 13.78125 55.160156 C 13.09375 55.160156 12.371094 57.011719 12.371094 58.785156 C 12.371094 60.75 13.464844 64.007812 14.621094 65.503906 C 15.105469 66.128906 16.363281 65.691406 16.820312 64.734375 Z M 14.726562 63.023438 C 13.511719 61.203125 12.761719 57.738281 13.457031 57.144531 C 13.75 56.894531 14.644531 57.613281 15.105469 58.464844 C 15.433594 59.078125 16.371094 62.148438 16.371094 62.621094 C 16.371094 63.070312 15.863281 64.0625 15.632812 64.0625 C 15.515625 64.0625 15.109375 63.589844 14.726562 63.023438 Z M 43.769531 65.3125 C 43.933594 64.949219 44.019531 64.25 43.988281 63.546875 C 43.945312 62.539062 43.871094 62.375 43.386719 62.273438 C 42.699219 62.125 42.355469 62.726562 42.355469 64.085938 C 42.355469 65.75 43.234375 66.507812 43.769531 65.3125 Z M 99.234375 63.660156 C 100.246094 62.605469 100.460938 61.09375 99.601562 61.09375 C 99.078125 61.09375 97.285156 62.699219 97.203125 63.234375 C 97.132812 63.707031 97.695312 64.367188 98.207031 64.40625 C 98.367188 64.421875 98.828125 64.085938 99.234375 63.660156 Z M 110.464844 61.605469 C 110.617188 60.875 110.621094 60.515625 110.472656 60.125 C 110.070312 59.035156 109.324219 59.789062 109.324219 61.292969 C 109.324219 62.292969 109.453125 62.574219 109.90625 62.574219 C 110.136719 62.574219 110.34375 62.21875 110.464844 61.605469 Z M 102.222656 61.625 C 102.347656 60.898438 102.152344 60.03125 101.207031 57.199219 C 100 53.585938 99.359375 52.191406 98.898438 52.191406 C 97.875 52.191406 98.265625 54.105469 100.242188 58.785156 C 101.695312 62.214844 102.039062 62.703125 102.222656 61.625 Z M 40.085938 61.269531 C 40.148438 60.910156 39.941406 60.21875 39.515625 59.363281 C 38.363281 57.046875 37.808594 55.257812 37.925781 54.222656 C 38.105469 52.640625 38.722656 53.035156 39.707031 55.355469 C 40.625 57.507812 41.285156 58.230469 41.539062 57.34375 C 41.773438 56.519531 41.730469 56.332031 40.941406 54.621094 C 40.527344 53.730469 40.191406 52.796875 40.191406 52.542969 C 40.191406 52.292969 40.421875 51.253906 40.703125 50.234375 C 41.105469 48.777344 41.167969 48.3125 40.996094 48.066406 C 40.660156 47.59375 40.640625 47.617188 39.960938 49.433594 C 39.507812 50.636719 39.222656 51.089844 38.964844 51.007812 C 38.546875 50.875 38.390625 49.472656 38.703125 48.640625 C 38.8125 48.339844 38.863281 48 38.8125 47.886719 C 38.597656 47.40625 37.992188 48.273438 37.199219 50.203125 C 36.277344 52.445312 36.183594 53.304688 36.632812 55.40625 C 36.996094 57.101562 39.351562 61.757812 39.878906 61.824219 C 39.9375 61.832031 40.03125 61.582031 40.085938 61.269531 Z M 107.957031 61.015625 C 108.234375 60.394531 108.207031 59.050781 107.902344 58.488281 C 107.480469 57.710938 106.824219 58.59375 106.824219 59.941406 C 106.824219 61.359375 107.511719 62.011719 107.957031 61.015625 Z M 98.066406 59.632812 C 98.535156 58.492188 97.996094 55.902344 97.296875 55.902344 C 96.917969 55.902344 96.164062 57.492188 96.164062 58.292969 C 96.164062 60.042969 97.515625 60.992188 98.066406 59.632812 Z M 45.347656 59.261719 C 45.640625 58.050781 45.550781 57.027344 45.113281 56.582031 C 44.304688 55.761719 43.441406 58.167969 44.054688 59.535156 C 44.371094 60.242188 45.152344 60.078125 45.347656 59.261719 Z M 105.199219 59.144531 C 105.765625 58.171875 105.628906 56.398438 104.960938 56.070312 C 104.527344 55.859375 104.371094 55.964844 104.125 56.640625 C 103.753906 57.65625 103.746094 58.269531 104.085938 59.027344 C 104.402344 59.730469 104.832031 59.777344 105.199219 59.144531 Z M 86.214844 58.0625 C 86.554688 57.046875 86.636719 55.574219 86.429688 54.210938 C 86.25 53.058594 86.84375 52.675781 88.625 52.785156 C 89.816406 52.859375 90.222656 52.753906 90.414062 52.324219 C 91.175781 50.632812 90.09375 47.046875 88.367188 45.542969 C 87.234375 44.554688 86.566406 44.546875 86.332031 45.523438 C 86.121094 46.398438 86.0625 46.332031 87.90625 47.371094 C 88.636719 47.785156 89.292969 48.328125 89.367188 48.578125 C 89.484375 48.980469 89.40625 50.671875 89.25 51.015625 C 89.203125 51.125 87.222656 50.535156 86.199219 50.105469 C 85.984375 50.015625 85.664062 49.375 85.476562 48.65625 C 84.828125 46.21875 84.492188 47.425781 84.902344 50.695312 C 85.054688 51.894531 85.222656 53.972656 85.28125 55.308594 C 85.371094 57.421875 85.34375 57.773438 85.085938 57.992188 C 84.644531 58.367188 84.300781 57.703125 84.039062 55.96875 C 83.875 54.867188 83.714844 54.417969 83.488281 54.417969 C 83.25 54.417969 83.167969 54.679688 83.171875 55.4375 C 83.175781 56.726562 83.300781 57.160156 84.011719 58.328125 C 84.78125 59.597656 85.742188 59.480469 86.214844 58.0625 Z M 112.160156 57.558594 C 112.320312 57.125 112.328125 56.777344 112.183594 56.074219 C 111.957031 54.964844 111.402344 54.871094 111.15625 55.902344 C 110.777344 57.476562 111.652344 58.917969 112.160156 57.558594 Z M 57.859375 57 C 58.222656 56.566406 58.296875 54.824219 57.980469 54.121094 C 57.679688 53.453125 56.9375 53.585938 56.617188 54.367188 C 56.402344 54.898438 56.375 55.273438 56.5 55.996094 C 56.726562 57.332031 57.253906 57.722656 57.859375 57 Z M 109.648438 56.105469 C 109.996094 55.171875 109.796875 53.875 109.28125 53.746094 C 108.921875 53.652344 108.78125 53.839844 108.621094 54.621094 C 108.445312 55.480469 108.460938 55.679688 108.734375 56.125 C 109.140625 56.785156 109.398438 56.78125 109.648438 56.105469 Z M 17.617188 54.789062 C 17.617188 53.773438 17.246094 53.351562 17.101562 54.203125 C 16.960938 55 17.15625 55.996094 17.410156 55.808594 C 17.523438 55.722656 17.617188 55.265625 17.617188 54.789062 Z M 114.136719 55.394531 C 114.28125 55.007812 114.265625 54.777344 114.074219 54.425781 C 113.742188 53.808594 113.320312 54.210938 113.320312 55.148438 C 113.320312 56.027344 113.84375 56.183594 114.136719 55.394531 Z M 61.492188 54.207031 C 61.765625 53.433594 61.796875 53.089844 61.648438 52.378906 C 61.292969 50.625 60.207031 50.992188 59.925781 52.96875 C 59.632812 55.015625 60.863281 55.984375 61.492188 54.207031 Z M 103.324219 52.589844 C 103.324219 51.128906 102.203125 50.3125 101.746094 51.441406 C 101.359375 52.390625 101.511719 53.679688 102.109375 54.503906 C 102.566406 55.132812 102.585938 55.125 102.949219 54.207031 C 103.15625 53.6875 103.324219 52.960938 103.324219 52.589844 Z M 107.429688 53.429688 C 107.515625 52.664062 107.457031 52.285156 107.164062 51.757812 C 106.65625 50.839844 106.382812 50.90625 106.054688 52.015625 C 105.796875 52.894531 105.800781 53 106.078125 53.6875 C 106.242188 54.089844 106.589844 54.417969 106.847656 54.417969 C 107.214844 54.417969 107.339844 54.207031 107.429688 53.429688 Z M 44.253906 53.625 C 44.484375 53.394531 44.707031 52.984375 44.753906 52.714844 C 44.941406 51.617188 43.753906 49.964844 42.769531 49.964844 C 42.382812 49.964844 41.523438 51.261719 41.523438 51.84375 C 41.523438 52.027344 41.804688 52.589844 42.148438 53.09375 C 42.832031 54.085938 43.605469 54.28125 44.253906 53.625 Z M 19.582031 52.0625 C 19.703125 51.246094 19.675781 50.871094 19.472656 50.414062 C 19.101562 49.585938 18.304688 50.214844 18.230469 51.390625 C 18.136719 52.855469 18.316406 53.363281 18.894531 53.234375 C 19.308594 53.144531 19.457031 52.886719 19.582031 52.0625 Z M 55.585938 52.148438 C 56.140625 51.183594 56.101562 50.015625 55.492188 49.257812 C 55.101562 48.769531 55.011719 48.777344 54.621094 49.347656 C 54.121094 50.074219 54.042969 51.453125 54.445312 52.351562 C 54.796875 53.132812 55.050781 53.085938 55.585938 52.148438 Z M 35.019531 51.75 C 35.449219 50.726562 35.445312 50.601562 34.960938 49.351562 C 34.605469 48.429688 34.519531 48.371094 34.128906 48.765625 C 33.652344 49.25 33.578125 50.117188 33.886719 51.621094 C 34.125 52.777344 34.570312 52.828125 35.019531 51.75 Z M 83.46875 51.953125 C 83.800781 51.753906 83.847656 51.523438 83.800781 50.195312 C 83.757812 48.828125 83.703125 48.65625 83.28125 48.550781 C 82.417969 48.328125 82.027344 50.070312 82.613281 51.511719 C 82.917969 52.269531 82.929688 52.273438 83.46875 51.953125 Z M 59.664062 50.664062 C 60.402344 49.132812 60.277344 47.421875 59.382812 46.828125 C 58.835938 46.460938 57.800781 48.785156 57.878906 50.21875 C 57.964844 51.867188 58.964844 52.117188 59.664062 50.664062 Z M 63.125 50.273438 C 63.339844 49.828125 63.511719 49.265625 63.511719 49.015625 C 63.511719 48.769531 62.78125 47.226562 61.886719 45.585938 C 60.992188 43.945312 60.039062 42.15625 59.765625 41.609375 C 59.488281 41.0625 59.085938 40.464844 58.867188 40.277344 C 58.492188 39.953125 57.863281 40.152344 57.679688 40.652344 C 57.636719 40.777344 57.25 41.507812 56.820312 42.273438 C 55.953125 43.824219 55.449219 44.023438 55.183594 42.921875 C 54.949219 41.949219 55.144531 41.160156 56.070312 39.34375 C 57.148438 37.230469 57.753906 35.519531 57.570312 35.109375 C 57.472656 34.886719 57.109375 35.347656 56.597656 36.335938 C 54.71875 39.949219 54.367188 41.164062 54.59375 43.199219 C 54.742188 44.496094 56.113281 47.371094 56.589844 47.371094 C 56.789062 47.371094 57.207031 46.773438 57.523438 46.039062 C 57.839844 45.308594 58.375 44.390625 58.71875 43.996094 L 59.339844 43.285156 L 60.402344 45.792969 C 60.988281 47.171875 61.710938 48.925781 62.003906 49.691406 C 62.304688 50.453125 62.589844 51.082031 62.644531 51.082031 C 62.695312 51.078125 62.914062 50.714844 63.125 50.273438 Z M 105.347656 49.511719 C 105.480469 49.039062 105.21875 47.3125 104.960938 46.960938 C 104.6875 46.582031 104.164062 47.027344 103.976562 47.800781 C 103.796875 48.558594 103.921875 49.992188 104.207031 50.398438 C 104.414062 50.691406 105.1875 50.089844 105.347656 49.511719 Z M 100.992188 48.671875 C 101.277344 47.902344 101.066406 46.359375 100.632812 46.050781 C 99.972656 45.585938 99.554688 47.753906 100.117188 48.707031 C 100.5 49.355469 100.742188 49.347656 100.992188 48.671875 Z M 32.992188 47.09375 C 33.707031 45.378906 33.726562 45.277344 33.652344 43.3125 C 33.589844 41.574219 33.5 41.152344 33.015625 40.253906 C 32.132812 38.605469 30.894531 39.078125 30.535156 41.199219 C 30.257812 42.832031 31.039062 44.042969 31.527344 42.734375 C 31.773438 42.082031 32.382812 42.003906 32.644531 42.585938 C 32.882812 43.121094 32.628906 45.164062 32.246094 45.796875 C 31.730469 46.644531 30.929688 46.355469 30.375 45.121094 C 29.902344 44.066406 29.757812 43.253906 29.25 38.847656 C 29.152344 38.007812 28.898438 37.25 28.523438 36.679688 C 28.019531 35.910156 27.816406 35.828125 26.914062 36.007812 C 25.632812 36.261719 24.800781 37.378906 24.449219 39.3125 C 24.3125 40.082031 24.195312 41.007812 24.195312 41.371094 C 24.195312 42.160156 23.886719 42.921875 23.566406 42.921875 C 23.4375 42.921875 23.144531 42.585938 22.910156 42.179688 C 22.289062 41.09375 21.753906 41.246094 21.097656 42.699219 C 20.671875 43.648438 20.53125 44.277344 20.53125 45.253906 C 20.53125 46.875 20.964844 48.050781 21.617188 48.191406 C 22.015625 48.277344 22.113281 48.15625 22.113281 47.574219 C 22.113281 47.105469 21.96875 46.773438 21.699219 46.632812 C 20.972656 46.253906 21.113281 43.664062 21.855469 43.664062 C 22.015625 43.664062 22.511719 44.082031 22.960938 44.59375 C 24.171875 45.964844 24.621094 45.628906 25.144531 42.976562 C 25.714844 40.101562 25.957031 39.582031 26.734375 39.582031 C 27.609375 39.582031 27.960938 40.070312 28.292969 41.71875 C 29.066406 45.554688 29.234375 46.214844 29.667969 47.035156 C 30.445312 48.519531 30.746094 48.808594 31.515625 48.832031 C 32.1875 48.851562 32.320312 48.695312 32.992188 47.09375 Z M 81.78125 47.980469 C 82.039062 47.496094 83.132812 45.828125 84.210938 44.265625 C 85.289062 42.707031 86.167969 41.265625 86.167969 41.066406 C 86.167969 40.867188 85.925781 39.964844 85.628906 39.066406 C 85.328125 38.167969 84.746094 36.320312 84.335938 34.964844 C 83.269531 31.457031 82.886719 30.453125 82.730469 30.796875 C 82.65625 30.960938 83.09375 33.214844 83.699219 35.804688 C 84.597656 39.640625 84.773438 40.667969 84.652344 41.371094 C 84.410156 42.773438 83.972656 42.179688 83.332031 39.578125 C 82.464844 36.046875 81.355469 32.84375 81.050781 32.976562 C 80.46875 33.234375 80.425781 34.230469 80.898438 36.574219 C 81.839844 41.253906 82.238281 44.753906 81.96875 45.980469 C 81.710938 47.152344 81.308594 46.84375 79.171875 43.808594 C 77.769531 41.816406 77.40625 41.570312 77.191406 42.460938 C 76.898438 43.683594 77.355469 44.835938 78.921875 46.855469 C 80.617188 49.035156 81.109375 49.226562 81.78125 47.980469 Z M 53.863281 47.730469 C 54.253906 47.257812 54.277344 45.992188 53.90625 45.082031 C 53.40625 43.84375 52.519531 44.632812 52.519531 46.316406 C 52.519531 47.9375 53.140625 48.589844 53.863281 47.730469 Z M 36.757812 46.890625 C 37.222656 46.128906 37.054688 44.320312 36.476562 43.867188 C 35.550781 43.148438 34.925781 45.542969 35.71875 46.777344 C 36.179688 47.496094 36.371094 47.515625 36.757812 46.890625 Z M 102.988281 46.257812 C 103.195312 46.257812 103.289062 45.015625 103.148438 44.160156 C 102.992188 43.214844 102.171875 42.660156 101.96875 43.363281 C 101.570312 44.765625 102.03125 46.910156 102.632812 46.433594 C 102.753906 46.335938 102.914062 46.257812 102.988281 46.257812 Z M 27.542969 45.875 C 28.003906 45.320312 27.953125 43.808594 27.441406 43.066406 C 27.050781 42.492188 27 42.492188 26.691406 43.113281 C 26.296875 43.914062 26.273438 44.886719 26.625 45.675781 C 26.929688 46.359375 27.101562 46.394531 27.542969 45.875 Z M 64.679688 44.09375 C 64.679688 42.8125 64.027344 40.882812 63.023438 39.179688 C 62.609375 38.484375 61.644531 36.789062 60.875 35.410156 C 60.101562 34.035156 59.417969 32.90625 59.347656 32.90625 C 59.277344 32.90625 59.121094 33.171875 59.003906 33.492188 C 58.648438 34.441406 59.234375 36.335938 61.054688 40.097656 C 62.824219 43.75 63.71875 45.140625 64.304688 45.144531 C 64.605469 45.144531 64.679688 44.9375 64.679688 44.09375 Z M 75.664062 44.242188 C 75.960938 43.449219 75.601562 42.179688 75.078125 42.179688 C 74.851562 42.179688 73.847656 41.574219 72.847656 40.835938 C 70.875 39.378906 70.367188 39.359375 69.386719 40.691406 C 68.289062 42.175781 68.75 42.710938 71.609375 43.277344 C 72.8125 43.515625 74.125 43.941406 74.527344 44.21875 C 75.460938 44.867188 75.429688 44.867188 75.664062 44.242188 Z M 100.28125 43.570312 C 100.636719 42.550781 100.648438 41.78125 100.324219 41.058594 C 99.925781 40.171875 99.605469 40.128906 99.257812 40.90625 C 98.945312 41.597656 98.914062 42.964844 99.195312 43.589844 C 99.457031 44.167969 100.078125 44.160156 100.28125 43.570312 Z M 80.597656 40.53125 C 80.441406 39.609375 80.175781 38.476562 80.007812 38.019531 C 79.75 37.308594 79.636719 37.242188 79.230469 37.558594 C 78.902344 37.8125 78.738281 38.21875 78.703125 38.855469 C 78.664062 39.613281 78.835938 40.078125 79.613281 41.351562 C 80.753906 43.214844 81.023438 42.988281 80.597656 40.53125 Z M 67.085938 41.226562 C 67.308594 40.90625 67.921875 39.460938 68.453125 38.015625 C 70.238281 33.175781 70.148438 33.234375 71.773438 35.875 C 72.402344 36.894531 73.011719 37.730469 73.128906 37.730469 C 73.589844 37.730469 73.292969 36.574219 72.40625 34.875 C 71.371094 32.902344 71.128906 31.960938 71.382812 30.894531 C 71.796875 29.136719 73.675781 24.265625 75.1875 21.03125 C 76.792969 17.597656 77.109375 16.589844 76.585938 16.589844 C 75.875 16.589844 73.488281 21.226562 70.957031 27.53125 C 70.21875 29.367188 69.441406 31.082031 69.230469 31.34375 C 68.757812 31.925781 68.40625 31.5625 66.285156 28.308594 C 63.722656 24.371094 63.34375 23.882812 62.847656 23.882812 C 62.269531 23.882812 62.039062 24.28125 60.984375 27.085938 C 60.023438 29.65625 59.898438 31.253906 60.625 31.660156 C 61.105469 31.925781 61.253906 31.621094 62.394531 28.113281 C 63.039062 26.128906 63.179688 26 63.695312 26.933594 L 64.09375 27.660156 L 63.578125 28.894531 C 62.269531 32 61.84375 34.480469 62.546875 34.886719 C 63.003906 35.15625 63.113281 34.945312 64.1875 31.796875 C 65.0625 29.246094 65.066406 29.242188 65.527344 29.773438 L 65.988281 30.304688 L 65.558594 32.070312 C 65.320312 33.039062 64.957031 34.253906 64.746094 34.761719 C 64.535156 35.273438 64.28125 36.1875 64.179688 36.796875 C 64.011719 37.769531 64.035156 37.984375 64.351562 38.558594 C 64.550781 38.917969 64.816406 39.210938 64.9375 39.210938 C 65.210938 39.210938 65.96875 37.441406 66.800781 34.863281 C 67.46875 32.785156 67.886719 32.4375 68.1875 33.6875 C 68.347656 34.351562 68.300781 34.644531 67.886719 35.636719 C 66.703125 38.46875 66.132812 40.839844 66.453125 41.5625 C 66.605469 41.902344 66.636719 41.886719 67.085938 41.226562 Z M 77.949219 35.746094 C 78.921875 33.679688 79.894531 31.402344 80.109375 30.6875 C 80.324219 29.96875 80.734375 28.769531 81.023438 28.015625 C 81.730469 26.160156 81.613281 25.394531 80.097656 21.972656 C 79.089844 19.707031 78.761719 19.183594 78.347656 19.183594 C 77.523438 19.183594 77.691406 20.472656 78.917969 23.445312 C 79.90625 25.855469 79.964844 26.085938 79.714844 26.691406 C 79.570312 27.050781 79.394531 27.34375 79.320312 27.34375 C 79.25 27.34375 78.625 26.175781 77.933594 24.746094 C 77.238281 23.320312 76.5625 22.152344 76.421875 22.152344 C 75.875 22.152344 76.230469 23.679688 77.339844 26.070312 C 77.980469 27.457031 78.503906 28.75 78.503906 28.945312 C 78.503906 29.140625 78.375 29.511719 78.214844 29.773438 C 77.980469 30.152344 77.847656 30.144531 77.496094 29.746094 C 77.257812 29.472656 76.964844 28.980469 76.84375 28.65625 C 76.453125 27.605469 75.132812 25.8125 74.898438 26.011719 C 74.4375 26.410156 74.699219 27.632812 75.714844 29.78125 C 76.285156 30.996094 76.863281 32.464844 77 33.042969 C 77.230469 34.035156 77.222656 34.140625 76.855469 34.800781 C 76.578125 35.304688 76.203125 35.503906 75.515625 35.503906 C 74.421875 35.503906 74.234375 35.738281 74.605469 36.652344 C 74.933594 37.460938 74.78125 38.714844 74.316406 39.042969 C 73.882812 39.351562 74.109375 39.855469 74.753906 40.027344 C 75.640625 40.257812 76.148438 39.578125 77.949219 35.746094 Z M 101.628906 35.925781 C 101.671875 34.988281 101.601562 34.683594 101.261719 34.339844 C 100.253906 33.320312 99.503906 36.519531 100.492188 37.613281 C 101.058594 38.234375 101.558594 37.488281 101.628906 35.925781 Z M 75.429688 32.519531 C 75.566406 32.019531 75.320312 31.382812 74.515625 30.140625 C 73.980469 29.3125 73.808594 29.210938 73.519531 29.550781 C 73.132812 30.011719 73.0625 31.128906 73.382812 31.714844 C 73.609375 32.132812 74.589844 32.820312 75.039062 32.875 C 75.191406 32.890625 75.371094 32.734375 75.429688 32.519531 Z M 103.5625 29.117188 C 103.851562 27.269531 102.734375 25.640625 102.332031 27.320312 C 102.074219 28.394531 102.125 29.484375 102.453125 29.917969 C 102.921875 30.542969 103.390625 30.207031 103.5625 29.117188 Z M 106.402344 28.324219 C 106.773438 27.71875 106.824219 25.578125 106.476562 25.089844 C 105.519531 23.742188 104.367188 26.324219 105.152344 28.066406 C 105.546875 28.949219 105.964844 29.035156 106.402344 28.324219 Z M 69.796875 25.582031 C 71.675781 22.140625 72.167969 20.480469 71.65625 19.363281 C 71.285156 18.558594 70.644531 19.105469 69.335938 21.347656 C 67.402344 24.664062 67 26.972656 68.351562 26.972656 C 68.898438 26.972656 69.191406 26.691406 69.796875 25.582031 Z M 108.621094 24.300781 C 108.734375 24.058594 108.824219 23.421875 108.824219 22.894531 C 108.824219 21.113281 108.070312 20.425781 107.460938 21.652344 C 107.082031 22.414062 107.074219 23.1875 107.433594 24.070312 C 107.746094 24.84375 108.328125 24.957031 108.621094 24.300781 Z M 66.46875 21.527344 C 67.234375 20.144531 67.332031 19.4375 66.898438 18.378906 C 66.488281 17.367188 65.980469 17.550781 65.121094 19.011719 C 64.226562 20.535156 63.960938 21.992188 64.441406 22.777344 C 64.890625 23.503906 65.628906 23.046875 66.46875 21.527344 Z M 110.808594 18.222656 C 111.226562 17.445312 111.320312 16.980469 111.320312 15.777344 C 111.320312 14.578125 111.210938 14.042969 110.75 13.015625 C 110.179688 11.746094 109.902344 11.632812 109.109375 12.335938 C 108.699219 12.699219 108.324219 14.441406 108.324219 15.980469 C 108.324219 17.546875 109.089844 19.183594 109.824219 19.183594 C 110.089844 19.183594 110.519531 18.765625 110.808594 18.222656 Z M 109.085938 17.117188 C 108.730469 16.324219 108.757812 15.253906 109.15625 14.363281 C 109.558594 13.472656 109.953125 13.421875 110.453125 14.199219 C 110.910156 14.914062 110.925781 15.988281 110.488281 16.960938 C 110.089844 17.847656 109.445312 17.921875 109.085938 17.117188 Z M 69.339844 16.867188 C 70.265625 15.808594 70.46875 15.097656 70.210938 13.835938 C 69.945312 12.539062 69.1875 12.566406 68.234375 13.898438 C 67.382812 15.097656 67.199219 15.988281 67.605469 16.984375 C 67.984375 17.921875 68.441406 17.886719 69.339844 16.867188 Z M 73.8125 17.109375 C 74.382812 16.222656 74.265625 14 73.613281 13.304688 C 73.21875 12.882812 73.070312 12.882812 72.726562 13.289062 C 72.140625 13.984375 71.953125 14.925781 72.195312 15.9375 C 72.617188 17.695312 73.175781 18.101562 73.8125 17.109375 Z M 109.953125 49.054688 C 108.019531 48.113281 107.050781 45.175781 107.199219 40.722656 C 107.308594 37.425781 107.855469 34.738281 109.332031 30.238281 C 110.71875 26.011719 114.253906 17.328125 114.585938 17.328125 C 114.839844 17.328125 115.652344 19.046875 115.652344 19.578125 C 115.652344 19.777344 114.574219 22.398438 113.25 25.402344 C 109.589844 33.730469 109.230469 34.816406 108.726562 39.210938 C 108.480469 41.347656 108.480469 41.652344 108.734375 43.136719 C 108.921875 44.207031 109.207031 45.015625 109.597656 45.550781 C 110.160156 46.324219 110.285156 46.34375 113.109375 46.085938 C 114.804688 45.929688 116.394531 45.585938 116.886719 45.273438 C 118.007812 44.558594 119.34375 44.285156 119.632812 44.714844 C 119.984375 45.246094 119.90625 47.050781 119.503906 47.78125 C 119.273438 48.199219 118.726562 48.488281 117.941406 48.617188 C 117.277344 48.726562 115.648438 48.992188 114.320312 49.210938 C 111.476562 49.675781 111.207031 49.667969 109.953125 49.054688 Z M 110.683594 42.53125 C 110.507812 42.109375 110.246094 40.839844 110.101562 39.707031 L 109.839844 37.652344 L 110.621094 35.179688 C 111.972656 30.925781 116.140625 22.960938 116.777344 23.425781 C 117.105469 23.667969 118.507812 27.921875 119.300781 31.09375 C 119.777344 32.992188 119.800781 33.21875 119.550781 33.675781 C 119.246094 34.238281 119.375 34.496094 117.945312 30.367188 C 117.34375 28.636719 117.050781 28.085938 116.730469 28.085938 C 116.5 28.085938 116.265625 28.351562 116.207031 28.675781 C 116.152344 29.003906 116.386719 30.824219 116.730469 32.722656 C 117.359375 36.171875 117.378906 36.996094 116.851562 36.976562 C 116.664062 36.96875 116.339844 35.929688 115.902344 33.917969 C 115.332031 31.304688 115.175781 30.867188 114.820312 30.867188 C 114.175781 30.867188 114.207031 32.191406 114.929688 35.355469 C 115.554688 38.066406 115.5625 38.152344 115.246094 38.675781 C 114.734375 39.523438 114.597656 39.328125 114.179688 37.191406 C 113.964844 36.089844 113.640625 34.882812 113.457031 34.515625 C 113.136719 33.867188 113.117188 33.867188 112.886719 34.5625 C 112.628906 35.347656 112.683594 36.019531 113.195312 38.347656 C 113.847656 41.328125 113.078125 42.089844 112.320312 39.210938 C 111.761719 37.082031 111.402344 37.011719 111.40625 39.027344 C 111.410156 39.84375 111.464844 40.960938 111.535156 41.515625 C 111.632812 42.308594 111.589844 42.601562 111.332031 42.910156 C 111.070312 43.21875 110.9375 43.140625 110.683594 42.53125 Z M 103.667969 40.820312 C 103.140625 39.328125 103.105469 38.441406 103.488281 36.160156 C 104.035156 32.925781 105.265625 31.636719 106.21875 33.304688 C 106.933594 34.558594 106.742188 37.707031 105.785156 40.355469 C 105.183594 42.035156 104.175781 42.257812 103.667969 40.820312 Z M 105.414062 37.449219 C 105.660156 36.144531 105.601562 35.304688 105.246094 35 C 104.6875 34.523438 103.910156 38.28125 104.332031 39.421875 C 104.515625 39.90625 104.578125 39.890625 104.863281 39.320312 C 105.039062 38.964844 105.289062 38.121094 105.414062 37.449219 Z M 105.414062 37.449219 "/>
</g>
</svg>
