<?xml version="1.0" encoding="UTF-8"?>
<svg xmlns="http://www.w3.org/2000/svg" xmlns:xlink="http://www.w3.org/1999/xlink" width="120pt" height="90pt" viewBox="0 0 120 90" version="1.1">
<g id="surface1">
<path style=" stroke:none;fill-rule:nonzero;fill:rgb(0%,0%,0%);fill-opacity:1;" d="M 19.410156 14.503906 C 19.21875 14.464844 19.015625 14.390625 18.960938 14.34375 C 18.898438 14.289062 18.25 14.277344 17.210938 14.308594 C 15.25 14.363281 14.316406 14.257812 13.917969 13.933594 C 13.566406 13.648438 13.535156 12.691406 13.855469 12 C 14.164062 11.335938 13.972656 11.246094 13.046875 11.617188 C 11.699219 12.160156 8.949219 13.035156 8.167969 13.175781 C 7.023438 13.375 6.390625 13.226562 5.804688 12.621094 C 5.644531 12.453125 5.074219 12.082031 4.542969 11.796875 C 3.792969 11.394531 3.550781 11.199219 3.476562 10.945312 C 3.425781 10.761719 3.304688 10.5 3.207031 10.359375 C 3.113281 10.214844 2.972656 9.910156 2.894531 9.675781 C 2.816406 9.441406 2.589844 9.132812 2.390625 8.992188 C 1.960938 8.679688 1.789062 7.800781 2.101562 7.492188 C 2.21875 7.375 2.289062 7.011719 2.277344 6.617188 C 2.257812 6.050781 2.3125 5.886719 2.609375 5.632812 C 2.808594 5.460938 3.019531 5.121094 3.082031 4.875 C 3.144531 4.628906 3.359375 4.3125 3.5625 4.167969 C 3.761719 4.023438 4.042969 3.722656 4.183594 3.496094 C 4.382812 3.179688 4.5625 3.054688 5.003906 2.9375 C 6.027344 2.667969 6.636719 2.734375 8.9375 3.375 C 13.195312 4.558594 13.921875 4.546875 13.0625 3.300781 C 12.886719 3.042969 12.742188 2.753906 12.742188 2.652344 C 12.742188 2.429688 13.15625 2.222656 13.765625 2.144531 C 14.085938 2.101562 14.296875 1.992188 14.457031 1.792969 C 14.769531 1.394531 15.546875 1.148438 16.367188 1.1875 C 16.863281 1.214844 17.117188 1.175781 17.46875 1.019531 C 18.078125 0.753906 18.597656 0.769531 19.457031 1.078125 C 20.226562 1.355469 20.640625 1.402344 20.640625 1.21875 C 20.640625 0.941406 22.144531 0.808594 22.789062 1.035156 C 23.125 1.148438 23.203125 1.140625 23.761719 0.929688 C 24.515625 0.644531 25.105469 0.648438 26.328125 0.949219 C 27.589844 1.257812 28.410156 1.792969 29.589844 3.0625 C 30.574219 4.121094 30.949219 4.367188 31.296875 4.183594 C 31.441406 4.109375 31.328125 3.9375 30.839844 3.488281 C 29.75 2.488281 29.609375 2.019531 30.390625 2.019531 C 30.59375 2.019531 31.144531 2.058594 31.625 2.109375 C 32.101562 2.15625 32.78125 2.21875 33.136719 2.238281 C 34.371094 2.320312 36.042969 2.5625 36.683594 2.75 C 37.039062 2.855469 37.703125 3.183594 38.160156 3.484375 C 39.265625 4.207031 40.308594 4.757812 40.753906 4.847656 C 40.957031 4.890625 41.644531 4.945312 42.289062 4.972656 C 43.828125 5.039062 44 5.070312 44.121094 5.324219 C 44.292969 5.691406 44.019531 5.738281 41.550781 5.746094 C 40.292969 5.75 39.117188 5.757812 38.941406 5.765625 C 38.488281 5.789062 36.886719 6.5 36.652344 6.785156 C 36.375 7.121094 36.394531 8.476562 36.6875 8.980469 C 36.820312 9.210938 36.925781 9.53125 36.925781 9.6875 C 36.925781 10.078125 36.519531 10.066406 35.324219 9.632812 C 34.613281 9.378906 34.277344 9.183594 33.960938 8.847656 C 33.730469 8.601562 33.539062 8.335938 33.539062 8.253906 C 33.539062 8.066406 33.121094 7.886719 32.816406 7.949219 C 32.683594 7.976562 32.574219 8.082031 32.574219 8.179688 C 32.574219 8.359375 33.394531 9.308594 33.75 9.53125 C 34.207031 9.824219 35.257812 10.070312 36.9375 10.269531 C 39.597656 10.589844 40.140625 10.558594 39.921875 10.101562 C 39.851562 9.949219 39.621094 9.867188 38.980469 9.757812 C 37.78125 9.554688 37.511719 9.363281 37.273438 8.542969 C 37.050781 7.773438 37.203125 7.429688 38.039062 6.789062 C 38.804688 6.203125 39.289062 6.167969 45.027344 6.289062 C 45.453125 6.296875 45.378906 6.664062 44.894531 6.972656 C 44.367188 7.304688 44.007812 7.304688 43.640625 6.980469 C 43.484375 6.839844 43.292969 6.722656 43.210938 6.722656 C 43.136719 6.722656 42.941406 6.839844 42.785156 6.980469 C 42.417969 7.304688 42.148438 7.300781 41.484375 6.960938 C 40.855469 6.636719 40.523438 6.6875 40.230469 7.152344 C 39.996094 7.523438 39.820312 7.546875 39.28125 7.277344 C 39.035156 7.160156 38.769531 7.085938 38.6875 7.109375 C 38.375 7.214844 38.558594 7.492188 39.078125 7.703125 C 39.535156 7.886719 39.890625 7.9375 41.355469 8.007812 C 44.160156 8.148438 44.585938 8.355469 44.472656 9.507812 C 44.394531 10.265625 44.136719 10.5625 43.636719 10.460938 C 43.3125 10.394531 43 9.761719 43.121094 9.417969 C 43.292969 8.929688 42.699219 8.789062 39.484375 8.554688 C 38.085938 8.453125 38.351562 8.859375 39.882812 9.15625 C 40.496094 9.277344 40.769531 9.394531 41.144531 9.703125 C 41.558594 10.046875 41.609375 10.15625 41.53125 10.492188 C 41.472656 10.734375 41.523438 11.015625 41.660156 11.222656 C 41.816406 11.460938 41.84375 11.683594 41.753906 11.984375 C 41.679688 12.21875 41.613281 12.5625 41.609375 12.753906 C 41.585938 13.433594 40.859375 13.792969 40.441406 13.332031 C 40.132812 12.988281 39.632812 13.015625 39.40625 13.390625 C 39.222656 13.691406 38.804688 13.90625 38.601562 13.796875 C 38.539062 13.765625 38.429688 13.539062 38.359375 13.292969 C 38.195312 12.746094 37.894531 12.546875 37.527344 12.742188 C 37.335938 12.847656 37.296875 12.992188 37.363281 13.390625 C 37.4375 13.816406 37.410156 13.910156 37.1875 13.957031 C 36.769531 14.042969 36.492188 13.851562 36.398438 13.425781 C 36.3125 13.015625 35.953125 12.734375 35.652344 12.832031 C 35.554688 12.863281 35.472656 13.070312 35.472656 13.292969 C 35.472656 13.777344 35.113281 14.097656 34.613281 14.0625 C 34.320312 14.039062 34.242188 13.949219 34.101562 13.488281 C 33.835938 12.582031 33.03125 12.53125 33.082031 13.417969 C 33.109375 13.867188 32.789062 14.140625 32.34375 14.050781 C 32.144531 14.007812 32.089844 13.859375 32.089844 13.359375 C 32.089844 12.800781 32.042969 12.703125 31.742188 12.589844 C 31.191406 12.386719 30.871094 12.546875 30.652344 13.132812 C 30.445312 13.6875 29.941406 14.085938 29.175781 14.292969 C 28.644531 14.441406 27.960938 14.457031 27.8125 14.332031 C 27.746094 14.273438 27.515625 14.308594 27.179688 14.417969 C 26.535156 14.628906 25.378906 14.648438 24.863281 14.453125 C 24.527344 14.332031 24.441406 14.332031 23.855469 14.453125 C 23.015625 14.632812 22.605469 14.625 21.96875 14.417969 C 21.445312 14.25 21.441406 14.25 20.84375 14.421875 C 20.191406 14.605469 19.941406 14.621094 19.410156 14.503906 Z M 23.503906 13.957031 C 23.949219 13.65625 24.453125 12.324219 24.1875 12.152344 C 23.914062 11.976562 23.503906 11.992188 23.023438 12.191406 C 22.660156 12.34375 22.617188 12.4375 22.53125 13.191406 C 22.480469 13.652344 22.472656 14.058594 22.515625 14.09375 C 22.675781 14.230469 23.207031 14.15625 23.503906 13.957031 Z M 26.609375 13.84375 C 26.914062 13.636719 26.953125 13.519531 26.902344 12.949219 C 26.839844 12.222656 26.667969 12.042969 26.160156 12.183594 C 25.605469 12.34375 25.25 13.523438 25.644531 13.910156 C 25.878906 14.140625 26.199219 14.117188 26.609375 13.84375 Z M 20.460938 13.84375 C 20.839844 13.675781 21.363281 12.542969 21.210938 12.21875 C 21.117188 12.019531 20.605469 11.957031 20.195312 12.097656 C 19.859375 12.210938 19.238281 13.625 19.417969 13.875 C 19.535156 14.039062 20.054688 14.023438 20.460938 13.84375 Z M 17.519531 13.585938 C 17.667969 13.457031 17.960938 13.214844 18.167969 13.046875 C 18.832031 12.511719 18.554688 11.816406 17.78125 12.078125 C 17.507812 12.167969 16.421875 13.640625 16.546875 13.75 C 16.722656 13.902344 17.261719 13.808594 17.519531 13.585938 Z M 15.546875 13.570312 C 15.796875 13.425781 16.199219 12.675781 16.402344 11.976562 C 16.484375 11.6875 16.164062 11.480469 15.703125 11.527344 C 15.550781 11.542969 15.257812 11.722656 15.050781 11.929688 C 14.753906 12.230469 14.675781 12.441406 14.675781 12.964844 C 14.675781 13.324219 14.722656 13.648438 14.785156 13.679688 C 14.972656 13.777344 15.265625 13.738281 15.546875 13.570312 Z M 29.28125 13.4375 C 29.429688 13.316406 29.578125 12.980469 29.617188 12.6875 C 29.675781 12.253906 29.628906 12.101562 29.359375 11.875 C 28.964844 11.542969 28.640625 11.523438 28.285156 11.8125 C 28.050781 12 28.042969 12.109375 28.210938 12.730469 C 28.320312 13.117188 28.433594 13.484375 28.46875 13.542969 C 28.574219 13.71875 29 13.664062 29.28125 13.4375 Z M 10.449219 11.753906 C 12.308594 11.140625 12.828125 10.875 12.648438 10.625 C 12.460938 10.367188 11.9375 10.464844 9.839844 11.144531 C 8.257812 11.65625 7.582031 11.96875 7.582031 12.183594 C 7.582031 12.597656 8.132812 12.515625 10.449219 11.753906 Z M 39.894531 11.972656 C 40.394531 11.871094 40.175781 11.601562 39.4375 11.410156 C 38.769531 11.238281 38.605469 11.230469 36.984375 11.308594 C 33.582031 11.460938 31.582031 11.199219 30.707031 10.488281 C 29.738281 9.691406 29.351562 8.042969 29.890625 6.980469 C 30.148438 6.46875 30.125 6.386719 29.761719 6.546875 C 29.085938 6.84375 28.929688 8.21875 29.414062 9.667969 C 29.722656 10.605469 29.890625 10.820312 30.640625 11.234375 C 31.859375 11.910156 32.585938 12.007812 36.550781 12.015625 C 38.25 12.023438 39.753906 12 39.894531 11.972656 Z M 25.539062 11.375 C 27.636719 11.242188 28.269531 11.164062 28.445312 11.011719 C 28.496094 10.96875 28.390625 10.570312 28.207031 10.132812 C 27.546875 8.527344 27.425781 7.085938 27.910156 6.59375 C 29.390625 5.085938 29.371094 5.113281 29.183594 4.925781 C 28.910156 4.652344 28.070312 4.503906 26.320312 4.414062 C 23.421875 4.265625 20.710938 4.417969 17.902344 4.886719 C 16.109375 5.1875 15.480469 5.363281 14.863281 5.738281 C 13.917969 6.308594 13.53125 7.160156 13.636719 8.421875 C 13.710938 9.304688 13.90625 9.632812 14.699219 10.203125 C 15.523438 10.796875 16.148438 11.03125 17.496094 11.257812 C 19.496094 11.589844 21.640625 11.621094 25.539062 11.375 Z M 18.136719 10.574219 C 16.695312 10.375 15.449219 9.984375 15.042969 9.601562 C 14.9375 9.5 14.847656 9.238281 14.84375 9.015625 C 14.839844 8.691406 14.910156 8.585938 15.230469 8.453125 C 15.59375 8.300781 16.023438 8.285156 20.910156 8.238281 C 26.453125 8.1875 26.664062 8.199219 26.578125 8.554688 C 26.554688 8.652344 26.660156 8.828125 26.8125 8.945312 C 26.976562 9.070312 27.089844 9.3125 27.089844 9.542969 C 27.089844 10.054688 26.410156 10.519531 25.519531 10.617188 C 24.359375 10.75 19.179688 10.71875 18.136719 10.574219 Z M 20.976562 9.996094 C 21.488281 9.835938 22.09375 9.246094 22.09375 8.90625 C 22.09375 8.546875 21.546875 8.632812 21.195312 9.042969 C 21.03125 9.238281 20.6875 9.507812 20.429688 9.644531 C 20.160156 9.785156 20.003906 9.945312 20.054688 10.015625 C 20.175781 10.179688 20.40625 10.175781 20.976562 9.996094 Z M 23.21875 9.992188 C 23.675781 9.792969 24.085938 8.996094 23.851562 8.761719 C 23.71875 8.625 23.636719 8.613281 23.449219 8.695312 C 23.324219 8.75 23.21875 8.859375 23.21875 8.933594 C 23.21875 9.011719 23.003906 9.304688 22.738281 9.585938 C 22.472656 9.871094 22.253906 10.109375 22.253906 10.121094 C 22.25 10.207031 22.929688 10.113281 23.21875 9.992188 Z M 25.472656 9.808594 C 25.878906 9.40625 25.433594 8.433594 25 8.773438 C 24.910156 8.847656 24.835938 9.082031 24.835938 9.304688 C 24.835938 9.523438 24.789062 9.761719 24.734375 9.835938 C 24.589844 10.039062 25.265625 10.011719 25.472656 9.808594 Z M 18.746094 9.671875 C 19.683594 9.332031 20.101562 8.773438 19.414062 8.773438 C 19.097656 8.773438 17.578125 9.585938 17.578125 9.753906 C 17.578125 9.949219 18.070312 9.914062 18.746094 9.671875 Z M 16.859375 9.148438 C 17.667969 8.683594 17.140625 8.484375 16.136719 8.875 C 15.605469 9.082031 15.507812 9.160156 15.65625 9.253906 C 15.945312 9.4375 16.425781 9.394531 16.859375 9.148438 Z M 15.621094 7.671875 C 15.386719 7.574219 15.148438 7.398438 15.09375 7.277344 C 14.96875 7.011719 15.4375 6.417969 15.984375 6.152344 C 16.691406 5.808594 20.847656 5.183594 21.59375 5.308594 C 21.75 5.335938 22.367188 5.296875 22.957031 5.226562 C 23.703125 5.132812 24.359375 5.109375 25.097656 5.152344 C 26.027344 5.203125 26.238281 5.246094 26.78125 5.523438 L 27.402344 5.835938 L 27.339844 6.546875 C 27.296875 7.054688 27.203125 7.296875 27.015625 7.398438 C 26.808594 7.507812 26.074219 7.554688 23.257812 7.644531 C 15.734375 7.875 16.09375 7.871094 15.621094 7.671875 Z M 18.4375 7.199219 C 18.496094 7.117188 18.265625 6.984375 17.785156 6.8125 C 16.933594 6.515625 16.929688 6.515625 16.550781 6.660156 C 16.152344 6.816406 16.363281 7.027344 17.066406 7.183594 C 17.824219 7.347656 18.324219 7.355469 18.4375 7.199219 Z M 20.316406 7.0625 C 20.316406 6.949219 19.875 6.570312 19.453125 6.316406 C 19.160156 6.140625 18.382812 6.042969 18.382812 6.1875 C 18.382812 6.269531 20.035156 7.148438 20.191406 7.148438 C 20.261719 7.148438 20.316406 7.109375 20.316406 7.0625 Z M 22.09375 7.070312 C 22.09375 7.023438 21.835938 6.753906 21.519531 6.46875 C 21.066406 6.0625 20.867188 5.953125 20.554688 5.953125 C 20.054688 5.953125 20.058594 6.019531 20.570312 6.433594 C 21.175781 6.917969 22.09375 7.300781 22.09375 7.070312 Z M 24.152344 6.914062 C 24.121094 6.878906 23.941406 6.679688 23.757812 6.464844 C 23.363281 6.011719 22.847656 5.742188 22.503906 5.8125 C 22.296875 5.851562 22.285156 5.902344 22.449219 6.101562 C 22.78125 6.507812 23.554688 6.980469 23.894531 6.980469 C 24.070312 6.980469 24.1875 6.949219 24.152344 6.914062 Z M 25.960938 6.660156 C 25.953125 6.316406 25.296875 5.738281 24.910156 5.738281 C 24.675781 5.738281 24.578125 5.804688 24.542969 5.996094 C 24.507812 6.191406 24.632812 6.332031 25.046875 6.574219 C 25.707031 6.953125 25.964844 6.976562 25.960938 6.660156 Z M 7.558594 11.070312 C 10.246094 10.300781 10.777344 10.125 11.269531 9.855469 C 12.242188 9.324219 11.523438 9.222656 9.640625 9.625 C 6.183594 10.371094 5.554688 10.550781 5.324219 10.875 C 5.214844 11.023438 5.21875 11.152344 5.339844 11.269531 C 5.566406 11.496094 6.296875 11.429688 7.558594 11.070312 Z M 34.957031 10.5625 C 34.925781 10.507812 34.609375 10.414062 34.261719 10.351562 C 33.464844 10.210938 32.410156 9.613281 31.855469 8.992188 C 31.324219 8.398438 31.285156 7.625 31.765625 7.300781 C 32.179688 7.019531 33.105469 6.921875 33.625 7.101562 C 33.992188 7.230469 34.507812 7.734375 34.714844 8.175781 C 34.769531 8.292969 34.925781 8.46875 35.058594 8.5625 C 35.28125 8.71875 35.304688 8.652344 35.308594 7.808594 C 35.3125 6.929688 35.292969 6.875 34.910156 6.6875 C 34.394531 6.433594 33.390625 6.347656 32.550781 6.480469 C 31.269531 6.683594 30.554688 7.621094 30.808594 8.765625 C 30.960938 9.457031 31.976562 10.320312 32.863281 10.515625 C 33.566406 10.671875 35.046875 10.703125 34.957031 10.5625 Z M 6.332031 9.765625 C 7.0625 9.605469 8.351562 9.351562 9.195312 9.203125 C 11.050781 8.871094 11.652344 8.710938 11.570312 8.578125 C 11.488281 8.453125 11.046875 8.441406 10.402344 8.542969 C 10.136719 8.585938 9.703125 8.636719 9.4375 8.652344 C 9.167969 8.667969 8.058594 8.777344 6.96875 8.890625 C 4.382812 9.167969 3.765625 9.378906 4.171875 9.847656 C 4.410156 10.125 4.742188 10.113281 6.332031 9.765625 Z M 7.617188 8.21875 C 10.664062 7.992188 11.289062 7.894531 11.289062 7.65625 C 11.289062 7.433594 10.898438 7.398438 8.8125 7.449219 C 5.484375 7.523438 3.992188 7.640625 3.667969 7.847656 C 3.316406 8.070312 3.371094 8.1875 3.886719 8.324219 C 4.398438 8.464844 4.324219 8.464844 7.617188 8.21875 Z M 11.09375 6.824219 C 11.042969 6.679688 9.820312 6.472656 6.152344 5.988281 C 3.84375 5.683594 3.226562 5.777344 3.226562 6.433594 C 3.226562 6.890625 3.203125 6.886719 6.128906 6.914062 C 11.519531 6.96875 11.148438 6.972656 11.09375 6.824219 Z M 11.613281 6 C 11.613281 5.835938 11.515625 5.808594 9.355469 5.34375 C 7.433594 4.933594 5.175781 4.617188 4.757812 4.703125 C 4.617188 4.730469 4.519531 4.859375 4.519531 5.011719 C 4.519531 5.3125 4.613281 5.339844 6.855469 5.671875 C 9.699219 6.097656 11.613281 6.226562 11.613281 6 Z M 36.175781 5.789062 C 36.777344 5.640625 36.882812 5.574219 37.058594 5.210938 C 37.289062 4.730469 37.167969 4.296875 36.707031 3.964844 C 35.8125 3.320312 33.054688 4.042969 33.058594 4.925781 C 33.058594 5.285156 33.5625 5.757812 34.066406 5.863281 C 34.660156 5.992188 35.453125 5.964844 36.175781 5.789062 Z M 34.867188 5.160156 C 34.222656 5 34.15625 4.355469 34.765625 4.238281 C 34.964844 4.199219 35.269531 4.214844 35.492188 4.273438 C 35.796875 4.355469 35.878906 4.441406 35.878906 4.703125 C 35.878906 5.109375 35.445312 5.304688 34.867188 5.160156 Z M 13.464844 5.316406 C 13.464844 5.269531 12.996094 5.144531 12.417969 5.039062 C 11.84375 4.929688 10.957031 4.6875 10.453125 4.5 C 9.089844 3.992188 7.148438 3.472656 6.617188 3.472656 C 6.105469 3.472656 5.871094 3.6875 6.050781 3.984375 C 6.1875 4.214844 6.359375 4.257812 9.273438 4.796875 C 10.648438 5.050781 11.898438 5.300781 12.054688 5.347656 C 12.394531 5.457031 13.464844 5.429688 13.464844 5.316406 Z M 16.609375 4.503906 C 16.609375 4.414062 16.425781 4.226562 16.203125 4.085938 C 15.980469 3.945312 15.691406 3.695312 15.5625 3.527344 C 15.265625 3.152344 15.035156 3.074219 14.714844 3.246094 C 14.484375 3.367188 14.5 3.410156 14.890625 3.707031 C 15.125 3.890625 15.320312 4.078125 15.320312 4.128906 C 15.320312 4.179688 15.46875 4.320312 15.65625 4.445312 C 16.050781 4.710938 16.609375 4.746094 16.609375 4.503906 Z M 19.105469 4.074219 C 19.253906 3.949219 18.945312 3.695312 18.492188 3.566406 C 18.253906 3.5 17.976562 3.292969 17.808594 3.054688 C 17.402344 2.484375 16.972656 2.191406 16.535156 2.191406 C 16.027344 2.191406 15.917969 2.390625 16.214844 2.773438 C 16.910156 3.660156 18.667969 4.449219 19.105469 4.074219 Z M 21.519531 3.785156 C 21.777344 3.6875 21.789062 3.636719 21.617188 3.359375 C 21.378906 2.972656 20.148438 2.078125 19.597656 1.886719 C 19.257812 1.765625 19.144531 1.761719 18.9375 1.851562 C 18.613281 1.996094 18.730469 2.253906 19.429688 2.917969 C 20.027344 3.488281 20.441406 3.761719 20.800781 3.835938 C 21.164062 3.914062 21.203125 3.910156 21.519531 3.785156 Z M 28.050781 3.777344 C 28.332031 3.597656 28.148438 3.367188 27.011719 2.445312 C 25.898438 1.542969 25.628906 1.394531 25.203125 1.4375 C 24.691406 1.488281 24.792969 1.824219 25.570312 2.660156 C 26.5625 3.730469 27.480469 4.140625 28.050781 3.777344 Z M 24.832031 3.640625 C 24.832031 3.542969 24.429688 3.101562 23.9375 2.65625 C 22.683594 1.527344 22.082031 1.339844 22.0625 2.078125 C 22.046875 2.714844 22.8125 3.367188 23.945312 3.679688 C 24.597656 3.859375 24.832031 3.847656 24.832031 3.640625 Z M 42.648438 12.132812 C 42.804688 11.046875 42.855469 10.949219 43.308594 10.839844 C 44.082031 10.652344 44.472656 11.039062 44.089844 11.613281 C 43.804688 12.039062 42.921875 12.792969 42.707031 12.792969 C 42.617188 12.792969 42.59375 12.523438 42.648438 12.132812 Z M 42.648438 12.132812 "/>
</g>
</svg>
