<?xml version="1.0" encoding="UTF-8"?>
<svg xmlns="http://www.w3.org/2000/svg" xmlns:xlink="http://www.w3.org/1999/xlink" width="120pt" height="90pt" viewBox="0 0 120 90" version="1.1">
<g id="surface1">
<path style=" stroke:none;fill-rule:nonzero;fill:rgb(0%,0%,0%);fill-opacity:1;" d="M 40.191406 36.644531 C 40.136719 36.527344 40.046875 36.179688 39.996094 35.875 C 39.90625 35.378906 39.96875 35.195312 40.578125 34.175781 C 40.949219 33.546875 41.292969 33 41.339844 32.957031 C 41.382812 32.917969 41.328125 32.898438 41.210938 32.921875 C 40.953125 32.964844 40.929688 32.988281 40.082031 34.015625 C 39.527344 34.6875 39.238281 34.917969 38.410156 35.34375 C 36.753906 36.1875 35.703125 36.5 35.179688 36.296875 C 34.925781 36.199219 34.886719 36.058594 34.890625 35.335938 C 34.894531 34.652344 34.976562 34.363281 35.304688 33.867188 C 35.773438 33.15625 36.007812 32.476562 35.78125 32.476562 C 35.5 32.476562 34.960938 32.859375 34.355469 33.484375 C 34.023438 33.828125 33.601562 34.152344 33.414062 34.203125 C 33.226562 34.253906 32.496094 34.515625 31.785156 34.785156 C 29.957031 35.480469 29.554688 35.578125 29.058594 35.457031 C 28.082031 35.222656 28.433594 34.242188 30.125 32.488281 C 30.785156 31.800781 30.875 31.558594 30.488281 31.480469 C 30.140625 31.410156 29.675781 31.652344 28.84375 32.347656 C 27.808594 33.207031 27.273438 33.480469 26.484375 33.550781 C 25.738281 33.617188 25.269531 33.730469 24.25 34.097656 C 23.394531 34.402344 22.757812 34.5 22.582031 34.347656 C 22.378906 34.171875 22.496094 33.488281 22.796875 33.117188 C 23.113281 32.726562 23.359375 32.527344 24.667969 31.59375 C 25.1875 31.226562 25.5625 30.902344 25.503906 30.871094 C 25.449219 30.839844 24.769531 31.167969 24 31.597656 C 22.324219 32.527344 21.664062 32.734375 20.386719 32.734375 C 19.171875 32.734375 18.996094 32.589844 19.421875 31.945312 C 19.585938 31.695312 19.824219 31.390625 19.949219 31.265625 C 20.296875 30.921875 21.4375 30.300781 22.636719 29.804688 C 24.296875 29.121094 25.070312 28.742188 26.304688 28.019531 C 26.65625 27.816406 27.492188 27.398438 28.15625 27.097656 C 28.820312 26.796875 29.570312 26.375 29.824219 26.167969 C 30.351562 25.722656 32.042969 23.664062 31.945312 23.582031 C 31.878906 23.527344 31.441406 23.574219 27.351562 24.078125 C 25.203125 24.347656 24.507812 24.347656 22.996094 24.078125 C 22.597656 24.007812 21.957031 23.902344 21.570312 23.84375 C 21.175781 23.789062 20.570312 23.597656 20.183594 23.40625 C 19.804688 23.222656 19.367188 23.070312 19.214844 23.070312 C 18.789062 23.070312 18.339844 23.425781 17.289062 24.605469 C 16.238281 25.78125 16.171875 25.992188 16.460938 27.328125 C 16.558594 27.769531 16.539062 28.007812 16.40625 28.140625 C 16.253906 28.292969 16.261719 28.40625 16.460938 28.703125 C 16.769531 29.167969 16.78125 29.824219 16.488281 30.199219 C 16.199219 30.5625 14.976562 30.960938 14.246094 30.921875 C 13.550781 30.886719 13.511719 30.683594 14.144531 30.359375 C 14.617188 30.113281 14.640625 30.074219 14.46875 29.816406 C 14.371094 29.664062 14.171875 29.46875 14.027344 29.386719 C 13.886719 29.300781 13.730469 29.058594 13.6875 28.847656 C 13.640625 28.632812 13.523438 28.429688 13.425781 28.390625 C 13.027344 28.242188 10.554688 27.757812 10.453125 27.8125 C 10.390625 27.84375 10.265625 28.070312 10.175781 28.3125 C 9.996094 28.796875 9.707031 28.898438 9.039062 28.710938 C 8.5 28.558594 8.273438 28.199219 8.402344 27.699219 C 8.53125 27.210938 8.734375 27.046875 10.585938 25.957031 C 11.855469 25.210938 12.320312 24.886719 14.261719 23.390625 C 15.625 22.339844 15.542969 22.203125 13.703125 22.46875 C 12.363281 22.660156 11.226562 22.992188 11.226562 23.191406 C 11.226562 23.253906 11.011719 23.542969 10.746094 23.824219 C 10.476562 24.109375 10.261719 24.40625 10.261719 24.484375 C 10.261719 24.660156 9.140625 25.804688 8.96875 25.804688 C 8.898438 25.804688 8.351562 26.039062 7.753906 26.328125 C 6.761719 26.804688 6.621094 26.847656 6.109375 26.804688 C 5.308594 26.734375 4.824219 26.535156 4.695312 26.226562 C 4.558594 25.898438 4.742188 25.789062 5.507812 25.757812 C 6.542969 25.714844 6.6875 25.570312 6.699219 24.574219 L 6.710938 23.699219 L 6.097656 23.515625 C 5.269531 23.269531 4.972656 23.078125 4.722656 22.632812 C 4.535156 22.296875 4.464844 22.257812 4.058594 22.273438 C 3.8125 22.285156 3.46875 22.371094 3.304688 22.464844 C 2.6875 22.816406 2.125 22.363281 2.585938 21.890625 C 3.203125 21.253906 4.660156 21.050781 6.378906 21.355469 C 7.554688 21.566406 8.136719 21.515625 9.695312 21.066406 C 10.226562 20.914062 11.152344 20.703125 11.75 20.597656 C 12.949219 20.382812 13.144531 20.210938 12.277344 20.125 C 11.96875 20.09375 10.898438 19.898438 9.898438 19.6875 C 8.902344 19.476562 7.683594 19.226562 7.195312 19.128906 C 4.566406 18.605469 4.125 18.417969 4.140625 17.828125 C 4.15625 17.265625 4.445312 17.085938 5.824219 16.78125 C 6.53125 16.625 7.128906 16.460938 7.160156 16.417969 C 7.1875 16.371094 6.800781 16.246094 6.296875 16.140625 C 5.527344 15.972656 5.335938 15.886719 5.085938 15.59375 C 4.695312 15.136719 4.703125 15 5.144531 14.726562 C 5.390625 14.574219 5.769531 14.476562 6.300781 14.425781 C 6.734375 14.382812 7.121094 14.332031 7.15625 14.3125 C 7.191406 14.292969 6.949219 14.144531 6.617188 13.980469 C 5.9375 13.652344 5.828125 13.3125 6.277344 12.949219 C 6.558594 12.722656 7.640625 12.550781 8.808594 12.550781 C 9.152344 12.550781 9.476562 12.515625 9.527344 12.46875 C 9.578125 12.425781 9.296875 12.269531 8.902344 12.125 C 7.945312 11.777344 7.679688 11.558594 7.679688 11.125 C 7.679688 10.398438 9.179688 10.019531 10.492188 10.410156 C 10.800781 10.5 11.089844 10.546875 11.132812 10.511719 C 11.175781 10.472656 10.996094 10.273438 10.730469 10.066406 C 9.457031 9.054688 11.039062 8.167969 12.957031 8.8125 C 13.332031 8.941406 13.679688 9.042969 13.722656 9.042969 C 13.90625 9.042969 13.789062 8.78125 13.40625 8.347656 C 13.183594 8.09375 13.003906 7.800781 13.003906 7.691406 C 13 7.382812 13.644531 7.109375 14.542969 7.039062 C 15.320312 6.976562 15.351562 6.980469 15.863281 7.296875 C 17.011719 8 20.742188 11.722656 21.773438 13.191406 C 22.105469 13.660156 22.558594 14.316406 22.78125 14.644531 C 23.203125 15.273438 23.289062 15.382812 23.734375 15.910156 C 24.121094 16.367188 24.933594 16.554688 24.933594 16.183594 C 24.933594 15.910156 24.023438 14.574219 23.164062 13.578125 C 22.316406 12.601562 21.222656 10.882812 21.222656 10.527344 C 21.222656 10.386719 20.546875 9.269531 20.246094 8.914062 C 20.167969 8.820312 19.824219 8.378906 19.484375 7.933594 C 19.140625 7.484375 18.519531 6.851562 18.097656 6.527344 C 17.421875 6.003906 17.34375 5.898438 17.4375 5.632812 C 17.578125 5.230469 17.769531 5.050781 18.234375 4.890625 C 18.855469 4.675781 19.589844 4.808594 20.699219 5.332031 C 21.242188 5.589844 21.726562 5.761719 21.777344 5.71875 C 21.824219 5.675781 21.796875 5.441406 21.707031 5.191406 C 21.429688 4.421875 21.492188 4.210938 22.089844 3.875 C 22.949219 3.394531 23.1875 3.445312 24.148438 4.320312 C 24.417969 4.566406 24.699219 4.769531 24.769531 4.769531 C 24.839844 4.769531 24.925781 4.4375 24.957031 4.035156 C 25.011719 3.3125 25.019531 3.296875 25.613281 3.007812 C 26.050781 2.796875 26.367188 2.714844 26.757812 2.714844 C 27.359375 2.714844 27.46875 2.804688 28.207031 3.914062 C 28.410156 4.21875 28.644531 4.46875 28.726562 4.46875 C 28.816406 4.46875 28.855469 4.074219 28.828125 3.519531 L 28.773438 2.574219 L 29.25 2.359375 C 29.871094 2.082031 30.710938 1.898438 30.898438 2 C 30.980469 2.042969 31.292969 2.441406 31.589844 2.886719 C 31.890625 3.335938 32.199219 3.699219 32.28125 3.699219 C 32.363281 3.699219 32.757812 3.257812 33.164062 2.714844 L 33.894531 1.734375 L 34.695312 1.585938 C 35.132812 1.503906 35.707031 1.445312 35.96875 1.457031 C 36.394531 1.472656 36.472656 1.523438 36.6875 1.902344 C 36.816406 2.136719 36.9375 2.339844 36.949219 2.351562 C 36.964844 2.367188 37.335938 2.183594 37.78125 1.945312 C 38.574219 1.527344 38.609375 1.519531 39.570312 1.519531 C 40.179688 1.519531 40.601562 1.558594 40.679688 1.625 C 40.875 1.792969 40.78125 2.726562 40.527344 3.113281 C 40.402344 3.308594 39.960938 3.738281 39.542969 4.070312 C 38.441406 4.949219 37.480469 5.96875 37.714844 6.003906 C 37.824219 6.023438 38.285156 6.0625 38.742188 6.089844 C 39.5625 6.140625 39.914062 6.191406 43.402344 6.789062 C 45.296875 7.113281 45.425781 7.15625 48.375 8.5625 C 48.957031 8.835938 49.503906 9.046875 49.597656 9.03125 C 49.6875 9.015625 49.367188 8.710938 48.886719 8.359375 C 48.40625 8.007812 47.515625 7.332031 46.914062 6.863281 C 46.308594 6.394531 45.765625 5.988281 45.710938 5.964844 C 45.652344 5.941406 45.296875 5.613281 44.921875 5.238281 C 44.542969 4.863281 44.183594 4.515625 44.125 4.46875 C 44.0625 4.421875 43.808594 4.125 43.558594 3.808594 C 43.042969 3.152344 43.046875 2.515625 43.570312 2.316406 C 44.277344 2.039062 45.691406 2.226562 47.472656 2.832031 C 49.445312 3.503906 50.179688 3.980469 51.371094 5.359375 C 51.753906 5.804688 52.296875 6.382812 52.578125 6.644531 C 52.855469 6.90625 53.179688 7.3125 53.300781 7.546875 C 53.707031 8.339844 54.191406 8.386719 54.035156 7.621094 C 53.96875 7.292969 53.652344 6.839844 52.976562 6.109375 C 51.714844 4.742188 51.375 4.089844 51.375 3.058594 C 51.378906 2.082031 51.566406 1.828125 52.308594 1.789062 C 52.898438 1.761719 53.570312 1.953125 54.738281 2.484375 C 55.839844 2.984375 56.210938 3.347656 56.210938 3.925781 C 56.210938 4.753906 56.679688 5.804688 57.585938 7.011719 C 57.726562 7.203125 58.144531 7.210938 58.144531 7.023438 C 58.144531 6.945312 57.964844 6.621094 57.75 6.300781 C 57.226562 5.53125 56.792969 3.945312 56.933594 3.335938 C 57.023438 2.957031 57.144531 2.816406 57.550781 2.617188 C 58.339844 2.234375 58.765625 2.289062 59.832031 2.898438 C 60.339844 3.1875 60.8125 3.507812 60.886719 3.613281 C 60.960938 3.71875 61.066406 4.183594 61.121094 4.648438 C 61.234375 5.574219 61.3125 5.792969 61.542969 5.792969 C 61.625 5.792969 61.691406 5.429688 61.691406 4.980469 C 61.691406 4.285156 61.738281 4.144531 62.015625 4 C 62.421875 3.78125 62.511719 3.785156 63.195312 4.019531 C 64.039062 4.3125 64.425781 4.679688 64.859375 5.597656 C 65.390625 6.730469 65.386719 6.726562 65.578125 6.542969 C 65.667969 6.460938 65.746094 6.125 65.753906 5.800781 C 65.777344 5.113281 65.8125 5.070312 66.410156 4.992188 C 66.796875 4.945312 66.957031 4.992188 67.589844 5.335938 C 68.550781 5.859375 68.949219 6.289062 68.945312 6.796875 C 68.941406 7.332031 68.25 8.804688 67.964844 8.886719 C 67.839844 8.921875 67.464844 8.972656 67.125 9 C 66.742188 9.035156 66.269531 9.167969 65.878906 9.355469 L 65.25 9.660156 L 64.417969 9.511719 C 63.816406 9.40625 63.246094 9.375 62.359375 9.402344 C 61.28125 9.4375 60.945312 9.492188 59.660156 9.84375 C 56.988281 10.578125 55.175781 11.710938 54.789062 12.890625 C 54.464844 13.886719 54.410156 14.328125 54.523438 14.90625 C 54.617188 15.367188 54.734375 15.53125 55.121094 15.765625 C 55.621094 16.070312 56.011719 16.128906 56.339844 15.953125 C 56.648438 15.792969 56.574219 15.691406 55.894531 15.328125 C 55.335938 15.03125 55.253906 14.9375 55.25 14.59375 C 55.242188 14.09375 55.730469 13.691406 56.644531 13.453125 C 57.019531 13.355469 57.328125 13.238281 57.332031 13.1875 C 57.335938 13.136719 57.128906 12.945312 56.871094 12.757812 C 56.300781 12.347656 56.21875 12.132812 56.53125 11.828125 C 56.753906 11.605469 58.359375 10.925781 58.660156 10.925781 C 58.742188 10.925781 59.011719 11.007812 59.261719 11.105469 C 59.578125 11.230469 59.832031 11.265625 60.078125 11.226562 C 60.382812 11.175781 60.417969 11.125 60.332031 10.878906 C 60.269531 10.703125 60.320312 10.476562 60.460938 10.296875 C 60.664062 10.042969 60.824219 9.980469 61.578125 9.867188 C 62.585938 9.710938 63.316406 9.757812 63.734375 10 C 63.957031 10.132812 64.023438 10.320312 64.027344 10.824219 C 64.03125 11.394531 63.96875 11.542969 63.546875 11.953125 C 63.125 12.363281 62.992188 12.425781 62.515625 12.449219 C 62.042969 12.472656 61.988281 12.457031 62.09375 12.320312 C 62.292969 12.058594 62.269531 11.917969 62.011719 11.886719 C 61.621094 11.84375 61.046875 12.1875 61.046875 12.460938 C 61.046875 12.75 61.835938 13.148438 62.40625 13.148438 C 62.984375 13.148438 63.753906 12.90625 64.234375 12.574219 C 64.628906 12.296875 64.683594 12.171875 64.777344 11.355469 C 64.882812 10.382812 65.070312 10.089844 65.828125 9.71875 C 66.425781 9.425781 67.289062 9.285156 68.472656 9.285156 C 69.269531 9.285156 69.609375 9.335938 70.597656 9.617188 C 71.9375 10 72.46875 10.375 73.144531 11.429688 C 73.507812 11.996094 73.519531 12.0625 73.292969 12.273438 C 72.9375 12.613281 72.402344 12.621094 71.773438 12.296875 C 71.363281 12.085938 71.105469 12.027344 70.582031 12.023438 C 69.410156 12.011719 69.085938 12.289062 68.707031 13.625 C 68.257812 15.21875 67.476562 16.675781 66.902344 17.015625 C 66.394531 17.3125 64.648438 17.746094 62.5 18.109375 C 61.300781 18.3125 60.257812 18.511719 60.175781 18.546875 C 59.933594 18.660156 60.367188 18.855469 60.996094 18.917969 C 61.976562 19.015625 63.847656 18.976562 65.101562 18.835938 C 67.695312 18.539062 68.96875 18.417969 70.398438 18.328125 C 70.976562 18.292969 72.046875 18.191406 72.785156 18.101562 C 74.300781 17.917969 74.898438 17.902344 75.753906 18.027344 C 76.515625 18.140625 76.847656 18.316406 76.847656 18.609375 C 76.847656 18.882812 75.945312 20.085938 75.671875 20.179688 C 75.367188 20.285156 74.429688 20.40625 73.460938 20.46875 C 72.972656 20.5 72.523438 20.539062 72.460938 20.558594 C 72.316406 20.605469 61.15625 20.59375 56.695312 20.542969 C 52.84375 20.503906 51.945312 20.464844 49.4375 20.234375 C 46.53125 19.964844 46.023438 19.957031 44.730469 20.121094 C 43.414062 20.292969 43.207031 20.386719 42.070312 21.316406 C 40.660156 22.46875 40.410156 22.964844 41.144531 23.140625 C 41.6875 23.273438 42.296875 23.265625 43.601562 23.117188 C 45.550781 22.898438 49.003906 22.5625 50.792969 22.421875 C 51.757812 22.347656 52.667969 22.253906 52.808594 22.214844 C 53.230469 22.09375 54.859375 21.964844 55.328125 22.007812 C 55.570312 22.03125 56.058594 22.128906 56.414062 22.226562 C 56.90625 22.359375 57.5625 22.417969 59.097656 22.472656 C 62.25 22.585938 62.796875 22.632812 64.351562 22.957031 C 65.152344 23.121094 65.875 23.285156 65.964844 23.324219 C 66.054688 23.359375 66.746094 23.53125 67.503906 23.703125 C 69.589844 24.175781 71.546875 24.992188 72.675781 25.863281 C 73.207031 26.273438 73.15625 26.4375 72.425781 26.691406 C 71.855469 26.890625 71.339844 26.867188 69.59375 26.574219 C 68.160156 26.335938 67.03125 26.253906 66.808594 26.371094 C 66.726562 26.414062 67.003906 26.824219 67.667969 27.644531 C 67.929688 27.964844 68.664062 29.097656 68.953125 29.625 C 69.230469 30.128906 69.230469 30.160156 68.960938 30.289062 C 68.492188 30.511719 67.945312 30.445312 66.457031 29.976562 C 64.894531 29.480469 64.261719 29.128906 63.339844 28.234375 C 62.652344 27.566406 62.234375 27.460938 62.292969 27.964844 C 62.335938 28.347656 63.054688 29.265625 63.941406 30.074219 C 64.589844 30.664062 64.59375 30.671875 64.59375 31.5625 C 64.59375 32.832031 64.472656 32.859375 62.84375 31.996094 C 62.148438 31.625 61.304688 31.089844 60.96875 30.808594 C 60.351562 30.289062 59.316406 29.652344 59.082031 29.652344 C 58.867188 29.652344 58.9375 29.945312 59.195312 30.140625 C 59.929688 30.699219 60.222656 31.175781 60.402344 32.09375 C 60.5 32.609375 60.671875 33.1875 60.78125 33.375 C 61.015625 33.78125 60.953125 34.09375 60.621094 34.160156 C 60.066406 34.273438 58.257812 33.085938 57.023438 31.792969 C 56.554688 31.296875 56.09375 30.84375 56.003906 30.785156 C 55.636719 30.539062 55.585938 30.847656 55.898438 31.410156 C 56.082031 31.738281 56.230469 32.238281 56.230469 32.519531 C 56.230469 33.082031 55.546875 34.597656 55.113281 34.992188 C 54.8125 35.265625 54.382812 35.34375 54.117188 35.171875 C 53.859375 35.007812 53.328125 33.933594 53.21875 33.359375 C 53.0625 32.53125 52.558594 31.296875 52.316406 31.15625 C 52.019531 30.980469 51.824219 31.246094 52.003906 31.589844 C 52.160156 31.882812 52.117188 32.003906 51.632812 32.691406 C 51.332031 33.113281 50.957031 33.695312 50.800781 33.984375 C 50.566406 34.414062 50.335938 34.609375 49.453125 35.101562 C 48.578125 35.589844 48.269531 35.707031 47.738281 35.753906 C 47.101562 35.804688 47.089844 35.800781 46.789062 35.445312 C 46.3125 34.882812 46.28125 34.140625 46.691406 33.238281 C 47.058594 32.441406 47.042969 32.21875 46.628906 32.21875 C 46.25 32.21875 45.773438 32.816406 45.394531 33.761719 C 45.144531 34.386719 44.332031 35.21875 43.3125 35.898438 C 42.429688 36.484375 41.828125 36.707031 40.875 36.796875 C 40.347656 36.847656 40.28125 36.832031 40.191406 36.644531 Z M 42.601562 35.289062 C 43.003906 34.953125 43.40625 34.578125 43.496094 34.457031 C 43.585938 34.332031 43.777344 34.097656 43.925781 33.933594 C 44.074219 33.765625 44.195312 33.421875 44.199219 33.160156 C 44.199219 32.707031 44.183594 32.691406 43.746094 32.664062 C 43.074219 32.621094 42.546875 32.855469 42.097656 33.390625 C 41.527344 34.074219 41.269531 34.660156 41.253906 35.320312 C 41.238281 35.839844 41.269531 35.898438 41.550781 35.898438 C 41.761719 35.898438 42.101562 35.699219 42.601562 35.289062 Z M 38.613281 33.886719 C 39.164062 33.382812 39.359375 32.929688 39.101562 32.761719 C 38.859375 32.609375 37.988281 32.617188 37.554688 32.777344 C 37.316406 32.863281 37.167969 33.039062 37.09375 33.3125 C 37.035156 33.535156 36.820312 33.929688 36.621094 34.1875 C 36.054688 34.921875 35.863281 35.289062 35.988281 35.394531 C 36.136719 35.523438 37.992188 34.457031 38.613281 33.886719 Z M 48.757812 34.550781 C 48.925781 34.421875 49.375 33.96875 49.753906 33.546875 C 50.726562 32.457031 50.652344 31.796875 49.570312 31.910156 C 48.6875 32.003906 48.375 32.195312 48.007812 32.847656 C 47.816406 33.1875 47.691406 33.5625 47.730469 33.679688 C 47.769531 33.792969 47.808594 34.089844 47.816406 34.335938 C 47.824219 34.722656 47.871094 34.785156 48.136719 34.785156 C 48.3125 34.785156 48.589844 34.679688 48.757812 34.550781 Z M 31.140625 34.285156 C 32.578125 33.820312 33.855469 32.871094 33.769531 32.335938 C 33.722656 32.042969 33.667969 32.007812 33.167969 31.953125 C 32.867188 31.921875 32.523438 31.914062 32.410156 31.9375 C 32.101562 32 31.496094 32.613281 30.933594 33.429688 C 30.664062 33.820312 30.390625 34.210938 30.332031 34.292969 C 30.183594 34.492188 30.515625 34.488281 31.140625 34.285156 Z M 54.910156 33.601562 C 55 33.511719 55.113281 33.136719 55.164062 32.765625 C 55.234375 32.234375 55.191406 31.992188 54.953125 31.625 C 54.582031 31.050781 54.269531 30.921875 53.789062 31.152344 C 53.394531 31.34375 53.40625 31.539062 53.871094 32.519531 C 54.027344 32.847656 54.21875 33.261719 54.300781 33.4375 C 54.464844 33.792969 54.664062 33.84375 54.910156 33.601562 Z M 25.886719 32.859375 C 27.402344 32.21875 28.226562 31.628906 28.125 31.253906 C 28.085938 31.101562 27.953125 31.0625 27.410156 31.039062 C 26.78125 31.015625 26.714844 31.035156 26.164062 31.433594 C 25.847656 31.664062 25.351562 32.117188 25.066406 32.441406 C 24.777344 32.765625 24.515625 33.0625 24.484375 33.097656 C 24.308594 33.28125 25.269531 33.121094 25.886719 32.859375 Z M 59.695312 32.472656 C 59.640625 32.285156 59.476562 31.964844 59.335938 31.769531 C 59.199219 31.570312 58.984375 31.21875 58.859375 30.988281 C 58.59375 30.496094 58.230469 30.253906 57.75 30.253906 C 56.910156 30.253906 56.792969 30.742188 57.46875 31.414062 C 58.207031 32.144531 59.171875 32.8125 59.496094 32.816406 C 59.761719 32.816406 59.785156 32.773438 59.695312 32.472656 Z M 21.59375 31.847656 C 22.34375 31.679688 23.875 30.992188 24.289062 30.636719 C 24.632812 30.34375 24.632812 30.324219 24.363281 30.164062 C 24.207031 30.070312 23.957031 29.996094 23.8125 29.996094 C 23.246094 29.996094 20.417969 31.5625 20.417969 31.875 C 20.417969 32 20.972656 31.984375 21.59375 31.847656 Z M 45.246094 31.523438 C 46.089844 31.425781 47.179688 31.257812 47.664062 31.148438 C 48.15625 31.042969 48.878906 30.878906 49.277344 30.789062 C 49.679688 30.699219 50.511719 30.511719 51.132812 30.378906 C 55.574219 29.40625 59.648438 27.816406 62.742188 25.847656 C 63.183594 25.566406 63.890625 25.15625 64.3125 24.941406 C 64.734375 24.722656 65.078125 24.492188 65.078125 24.425781 C 65.074219 24.109375 64.324219 23.828125 62.585938 23.496094 C 60.710938 23.132812 60.007812 23.082031 59.515625 23.273438 C 59.230469 23.382812 59.230469 23.40625 59.46875 23.597656 C 59.742188 23.820312 61.417969 24.296875 62.527344 24.46875 C 62.898438 24.523438 63.226562 24.613281 63.261719 24.667969 C 63.296875 24.722656 63.066406 24.867188 62.753906 24.992188 L 62.1875 25.222656 L 60.609375 24.796875 C 58.710938 24.285156 58.128906 24.203125 57.761719 24.398438 C 57.617188 24.472656 57.5 24.570312 57.5 24.613281 C 57.5 24.746094 58.273438 24.96875 59.730469 25.257812 C 61.339844 25.578125 61.554688 25.75 60.730469 26.0625 L 60.234375 26.25 L 59.554688 26.058594 C 59.175781 25.957031 58.507812 25.746094 58.066406 25.59375 C 57.019531 25.230469 56.632812 25.171875 56.375 25.332031 C 56.027344 25.558594 56.664062 25.925781 58.714844 26.691406 L 59.140625 26.851562 L 58.695312 27.097656 C 58.445312 27.234375 58.152344 27.347656 58.039062 27.347656 C 57.929688 27.347656 57.5625 27.183594 57.226562 26.984375 C 55.40625 25.914062 55.3125 25.867188 54.964844 25.925781 C 54.78125 25.957031 54.59375 26.035156 54.546875 26.09375 C 54.425781 26.265625 55 26.882812 55.726562 27.367188 C 56.480469 27.867188 56.515625 27.976562 55.972656 28.164062 C 55.433594 28.351562 55.195312 28.289062 54.761719 27.84375 C 54.558594 27.640625 54.167969 27.242188 53.890625 26.960938 C 53.316406 26.375 52.640625 26.15625 52.265625 26.433594 C 52.042969 26.589844 52.207031 27.222656 52.511719 27.382812 C 52.59375 27.429688 52.664062 27.519531 52.664062 27.582031 C 52.664062 27.648438 52.921875 27.933594 53.234375 28.21875 C 53.855469 28.78125 53.851562 28.976562 53.214844 29.128906 C 52.429688 29.320312 52.199219 29.160156 51.546875 27.972656 C 51.085938 27.132812 50.148438 26.730469 49.75 27.199219 C 49.617188 27.351562 49.671875 27.546875 49.996094 28.074219 C 50.222656 28.449219 50.574219 28.921875 50.773438 29.125 L 51.132812 29.496094 L 50.75 29.660156 C 50.277344 29.867188 49.65625 29.875 49.46875 29.675781 C 49.390625 29.59375 49.238281 29.335938 49.125 29.097656 C 49.015625 28.863281 48.863281 28.59375 48.785156 28.5 C 48.707031 28.40625 48.570312 28.171875 48.480469 27.980469 C 48.265625 27.535156 47.605469 27.1875 47.214844 27.316406 C 46.839844 27.441406 46.789062 27.792969 47.082031 28.273438 C 47.214844 28.492188 47.484375 29.015625 47.679688 29.433594 C 48.019531 30.167969 48.023438 30.199219 47.738281 30.3125 C 47.324219 30.46875 46.738281 30.453125 46.5625 30.273438 C 46.296875 30.007812 45.894531 29.058594 45.789062 28.445312 C 45.664062 27.734375 45.28125 27.40625 44.625 27.449219 C 44.226562 27.472656 44.195312 27.503906 44.148438 27.976562 C 44.09375 28.542969 44.453125 29.480469 44.960938 30.109375 C 45.386719 30.632812 45.238281 30.800781 44.324219 30.835938 L 43.679688 30.859375 L 43.566406 30.320312 C 43.503906 30.027344 43.351562 29.535156 43.222656 29.226562 C 43.097656 28.921875 42.898438 28.421875 42.777344 28.117188 C 42.585938 27.617188 42.523438 27.558594 42.179688 27.558594 C 41.59375 27.558594 41.53125 27.9375 41.882812 29.335938 C 42.332031 31.140625 42.347656 30.976562 41.730469 31.007812 C 41.4375 31.023438 41.101562 30.992188 40.984375 30.941406 C 40.765625 30.847656 40.613281 30.167969 40.507812 28.832031 C 40.4375 27.949219 40.238281 27.664062 39.714844 27.703125 C 39.152344 27.746094 39 28.246094 39.324219 28.996094 C 39.574219 29.570312 39.765625 30.261719 39.820312 30.765625 C 39.84375 30.953125 39.769531 30.984375 39.28125 31.007812 C 38.269531 31.050781 38.183594 30.953125 38 29.578125 C 37.832031 28.296875 37.605469 27.90625 37.054688 27.960938 C 36.753906 27.992188 36.714844 28.410156 36.867188 29.996094 L 36.945312 30.808594 L 36.152344 30.789062 C 35.71875 30.773438 35.265625 30.722656 35.144531 30.671875 C 34.984375 30.597656 34.933594 30.257812 34.9375 29.257812 C 34.941406 28.535156 34.902344 27.902344 34.847656 27.859375 C 34.792969 27.8125 34.609375 27.773438 34.4375 27.773438 C 33.84375 27.773438 33.652344 28.101562 33.519531 29.359375 C 33.382812 30.691406 33.355469 30.714844 32.277344 30.476562 L 31.6875 30.34375 L 31.792969 29.851562 C 31.855469 29.578125 32.078125 29.03125 32.292969 28.636719 C 32.507812 28.242188 32.648438 27.863281 32.601562 27.800781 C 32.359375 27.46875 31.488281 27.945312 31 28.679688 C 30.570312 29.332031 29.9375 29.996094 29.75 29.996094 C 29.507812 29.996094 28.480469 29.660156 28.480469 29.578125 C 28.480469 29.515625 28.828125 29.230469 30.058594 28.28125 C 30.789062 27.722656 30.832031 27.515625 30.210938 27.515625 C 29.6875 27.515625 29.171875 27.734375 28.816406 28.101562 C 28.492188 28.433594 28.007812 28.71875 27.203125 29.042969 C 26.589844 29.289062 26.5625 29.558594 27.128906 29.820312 C 27.621094 30.046875 28.753906 30.335938 29.164062 30.335938 C 29.320312 30.339844 30.335938 30.527344 31.421875 30.757812 C 33.824219 31.269531 36.800781 31.605469 40.007812 31.730469 C 41.429688 31.785156 43.796875 31.691406 45.246094 31.523438 Z M 62.601562 29.949219 C 62.265625 29.40625 61.824219 28.863281 61.621094 28.738281 C 61.257812 28.515625 61.242188 28.511719 60.828125 28.65625 C 59.988281 28.949219 60.394531 29.597656 62.039062 30.601562 C 63.238281 31.332031 63.367188 31.183594 62.601562 29.949219 Z M 67.464844 29.167969 C 67.511719 28.992188 67.101562 28.59375 66.390625 28.117188 C 66.214844 28 66.113281 27.871094 66.164062 27.828125 C 66.214844 27.78125 66.179688 27.773438 66.089844 27.800781 C 65.929688 27.855469 65.5625 27.523438 65.332031 27.117188 C 65.085938 26.683594 64.4375 26.671875 64.019531 27.101562 C 63.796875 27.328125 63.808594 27.378906 64.171875 27.792969 C 64.6875 28.382812 65.191406 28.730469 66.0625 29.09375 C 66.855469 29.425781 67.390625 29.457031 67.464844 29.167969 Z M 15.15625 27.582031 C 15.417969 27.0625 15.148438 26.761719 14.535156 26.886719 C 14.230469 26.949219 14.230469 27.003906 14.550781 27.429688 C 14.84375 27.820312 15.015625 27.863281 15.15625 27.582031 Z M 13.433594 27.132812 C 13.679688 26.757812 13.503906 26.5625 13.089844 26.742188 C 12.789062 26.875 12.738281 27.550781 13.027344 27.5 C 13.132812 27.480469 13.316406 27.316406 13.433594 27.132812 Z M 40.652344 27.058594 C 41.363281 27.039062 42.125 27.003906 42.34375 26.976562 C 42.566406 26.953125 43.257812 26.910156 43.878906 26.878906 C 44.941406 26.828125 45.667969 26.765625 48.957031 26.433594 C 51.667969 26.164062 55.003906 25.0625 56.609375 23.902344 C 57.042969 23.59375 57.046875 23.574219 56.78125 23.363281 C 56.214844 22.902344 53.984375 22.550781 53.371094 22.820312 C 53.027344 22.972656 53.085938 23.039062 54.035156 23.550781 C 54.523438 23.8125 54.921875 24.078125 54.921875 24.140625 C 54.921875 24.28125 54.082031 24.609375 53.730469 24.609375 C 53.589844 24.609375 53.070312 24.320312 52.578125 23.96875 C 51.882812 23.46875 51.59375 23.328125 51.28125 23.328125 C 50.65625 23.328125 50.640625 23.550781 51.210938 24.210938 C 51.949219 25.070312 51.988281 25.234375 51.460938 25.363281 C 51.226562 25.417969 50.929688 25.464844 50.796875 25.464844 C 50.558594 25.464844 49.441406 24.304688 49.441406 24.058594 C 49.441406 23.890625 49.097656 23.496094 48.949219 23.496094 C 48.886719 23.496094 48.738281 23.558594 48.617188 23.636719 C 48.457031 23.738281 48.410156 24.046875 48.4375 24.824219 C 48.472656 25.867188 48.46875 25.875 48.085938 25.925781 C 47.871094 25.953125 47.589844 26 47.460938 26.023438 C 46.960938 26.125 46.777344 25.859375 46.722656 24.953125 C 46.652344 23.738281 46.429688 23.484375 45.679688 23.777344 C 45.449219 23.863281 45.398438 24.050781 45.375 24.898438 C 45.34375 26.136719 45.199219 26.277344 44.003906 26.242188 C 43.652344 26.234375 43.648438 26.214844 43.683594 25.101562 L 43.71875 23.96875 L 43.191406 23.941406 L 42.667969 23.914062 L 42.667969 24.320312 C 42.667969 24.820312 42.210938 26.152344 41.988281 26.296875 C 41.765625 26.441406 40.425781 26.4375 40.320312 26.292969 C 40.277344 26.230469 40.460938 25.894531 40.734375 25.542969 C 41.007812 25.195312 41.273438 24.730469 41.324219 24.515625 C 41.40625 24.171875 41.371094 24.101562 41.058594 23.984375 C 40.351562 23.722656 40.28125 23.792969 39.613281 25.335938 C 39.230469 26.210938 38.910156 26.457031 38.296875 26.332031 L 37.894531 26.25 L 38.238281 25.324219 C 38.609375 24.320312 38.5625 23.96875 38.0625 23.96875 C 37.796875 23.96875 37.734375 24.050781 37.644531 24.535156 C 37.40625 25.820312 37.054688 26.320312 36.386719 26.320312 C 35.777344 26.320312 35.746094 26.144531 36.144531 25.015625 C 36.535156 23.921875 36.53125 23.667969 36.128906 23.667969 C 35.816406 23.667969 35.742188 23.765625 35.5 24.5 C 35.203125 25.386719 34.949219 25.902344 34.742188 26.039062 C 34.507812 26.1875 33.964844 26.175781 33.632812 26.019531 C 33.378906 25.894531 33.378906 25.851562 33.671875 25.3125 C 34.414062 23.941406 34.398438 23.621094 33.597656 23.816406 C 33.285156 23.890625 33.15625 24.054688 32.828125 24.792969 C 32.476562 25.582031 32.367188 25.714844 31.808594 26.007812 C 31.195312 26.328125 31.183594 26.339844 31.480469 26.492188 C 31.804688 26.660156 33.851562 26.917969 34.882812 26.921875 C 35.21875 26.921875 35.84375 26.96875 36.269531 27.027344 C 37.003906 27.128906 37.699219 27.132812 40.652344 27.058594 Z M 11.617188 26.824219 C 12.117188 26.511719 12.152344 26.320312 11.714844 26.320312 C 11.503906 26.320312 11.285156 26.4375 11.070312 26.660156 C 10.683594 27.0625 10.675781 27.089844 10.972656 27.089844 C 11.097656 27.089844 11.386719 26.96875 11.617188 26.824219 Z M 71.527344 26.308594 C 71.527344 26.121094 70.234375 25.402344 69.257812 25.042969 L 68.253906 24.679688 L 67.835938 24.847656 C 67.371094 25.027344 67.207031 25.390625 67.53125 25.515625 C 67.855469 25.644531 71.152344 26.398438 71.40625 26.402344 C 71.472656 26.402344 71.527344 26.363281 71.527344 26.308594 Z M 15.066406 25.875 C 15.375 25.710938 15.289062 25.480469 14.863281 25.332031 C 14.160156 25.085938 13.46875 25.375 13.726562 25.804688 C 13.84375 26.003906 14.738281 26.046875 15.066406 25.875 Z M 16.578125 23.929688 C 17.222656 23.238281 17.199219 22.984375 16.488281 22.984375 C 16.070312 22.984375 15.273438 23.515625 14.957031 24.011719 C 14.78125 24.28125 14.796875 24.324219 15.117188 24.464844 C 15.3125 24.546875 15.585938 24.605469 15.726562 24.589844 C 15.867188 24.574219 16.25 24.277344 16.578125 23.929688 Z M 8.945312 24.375 C 9.027344 24.292969 9.144531 24.097656 9.207031 23.945312 C 9.304688 23.707031 9.277344 23.667969 9 23.667969 C 8.628906 23.667969 8.488281 23.824219 8.488281 24.230469 C 8.488281 24.546875 8.707031 24.613281 8.945312 24.375 Z M 25.988281 23.316406 C 26.148438 23.042969 25.632812 22.832031 24.609375 22.75 C 23.742188 22.683594 21.769531 22.753906 21.566406 22.859375 C 21.511719 22.890625 21.625 22.980469 21.816406 23.066406 C 22.058594 23.167969 22.570312 23.230469 23.457031 23.261719 C 24.164062 23.289062 24.875 23.351562 25.039062 23.402344 C 25.507812 23.546875 25.867188 23.511719 25.988281 23.316406 Z M 8.058594 23.199219 C 8.390625 23.070312 8.292969 22.898438 7.886719 22.898438 C 7.605469 22.898438 7.035156 23.136719 7.035156 23.253906 C 7.035156 23.371094 7.730469 23.332031 8.058594 23.199219 Z M 31.214844 23.054688 C 33.378906 22.785156 34.328125 22.445312 33.519531 22.234375 C 33.03125 22.105469 31.019531 22.117188 30.042969 22.253906 C 28.789062 22.429688 28.390625 22.421875 28.003906 22.199219 L 27.671875 22.011719 L 27.671875 22.585938 C 27.671875 23.101562 27.710938 23.167969 28.035156 23.242188 C 28.472656 23.339844 29.378906 23.285156 31.214844 23.054688 Z M 36.828125 22.652344 C 37.15625 22.566406 37.609375 22.472656 37.832031 22.441406 C 38.453125 22.359375 40.386719 21.546875 40.851562 21.171875 C 41.214844 20.882812 41.238281 20.820312 41.039062 20.714844 C 40.730469 20.550781 40.417969 20.640625 38.414062 21.472656 C 37.546875 21.835938 36.777344 22.128906 36.707031 22.128906 C 36.574219 22.128906 35.984375 21.367188 36.082031 21.320312 C 36.113281 21.304688 36.609375 21.167969 37.1875 21.015625 C 39.734375 20.339844 40.9375 19.773438 40.167969 19.617188 C 39.796875 19.542969 39.246094 19.683594 37.53125 20.289062 C 36.667969 20.597656 35.839844 20.847656 35.695312 20.847656 C 35.410156 20.847656 34.996094 20.242188 35.144531 20.039062 C 35.183594 19.980469 35.933594 19.808594 36.808594 19.652344 C 37.679688 19.496094 38.671875 19.296875 39.007812 19.207031 C 39.550781 19.0625 39.617188 19.011719 39.574219 18.769531 C 39.523438 18.496094 39.519531 18.496094 38.71875 18.527344 C 38.273438 18.542969 37.4375 18.652344 36.863281 18.765625 C 36.289062 18.882812 35.496094 19.023438 35.109375 19.074219 C 34.453125 19.164062 34.382812 19.15625 34.09375 18.96875 C 33.566406 18.621094 33.761719 18.511719 35.253906 18.308594 C 36.863281 18.089844 38.261719 17.828125 38.5 17.703125 C 38.730469 17.582031 38.523438 17.273438 38.167969 17.214844 C 37.816406 17.15625 36 17.351562 34.699219 17.59375 C 33.472656 17.820312 33.34375 17.8125 33.140625 17.535156 C 32.992188 17.328125 33.023438 17.277344 33.417969 17.109375 C 33.886719 16.910156 35.390625 16.699219 36.863281 16.621094 C 37.726562 16.574219 38.230469 16.398438 38.101562 16.1875 C 37.988281 16.003906 36.511719 15.886719 35.457031 15.972656 C 33.203125 16.164062 32.253906 16.585938 32.132812 17.445312 C 32.074219 17.855469 32.363281 18.355469 33.234375 19.339844 C 33.8125 19.996094 34.449219 21 34.78125 21.789062 C 34.976562 22.246094 35.640625 22.8125 35.984375 22.8125 C 36.121094 22.8125 36.5 22.742188 36.828125 22.652344 Z M 10.273438 22.59375 C 10.554688 22.410156 10.273438 22.171875 9.777344 22.171875 C 9.347656 22.171875 9.039062 22.386719 9.183594 22.585938 C 9.3125 22.765625 9.996094 22.769531 10.273438 22.59375 Z M 7.679688 22.34375 C 7.679688 22.183594 7.179688 22.042969 6.589844 22.042969 C 5.902344 22.042969 5.847656 22.132812 6.433594 22.300781 C 7.097656 22.492188 7.679688 22.511719 7.679688 22.34375 Z M 13.433594 21.863281 C 15.238281 21.554688 15.417969 21.5 15.417969 21.230469 C 15.417969 20.882812 15.113281 20.847656 13.777344 21.054688 C 12.042969 21.320312 10.976562 21.796875 11.496094 22.070312 C 11.65625 22.15625 11.726562 22.152344 13.433594 21.863281 Z M 24.972656 21.882812 C 25.535156 21.765625 25.578125 21.417969 25.054688 21.238281 C 24.757812 21.140625 24.421875 21.132812 23.261719 21.195312 C 21.683594 21.28125 20.140625 21.472656 19.878906 21.609375 C 19.625 21.746094 19.964844 21.886719 20.691406 21.953125 C 21.617188 22.035156 24.46875 21.992188 24.972656 21.882812 Z M 31.058594 21.601562 C 33.253906 21.628906 33.6875 21.542969 33.34375 21.144531 L 33.144531 20.910156 L 31.496094 20.96875 C 30.589844 21 29.386719 21.066406 28.824219 21.113281 C 28.101562 21.171875 27.738281 21.167969 27.585938 21.101562 C 27.28125 20.964844 27.121094 20.507812 27.335938 20.390625 C 27.449219 20.332031 28.375 20.296875 29.890625 20.292969 C 32.1875 20.289062 32.269531 20.285156 32.316406 20.109375 C 32.34375 20.007812 32.25 19.867188 32.113281 19.792969 C 31.851562 19.65625 31.304688 19.652344 28.75 19.78125 C 28.21875 19.808594 27.570312 19.789062 27.253906 19.730469 C 26.714844 19.636719 26.691406 19.617188 26.738281 19.277344 L 26.785156 18.921875 L 29.039062 18.921875 C 30.933594 18.921875 31.300781 18.902344 31.34375 18.792969 C 31.371094 18.71875 31.242188 18.574219 31.058594 18.46875 C 30.667969 18.25 29.769531 18.230469 27.109375 18.394531 L 25.496094 18.496094 L 25.445312 18.765625 C 25.417969 18.917969 25.503906 19.148438 25.632812 19.28125 C 25.761719 19.414062 25.921875 19.714844 25.984375 19.949219 C 26.179688 20.65625 26.515625 20.992188 27.40625 21.367188 C 28.125 21.671875 28.292969 21.707031 28.71875 21.644531 C 28.984375 21.605469 30.039062 21.585938 31.058594 21.601562 Z M 23.125 20.714844 C 24.332031 20.65625 24.769531 20.535156 24.769531 20.253906 C 24.769531 19.933594 24.355469 19.863281 23.1875 19.980469 C 22.59375 20.039062 21.820312 20.117188 21.464844 20.152344 C 20.660156 20.230469 20.09375 20.390625 20.09375 20.535156 C 20.09375 20.707031 20.753906 20.84375 21.386719 20.804688 C 21.695312 20.785156 22.476562 20.742188 23.125 20.714844 Z M 17.515625 20.21875 C 17.515625 20.074219 16.933594 19.785156 15.957031 19.445312 C 15.53125 19.296875 15.15625 19.105469 15.125 19.015625 C 15.046875 18.804688 15.414062 18.453125 15.710938 18.453125 C 15.839844 18.453125 16.519531 18.738281 17.214844 19.09375 C 18.46875 19.730469 19.039062 19.871094 19.238281 19.597656 C 19.304688 19.503906 18.9375 19.253906 18.019531 18.773438 C 16.589844 18.027344 16.34375 17.773438 16.796875 17.507812 C 17.214844 17.261719 17.410156 17.296875 18.089844 17.746094 C 19.132812 18.4375 20.203125 18.964844 20.554688 18.964844 C 20.910156 18.964844 21.222656 18.738281 21.222656 18.476562 C 21.222656 18.328125 19.511719 17.328125 18.589844 16.933594 C 17.984375 16.679688 18.039062 16.3125 18.699219 16.1875 C 19.101562 16.113281 19.203125 16.132812 19.46875 16.316406 C 19.636719 16.433594 20.371094 16.84375 21.101562 17.230469 C 22.3125 17.875 22.996094 18.09375 22.996094 17.84375 C 22.996094 17.75 22.113281 17.152344 21.144531 16.589844 C 20.515625 16.226562 19.929688 15.652344 20.03125 15.507812 C 20.125 15.382812 21.109375 15.269531 21.476562 15.34375 C 21.605469 15.371094 21.75 15.492188 21.800781 15.617188 C 22.035156 16.207031 22.984375 17.082031 23.390625 17.082031 C 23.648438 17.082031 22.484375 15.167969 22.085938 14.933594 C 21.726562 14.71875 21.246094 14.734375 20.15625 14.988281 C 19.128906 15.230469 17.4375 16.097656 16.417969 16.910156 C 16.089844 17.167969 15.617188 17.523438 15.367188 17.699219 C 14.863281 18.046875 13.761719 19.457031 13.898438 19.574219 C 13.949219 19.613281 14.257812 19.671875 14.59375 19.699219 C 14.925781 19.726562 15.628906 19.878906 16.15625 20.03125 C 17.222656 20.347656 17.515625 20.386719 17.515625 20.21875 Z M 64.617188 19.820312 C 65.535156 19.769531 66.613281 19.695312 67.011719 19.652344 C 67.414062 19.609375 68.285156 19.550781 68.949219 19.527344 C 73.269531 19.371094 75.632812 18.957031 74.117188 18.625 C 73.402344 18.46875 72.21875 18.542969 68.625 18.964844 C 67.871094 19.054688 66.601562 19.167969 65.804688 19.214844 C 60.09375 19.550781 59.652344 19.554688 59.144531 19.304688 C 58.433594 18.953125 58.515625 18.210938 59.277344 18.09375 C 59.5 18.058594 60.113281 17.964844 60.644531 17.886719 C 63.078125 17.53125 65.058594 17.140625 65.476562 16.933594 C 66.425781 16.46875 67.039062 15.394531 67.324219 13.707031 C 67.597656 12.078125 67.855469 11.742188 69.0625 11.4375 C 69.679688 11.285156 69.964844 11.265625 70.746094 11.3125 C 71.871094 11.382812 71.980469 11.265625 71.195312 10.847656 C 70.761719 10.621094 70.582031 10.585938 69.832031 10.585938 C 68.847656 10.585938 68.308594 10.675781 67.472656 10.980469 C 66.480469 11.34375 66.207031 11.910156 66.058594 13.917969 C 65.941406 15.515625 65.722656 15.988281 64.867188 16.46875 C 64.320312 16.78125 63.882812 16.871094 61.402344 17.175781 C 58.414062 17.546875 58.160156 17.648438 58.105469 18.496094 C 58.039062 19.625 58.675781 19.90625 61.3125 19.90625 C 62.214844 19.90625 63.699219 19.867188 64.617188 19.820312 Z M 44.28125 19.535156 C 45.421875 19.378906 45.648438 19.320312 45.648438 19.179688 C 45.648438 18.863281 44.910156 18.765625 43.410156 18.882812 C 41.90625 19 41.453125 18.9375 41.28125 18.578125 C 41.089844 18.171875 41.230469 18.132812 42.566406 18.21875 C 43.996094 18.3125 45.214844 18.222656 45.472656 18 C 45.769531 17.746094 45.316406 17.683594 43.082031 17.683594 C 41.164062 17.683594 40.964844 17.667969 40.621094 17.496094 C 40.417969 17.394531 40.25 17.234375 40.25 17.140625 C 40.25 16.980469 40.316406 16.976562 41.742188 17.046875 C 44.21875 17.164062 44.992188 17.148438 45.054688 16.980469 C 45.089844 16.882812 44.882812 16.773438 44.410156 16.644531 C 43.8125 16.480469 43.457031 16.453125 41.835938 16.449219 C 40.800781 16.445312 39.90625 16.46875 39.847656 16.5 C 39.789062 16.53125 39.738281 16.730469 39.738281 16.945312 C 39.738281 17.453125 40.679688 18.5625 41.449219 18.96875 C 41.765625 19.132812 42.023438 19.347656 42.023438 19.445312 C 42.023438 19.796875 42.292969 19.804688 44.28125 19.535156 Z M 52.757812 19.15625 C 52.652344 18.730469 52.597656 18.808594 54.300781 17.054688 C 54.640625 16.703125 54.601562 16.484375 54.207031 16.484375 C 53.863281 16.484375 52.179688 17.863281 52 18.285156 C 51.863281 18.605469 51.90625 18.992188 52.125 19.414062 C 52.167969 19.496094 52.347656 19.5625 52.527344 19.5625 C 52.824219 19.5625 52.847656 19.523438 52.757812 19.15625 Z M 56.96875 19.355469 C 57.636719 19.046875 57.34375 18.84375 56.179688 18.8125 C 55.121094 18.78125 54.484375 18.980469 54.667969 19.285156 C 54.871094 19.625 56.292969 19.667969 56.96875 19.355469 Z M 49.703125 19.347656 C 49.757812 19.273438 49.671875 19.140625 49.515625 19.046875 C 49.28125 18.910156 49.015625 18.878906 48.132812 18.878906 C 46.597656 18.878906 46.425781 19.097656 47.765625 19.351562 C 48.628906 19.515625 49.585938 19.511719 49.703125 19.347656 Z M 12.757812 19.140625 C 12.757812 19.074219 12.324219 18.902344 11.792969 18.757812 C 10.894531 18.511719 10.820312 18.472656 10.773438 18.171875 C 10.707031 17.746094 10.988281 17.699219 12.011719 17.976562 C 12.941406 18.226562 13.609375 18.257812 13.753906 18.058594 C 13.890625 17.871094 13.496094 17.691406 12.492188 17.476562 C 11.554688 17.28125 11.15625 16.957031 11.492188 16.671875 C 11.777344 16.433594 12.160156 16.457031 13.058594 16.773438 C 14.058594 17.125 14.753906 17.242188 14.933594 17.085938 C 15.1875 16.867188 14.859375 16.628906 13.796875 16.269531 C 13.199219 16.0625 12.660156 15.816406 12.601562 15.71875 C 12.339844 15.285156 13.023438 15.011719 13.683594 15.285156 C 14.59375 15.660156 15.914062 15.988281 16.308594 15.9375 C 17.160156 15.824219 16.691406 15.480469 14.53125 14.648438 C 13.714844 14.332031 13.6875 14.308594 13.773438 14.003906 C 13.933594 13.429688 14.640625 13.46875 15.582031 14.101562 C 16.789062 14.910156 18 15.304688 18 14.886719 C 18 14.722656 16.785156 13.898438 15.757812 13.367188 C 15.128906 13.042969 14.960938 12.902344 15.035156 12.769531 C 15.160156 12.546875 15.574219 12.292969 15.808594 12.292969 C 15.976562 12.292969 16.917969 12.921875 18.175781 13.867188 C 18.824219 14.355469 19.179688 14.441406 19.449219 14.175781 C 19.722656 13.90625 19.546875 13.738281 18.089844 12.890625 C 16.390625 11.898438 16.234375 11.753906 16.628906 11.527344 C 16.789062 11.433594 17.09375 11.355469 17.304688 11.355469 C 17.695312 11.355469 18.484375 11.695312 18.484375 11.867188 C 18.484375 12.03125 20.167969 13.320312 20.378906 13.320312 C 20.492188 13.320312 20.664062 13.230469 20.757812 13.117188 C 20.96875 12.875 20.8125 12.695312 19.507812 11.675781 C 18.457031 10.847656 18.023438 10.585938 17.726562 10.585938 C 17.28125 10.585938 14.851562 11.976562 14.140625 12.636719 C 13.316406 13.402344 11.390625 15.375 11.390625 15.449219 C 11.390625 15.5 11.0625 15.964844 10.664062 16.484375 C 10.058594 17.273438 9.933594 17.53125 9.917969 18.027344 C 9.90625 18.4375 9.980469 18.6875 10.15625 18.828125 C 10.613281 19.199219 12.757812 19.457031 12.757812 19.140625 Z M 24.035156 19.191406 C 24.382812 19.058594 24.25 18.707031 23.847656 18.707031 C 23.511719 18.707031 22.191406 19.121094 22.191406 19.226562 C 22.191406 19.347656 23.699219 19.324219 24.035156 19.191406 Z M 8.550781 18.144531 C 8.742188 17.882812 8.652344 17.421875 8.402344 17.371094 C 8.078125 17.304688 5.875 17.417969 5.578125 17.515625 C 5.402344 17.574219 5.386719 17.628906 5.515625 17.738281 C 5.722656 17.914062 5.917969 17.96875 6.957031 18.136719 C 8.023438 18.304688 8.433594 18.308594 8.550781 18.144531 Z M 49.117188 18.167969 C 49.558594 18.089844 49.679688 18.019531 49.679688 17.851562 C 49.679688 17.648438 49.632812 17.636719 48.632812 17.617188 C 47.445312 17.59375 46.804688 17.722656 46.726562 18 C 46.691406 18.132812 46.777344 18.191406 47.050781 18.21875 C 47.75 18.292969 48.550781 18.269531 49.117188 18.167969 Z M 57.1875 17.933594 C 57.59375 17.820312 57.589844 17.542969 57.179688 17.425781 C 57 17.375 56.484375 17.328125 56.03125 17.316406 C 55.304688 17.300781 55.167969 17.324219 54.882812 17.527344 C 54.347656 17.898438 54.582031 18.023438 55.8125 18.023438 C 56.398438 18.023438 57.015625 17.984375 57.1875 17.933594 Z M 30.855469 17.550781 C 31.144531 17.5 31.105469 17.191406 30.796875 17.097656 C 30.648438 17.054688 30.285156 17.050781 29.980469 17.085938 C 29.441406 17.152344 28.320312 17.5 28.320312 17.605469 C 28.316406 17.660156 30.484375 17.613281 30.855469 17.550781 Z M 28.882812 16.785156 C 29.589844 16.535156 30.570312 16.25 31.058594 16.148438 C 32.546875 15.835938 33.074219 15.675781 33.074219 15.542969 C 33.074219 15.320312 31.660156 15.421875 30.445312 15.730469 C 27.46875 16.488281 25.964844 17.117188 26.746094 17.28125 C 27.097656 17.355469 27.558594 17.25 28.882812 16.785156 Z M 51.65625 17.019531 C 51.730469 16.894531 51.09375 16.714844 50.796875 16.773438 C 50.453125 16.84375 50.519531 16.992188 50.929688 17.082031 C 51.355469 17.171875 51.570312 17.152344 51.65625 17.019531 Z M 52.5 16.5625 C 52.5 16.507812 52.328125 16.394531 52.113281 16.304688 C 51.855469 16.195312 51.753906 16.085938 51.808594 15.972656 C 51.878906 15.828125 51.984375 15.808594 52.5 15.851562 C 52.882812 15.886719 53.148438 15.867188 53.21875 15.804688 C 53.386719 15.664062 53.03125 15.472656 52.539062 15.441406 C 52.234375 15.421875 52.085938 15.351562 52 15.171875 C 51.832031 14.84375 51.976562 14.6875 52.449219 14.6875 C 53.015625 14.6875 53.46875 14.539062 53.46875 14.347656 C 53.46875 14.128906 53.199219 14.054688 52.464844 14.078125 C 51.730469 14.101562 51.582031 13.972656 51.855469 13.539062 C 52.035156 13.246094 52.070312 13.234375 52.835938 13.234375 C 53.53125 13.234375 53.628906 13.214844 53.628906 13.058594 C 53.628906 12.933594 53.441406 12.839844 52.988281 12.738281 C 52.332031 12.589844 52.171875 12.394531 52.492188 12.128906 C 52.617188 12.023438 52.730469 12.023438 53.308594 12.125 C 53.882812 12.222656 53.996094 12.222656 54.125 12.117188 C 54.332031 11.945312 54.234375 11.839844 53.738281 11.710938 C 53.226562 11.582031 53.183594 11.355469 53.628906 11.140625 C 53.9375 10.992188 53.96875 10.992188 54.261719 11.132812 C 54.679688 11.335938 55.308594 11.28125 55.371094 11.039062 C 55.410156 10.902344 55.289062 10.8125 54.929688 10.714844 C 54.355469 10.558594 54.308594 10.414062 54.761719 10.199219 C 55.078125 10.046875 55.097656 10.046875 55.550781 10.277344 C 56.429688 10.722656 57.28125 10.410156 56.460938 9.941406 C 55.972656 9.660156 55.972656 9.660156 56.367188 9.386719 L 56.679688 9.171875 L 57.15625 9.472656 C 57.558594 9.722656 57.683594 9.757812 57.929688 9.675781 C 58.335938 9.546875 58.390625 9.234375 58.039062 9.03125 C 57.753906 8.863281 57.753906 8.851562 58.125 8.695312 C 58.71875 8.441406 59.171875 8.484375 59.484375 8.832031 C 59.925781 9.324219 60.867188 9.160156 60.648438 8.625 C 60.5625 8.425781 60.609375 8.355469 60.863281 8.28125 C 61.394531 8.132812 61.621094 8.175781 61.863281 8.46875 C 62.0625 8.703125 62.179688 8.746094 62.660156 8.746094 C 63.160156 8.746094 63.230469 8.71875 63.277344 8.5 C 63.339844 8.210938 62.835938 7.886719 62.234375 7.824219 C 62.011719 7.800781 61.3125 7.832031 60.675781 7.890625 C 58.796875 8.070312 56.34375 8.847656 54.28125 9.921875 C 53.1875 10.492188 52.5625 11.097656 51.566406 12.550781 C 50.894531 13.53125 50.804688 13.980469 51.117188 14.847656 C 51.257812 15.242188 51.375 15.75 51.375 15.976562 C 51.375 16.304688 51.445312 16.417969 51.730469 16.523438 C 52.148438 16.679688 52.5 16.695312 52.5 16.5625 Z M 63.949219 16.484375 C 64.925781 16.207031 65.28125 15.328125 64.683594 14.667969 C 64.296875 14.242188 63.359375 13.921875 62.492188 13.921875 C 61.855469 13.917969 60.558594 14.234375 60.398438 14.433594 C 60.339844 14.503906 60.207031 14.648438 60.105469 14.75 C 59.832031 15.03125 59.882812 15.449219 60.238281 15.867188 C 60.476562 16.148438 60.714844 16.273438 61.242188 16.398438 C 61.992188 16.582031 63.453125 16.625 63.949219 16.484375 Z M 61.703125 16.164062 C 61.398438 16.082031 61.011719 15.914062 60.84375 15.792969 C 60.15625 15.292969 61.175781 14.519531 62.527344 14.519531 C 63.101562 14.519531 63.78125 14.808594 64.007812 15.148438 C 64.175781 15.398438 63.816406 15.945312 63.359375 16.136719 C 62.84375 16.351562 62.425781 16.359375 61.703125 16.164062 Z M 62.949219 15.699219 C 63.574219 15.367188 62.671875 14.84375 62.015625 15.160156 C 61.625 15.347656 61.605469 15.488281 61.945312 15.667969 C 62.246094 15.828125 62.679688 15.839844 62.949219 15.699219 Z M 49.566406 16.210938 C 49.902344 16.03125 49.78125 15.894531 49.074219 15.65625 C 48.699219 15.53125 48.054688 15.257812 47.648438 15.050781 C 47.011719 14.730469 46.699219 14.648438 45.421875 14.46875 C 42.667969 14.078125 38.195312 12.574219 34.878906 10.921875 C 33.648438 10.308594 33.253906 10.15625 33.105469 10.234375 C 32.871094 10.359375 32.914062 11.992188 33.171875 12.765625 C 33.398438 13.449219 33.886719 14.203125 34.355469 14.597656 C 34.671875 14.863281 34.9375 14.953125 35.921875 15.140625 C 36.570312 15.265625 37.394531 15.386719 37.75 15.410156 C 38.101562 15.433594 38.972656 15.492188 39.683594 15.539062 C 43.101562 15.769531 44.261719 15.890625 45.089844 16.09375 C 45.859375 16.285156 46.191406 16.3125 47.671875 16.3125 C 48.785156 16.3125 49.441406 16.277344 49.566406 16.210938 Z M 27.574219 15.644531 C 27.617188 15.609375 27.40625 15.15625 27.105469 14.644531 C 26.492188 13.613281 26.507812 13.5625 27.492188 13.34375 C 28.226562 13.179688 28.382812 13.28125 28.621094 14.078125 C 28.84375 14.824219 29.175781 15.203125 29.601562 15.203125 C 30.082031 15.203125 30.128906 14.933594 29.769531 14.21875 C 29.410156 13.511719 29.324219 13.066406 29.511719 12.90625 C 29.6875 12.753906 30.683594 12.78125 30.796875 12.941406 C 30.851562 13.015625 30.898438 13.398438 30.898438 13.792969 C 30.898438 14.605469 30.980469 14.773438 31.371094 14.773438 C 31.886719 14.773438 32.082031 14.410156 31.964844 13.660156 C 31.902344 13.28125 31.789062 12.902344 31.710938 12.824219 C 31.628906 12.746094 31.527344 12.613281 31.480469 12.53125 C 31.285156 12.195312 30.460938 12.238281 27.851562 12.730469 C 26.902344 12.910156 25.503906 13.414062 25.246094 13.667969 C 24.699219 14.210938 26.980469 16.152344 27.574219 15.644531 Z M 9.464844 15.457031 C 9.664062 15.398438 9.777344 15.277344 9.777344 15.113281 L 9.777344 14.859375 L 8.734375 14.859375 C 7.597656 14.859375 6.066406 15.003906 6.066406 15.113281 C 6.066406 15.429688 8.644531 15.6875 9.464844 15.457031 Z M 58.066406 14.515625 C 58.1875 14.3125 58.003906 13.941406 57.757812 13.890625 C 57.394531 13.816406 56.683594 13.9375 56.519531 14.105469 C 56.28125 14.339844 56.480469 14.578125 56.984375 14.667969 C 57.542969 14.769531 57.949219 14.710938 58.066406 14.515625 Z M 49.542969 14.042969 C 49.671875 13.867188 49.273438 13.648438 48.347656 13.382812 C 46.863281 12.957031 45.820312 13 46.476562 13.464844 C 47.1875 13.96875 49.308594 14.367188 49.542969 14.042969 Z M 10.964844 13.679688 C 11.066406 13.488281 11.058594 13.367188 10.941406 13.304688 C 10.683594 13.167969 7.648438 13.164062 7.558594 13.300781 C 7.488281 13.410156 7.953125 13.535156 9.535156 13.84375 C 10.570312 14.046875 10.777344 14.023438 10.964844 13.679688 Z M 44.867188 13.554688 C 45.277344 13.207031 45.660156 12.402344 45.539062 12.15625 C 45.410156 11.894531 44.957031 11.746094 44.546875 11.832031 C 44.308594 11.882812 43.632812 12.804688 43.632812 13.078125 C 43.632812 13.308594 43.90625 13.53125 44.277344 13.605469 C 44.660156 13.675781 44.734375 13.667969 44.867188 13.554688 Z M 24.761719 12.902344 C 24.890625 12.773438 24.8125 12.585938 24.429688 12.085938 C 24.15625 11.726562 23.96875 11.386719 24.011719 11.328125 C 24.050781 11.269531 24.273438 11.167969 24.503906 11.105469 C 25.023438 10.957031 25.34375 11.074219 25.503906 11.464844 C 25.695312 11.9375 26.199219 12.378906 26.546875 12.378906 C 26.984375 12.378906 26.96875 12.042969 26.507812 11.453125 L 26.148438 10.992188 L 26.527344 10.832031 C 27.023438 10.617188 27.304688 10.625 27.429688 10.863281 C 27.816406 11.59375 28.214844 12.039062 28.492188 12.039062 C 29.035156 12.039062 29.152344 11.757812 28.886719 11.082031 C 28.625 10.414062 28.71875 10.277344 29.363281 10.382812 C 29.816406 10.457031 29.925781 10.574219 29.925781 10.984375 C 29.933594 11.691406 30.378906 11.933594 31.230469 11.691406 C 31.464844 11.625 31.542969 11.511719 31.542969 11.226562 C 31.542969 11.019531 31.464844 10.824219 31.367188 10.792969 C 31.277344 10.761719 31.230469 10.695312 31.265625 10.640625 C 31.417969 10.425781 31.074219 10.171875 30.550781 10.109375 C 30.257812 10.078125 29.90625 10.011719 29.761719 9.964844 C 29.140625 9.757812 23.449219 10.738281 23.246094 11.085938 C 23.050781 11.425781 23.125 12.269531 23.375 12.523438 C 23.890625 13.054688 24.453125 13.207031 24.761719 12.902344 Z M 41.972656 12.910156 C 42.234375 12.820312 42.445312 12.503906 42.578125 11.988281 C 42.664062 11.648438 42.636719 11.53125 42.4375 11.445312 C 42.09375 11.292969 41.699219 11.390625 41.699219 11.632812 C 41.699219 11.742188 41.597656 11.90625 41.472656 12 C 41.160156 12.238281 41.101562 12.671875 41.359375 12.839844 C 41.601562 12.996094 41.691406 13.003906 41.972656 12.910156 Z M 49.667969 12.839844 C 50.363281 12.699219 49.71875 12.367188 48.375 12.167969 C 46.09375 11.832031 46.019531 12.34375 48.285156 12.773438 C 48.949219 12.898438 49.296875 12.917969 49.667969 12.839844 Z M 12.492188 12.332031 C 12.59375 12.214844 12.679688 12.066406 12.679688 12.003906 C 12.679688 11.941406 12.105469 11.714844 11.402344 11.496094 C 8.96875 10.746094 8.597656 10.878906 10.378906 11.859375 C 11.726562 12.605469 12.171875 12.703125 12.492188 12.332031 Z M 59.347656 12.414062 C 59.628906 12.265625 59.554688 11.996094 59.175781 11.785156 C 58.8125 11.582031 58.078125 11.765625 58.011719 12.078125 C 57.921875 12.488281 58.792969 12.707031 59.347656 12.414062 Z M 39.921875 11.914062 C 40.179688 11.746094 40.234375 11.289062 40.011719 11.128906 C 39.804688 10.980469 37.273438 10.511719 36.269531 10.441406 C 35.722656 10.398438 35.570312 10.417969 35.570312 10.515625 C 35.570312 10.671875 35.976562 10.871094 37.589844 11.519531 C 38.910156 12.046875 39.542969 12.152344 39.921875 11.914062 Z M 49.929688 11.5625 C 50.109375 11.445312 50.039062 11.378906 49.425781 11.089844 C 48.539062 10.667969 47.695312 10.363281 47.222656 10.289062 C 46.679688 10.203125 46.566406 10.457031 47.042969 10.695312 C 47.25 10.796875 47.609375 11.011719 47.835938 11.167969 C 48.066406 11.320312 48.535156 11.503906 48.886719 11.570312 C 49.691406 11.71875 49.679688 11.71875 49.929688 11.5625 Z M 46.859375 11.316406 C 46.859375 11.246094 46.34375 11.007812 45.714844 10.78125 C 43.347656 9.929688 39.285156 8.199219 39.277344 8.035156 C 39.277344 8.003906 38.664062 7.636719 37.917969 7.21875 C 36.417969 6.382812 36.253906 6.355469 35.488281 6.839844 C 34.648438 7.371094 33.636719 8.734375 33.636719 9.34375 C 33.636719 9.714844 33.90625 9.8125 35.03125 9.859375 C 36.542969 9.925781 37.355469 9.988281 38.472656 10.125 C 39.558594 10.261719 44.066406 11 45.488281 11.273438 C 46.476562 11.464844 46.859375 11.476562 46.859375 11.316406 Z M 62.980469 10.96875 C 63.535156 10.617188 62.484375 10.152344 61.835938 10.464844 C 61.464844 10.640625 61.449219 10.785156 61.78125 10.964844 C 62.105469 11.132812 62.71875 11.136719 62.980469 10.96875 Z M 14.457031 10.835938 C 14.671875 10.621094 14.527344 10.488281 13.324219 9.789062 C 12.480469 9.300781 11.871094 9.160156 11.871094 9.457031 C 11.871094 9.617188 12.855469 10.53125 13.363281 10.839844 C 13.722656 11.0625 14.230469 11.058594 14.457031 10.835938 Z M 51.597656 10.792969 C 51.757812 10.570312 51.445312 10.371094 50.347656 9.992188 C 49.144531 9.578125 48.417969 9.5 48.339844 9.785156 C 48.304688 9.925781 48.5625 10.082031 49.445312 10.449219 C 50.640625 10.941406 51.398438 11.0625 51.597656 10.792969 Z M 23.285156 10.394531 C 23.558594 10.253906 23.523438 9.890625 23.15625 9.007812 C 22.980469 8.585938 22.835938 8.207031 22.835938 8.167969 C 22.835938 8.066406 23.945312 7.832031 24.132812 7.890625 C 24.21875 7.921875 24.285156 8.023438 24.285156 8.117188 C 24.285156 8.472656 24.816406 9.816406 25.011719 9.957031 C 25.195312 10.089844 25.246094 10.082031 25.628906 9.863281 C 26.007812 9.648438 26.035156 9.582031 25.960938 9.101562 C 25.914062 8.8125 25.769531 8.375 25.644531 8.132812 C 25.332031 7.53125 25.335938 7.515625 26 7.367188 C 26.800781 7.191406 27.027344 7.257812 27.027344 7.679688 C 27.027344 8.136719 27.34375 9.21875 27.535156 9.40625 C 27.765625 9.640625 28.292969 9.59375 28.417969 9.332031 C 28.476562 9.207031 28.476562 8.628906 28.417969 8.046875 L 28.3125 6.992188 L 28.878906 6.847656 C 29.75 6.625 29.8125 6.714844 29.613281 7.949219 C 29.4375 9.023438 29.480469 9.300781 29.828125 9.300781 C 30.199219 9.300781 30.394531 8.957031 30.65625 7.835938 C 30.804688 7.207031 31.015625 6.644531 31.125 6.582031 C 31.234375 6.523438 31.589844 6.449219 31.914062 6.421875 C 32.644531 6.359375 32.644531 6.359375 32.101562 7.464844 C 31.875 7.921875 31.648438 8.527344 31.59375 8.808594 C 31.5 9.277344 31.515625 9.316406 31.800781 9.289062 C 32.003906 9.265625 32.179688 9.128906 32.320312 8.871094 C 32.652344 8.277344 33.183594 7.5625 33.398438 7.417969 C 33.507812 7.347656 33.722656 7.105469 33.882812 6.878906 C 34.042969 6.652344 34.378906 6.332031 34.632812 6.160156 C 35.265625 5.738281 35.027344 5.582031 33.851562 5.65625 C 31.496094 5.804688 27.519531 6.425781 25.722656 6.929688 C 24.976562 7.140625 23.96875 7.359375 23.480469 7.421875 C 21.71875 7.640625 20.859375 8.285156 21.457031 8.941406 C 21.617188 9.117188 21.882812 9.46875 22.050781 9.722656 C 22.332031 10.15625 22.746094 10.5 22.988281 10.5 C 23.046875 10.5 23.179688 10.453125 23.285156 10.394531 Z M 46.511719 9.734375 C 47.21875 9.214844 47.425781 8.902344 47.175781 8.742188 C 46.992188 8.625 46.859375 8.664062 46.105469 9.058594 C 45.15625 9.554688 44.960938 9.761719 45.253906 9.945312 C 45.585938 10.160156 46.03125 10.082031 46.511719 9.734375 Z M 53.671875 9.605469 C 54.535156 9.183594 54.621094 9.042969 54.027344 9.042969 C 53.597656 9.042969 52.109375 9.40625 51.941406 9.554688 C 51.769531 9.703125 52.171875 9.984375 52.546875 9.980469 C 52.746094 9.980469 53.25 9.808594 53.671875 9.605469 Z M 16.9375 9.566406 C 17.199219 9.410156 17.1875 9.375 16.644531 8.808594 C 15.722656 7.832031 14.699219 7.378906 14.390625 7.808594 C 14.285156 7.953125 15.796875 9.609375 16.089844 9.667969 C 16.480469 9.753906 16.65625 9.730469 16.9375 9.566406 Z M 44.546875 9.109375 C 45.015625 8.828125 45.570312 8.289062 45.570312 8.109375 C 45.570312 7.9375 44.996094 7.816406 44.660156 7.917969 C 44.34375 8.011719 43.3125 8.8125 43.3125 8.964844 C 43.3125 9.316406 44.054688 9.402344 44.546875 9.109375 Z M 51.265625 8.839844 C 51.351562 8.71875 50.527344 7.945312 50.183594 7.828125 C 49.902344 7.730469 49.117188 7.75 49.117188 7.859375 C 49.117188 7.988281 50.210938 8.769531 50.539062 8.871094 C 50.921875 8.988281 51.164062 8.976562 51.265625 8.839844 Z M 55.839844 8.328125 C 55.683594 7.785156 55.164062 7.207031 54.832031 7.207031 C 54.632812 7.207031 54.519531 7.261719 54.53125 7.355469 C 54.539062 7.4375 54.558594 7.648438 54.570312 7.824219 C 54.609375 8.285156 55.121094 8.703125 55.570312 8.640625 C 55.855469 8.601562 55.902344 8.546875 55.839844 8.328125 Z M 52.929688 8.484375 C 53.074219 8.285156 52.5 7.410156 52.082031 7.1875 C 51.179688 6.710938 50.574219 7.121094 51.316406 7.703125 C 52.5 8.636719 52.738281 8.753906 52.929688 8.484375 Z M 65.65625 8.25 C 65.859375 7.914062 65.023438 7.714844 64.523438 7.980469 C 64.191406 8.15625 64.203125 8.238281 64.59375 8.445312 C 64.867188 8.59375 64.96875 8.601562 65.242188 8.511719 C 65.417969 8.453125 65.605469 8.335938 65.65625 8.25 Z M 42.671875 8.144531 C 42.964844 8.066406 43.195312 7.914062 43.289062 7.738281 C 43.484375 7.371094 43.167969 7.226562 41.5625 6.960938 C 38.996094 6.53125 38.324219 6.679688 39.628906 7.394531 C 40.257812 7.738281 41.738281 8.273438 42.070312 8.273438 C 42.140625 8.273438 42.410156 8.21875 42.671875 8.144531 Z M 57.707031 8.011719 C 57.933594 7.820312 56.800781 6.90625 56.339844 6.90625 C 56.066406 6.90625 56.039062 6.945312 56.136719 7.183594 C 56.195312 7.335938 56.339844 7.558594 56.457031 7.675781 C 56.574219 7.792969 56.710938 7.960938 56.761719 8.046875 C 56.871094 8.234375 57.472656 8.210938 57.707031 8.011719 Z M 61.113281 7.308594 C 61.574219 7.128906 61.367188 6.875 60.691406 6.785156 C 59.585938 6.640625 58.726562 6.902344 59.011719 7.296875 C 59.128906 7.457031 60.707031 7.464844 61.113281 7.308594 Z M 64.214844 7.289062 C 64.359375 7.085938 63.960938 6.90625 63.363281 6.90625 C 62.949219 6.90625 62.820312 6.941406 62.820312 7.0625 C 62.820312 7.144531 62.90625 7.261719 63.011719 7.316406 C 63.289062 7.464844 64.101562 7.445312 64.214844 7.289062 Z M 67.625 6.976562 C 67.65625 6.792969 67.558594 6.542969 67.394531 6.378906 L 67.113281 6.09375 L 66.914062 6.4375 C 66.652344 6.886719 66.644531 7.222656 66.890625 7.277344 C 67.351562 7.378906 67.578125 7.285156 67.625 6.976562 Z M 21.382812 6.757812 C 21.382812 6.679688 21.148438 6.433594 20.859375 6.207031 C 20.476562 5.90625 20.171875 5.769531 19.730469 5.695312 C 19.398438 5.640625 19.078125 5.621094 19.019531 5.652344 C 18.964844 5.683594 19.144531 5.96875 19.425781 6.292969 C 19.703125 6.613281 19.933594 6.921875 19.933594 6.972656 C 19.933594 7.027344 20.058594 7.105469 20.210938 7.152344 C 20.546875 7.25 21.382812 6.96875 21.382812 6.757812 Z M 49.820312 6.898438 C 50.984375 6.585938 51.210938 6.496094 51.210938 6.347656 C 51.210938 6.15625 50.757812 6.140625 49.855469 6.296875 C 48.351562 6.5625 47.863281 6.808594 48.339844 7.0625 C 48.617188 7.207031 48.714844 7.195312 49.820312 6.898438 Z M 55.835938 6.347656 C 56.265625 6.199219 56.34375 5.816406 55.964844 5.738281 C 55.832031 5.710938 55.285156 5.777344 54.753906 5.882812 C 53.976562 6.035156 53.792969 6.109375 53.792969 6.261719 C 53.792969 6.367188 53.847656 6.480469 53.910156 6.515625 C 54.089844 6.613281 55.40625 6.496094 55.835938 6.347656 Z M 60.617188 6.121094 C 60.738281 6.019531 60.722656 5.941406 60.558594 5.835938 C 60.078125 5.527344 58.320312 5.835938 58.570312 6.183594 C 58.742188 6.417969 60.324219 6.371094 60.617188 6.121094 Z M 24.449219 5.925781 C 24.449219 5.703125 23.785156 4.902344 23.4375 4.703125 C 23.019531 4.464844 22.863281 4.539062 22.8125 4.984375 C 22.738281 5.621094 22.832031 5.933594 23.164062 6.121094 C 23.472656 6.296875 23.523438 6.300781 23.96875 6.179688 C 24.234375 6.105469 24.449219 5.992188 24.449219 5.925781 Z M 48.746094 5.90625 C 49.871094 5.582031 50.121094 5.46875 49.984375 5.351562 C 49.839844 5.226562 49.367188 5.277344 48.550781 5.503906 C 47.53125 5.789062 47.273438 5.917969 47.394531 6.085938 C 47.523438 6.265625 47.488281 6.269531 48.746094 5.90625 Z M 64.097656 5.988281 C 64.078125 5.621094 63.546875 4.898438 63.269531 4.871094 C 62.816406 4.824219 62.746094 5.632812 63.171875 6.074219 C 63.25 6.15625 63.492188 6.222656 63.714844 6.222656 C 64.042969 6.222656 64.109375 6.183594 64.097656 5.988281 Z M 27.574219 5.5 C 28.113281 5.265625 28.097656 5.179688 27.320312 4.191406 C 26.570312 3.230469 26.226562 3.378906 26.222656 4.667969 C 26.222656 5.710938 26.582031 5.933594 27.574219 5.5 Z M 54.660156 5.378906 C 55.445312 5.273438 55.871094 5.070312 55.605469 4.929688 C 55.472656 4.855469 55.296875 4.855469 54.96875 4.921875 C 54.71875 4.972656 54.246094 5.035156 53.917969 5.066406 C 53.257812 5.121094 53.066406 5.21875 53.214844 5.425781 C 53.277344 5.511719 53.433594 5.542969 53.671875 5.511719 C 53.871094 5.484375 54.316406 5.425781 54.660156 5.378906 Z M 59.804688 5.160156 C 60.085938 5.007812 59.933594 4.445312 59.382812 3.628906 C 58.980469 3.027344 58.527344 2.890625 58.15625 3.261719 C 57.929688 3.484375 57.964844 4.972656 58.199219 5.175781 C 58.371094 5.320312 59.519531 5.308594 59.804688 5.160156 Z M 31.378906 4.804688 C 31.589844 4.695312 31.5625 4.59375 31.152344 3.953125 C 30.617188 3.117188 30.390625 2.917969 30.09375 3.015625 C 29.9375 3.066406 29.914062 3.292969 30.003906 3.988281 C 30.066406 4.484375 30.15625 4.925781 30.203125 4.964844 C 30.316406 5.0625 31.082031 4.960938 31.378906 4.804688 Z M 47.976562 4.546875 C 48.886719 4.140625 48.621094 3.929688 46.097656 3.046875 C 44.046875 2.328125 43.710938 2.417969 44.597656 3.449219 C 45.621094 4.648438 46.851562 5.046875 47.976562 4.546875 Z M 35.082031 4.371094 C 35.34375 4.246094 35.496094 2.410156 35.25 2.332031 C 34.90625 2.21875 34.285156 2.828125 33.734375 3.820312 C 33.414062 4.398438 33.570312 4.542969 34.425781 4.460938 C 34.746094 4.429688 35.042969 4.386719 35.082031 4.371094 Z M 37.632812 4.457031 C 37.894531 4.421875 38.1875 4.203125 38.65625 3.699219 C 39.601562 2.675781 39.554688 2.039062 38.570312 2.601562 C 37.953125 2.957031 36.820312 4.183594 36.949219 4.363281 C 37.070312 4.527344 37.105469 4.53125 37.632812 4.457031 Z M 54.992188 4 C 55.300781 3.835938 55.296875 3.828125 54.6875 3.359375 C 53.984375 2.820312 53.097656 2.375 52.714844 2.375 C 52.195312 2.375 52.746094 3.707031 53.429688 4.109375 C 53.761719 4.304688 54.515625 4.25 54.992188 4 Z M 54.992188 4 "/>
</g>
</svg>
