<?xml version="1.0" encoding="UTF-8"?>
<svg xmlns="http://www.w3.org/2000/svg" xmlns:xlink="http://www.w3.org/1999/xlink" width="120pt" height="90pt" viewBox="0 0 120 90" version="1.1">
<g id="surface1">
<path style=" stroke:none;fill-rule:nonzero;fill:rgb(0%,0%,0%);fill-opacity:1;" d="M 13.652344 89.210938 C 13.777344 88.773438 14.886719 87.347656 16.121094 86.046875 C 18.367188 83.671875 18.824219 82.707031 17.832031 82.4375 C 16.871094 82.171875 15.84375 82.832031 14.445312 84.609375 C 11.625 88.191406 10.316406 89.320312 9.167969 89.160156 C 8.007812 89.003906 8.238281 88.347656 10.359375 85.769531 C 13.464844 81.996094 13.730469 81.582031 13.25 81.238281 C 12.125 80.441406 9.726562 82.207031 7.277344 85.640625 C 6.863281 86.21875 6.097656 87.023438 5.574219 87.425781 C 4.730469 88.070312 4.511719 88.117188 3.671875 87.84375 C 3.148438 87.675781 2.722656 87.441406 2.722656 87.324219 C 2.722656 87.207031 3.636719 86.042969 4.753906 84.734375 C 7.875 81.074219 8.027344 80.828125 7.535156 80.175781 C 7.144531 79.660156 6.898438 79.628906 4.527344 79.769531 C 2.113281 79.914062 1.917969 79.882812 1.566406 79.332031 C 0.96875 78.402344 1.691406 77.414062 3.113281 77.210938 C 5.175781 76.917969 10.214844 77.027344 14.082031 77.453125 C 16.128906 77.679688 19.898438 78.089844 22.460938 78.367188 C 25.019531 78.644531 27.617188 78.996094 28.230469 79.144531 C 30.164062 79.625 42.351562 81.515625 42.558594 81.367188 C 42.664062 81.289062 42.394531 81.03125 41.953125 80.789062 C 40.410156 79.9375 34.160156 77.183594 31.582031 76.214844 C 28.945312 75.226562 21.652344 73.074219 20.941406 73.074219 C 20.730469 73.074219 19.855469 72.855469 18.996094 72.59375 C 18.136719 72.328125 16.679688 71.898438 15.757812 71.640625 C 11.8125 70.535156 8.765625 69.453125 7.339844 68.648438 C 5.625 67.675781 4.960938 67.597656 3.65625 68.203125 C 1.832031 69.054688 1.179688 67.710938 2.738281 66.316406 C 4.023438 65.167969 3.84375 64.507812 2.316406 64.746094 C 1.394531 64.890625 1.230469 64.820312 1.003906 64.183594 C 0.789062 63.574219 0.9375 63.339844 1.886719 62.773438 C 3.003906 62.113281 3.027344 62.046875 2.996094 59.847656 C 2.957031 57.515625 3.335938 56.328125 5.097656 53.265625 C 7.046875 49.863281 10.269531 46.847656 17.84375 41.335938 C 31.367188 31.488281 35.492188 27.503906 38.097656 21.761719 C 39.578125 18.5 40.007812 16.035156 39.53125 13.523438 C 39.027344 10.875 38.113281 9.375 36.164062 8.011719 C 32.855469 5.691406 29.582031 4.820312 24.117188 4.808594 C 20.460938 4.796875 18.480469 5.160156 15.894531 6.316406 C 12.175781 7.976562 10.730469 10.117188 10.730469 13.953125 C 10.730469 16.210938 10.863281 16.796875 11.613281 17.882812 C 12.746094 19.515625 14.664062 20.832031 16.71875 21.390625 C 19.140625 22.046875 24.40625 21.828125 26.390625 20.984375 C 28.773438 19.972656 30.183594 18.875 31.050781 17.359375 C 32.085938 15.546875 31.890625 14.035156 30.421875 12.484375 C 28.859375 10.832031 27.277344 10.261719 24.253906 10.261719 C 22.003906 10.261719 21.65625 10.335938 20.613281 11.042969 C 18.929688 12.191406 18.46875 13.515625 19.25 14.972656 C 20.089844 16.535156 22.109375 17.175781 23.976562 16.464844 C 25.019531 16.070312 24.859375 15.339844 23.578125 14.664062 C 22.210938 13.949219 22.160156 13.484375 23.410156 13.078125 C 25.53125 12.390625 27.164062 12.878906 28.386719 14.558594 C 29.414062 15.976562 27.390625 18.3125 24.625 18.902344 C 22.925781 19.265625 19.886719 18.839844 18.441406 18.042969 C 14.167969 15.679688 14.542969 10.597656 19.144531 8.453125 C 21.050781 7.566406 23.746094 7.183594 26.140625 7.457031 C 28.777344 7.757812 30.183594 8.238281 32.191406 9.527344 C 34.554688 11.046875 35.578125 12.832031 35.550781 15.394531 C 35.527344 17.777344 32.789062 21.46875 30.003906 22.867188 C 23.359375 26.210938 15.746094 25.898438 10.394531 22.058594 C 7.507812 19.984375 6.132812 17.96875 5.515625 14.886719 C 5.171875 13.183594 6.28125 8.964844 7.5 7.355469 C 8.792969 5.640625 12.457031 3.050781 14.910156 2.117188 C 19.882812 0.21875 29.730469 0.234375 34.996094 2.148438 C 40.171875 4.027344 42.707031 5.890625 44.496094 9.128906 C 46.066406 11.980469 46.457031 14.195312 45.929688 17.246094 C 44.464844 25.699219 36.824219 34.171875 20.40625 45.542969 C 14.710938 49.488281 13.621094 50.929688 15.382812 52.179688 C 16.335938 52.859375 17.824219 52.859375 23.25 52.179688 C 27.707031 51.625 29.199219 51.335938 33.445312 50.191406 C 34.878906 49.804688 36.804688 49.304688 37.726562 49.078125 C 38.648438 48.851562 39.570312 48.578125 39.773438 48.46875 C 39.980469 48.359375 41.90625 47.621094 44.054688 46.828125 C 46.207031 46.035156 48.804688 45.046875 49.828125 44.632812 C 52.148438 43.691406 58.851562 40.046875 61.214844 38.441406 C 64.023438 36.53125 67.550781 33.386719 68.492188 31.949219 C 69.246094 30.800781 69.289062 30.582031 68.824219 30.25 C 68.039062 29.691406 67.25 30.023438 60.859375 33.585938 C 54.03125 37.390625 49.882812 39.53125 48.152344 40.144531 C 47.433594 40.398438 44.375 41.671875 41.355469 42.972656 C 33.886719 46.191406 29.542969 47.402344 28.226562 46.625 C 27.070312 45.941406 27.523438 45.21875 31.765625 40.96875 C 32.074219 40.664062 34.085938 38.746094 36.238281 36.707031 C 38.386719 34.671875 40.988281 32.128906 42.007812 31.054688 C 44.867188 28.058594 44.859375 28.0625 46.972656 26.046875 C 48.066406 25.003906 50.023438 22.632812 51.324219 20.777344 C 54.105469 16.804688 54.582031 16.28125 57.074219 14.476562 C 60.878906 11.722656 65.878906 10.699219 73.851562 11.050781 C 77.09375 11.195312 77.460938 11.164062 78.226562 10.65625 C 79.195312 10.015625 79.3125 9.019531 78.480469 8.527344 C 77.460938 7.925781 77.136719 7.261719 77.578125 6.675781 C 77.980469 6.144531 77.996094 6.144531 79.109375 6.808594 C 80.40625 7.585938 81.011719 7.644531 81.679688 7.074219 C 82.082031 6.730469 81.96875 6.472656 80.980469 5.476562 C 79.636719 4.125 79.566406 3.898438 80.410156 3.671875 C 80.804688 3.5625 81.570312 3.871094 82.632812 4.566406 C 83.527344 5.152344 84.433594 5.628906 84.648438 5.628906 C 85.332031 5.628906 85.503906 4.835938 84.921875 4.363281 C 84.613281 4.113281 84.074219 3.507812 83.726562 3.019531 C 83.132812 2.1875 83.132812 2.09375 83.703125 1.695312 C 84.269531 1.296875 84.394531 1.324219 85.320312 2.058594 C 85.871094 2.496094 86.699219 3.210938 87.160156 3.648438 L 87.996094 4.441406 L 88.707031 3.847656 C 89.402344 3.265625 89.402344 3.226562 88.71875 1.953125 C 88.09375 0.785156 88.082031 0.617188 88.601562 0.3125 C 89.664062 -0.3125 90.671875 0.453125 91.359375 2.402344 C 91.578125 3.027344 92.003906 3.609375 92.300781 3.6875 C 93.1875 3.929688 93.953125 3.253906 93.960938 2.226562 C 93.96875 0.757812 94.332031 0.0742188 95.109375 0.0742188 C 95.945312 0.0742188 96.363281 1.050781 96.074219 2.320312 C 95.933594 2.929688 96.046875 3.320312 96.417969 3.539062 C 97.125 3.957031 97.484375 3.703125 98.988281 1.726562 C 100.765625 -0.609375 102.875 -0.558594 101.207031 1.78125 C 99.273438 4.492188 100.371094 5.003906 103.253906 2.726562 C 105.167969 1.214844 105.4375 1.09375 106.175781 1.371094 C 106.625 1.546875 106.992188 1.757812 106.992188 1.847656 C 106.992188 1.9375 106.222656 2.589844 105.289062 3.300781 C 103.496094 4.660156 103.347656 5.183594 104.703125 5.324219 C 105.269531 5.382812 106.167969 4.992188 107.609375 4.054688 C 109 3.152344 109.960938 2.726562 110.488281 2.777344 C 111.847656 2.914062 111.351562 3.648438 108.925781 5.085938 C 107.632812 5.847656 106.640625 6.609375 106.71875 6.78125 C 107.035156 7.460938 108.5 7.203125 110.929688 6.046875 C 112.320312 5.382812 113.648438 4.839844 113.875 4.839844 C 114.355469 4.839844 115.183594 5.378906 115.183594 5.6875 C 115.183594 6.132812 108.285156 9.074219 107.246094 9.074219 C 106.625 9.074219 105.515625 8.699219 104.511719 8.15625 C 101.304688 6.417969 98.433594 5.617188 94.804688 5.453125 C 91.855469 5.316406 91.28125 5.371094 89.148438 5.980469 C 84.039062 7.449219 80.414062 10.078125 79.492188 12.992188 C 78.988281 14.582031 79.90625 15.515625 82.492188 16.046875 C 86.179688 16.808594 88.433594 19.660156 86.722656 21.394531 C 85.863281 22.269531 83.457031 23.296875 81.839844 23.476562 C 79.8125 23.707031 78.425781 23.292969 76.628906 21.921875 C 75.375 20.960938 74.761719 20.71875 72.921875 20.449219 C 69.671875 19.96875 65.109375 20.207031 62.847656 20.972656 C 57.710938 22.71875 53.222656 26.09375 47.898438 32.210938 C 46.507812 33.816406 44.722656 35.628906 43.9375 36.238281 C 42.191406 37.59375 42.417969 38.171875 44.367188 37.339844 C 46.023438 36.632812 49.835938 34.449219 52.625 32.613281 C 54.410156 31.433594 63.847656 26.53125 64.328125 26.53125 C 64.425781 26.53125 65.089844 26.25 65.796875 25.90625 C 68.359375 24.671875 72.691406 24.8125 74.203125 26.175781 C 75.882812 27.695312 74.910156 30.304688 71.054688 34.625 C 67.6875 38.398438 61.453125 42.882812 56.03125 45.429688 C 46.640625 49.839844 31.378906 54.222656 19.539062 55.910156 C 13.757812 56.734375 13.429688 56.804688 13.007812 57.277344 C 12.699219 57.628906 12.757812 57.839844 13.265625 58.199219 C 14.917969 59.367188 22.707031 58.363281 33.261719 55.617188 C 35.410156 55.058594 38.84375 54.164062 40.894531 53.632812 C 45.191406 52.519531 56.3125 48.53125 59.984375 46.78125 C 65.898438 43.96875 68.671875 41.980469 73.820312 36.871094 C 77.507812 33.214844 79.535156 30.367188 80.371094 27.683594 C 80.722656 26.539062 81.0625 25.472656 81.125 25.3125 C 81.183594 25.148438 81.972656 24.886719 82.875 24.722656 C 85.179688 24.3125 87.863281 22.582031 88.402344 21.160156 C 89.382812 18.574219 87.960938 16.300781 84.605469 15.078125 C 83.503906 14.675781 82.304688 14.1875 81.949219 13.996094 C 78.734375 12.261719 87.703125 6.953125 93.828125 6.960938 C 95.703125 6.960938 99.5 7.792969 101.5625 8.652344 C 103.863281 9.609375 106.414062 11.78125 107.328125 13.5625 C 107.992188 14.855469 108.398438 15.210938 110.246094 16.101562 C 112.941406 17.40625 113.664062 18.003906 113.679688 18.941406 C 113.691406 19.675781 113.667969 19.683594 112.019531 19.507812 C 110.40625 19.335938 110.34375 19.355469 110.34375 20 C 110.34375 20.574219 110.644531 20.753906 112.402344 21.222656 C 113.539062 21.523438 114.59375 21.769531 114.75 21.769531 C 115.425781 21.769531 115.882812 22.390625 115.539062 22.847656 C 114.871094 23.734375 111.375 24.398438 105.894531 24.675781 C 103.054688 24.820312 100.464844 25.011719 100.136719 25.101562 C 98.0625 25.667969 101.746094 28.179688 107.457031 30.085938 C 109.691406 30.832031 110.042969 31.285156 109.09375 32.207031 C 108.683594 32.605469 108.074219 32.699219 105.835938 32.707031 C 102.796875 32.71875 99.339844 32.089844 94.703125 30.683594 C 92.644531 30.058594 91.371094 29.839844 89.859375 29.851562 C 86.21875 29.878906 85.929688 30.078125 79.808594 36.714844 C 74.339844 42.640625 74.148438 42.792969 67.703125 46.480469 C 62.523438 49.441406 56.765625 51.921875 49.832031 54.175781 C 38.777344 57.765625 31.714844 59.648438 25.066406 60.769531 C 21.894531 61.300781 18.78125 61.851562 18.152344 61.988281 C 17.523438 62.125 16.652344 62.238281 16.21875 62.238281 C 14.339844 62.238281 14.804688 63.691406 16.804688 64.074219 C 18.6875 64.433594 23.226562 63.910156 31.585938 62.363281 C 35.269531 61.683594 38.644531 61.066406 39.082031 60.996094 C 40.203125 60.808594 41.324219 61.308594 41.609375 62.121094 C 41.746094 62.5 42.292969 63.304688 42.828125 63.910156 C 44.816406 66.160156 46.285156 67.1875 48.753906 68.050781 C 50.90625 68.804688 51.492188 68.894531 53.546875 68.800781 C 56.644531 68.660156 58.507812 67.804688 59.839844 65.90625 C 61.023438 64.214844 61.101562 62.613281 60.066406 61.171875 C 59.171875 59.925781 57.699219 59.328125 55.523438 59.328125 C 52.527344 59.328125 50.40625 60.59375 50.394531 62.390625 C 50.382812 63.957031 53.226562 65.078125 54.847656 64.148438 C 55.957031 63.507812 55.554688 62.996094 54.105469 63.203125 C 52.816406 63.386719 52.328125 62.859375 52.980469 61.992188 C 53.53125 61.261719 55.546875 61.261719 56.855469 61.992188 C 59.179688 63.289062 57.066406 66.703125 53.921875 66.726562 C 52.144531 66.738281 50.535156 66.3125 48.957031 65.414062 C 45.980469 63.714844 43.960938 60.917969 44.917969 59.820312 C 45.160156 59.539062 47.203125 58.644531 49.457031 57.832031 C 51.710938 57.019531 54.222656 56.113281 55.042969 55.816406 C 59.421875 54.226562 65.230469 51.53125 69.195312 49.25 C 73.207031 46.941406 75.421875 45.417969 82.457031 40.132812 C 85.945312 37.511719 89.339844 36.738281 91.144531 38.152344 C 92.746094 39.410156 92.042969 43.773438 89.480469 48.484375 C 88.476562 50.324219 84.769531 57.925781 83.09375 61.574219 C 82.085938 63.773438 80.175781 69.699219 80.183594 70.609375 C 80.1875 71.023438 80.320312 71.507812 80.484375 71.6875 C 80.980469 72.246094 82.976562 71.640625 85.210938 70.257812 C 87.289062 68.972656 95.519531 62.523438 98.984375 59.464844 C 102.777344 56.117188 105.316406 53.902344 105.511719 53.773438 C 105.710938 53.640625 106.847656 52.539062 111.617188 47.871094 C 113.035156 46.484375 114.636719 44.773438 115.179688 44.070312 C 116.324219 42.59375 117.789062 42.152344 117.789062 43.285156 C 117.789062 44.355469 116.539062 46.09375 114.109375 48.40625 C 111.921875 50.488281 111.277344 51.65625 112.320312 51.65625 C 112.824219 51.65625 114.882812 50.066406 117.125 47.953125 C 118.511719 46.644531 119.398438 46.4375 119.585938 47.375 C 119.699219 47.933594 117.328125 50.695312 114.730469 53.042969 C 113.140625 54.476562 114.390625 54.019531 116.695312 52.320312 C 118.765625 50.796875 119.117188 50.636719 119.597656 50.976562 C 120.078125 51.320312 120.027344 51.492188 119.15625 52.425781 C 117.613281 54.082031 111.082031 58.746094 109.222656 59.515625 C 106.410156 60.683594 104.171875 62.175781 97.988281 66.996094 C 83.742188 78.109375 78.523438 81.242188 75.234375 80.65625 C 73.191406 80.292969 72.214844 76.949219 72.90625 72.683594 C 73.714844 67.6875 78.109375 56.359375 80.894531 52.101562 C 85.09375 45.667969 85.097656 44.824219 80.917969 46.808594 C 76.71875 48.800781 71.296875 52.464844 69.445312 54.554688 C 67.085938 57.222656 66.550781 58.113281 65.847656 60.558594 C 64.117188 66.546875 62.179688 68.777344 57.089844 70.621094 C 55.296875 71.269531 54.648438 71.359375 51.878906 71.335938 C 49.179688 71.316406 48.351562 71.195312 46.257812 70.507812 C 43.976562 69.757812 40.164062 68.007812 39.894531 67.582031 C 39.828125 67.476562 39.039062 66.933594 38.136719 66.367188 C 36.53125 65.363281 36.460938 65.347656 34.296875 65.507812 C 31.582031 65.707031 28.035156 66.40625 27.34375 66.871094 C 27.058594 67.066406 26.917969 67.394531 27.035156 67.605469 C 27.148438 67.816406 29.894531 69.191406 33.136719 70.65625 C 36.378906 72.121094 40.117188 73.890625 41.449219 74.585938 C 42.777344 75.285156 44.621094 76.214844 45.546875 76.648438 C 48.078125 77.84375 53.339844 81.53125 54.179688 82.699219 C 54.886719 83.683594 54.894531 83.78125 54.300781 84.882812 C 53.585938 86.210938 52.195312 87.097656 50.832031 87.097656 C 49.769531 87.097656 39.976562 85.441406 32.835938 84.054688 C 27.71875 83.0625 24.800781 82.722656 23.433594 82.96875 C 22.125 83.203125 20.40625 84.574219 18.09375 87.230469 C 15.824219 89.839844 15.609375 90 14.3125 90.003906 C 13.527344 90.011719 13.453125 89.925781 13.652344 89.21875 Z M 13.652344 89.210938 "/>
<path style=" stroke:none;fill-rule:nonzero;fill:rgb(100%,100%,100%);fill-opacity:1;" d="M 105.5 31.085938 C 105.5 30.976562 104.453125 30.484375 103.171875 29.996094 C 98.71875 28.292969 94.742188 25.589844 95.265625 24.625 C 95.738281 23.75 97.125 23.535156 103.546875 23.324219 C 110.707031 23.09375 111.457031 22.996094 111.457031 22.304688 C 111.457031 21.855469 110.984375 21.828125 104.054688 21.882812 C 97.0625 21.9375 96.554688 21.976562 94.839844 22.578125 C 91.515625 23.75 91.488281 25.210938 94.742188 27.71875 C 96.53125 29.09375 98.820312 30.132812 101.582031 30.808594 C 103.539062 31.289062 105.5 31.425781 105.5 31.085938 Z M 105.5 31.085938 "/>
<path style=" stroke:none;fill-rule:nonzero;fill:rgb(100%,100%,100%);fill-opacity:1;" d="M 83.289062 20.6875 C 84.585938 19.960938 84.527344 19.320312 83.085938 18.457031 C 81.703125 17.632812 80.042969 17.695312 78.964844 18.621094 C 76.878906 20.40625 80.609375 22.1875 83.292969 20.6875 Z M 83.289062 20.6875 "/>
<path style=" stroke:none;fill-rule:nonzero;fill:rgb(0%,0%,0%);fill-opacity:1;" d="M 98.894531 18.210938 C 100.007812 17.5625 101.203125 16.613281 101.550781 16.09375 C 101.957031 15.488281 102.441406 15.152344 102.910156 15.152344 C 104.375 15.152344 103.359375 13.675781 100.5 11.644531 C 98.925781 10.527344 98.558594 10.390625 97.085938 10.390625 C 96.175781 10.390625 95.117188 10.25 94.730469 10.078125 C 94.144531 9.820312 93.828125 9.890625 92.78125 10.507812 C 90.628906 11.78125 88.746094 13.570312 88.746094 14.339844 C 88.746094 15.199219 92.242188 18.214844 94.058594 18.921875 C 95.851562 19.617188 96.679688 19.496094 98.898438 18.210938 Z M 98.894531 18.210938 "/>
<path style=" stroke:none;fill-rule:nonzero;fill:rgb(100%,100%,100%);fill-opacity:1;" d="M 93.175781 16.480469 C 91.761719 15.523438 91.640625 15.34375 91.84375 14.460938 C 92.269531 12.585938 94.660156 11.625 97.097656 12.347656 C 98.664062 12.816406 99.542969 13.707031 99.542969 14.832031 C 99.542969 15.992188 99.015625 16.644531 97.6875 17.132812 C 95.917969 17.78125 94.871094 17.628906 93.175781 16.480469 Z M 93.175781 16.480469 "/>
<path style=" stroke:none;fill-rule:nonzero;fill:rgb(0%,0%,0%);fill-opacity:1;" d="M 96.859375 15.628906 C 97.105469 15.453125 97.304688 15.058594 97.304688 14.753906 C 97.304688 13.996094 96.613281 13.566406 95.382812 13.566406 C 93.527344 13.566406 93.113281 15.1875 94.84375 15.6875 C 95.949219 16.003906 96.34375 15.992188 96.859375 15.628906 Z M 96.859375 15.628906 "/>
<path style=" stroke:none;fill-rule:nonzero;fill:rgb(100%,100%,100%);fill-opacity:1;" d="M 75.253906 18.304688 C 75.316406 18.078125 75.003906 17.664062 74.566406 17.382812 C 73.875 16.941406 73.25 16.875 69.980469 16.910156 C 65.984375 16.949219 63.421875 17.4375 63.421875 18.15625 C 63.421875 18.710938 63.570312 18.722656 69.652344 18.71875 C 74.300781 18.714844 75.15625 18.648438 75.253906 18.304688 Z M 75.253906 18.304688 "/>
<path style=" stroke:none;fill-rule:nonzero;fill:rgb(98.039216%,98.039216%,98.039216%);fill-opacity:1;" d="M 68.417969 14.996094 C 70.730469 14.847656 74.210938 15.125 75.949219 15.601562 C 76.597656 15.777344 77.253906 14.742188 76.984375 13.972656 C 76.8125 13.492188 76.371094 13.234375 75.390625 13.042969 C 73.402344 12.648438 67.976562 12.71875 65.917969 13.160156 C 64.019531 13.570312 61.933594 14.488281 61.933594 14.914062 C 61.933594 15.34375 63.539062 15.621094 64.679688 15.386719 C 65.277344 15.265625 66.960938 15.089844 68.421875 14.996094 Z M 68.417969 14.996094 "/>
<path style=" stroke:none;fill-rule:nonzero;fill:rgb(0%,0%,0%);fill-opacity:1;" d="M 105.683594 89.507812 C 102.285156 88.867188 99.734375 87.128906 98.839844 84.84375 C 98.285156 83.425781 98.316406 82.683594 99 81.054688 C 100.085938 78.453125 103.292969 76.664062 107.398438 76.367188 C 110.621094 76.132812 112.621094 76.554688 114.6875 77.910156 C 117.085938 79.476562 117.835938 80.671875 117.867188 82.960938 C 117.910156 85.882812 116.101562 88.199219 113.0625 89.113281 C 111.59375 89.550781 107.1875 89.789062 105.6875 89.507812 Z M 105.683594 89.507812 "/>
<path style=" stroke:none;fill-rule:nonzero;fill:rgb(100%,100%,100%);fill-opacity:1;" d="M 111.859375 85.355469 C 114.480469 83.671875 113.082031 80.21875 109.78125 80.21875 C 106.085938 80.21875 103.582031 82.667969 105.152344 84.75 C 106.082031 85.984375 110.285156 86.367188 111.859375 85.355469 Z M 111.859375 85.355469 "/>
<path style=" stroke:none;fill-rule:nonzero;fill:rgb(0%,0%,0%);fill-opacity:1;" d="M 102.640625 45.460938 C 100.328125 44.71875 99.421875 42.847656 100.449219 40.941406 C 101.308594 39.34375 102.898438 38.425781 104.816406 38.425781 C 107.871094 38.425781 110.117188 39.71875 110.539062 41.714844 C 110.839844 43.125 109.773438 44.773438 108.246094 45.269531 C 106.613281 45.796875 103.960938 45.890625 102.636719 45.460938 Z M 102.640625 45.460938 "/>
<path style=" stroke:none;fill-rule:nonzero;fill:rgb(0%,0%,0%);fill-opacity:1;" d="M 5.40625 39.308594 C 3.582031 38.847656 1.378906 37.378906 0.625 36.121094 C 0.34375 35.652344 0.117188 34.476562 0.117188 33.507812 C 0.117188 31.511719 0.808594 30.457031 2.824219 29.367188 C 5.339844 28.007812 6.367188 27.777344 9.015625 27.980469 C 13.472656 28.316406 15.929688 29.824219 16.652344 32.664062 C 17.222656 34.902344 14.421875 38.492188 11.410156 39.386719 C 9.855469 39.851562 7.441406 39.816406 5.40625 39.304688 Z M 5.40625 39.308594 "/>
<path style=" stroke:none;fill-rule:nonzero;fill:rgb(100%,100%,100%);fill-opacity:1;" d="M 10.613281 35.972656 C 12.066406 35.121094 12.507812 34.109375 11.980469 32.851562 C 11.4375 31.570312 10.636719 31.042969 8.933594 30.847656 C 6.027344 30.511719 4.585938 31.523438 4.585938 33.894531 C 4.585938 35.144531 4.675781 35.277344 5.972656 35.90625 C 7.671875 36.722656 9.285156 36.75 10.613281 35.96875 Z M 10.613281 35.972656 "/>
<path style=" stroke:none;fill-rule:nonzero;fill:rgb(0%,0%,0%);fill-opacity:1;" d="M 62.554688 5.511719 C 59.171875 4.652344 58.828125 2.195312 61.886719 0.71875 C 64.042969 -0.320312 66.507812 0.00390625 68.230469 1.558594 C 69.761719 2.945312 68.949219 4.519531 66.257812 5.386719 C 64.445312 5.972656 64.386719 5.976562 62.554688 5.511719 Z M 62.554688 5.511719 "/>
</g>
</svg>
