<?xml version="1.0" encoding="UTF-8"?>
<svg xmlns="http://www.w3.org/2000/svg" xmlns:xlink="http://www.w3.org/1999/xlink" width="120pt" height="90pt" viewBox="0 0 120 90" version="1.1">
<g id="surface1">
<path style=" stroke:none;fill-rule:nonzero;fill:rgb(0%,0%,0%);fill-opacity:1;" d="M 31.574219 21.515625 C 31.421875 21.492188 31.292969 21.398438 31.292969 21.300781 C 31.292969 21.167969 31.230469 21.144531 31.011719 21.195312 C 29.890625 21.457031 28.320312 21.1875 28.421875 20.746094 C 28.492188 20.429688 28.910156 20.3125 29.429688 20.460938 C 29.816406 20.570312 29.882812 20.558594 30.335938 20.328125 C 30.910156 20.035156 31.285156 20.101562 31.519531 20.535156 C 31.675781 20.824219 31.746094 20.828125 32.773438 20.617188 C 33.605469 20.449219 33.476562 20.125 32.574219 20.121094 C 32.046875 20.121094 31.777344 19.972656 31.777344 19.683594 C 31.777344 19.382812 31.386719 19.203125 31.050781 19.351562 C 30.917969 19.410156 30.808594 19.507812 30.808594 19.574219 C 30.808594 19.796875 30.214844 19.691406 29.644531 19.363281 C 29.035156 19.015625 28.394531 18.898438 25.667969 18.65625 C 24.320312 18.535156 23.730469 18.328125 23.226562 17.804688 C 22.617188 17.171875 22.820312 17.050781 24.523438 17.035156 C 25.011719 17.03125 25.808594 16.996094 26.296875 16.960938 C 26.796875 16.921875 27.261719 16.925781 27.363281 16.96875 C 27.464844 17.011719 27.59375 17.195312 27.648438 17.382812 C 27.714844 17.601562 27.878906 17.769531 28.117188 17.851562 C 28.773438 18.078125 31.515625 18.648438 32.261719 18.710938 C 33.585938 18.820312 34.773438 19.285156 34.9375 19.75 C 35.082031 20.15625 34.621094 20.9375 34.148438 21.097656 C 33.859375 21.195312 31.882812 21.597656 31.863281 21.5625 C 31.859375 21.558594 31.730469 21.535156 31.574219 21.515625 Z M 30.167969 17.660156 C 29.507812 17.597656 28.96875 17.335938 28.480469 16.855469 C 27.726562 16.101562 27.050781 15.90625 26.753906 16.355469 C 26.507812 16.734375 25.921875 16.703125 25.148438 16.269531 C 24.417969 15.863281 24.199219 15.84375 24.199219 16.179688 C 24.199219 16.320312 24.128906 16.457031 24.042969 16.484375 C 23.820312 16.558594 23.070312 16.332031 22.515625 16.023438 C 21.882812 15.667969 21.722656 15.6875 21.828125 16.109375 C 21.9375 16.542969 21.835938 16.699219 21.441406 16.699219 C 20.824219 16.699219 19.683594 15.554688 19.683594 14.933594 C 19.683594 14.621094 20.347656 14.441406 21.265625 14.507812 C 22.53125 14.597656 26.292969 15.128906 27.503906 15.390625 C 28.5 15.605469 28.71875 15.695312 29.359375 16.15625 C 30.34375 16.871094 30.726562 16.957031 32.953125 16.953125 C 36.496094 16.945312 39.03125 16.410156 41.578125 15.121094 C 42.949219 14.425781 43.164062 14.273438 43.886719 13.476562 C 44.324219 12.988281 44.898438 12.242188 45.15625 11.816406 C 45.796875 10.765625 47.035156 9.632812 48.191406 9.035156 C 49.4375 8.390625 50.308594 8.164062 52.453125 7.933594 C 53.28125 7.847656 53.453125 7.566406 53.542969 6.128906 C 53.613281 5.007812 53.667969 4.804688 53.933594 4.648438 C 54.332031 4.414062 54.597656 4.421875 55.082031 4.679688 C 55.617188 4.964844 55.582031 5.125 54.898438 5.453125 C 54.179688 5.804688 54.199219 6.058594 54.945312 6.039062 C 55.578125 6.023438 56.222656 5.78125 56.429688 5.476562 C 56.625 5.191406 57.273438 5.085938 57.851562 5.25 C 58.074219 5.3125 58.570312 5.507812 58.941406 5.683594 C 59.789062 6.078125 60.074219 6.546875 59.917969 7.273438 C 59.726562 8.144531 59.152344 8.480469 59.085938 7.765625 C 59.042969 7.332031 58.316406 6.949219 57.53125 6.949219 C 57.246094 6.949219 56.792969 6.871094 56.527344 6.777344 C 56.261719 6.683594 55.925781 6.609375 55.78125 6.609375 C 55.386719 6.605469 54.671875 6.941406 54.671875 7.128906 C 54.671875 7.273438 54.792969 7.292969 55.796875 7.292969 C 56.503906 7.292969 57.125 7.34375 57.472656 7.433594 C 58.425781 7.671875 58.652344 8.289062 57.757812 8.199219 C 56.445312 8.0625 55.796875 8.058594 54.78125 8.183594 C 53.484375 8.34375 52.996094 8.351562 52.605469 8.222656 C 51.980469 8.015625 48.921875 9.101562 47.945312 9.878906 C 47.363281 10.339844 46.980469 10.804688 45.960938 12.285156 C 44.972656 13.71875 44.703125 14.011719 43.699219 14.730469 C 41.796875 16.097656 39.722656 16.808594 36.28125 17.285156 C 33.523438 17.664062 31.46875 17.789062 30.167969 17.660156 Z M 35.648438 16.460938 C 35.648438 16.296875 36.824219 15.734375 37.578125 15.53125 C 38.140625 15.382812 39.144531 15.355469 39.382812 15.480469 C 39.632812 15.613281 38.898438 15.941406 37.519531 16.3125 C 36.277344 16.648438 35.648438 16.699219 35.648438 16.460938 Z M 31.777344 16.46875 C 31.777344 16.070312 35.476562 15.292969 36.011719 15.574219 C 36.257812 15.707031 35.15625 16.238281 34.390625 16.359375 C 33.519531 16.496094 31.777344 16.566406 31.777344 16.46875 Z M 30.003906 15.863281 C 29.695312 15.78125 29.441406 15.675781 29.441406 15.628906 C 29.441406 15.582031 29.953125 15.535156 30.585938 15.519531 C 31.460938 15.5 31.777344 15.527344 31.933594 15.625 C 32.109375 15.738281 32.054688 15.777344 31.5625 15.886719 C 30.824219 16.050781 30.691406 16.046875 30.003906 15.863281 Z M 15.273438 15.765625 C 14.292969 15.710938 13.636719 15.457031 13.820312 15.207031 C 13.867188 15.144531 13.710938 14.890625 13.476562 14.644531 C 12.921875 14.0625 12.914062 13.570312 13.449219 13.082031 C 14.0625 12.527344 14.441406 12.386719 15.457031 12.335938 C 16.28125 12.296875 16.367188 12.273438 16.480469 12.054688 C 16.699219 11.617188 16.859375 11.574219 18.316406 11.59375 C 19.054688 11.601562 19.710938 11.640625 19.777344 11.671875 C 20.007812 11.796875 19.539062 12.160156 19.085938 12.214844 C 18.261719 12.308594 17.765625 12.4375 17.277344 12.6875 C 16.984375 12.835938 16.535156 12.953125 16.144531 12.988281 C 15.253906 13.0625 14.363281 13.578125 14.363281 14.011719 C 14.363281 14.183594 14.484375 14.429688 14.628906 14.558594 C 14.902344 14.804688 15.765625 15.074219 16.273438 15.074219 C 16.582031 15.074219 17.429688 15.492188 17.429688 15.648438 C 17.429688 15.84375 17.027344 15.863281 15.273438 15.765625 Z M 4.609375 15.382812 C 3.285156 15.226562 3.125 15.183594 2.941406 14.90625 C 2.824219 14.722656 2.84375 14.617188 3.019531 14.484375 C 3.335938 14.246094 3.960938 14.25 6.695312 14.519531 C 7.898438 14.636719 9.152344 14.753906 9.484375 14.78125 C 9.820312 14.808594 10.382812 14.867188 10.738281 14.90625 C 11.089844 14.949219 11.605469 14.984375 11.875 14.988281 C 12.535156 14.988281 13.070312 15.195312 12.796875 15.339844 C 12.503906 15.496094 5.894531 15.53125 4.609375 15.382812 Z M 17.550781 15.109375 C 17.304688 15.039062 17.105469 14.945312 17.105469 14.902344 C 17.105469 14.855469 16.796875 14.71875 16.421875 14.59375 C 15.617188 14.332031 15.332031 14.160156 15.332031 13.941406 C 15.332031 13.710938 16.058594 13.363281 16.542969 13.363281 C 16.777344 13.363281 17.207031 13.265625 17.5 13.148438 C 18.335938 12.808594 18.894531 13.070312 18.527344 13.628906 C 18.417969 13.796875 18.414062 14.070312 18.511719 14.441406 C 18.636719 14.894531 18.621094 15.027344 18.4375 15.125 C 18.160156 15.273438 18.105469 15.269531 17.550781 15.109375 Z M 33.089844 14.941406 C 32.90625 14.820312 32.710938 14.546875 32.652344 14.332031 C 32.527344 13.894531 32.691406 12.84375 32.898438 12.734375 C 33.074219 12.640625 33.746094 12.753906 33.625 12.855469 C 33.574219 12.898438 33.632812 12.914062 33.753906 12.890625 C 34.046875 12.828125 34.644531 13.410156 34.730469 13.839844 C 34.8125 14.25 34.464844 14.90625 34.085938 15.050781 C 33.679688 15.210938 33.449219 15.183594 33.089844 14.941406 Z M 39.121094 15.078125 C 39.066406 15.035156 39.21875 14.929688 39.453125 14.84375 C 39.691406 14.757812 40.15625 14.554688 40.488281 14.390625 C 41.578125 13.851562 42.714844 13.363281 42.890625 13.363281 C 43.410156 13.363281 42.660156 14.253906 41.789062 14.671875 C 41.414062 14.851562 40.929688 15.03125 40.707031 15.078125 C 40.1875 15.183594 39.242188 15.183594 39.121094 15.078125 Z M 36.011719 14.710938 C 35.402344 14.359375 35.242188 13.628906 35.648438 13.0625 C 35.949219 12.644531 37.117188 12.566406 37.546875 12.9375 C 37.660156 13.035156 37.796875 13.414062 37.851562 13.777344 L 37.949219 14.441406 L 37.429688 14.671875 C 36.800781 14.953125 36.453125 14.960938 36.011719 14.710938 Z M 30.285156 14.726562 C 29.929688 14.613281 29.917969 14.171875 30.246094 13.417969 C 30.6875 12.40625 30.90625 12.347656 31.242188 13.15625 C 31.644531 14.136719 31.679688 14.515625 31.382812 14.671875 C 31.074219 14.835938 30.703125 14.851562 30.285156 14.726562 Z M 27.730469 14.460938 C 27.621094 14.351562 27.582031 14.09375 27.632812 13.832031 C 27.730469 13.335938 28.386719 12.382812 28.632812 12.382812 C 28.953125 12.386719 29.238281 12.886719 29.320312 13.589844 C 29.394531 14.199219 29.363281 14.332031 29.117188 14.476562 C 28.722656 14.707031 27.972656 14.699219 27.730469 14.460938 Z M 24.5625 14.472656 C 24.363281 14.429688 24.199219 14.324219 24.199219 14.238281 C 24.199219 13.792969 25.476562 12.167969 25.824219 12.167969 C 26.140625 12.167969 26.5 12.625 26.574219 13.132812 C 26.640625 13.570312 26.59375 13.738281 26.316406 14.027344 C 25.835938 14.523438 25.367188 14.644531 24.5625 14.472656 Z M 21.632812 14.144531 C 21.417969 13.933594 21.652344 13.503906 22.261719 12.996094 C 23.054688 12.332031 24.039062 12.253906 24.039062 12.859375 C 24.039062 13.222656 23.417969 14.027344 23.023438 14.175781 C 22.539062 14.355469 21.828125 14.339844 21.632812 14.144531 Z M 8.320312 14.03125 C 3.613281 13.875 2.582031 13.75 2.261719 13.304688 C 1.855469 12.738281 3.082031 12.71875 7.058594 13.234375 C 11.304688 13.785156 11.945312 13.886719 11.945312 14.019531 C 11.945312 14.152344 11.996094 14.152344 8.320312 14.03125 Z M 19.148438 14.035156 C 18.773438 13.921875 18.8125 13.636719 19.277344 13.078125 C 19.691406 12.582031 20.707031 11.910156 21.042969 11.910156 C 21.148438 11.910156 21.371094 11.960938 21.535156 12.027344 C 21.824219 12.136719 21.816406 12.167969 21.296875 12.859375 C 21 13.253906 20.65625 13.660156 20.535156 13.761719 C 20.25 14 19.515625 14.140625 19.148438 14.035156 Z M 39.515625 13.894531 C 39.515625 13.640625 40.96875 12.59375 41.320312 12.59375 C 41.511719 12.59375 41.480469 13.003906 41.269531 13.21875 C 41.007812 13.492188 39.96875 14.046875 39.726562 14.046875 C 39.613281 14.046875 39.515625 13.980469 39.515625 13.894531 Z M 38.847656 13.238281 C 38.707031 13.160156 38.96875 12.25 39.167969 12.148438 C 39.316406 12.066406 39.433594 12.066406 39.640625 12.136719 C 40.003906 12.261719 39.953125 12.605469 39.511719 12.980469 C 39.183594 13.265625 39.019531 13.328125 38.847656 13.238281 Z M 8.480469 12.84375 C 7.328125 12.757812 5.730469 12.648438 4.929688 12.601562 C 2.707031 12.46875 1.839844 12.265625 2.0625 11.921875 C 2.339844 11.496094 2.878906 11.480469 5.621094 11.824219 C 9.753906 12.339844 12.105469 12.730469 12.105469 12.898438 C 12.105469 13.058594 11.191406 13.046875 8.480469 12.84375 Z M 42.417969 12.890625 C 42.417969 12.671875 43.347656 11.792969 43.703125 11.675781 C 44.066406 11.554688 44.515625 11.617188 44.515625 11.785156 C 44.515625 11.847656 44.164062 12.140625 43.734375 12.4375 C 42.949219 12.980469 42.417969 13.164062 42.417969 12.890625 Z M 33.167969 12.296875 C 32.195312 12.148438 32.0625 12.082031 32.128906 11.769531 C 32.179688 11.527344 32.195312 11.523438 33.445312 11.480469 C 34.539062 11.445312 34.753906 11.410156 35.027344 11.230469 C 35.382812 10.996094 35.328125 10.734375 34.847656 10.375 C 34.34375 10 31.003906 9.589844 28.472656 9.589844 C 26.417969 9.589844 25.328125 9.730469 23.265625 10.269531 C 21.667969 10.6875 21.347656 10.71875 20.855469 10.515625 C 20.476562 10.363281 20.652344 10.121094 21.453125 9.699219 C 22.5 9.144531 24.136719 8.820312 26.941406 8.613281 C 29.285156 8.4375 33.277344 8.722656 35.574219 9.230469 C 37.5 9.652344 38.390625 10.726562 37.566406 11.628906 C 36.964844 12.285156 35.03125 12.582031 33.167969 12.296875 Z M 40.570312 12.085938 C 40.445312 11.976562 41.320312 10.957031 41.675781 10.804688 C 42.09375 10.621094 42.808594 10.777344 42.871094 11.070312 C 42.972656 11.523438 40.953125 12.414062 40.570312 12.085938 Z M 12.511719 12.023438 C 12.15625 12.003906 11.394531 11.9375 10.816406 11.867188 C 10.242188 11.800781 8.390625 11.605469 6.707031 11.433594 C 3.539062 11.113281 3.078125 11.015625 3.078125 10.65625 C 3.078125 10.332031 3.683594 10.234375 4.933594 10.359375 C 7.148438 10.574219 13.882812 11.78125 13.882812 11.964844 C 13.882812 12.03125 13.730469 12.074219 13.519531 12.066406 C 13.320312 12.058594 12.863281 12.039062 12.511719 12.023438 Z M 28.074219 11.742188 C 27.773438 11.640625 27.921875 11.558594 28.414062 11.554688 C 29.21875 11.546875 29.484375 11.476562 29.679688 11.226562 C 29.890625 10.957031 30.324219 10.871094 30.324219 11.101562 C 30.324219 11.171875 30.222656 11.363281 30.09375 11.527344 C 29.871094 11.808594 29.816406 11.824219 29.085938 11.824219 C 28.660156 11.824219 28.203125 11.785156 28.074219 11.742188 Z M 25.410156 11.617188 C 25.066406 11.480469 25.085938 11.476562 25.957031 11.453125 C 26.421875 11.441406 26.535156 11.398438 26.683594 11.167969 C 26.894531 10.84375 27.027344 10.761719 27.234375 10.832031 C 27.332031 10.863281 27.320312 11.035156 27.195312 11.289062 C 27.007812 11.679688 26.980469 11.695312 26.367188 11.722656 C 25.984375 11.734375 25.605469 11.695312 25.410156 11.617188 Z M 23.472656 11.425781 C 23.296875 11.40625 22.988281 11.371094 22.789062 11.347656 C 22.132812 11.273438 22.378906 11.121094 23.054688 11.179688 C 23.703125 11.238281 23.71875 11.234375 24.335938 10.804688 C 24.746094 10.519531 25.039062 10.632812 24.8125 10.992188 C 24.503906 11.472656 24.351562 11.523438 23.472656 11.425781 Z M 43.664062 11.171875 C 43.398438 11.035156 43.960938 10.226562 44.5625 9.878906 C 45.117188 9.554688 45.964844 9.652344 45.964844 10.042969 C 45.964844 10.132812 44.023438 11.226562 43.859375 11.226562 C 43.804688 11.226562 43.71875 11.203125 43.664062 11.171875 Z M 14.203125 11.082031 C 13.804688 11.0625 12.644531 10.949219 11.625 10.828125 C 10.605469 10.710938 9.128906 10.5625 8.347656 10.5 C 7.382812 10.421875 6.738281 10.320312 6.332031 10.179688 C 6.007812 10.0625 5.539062 9.90625 5.296875 9.828125 C 4.753906 9.652344 4.695312 9.273438 5.171875 9.046875 C 5.421875 8.925781 5.65625 8.902344 6.261719 8.941406 C 8.425781 9.078125 15.414062 10.625 15.414062 10.96875 C 15.414062 11.109375 15.246094 11.125 14.203125 11.082031 Z M 39.195312 11.011719 C 38.921875 10.835938 39.058594 10.144531 39.449219 9.722656 C 39.820312 9.324219 40.527344 9.074219 40.835938 9.238281 C 40.996094 9.324219 40.976562 9.425781 40.738281 9.75 C 40.570312 9.972656 40.285156 10.378906 40.097656 10.648438 C 39.75 11.152344 39.542969 11.234375 39.195312 11.011719 Z M 40.886719 10.117188 C 40.597656 9.867188 41.90625 9.238281 42.640625 9.277344 C 43.523438 9.320312 43.351562 9.546875 42.179688 9.890625 C 40.992188 10.234375 41.023438 10.230469 40.886719 10.117188 Z M 39.636719 8.824219 C 39.324219 8.726562 39.257812 8.445312 39.53125 8.355469 C 39.84375 8.253906 42.453125 7.976562 42.609375 8.027344 C 42.980469 8.148438 41.347656 8.765625 40.402344 8.863281 C 40.136719 8.890625 39.792969 8.875 39.636719 8.824219 Z M 43.601562 8.742188 C 43.011719 8.621094 43.015625 8.5 43.609375 7.894531 L 44.1875 7.3125 L 44.101562 6.296875 C 44.019531 5.324219 44.035156 5.257812 44.46875 4.738281 C 44.828125 4.300781 45.109375 4.113281 45.863281 3.796875 L 46.8125 3.402344 L 49.855469 3.402344 L 49.828125 3.058594 C 49.792969 2.511719 49.820312 2.4375 50.101562 2.382812 C 50.414062 2.316406 50.964844 2.554688 50.964844 2.753906 C 50.964844 2.828125 50.828125 3.027344 50.660156 3.191406 C 50.335938 3.511719 50.4375 3.785156 50.882812 3.785156 C 51.09375 3.785156 51.207031 3.585938 51.324219 3.015625 C 51.351562 2.867188 51.464844 2.800781 51.6875 2.800781 C 52.199219 2.800781 52.199219 3.25 51.6875 3.652344 C 51.355469 3.910156 51.308594 3.996094 51.476562 4.054688 C 51.789062 4.160156 51.917969 4.144531 52.371094 3.957031 C 52.683594 3.824219 52.835938 3.808594 53.003906 3.882812 C 53.375 4.046875 53.246094 4.292969 52.695312 4.46875 C 52.027344 4.6875 51.371094 4.683594 49.96875 4.460938 C 48.085938 4.15625 46.503906 4.40625 45.621094 5.140625 C 44.832031 5.800781 45.148438 6.726562 46.347656 7.261719 C 47.039062 7.574219 48.359375 7.886719 48.96875 7.890625 C 49.578125 7.890625 49.949219 8.078125 49.621094 8.21875 C 48.894531 8.539062 44.472656 8.925781 43.601562 8.742188 Z M 40.03125 7.617188 C 39.535156 7.351562 39.9375 7.171875 41.238281 7.082031 C 42.253906 7.007812 42.742188 7.078125 42.742188 7.292969 C 42.742188 7.578125 40.472656 7.851562 40.03125 7.617188 Z M 48.972656 7.507812 C 47.328125 7.199219 46.667969 6.359375 47.417969 5.539062 C 47.945312 4.960938 49.773438 4.589844 51.015625 4.804688 C 51.890625 4.960938 52.832031 5.554688 52.96875 6.039062 C 53.15625 6.710938 52.703125 7.160156 51.53125 7.453125 C 50.703125 7.660156 49.867188 7.679688 48.972656 7.507812 Z M 51.15625 6.601562 C 51.585938 6.375 51.636719 6.300781 51.5625 6 C 51.453125 5.578125 51.089844 5.417969 50.238281 5.414062 C 48.964844 5.410156 48.144531 5.921875 48.539062 6.472656 C 48.738281 6.75 49.136719 6.859375 49.96875 6.863281 C 50.535156 6.863281 50.757812 6.816406 51.15625 6.601562 Z M 34.445312 6.84375 C 34.101562 6.582031 34.121094 6.546875 34.71875 6.378906 C 35.65625 6.109375 42.335938 6.125 42.335938 6.394531 C 42.335938 6.441406 42.121094 6.488281 41.855469 6.503906 C 41.585938 6.515625 40.863281 6.585938 40.242188 6.660156 C 37.652344 6.964844 36.808594 7.035156 35.707031 7.035156 C 34.847656 7.035156 34.660156 7.007812 34.445312 6.84375 Z M 34.628906 5.742188 C 34.222656 5.660156 34.183594 5.613281 34.226562 5.296875 C 34.269531 5 34.351562 4.921875 34.757812 4.820312 C 35.703125 4.578125 42.320312 4.980469 42.953125 5.316406 C 43.195312 5.445312 42.886719 5.476562 40.886719 5.53125 C 39.910156 5.558594 38.714844 5.617188 38.226562 5.664062 C 36.742188 5.804688 35.109375 5.839844 34.628906 5.742188 Z M 42.132812 4.714844 C 41.453125 4.570312 39.980469 4.378906 38.609375 4.253906 C 37.316406 4.132812 36.117188 4 35.953125 3.953125 C 35.535156 3.832031 35.558594 3.472656 35.996094 3.351562 C 36.210938 3.289062 36.804688 3.265625 37.566406 3.292969 C 38.566406 3.324219 39.042969 3.394531 40.171875 3.679688 C 41.609375 4.039062 43.707031 4.765625 43.707031 4.902344 C 43.707031 5.023438 43.417969 4.988281 42.132812 4.714844 Z M 43.464844 3.875 C 42.683594 3.574219 42.023438 3.4375 39.917969 3.140625 C 38.023438 2.875 37.539062 2.738281 37.613281 2.480469 C 37.675781 2.25 38.617188 2.125 39.675781 2.207031 C 40.734375 2.285156 42.523438 2.816406 43.585938 3.359375 C 44.910156 4.039062 44.824219 4.394531 43.464844 3.875 Z M 44.820312 3.285156 C 44.429688 3.058594 43.664062 2.710938 43.121094 2.515625 C 42.574219 2.316406 42.078125 2.089844 42.023438 2.011719 C 41.886719 1.824219 42.464844 1.5625 43.003906 1.5625 C 43.421875 1.5625 44.425781 1.867188 44.867188 2.128906 C 45.542969 2.53125 46.0625 3.519531 45.664062 3.648438 C 45.589844 3.675781 45.207031 3.511719 44.820312 3.285156 Z M 46.558594 3.128906 C 46.496094 3.097656 46.449219 2.992188 46.449219 2.894531 C 46.445312 2.726562 46.28125 2.5625 45.597656 2.054688 C 45.207031 1.761719 45.386719 1.53125 45.949219 1.605469 C 46.804688 1.71875 47.417969 2.191406 47.417969 2.746094 C 47.417969 2.972656 47.335938 3.101562 47.160156 3.136719 C 46.835938 3.203125 46.6875 3.199219 46.558594 3.128906 Z M 48.757812 2.992188 C 48.136719 2.542969 48.003906 1.988281 48.511719 1.988281 C 48.988281 1.988281 49.191406 2.171875 49.191406 2.601562 C 49.191406 3.019531 49.015625 3.179688 48.757812 2.992188 Z M 48.757812 2.992188 "/>
</g>
</svg>
