<?xml version="1.0" encoding="UTF-8"?>
<svg xmlns="http://www.w3.org/2000/svg" xmlns:xlink="http://www.w3.org/1999/xlink" width="120pt" height="90pt" viewBox="0 0 120 90" version="1.1">
<g id="surface1">
<path style=" stroke:none;fill-rule:nonzero;fill:rgb(0%,0%,0%);fill-opacity:1;" d="M 13.839844 27.800781 C 13.839844 27.625 13.933594 27.609375 16.835938 27.355469 C 19.984375 27.078125 20.851562 26.878906 21.617188 26.269531 C 22.371094 25.664062 24.859375 23.007812 25.527344 22.09375 C 25.820312 21.691406 26.292969 21.097656 26.578125 20.765625 C 27.277344 19.957031 27.703125 19.292969 27.703125 19.015625 C 27.703125 18.628906 27.0625 18.238281 25.929688 17.929688 C 25.351562 17.773438 24.664062 17.644531 24.398438 17.644531 C 23.566406 17.644531 20.34375 17.117188 19.566406 16.855469 C 17.5625 16.183594 16.597656 15.738281 16.011719 15.207031 C 15.804688 15.019531 15.476562 14.539062 15.285156 14.140625 C 14.617188 12.75 15.046875 11.742188 17.777344 8.289062 C 18.609375 7.234375 18.699219 6.800781 18.1875 6.269531 C 17.914062 5.984375 17.78125 5.929688 17.367188 5.929688 C 16.625 5.929688 15.847656 6.160156 15.402344 6.511719 C 14.902344 6.914062 13.621094 7.640625 13.421875 7.640625 C 13.027344 7.636719 12.839844 7.480469 12.941406 7.238281 C 13.183594 6.648438 15.863281 4.683594 16.699219 4.480469 C 17.648438 4.253906 19.546875 5.269531 19.949219 6.226562 C 20.289062 7.03125 19.824219 8.046875 18.464844 9.492188 C 18.160156 9.8125 17.828125 10.214844 17.726562 10.382812 C 17.625 10.550781 17.394531 10.839844 17.21875 11.023438 C 17.042969 11.203125 16.902344 11.40625 16.902344 11.472656 C 16.902344 11.535156 16.746094 11.859375 16.558594 12.1875 C 16.101562 12.984375 16.191406 13.566406 16.890625 14.371094 C 18.539062 16.261719 23.695312 17.378906 27.03125 16.5625 C 28.945312 16.09375 30.769531 14.6875 30.765625 13.679688 C 30.765625 13.21875 30.511719 12.75 30.132812 12.5 C 29.714844 12.226562 29.582031 12.335938 29.878906 12.710938 C 30.367188 13.332031 30.132812 14.117188 29.242188 14.851562 C 28.179688 15.734375 27 16.191406 25.199219 16.414062 C 24.070312 16.554688 23.96875 16.554688 22.9375 16.40625 C 21.25 16.164062 20.085938 15.816406 19.101562 15.25 C 17.691406 14.441406 17.148438 13.464844 17.535156 12.425781 C 18.011719 11.136719 19.871094 10.320312 22.554688 10.226562 C 23.816406 10.179688 26.304688 10.5 27.597656 10.867188 C 28.851562 11.230469 30.832031 12.300781 31.367188 12.902344 C 32.15625 13.796875 31.914062 14.519531 30.414062 15.742188 C 29.652344 16.367188 29.585938 16.257812 31.402344 17.394531 C 32.039062 17.792969 32.730469 18.273438 32.945312 18.46875 C 33.5 18.96875 34.125 20.003906 34.308594 20.738281 C 34.398438 21.082031 34.621094 21.953125 34.804688 22.671875 C 34.988281 23.390625 35.175781 24.160156 35.21875 24.382812 C 35.386719 25.238281 35.785156 26.488281 35.9375 26.636719 C 36.183594 26.878906 36.921875 27.042969 38.046875 27.101562 C 39.210938 27.160156 39.691406 27.320312 39.304688 27.515625 C 39.117188 27.609375 38.027344 27.644531 34.074219 27.6875 C 31.324219 27.71875 28.730469 27.761719 28.308594 27.789062 C 27.609375 27.835938 27.542969 27.824219 27.542969 27.660156 C 27.542969 27.460938 27.605469 27.449219 29.71875 27.300781 C 30.515625 27.246094 31.484375 27.152344 31.867188 27.089844 C 32.503906 26.988281 32.558594 26.992188 32.464844 27.121094 C 32.40625 27.203125 32.589844 27.140625 32.871094 26.988281 C 33.152344 26.835938 33.445312 26.710938 33.515625 26.710938 C 34.28125 26.710938 34.054688 23.546875 33.113281 21.152344 C 32.789062 20.324219 32.042969 19.355469 31.324219 18.839844 C 30.640625 18.34375 29.71875 17.902344 29.371094 17.902344 C 29.101562 17.902344 29.121094 17.976562 29.5 18.480469 C 29.816406 18.898438 29.355469 19.710938 27.871094 21.351562 C 23.769531 25.875 23.351562 26.394531 23.351562 26.925781 C 23.351562 27.164062 23.832031 27.394531 24.335938 27.394531 C 24.769531 27.394531 25.445312 27.609375 25.445312 27.75 C 25.445312 27.808594 24.382812 27.828125 22.34375 27.816406 C 20.636719 27.800781 18.023438 27.824219 16.539062 27.863281 C 14.125 27.925781 13.839844 27.917969 13.839844 27.800781 Z M 23.578125 15.863281 C 23.621094 15.824219 23.371094 15.644531 23.019531 15.460938 C 22.191406 15.03125 22.042969 14.71875 22.089844 13.480469 C 22.121094 12.625 22.082031 12.429688 21.824219 12.203125 C 21.105469 11.554688 19.648438 11.601562 18.839844 12.296875 C 18.425781 12.652344 18.429688 12.863281 18.847656 13.144531 C 19.460938 13.558594 20.609375 13.402344 20.609375 12.902344 C 20.609375 12.691406 20.140625 12.640625 19.886719 12.824219 C 19.679688 12.972656 19.640625 12.972656 19.390625 12.84375 C 19.15625 12.722656 19.152344 12.671875 19.34375 12.460938 C 19.675781 12.09375 20.433594 12.078125 20.988281 12.429688 C 21.597656 12.816406 21.5625 13.191406 20.871094 13.578125 C 20.304688 13.894531 19.957031 13.941406 19.222656 13.792969 C 18.550781 13.660156 18.433594 13.804688 18.828125 14.28125 C 19.40625 14.972656 20.527344 15.480469 22.140625 15.773438 C 23.054688 15.941406 23.457031 15.96875 23.578125 15.863281 Z M 26.257812 15.421875 C 27.101562 15.300781 28.191406 14.671875 28.296875 14.25 C 28.40625 13.828125 28.011719 13.347656 27.449219 13.210938 C 26.578125 13 25.878906 13.003906 25.285156 13.214844 C 24.089844 13.644531 24.691406 14.488281 26.113281 14.382812 C 26.605469 14.34375 26.71875 14.058594 26.265625 13.996094 C 25.894531 13.945312 25.820312 13.71875 26.125 13.558594 C 26.414062 13.402344 26.707031 13.433594 27.144531 13.664062 C 27.972656 14.101562 27.460938 14.773438 26.21875 14.878906 C 24.804688 15 23.445312 14.117188 23.851562 13.335938 C 23.933594 13.175781 24.289062 12.90625 24.644531 12.738281 C 25.203125 12.46875 25.394531 12.429688 26.09375 12.429688 C 26.621094 12.429688 27.183594 12.503906 27.726562 12.640625 C 28.179688 12.757812 28.617188 12.832031 28.691406 12.808594 C 28.925781 12.730469 28.25 12.148438 27.433594 11.726562 C 26.933594 11.46875 26.222656 11.226562 25.445312 11.046875 C 24.390625 10.808594 24.054688 10.773438 22.785156 10.765625 C 21.34375 10.761719 20.449219 10.835938 20.449219 10.957031 C 20.449219 10.992188 20.8125 11.089844 21.257812 11.171875 C 22.808594 11.464844 23.417969 12.226562 23.242188 13.644531 C 23.113281 14.71875 23.492188 15.117188 24.910156 15.382812 C 25.664062 15.527344 25.574219 15.523438 26.257812 15.421875 Z M 39.382812 25.914062 C 39.320312 25.832031 39.308594 25.742188 39.355469 25.71875 C 39.398438 25.695312 39.371094 25.523438 39.292969 25.335938 C 39.1875 25.089844 39.210938 24.917969 39.386719 24.699219 C 39.648438 24.363281 39.589844 24.210938 39.042969 23.859375 C 38.613281 23.582031 38.570312 23.34375 38.894531 22.941406 C 39.160156 22.601562 39.046875 22.398438 38.324219 21.921875 C 37.867188 21.617188 37.824219 21.546875 37.898438 21.140625 C 38.003906 20.558594 38.519531 20.296875 39.550781 20.296875 C 40.121094 20.296875 40.320312 20.339844 40.589844 20.523438 C 41.25 20.96875 40.867188 21.578125 39.929688 21.578125 C 39.125 21.578125 38.621094 20.96875 39.328125 20.851562 C 39.792969 20.773438 40.140625 20.960938 39.753906 21.078125 C 39.410156 21.179688 39.53125 21.324219 39.957031 21.324219 C 40.382812 21.324219 40.605469 21.082031 40.402344 20.84375 C 39.984375 20.359375 38.628906 20.597656 38.535156 21.171875 C 38.496094 21.414062 38.59375 21.542969 38.988281 21.78125 C 39.65625 22.183594 39.792969 22.472656 39.554688 22.972656 C 39.375 23.34375 39.394531 23.414062 39.753906 23.8125 C 40.105469 24.199219 40.128906 24.292969 39.972656 24.621094 C 39.875 24.824219 39.792969 25.175781 39.792969 25.402344 C 39.792969 25.875 39.558594 26.164062 39.382812 25.914062 Z M 9.839844 25.679688 C 9.390625 25.460938 9.386719 25.175781 9.832031 24.875 C 10.117188 24.683594 10.261719 24.652344 10.667969 24.695312 C 11.363281 24.769531 11.742188 24.980469 11.742188 25.300781 C 11.742188 25.816406 10.582031 26.046875 9.839844 25.679688 Z M 28.382812 25.753906 C 28.074219 25.589844 28.148438 25.253906 28.6875 24.367188 C 29.414062 23.179688 29.757812 23.253906 29.914062 24.632812 C 29.992188 25.28125 29.960938 25.457031 29.738281 25.636719 C 29.445312 25.875 28.726562 25.9375 28.382812 25.753906 Z M 15.414062 25.335938 C 15.332031 25.042969 15.347656 25.039062 16.457031 24.960938 C 17.257812 24.902344 17.261719 24.898438 17.292969 24.363281 C 17.300781 24.167969 17.394531 24.101562 17.707031 24.0625 C 17.996094 24.023438 18.125 23.945312 18.164062 23.773438 C 18.195312 23.617188 18.34375 23.511719 18.605469 23.460938 C 18.863281 23.40625 18.996094 23.3125 18.996094 23.179688 C 18.996094 22.839844 19.332031 22.714844 20.410156 22.652344 C 21.191406 22.609375 21.4375 22.625 21.503906 22.714844 C 21.679688 22.957031 21.664062 24.59375 21.484375 24.722656 C 21.101562 25 20.933594 24.742188 20.933594 23.882812 C 20.933594 23.058594 20.921875 23.035156 20.570312 23.035156 C 19.828125 23.039062 19.742188 23.140625 19.621094 24.203125 C 19.558594 24.761719 19.5 25.296875 19.492188 25.398438 C 19.480469 25.578125 19.417969 25.585938 17.484375 25.59375 L 15.488281 25.601562 Z M 7.519531 22.585938 C 7.152344 22.308594 7.148438 22.285156 7.164062 19.953125 C 7.175781 18.441406 7.261719 17.3125 7.40625 16.789062 C 7.613281 16.039062 7.660156 15.976562 8.015625 15.949219 C 8.398438 15.921875 8.398438 15.921875 8.308594 16.589844 C 8.261719 16.960938 8.140625 17.601562 8.042969 18.019531 C 7.761719 19.21875 7.742188 21.777344 8.015625 21.953125 C 8.390625 22.195312 8.644531 21.964844 8.742188 21.296875 C 8.789062 20.957031 8.867188 20.238281 8.910156 19.699219 C 9.015625 18.367188 9.453125 16.261719 9.640625 16.160156 C 9.738281 16.109375 9.890625 16.121094 10.054688 16.195312 C 10.25 16.28125 10.289062 16.386719 10.203125 16.613281 C 10.085938 16.9375 10.039062 17.382812 9.894531 19.613281 C 9.753906 21.792969 9.589844 22.375 9.035156 22.710938 C 8.628906 22.960938 7.949219 22.902344 7.519531 22.585938 Z M 11.8125 22.652344 C 11.15625 22.121094 11.046875 21.691406 10.972656 19.324219 C 10.9375 18.0625 10.953125 16.855469 11.011719 16.648438 C 11.105469 16.320312 11.167969 16.269531 11.472656 16.292969 C 11.820312 16.320312 11.824219 16.328125 11.796875 18.246094 C 11.769531 20.15625 12 21.664062 12.351562 21.851562 C 12.445312 21.902344 12.605469 21.914062 12.710938 21.878906 C 12.855469 21.832031 12.886719 21.171875 12.824219 19.210938 C 12.78125 17.777344 12.785156 16.527344 12.828125 16.4375 C 12.878906 16.339844 13.023438 16.28125 13.171875 16.296875 C 13.453125 16.324219 13.429688 16.179688 13.761719 20.34375 C 13.867188 21.683594 13.847656 21.945312 13.609375 22.324219 C 13.460938 22.566406 13.226562 22.785156 13.089844 22.8125 C 12.5625 22.921875 12.066406 22.859375 11.8125 22.652344 Z M 19.054688 21.347656 C 18.3125 21.152344 17.808594 20.628906 17.910156 20.15625 C 18.042969 19.542969 18.921875 19.183594 20.289062 19.183594 C 20.824219 19.183594 21.0625 19.242188 21.597656 19.507812 C 22.132812 19.773438 22.265625 19.902344 22.328125 20.214844 C 22.503906 21.125 20.644531 21.769531 19.054688 21.347656 Z M 20.675781 21.015625 C 20.8125 20.988281 21.070312 20.839844 21.246094 20.6875 C 21.714844 20.289062 21.453125 19.820312 20.667969 19.644531 C 20.15625 19.53125 20.046875 19.535156 19.507812 19.671875 C 18.757812 19.867188 18.445312 20.1875 18.679688 20.523438 C 18.988281 20.960938 19.871094 21.179688 20.675781 21.015625 Z M 33.953125 18.105469 C 33.398438 17.75 32.917969 17.417969 32.886719 17.375 C 32.824219 17.289062 33.320312 16.960938 33.507812 16.960938 C 33.820312 16.960938 35.519531 18.535156 35.359375 18.675781 C 35.167969 18.835938 34.949219 18.75 33.953125 18.105469 Z M 36.621094 17.933594 C 36.195312 17.667969 35.5 17.25 35.078125 17.003906 C 34.660156 16.761719 34.3125 16.503906 34.3125 16.433594 C 34.3125 16.308594 34.796875 16.019531 35 16.019531 C 35.167969 16.019531 36.976562 17.238281 37.445312 17.664062 C 37.859375 18.046875 37.90625 18.414062 37.535156 18.414062 C 37.460938 18.414062 37.046875 18.199219 36.621094 17.933594 Z M 37.433594 16.765625 C 35.542969 15.753906 35.488281 15.714844 35.722656 15.527344 C 35.855469 15.425781 36.09375 15.335938 36.25 15.335938 C 36.550781 15.335938 38.230469 16.289062 39.21875 17.023438 C 39.789062 17.445312 39.910156 17.726562 39.554688 17.785156 C 39.464844 17.800781 38.511719 17.34375 37.433594 16.765625 Z M 31.730469 16.832031 L 31.347656 16.613281 L 31.699219 16.429688 C 32.035156 16.25 32.054688 16.25 32.371094 16.402344 C 32.742188 16.582031 32.796875 16.792969 32.507812 16.945312 C 32.238281 17.085938 32.164062 17.078125 31.730469 16.832031 Z M 38.554688 15.945312 L 36.585938 14.847656 L 36.910156 14.664062 C 37.320312 14.429688 37.515625 14.484375 38.863281 15.1875 C 40.152344 15.859375 41.144531 16.644531 41.003906 16.878906 C 40.949219 16.972656 40.816406 17.046875 40.710938 17.042969 C 40.605469 17.042969 39.636719 16.546875 38.554688 15.945312 Z M 30.808594 16.304688 C 30.511719 16.242188 30.5625 15.878906 30.875 15.8125 C 31.273438 15.734375 31.699219 15.984375 31.476562 16.167969 C 31.285156 16.328125 31.097656 16.367188 30.808594 16.304688 Z M 32.878906 16.074219 C 32.5 15.855469 32.511719 15.613281 32.917969 15.433594 C 33.0625 15.371094 33.25 15.402344 33.59375 15.546875 C 34.050781 15.746094 34.0625 15.761719 33.832031 15.988281 C 33.503906 16.300781 33.316406 16.320312 32.878906 16.074219 Z M 2.390625 15.796875 C 2.390625 15.40625 3.511719 13.210938 4.484375 11.703125 C 4.976562 10.9375 5.632812 9.660156 6.011719 8.726562 C 6.042969 8.644531 5.898438 8.480469 5.683594 8.367188 C 5.191406 8.105469 5.195312 8.027344 5.703125 7.757812 C 6.0625 7.566406 6.199219 7.546875 6.710938 7.601562 C 7.574219 7.699219 8.332031 7.667969 8.757812 7.519531 C 8.960938 7.449219 9.566406 7.109375 10.101562 6.765625 C 11.609375 5.800781 12.453125 5.539062 13.046875 5.851562 C 13.410156 6.046875 13.476562 5.957031 11.824219 7.511719 C 11.273438 8.027344 10.546875 8.722656 10.210938 9.050781 C 7.953125 11.246094 8.109375 11.078125 6.789062 12.769531 C 6.480469 13.171875 6.164062 13.59375 6.09375 13.710938 C 5.671875 14.390625 4.9375 15.382812 4.785156 15.480469 C 4.6875 15.542969 4.542969 15.59375 4.46875 15.59375 C 3.753906 15.59375 5.96875 12.382812 8.601562 9.597656 C 9.339844 8.816406 10.097656 8.046875 10.277344 7.886719 C 10.734375 7.492188 10.726562 7.304688 10.265625 7.519531 C 9.097656 8.070312 6.5 10.789062 4.429688 13.625 C 4.039062 14.167969 3.664062 14.707031 3.601562 14.824219 C 3.066406 15.835938 2.390625 16.382812 2.390625 15.796875 Z M 6.835938 8.160156 C 6.636719 7.992188 6.421875 8.0625 6.421875 8.300781 C 6.421875 8.515625 6.441406 8.519531 6.683594 8.394531 C 6.824219 8.316406 6.894531 8.214844 6.835938 8.160156 Z M 31.855469 15.496094 C 31.507812 15.394531 31.488281 15.136719 31.816406 14.996094 C 32.007812 14.910156 32.105469 14.910156 32.296875 14.996094 C 32.808594 15.21875 32.417969 15.664062 31.855469 15.496094 Z M 10.144531 15.367188 C 8.410156 15.257812 8.082031 15.183594 8.25 14.957031 C 8.367188 14.792969 8.445312 14.792969 11.195312 14.953125 C 13.304688 15.078125 13.753906 15.15625 13.621094 15.378906 C 13.546875 15.5 12.105469 15.496094 10.144531 15.367188 Z M 34.007812 15.175781 C 33.707031 15.050781 33.644531 14.96875 33.730469 14.792969 C 33.867188 14.503906 34.300781 14.5 34.796875 14.78125 C 35.160156 14.988281 35.164062 14.996094 34.878906 15.164062 C 34.523438 15.375 34.496094 15.375 34.007812 15.175781 Z M 32.660156 14.644531 C 32.277344 14.527344 32.304688 14.253906 32.710938 14.136719 C 33.304688 13.96875 33.800781 14.378906 33.3125 14.636719 C 33.082031 14.757812 33.027344 14.757812 32.660156 14.644531 Z M 10.25 14.523438 C 9.476562 14.472656 8.761719 14.390625 8.667969 14.339844 C 8.414062 14.207031 8.960938 13.945312 9.386719 14 C 9.574219 14.019531 10.542969 14.085938 11.539062 14.144531 C 13.292969 14.242188 13.839844 14.355469 13.597656 14.566406 C 13.476562 14.671875 12.296875 14.65625 10.25 14.523438 Z M 35.0625 14.285156 C 34.445312 14.007812 34.445312 14.007812 34.742188 13.8125 L 35.042969 13.617188 L 35.605469 13.816406 C 36.21875 14.035156 36.382812 14.25 36.082031 14.441406 C 35.816406 14.613281 35.773438 14.605469 35.0625 14.285156 Z M 11.582031 13.796875 C 11.179688 13.757812 10.46875 13.703125 9.996094 13.664062 C 9.15625 13.601562 8.792969 13.445312 9.105469 13.28125 C 9.246094 13.203125 13.238281 13.40625 13.539062 13.503906 C 13.613281 13.53125 13.675781 13.625 13.675781 13.71875 C 13.675781 13.855469 13.570312 13.882812 12.992188 13.871094 C 12.613281 13.867188 11.980469 13.832031 11.582031 13.796875 Z M 33.441406 13.6875 C 33.070312 13.539062 33.167969 13.25 33.605469 13.214844 C 34.054688 13.179688 34.429688 13.421875 34.210938 13.605469 C 33.984375 13.796875 33.785156 13.820312 33.441406 13.6875 Z M 41.003906 13.550781 C 38.738281 13.109375 33.667969 11.5625 33.667969 11.308594 C 33.667969 11.050781 34.0625 11.113281 35.8125 11.648438 C 38.445312 12.449219 41.261719 13.203125 41.421875 13.152344 C 41.976562 12.96875 40.828125 12.550781 36.453125 11.339844 C 35.1875 10.992188 34.121094 10.675781 34.074219 10.636719 C 34.03125 10.597656 34.097656 10.519531 34.226562 10.464844 C 34.414062 10.382812 34.875 10.480469 36.601562 10.957031 C 39.953125 11.882812 41.46875 12.335938 41.914062 12.539062 C 42.75 12.925781 42.929688 13.359375 42.339844 13.578125 C 41.90625 13.738281 41.992188 13.742188 41.003906 13.550781 Z M 11.003906 12.949219 C 10.523438 12.839844 9.851562 12.390625 9.730469 12.09375 C 9.621094 11.832031 9.90625 11.4375 10.34375 11.242188 C 11.402344 10.777344 13.519531 11.132812 13.777344 11.816406 C 13.878906 12.089844 13.519531 12.582031 13.050781 12.804688 C 12.710938 12.96875 11.46875 13.054688 11.003906 12.949219 Z M 12.78125 12.410156 C 13.167969 12.117188 13.097656 11.785156 12.605469 11.582031 C 11.367188 11.0625 9.742188 11.804688 10.804688 12.402344 C 11.289062 12.679688 12.421875 12.683594 12.78125 12.410156 Z M 11.453125 12.242188 C 10.949219 11.972656 11.488281 11.613281 12.1875 11.753906 C 12.625 11.839844 12.652344 12.011719 12.253906 12.203125 C 11.902344 12.371094 11.710938 12.378906 11.453125 12.242188 Z M 41.003906 11.449219 C 37.730469 10.617188 36.128906 10.199219 35.402344 9.984375 C 34.679688 9.773438 34.453125 9.589844 34.78125 9.484375 C 34.859375 9.457031 36.433594 9.824219 38.277344 10.296875 C 41.800781 11.199219 42.535156 11.34375 42.535156 11.128906 C 42.535156 10.980469 42.121094 10.765625 41.378906 10.539062 C 40.710938 10.335938 36.234375 9.179688 36.105469 9.175781 C 36.050781 9.175781 35.839844 9.109375 35.636719 9.023438 C 35.273438 8.875 35.273438 8.582031 35.636719 8.582031 C 36.179688 8.582031 42.804688 10.460938 43.53125 10.816406 C 44.113281 11.105469 44.125 11.417969 43.5625 11.652344 C 42.980469 11.898438 42.675781 11.871094 41.003906 11.449219 Z M 31.875 10.921875 C 31.707031 10.8125 31.800781 10.578125 32.417969 9.578125 C 33.183594 8.34375 33.8125 7.136719 33.949219 6.636719 C 34.039062 6.316406 34.546875 6.242188 34.714844 6.527344 C 34.925781 6.878906 32.742188 10.917969 32.289062 11.007812 C 32.175781 11.03125 31.988281 10.992188 31.875 10.921875 Z M 12.953125 10.710938 C 12.417969 10.628906 11.765625 10.558594 11.5 10.554688 C 10.757812 10.539062 10.539062 10.4375 10.773438 10.207031 C 10.949219 10.035156 11.042969 10.023438 11.84375 10.074219 C 13.386719 10.175781 14.074219 10.316406 14.132812 10.539062 C 14.214844 10.84375 14.003906 10.871094 12.953125 10.710938 Z M 30.179688 10.503906 C 30.082031 10.367188 30.414062 9.738281 31.394531 8.207031 C 31.660156 7.792969 32 7.164062 32.148438 6.816406 C 32.429688 6.140625 32.511719 6.070312 32.863281 6.1875 C 33.054688 6.25 33.058594 6.359375 32.878906 6.929688 C 32.660156 7.632812 31.863281 9.097656 31.199219 10.035156 C 30.800781 10.589844 30.382812 10.785156 30.179688 10.503906 Z M 28.890625 10.164062 C 28.839844 10.09375 29.015625 9.699219 29.28125 9.289062 C 30.03125 8.121094 30.507812 7.195312 30.847656 6.25 C 30.960938 5.9375 31.574219 5.914062 31.574219 6.222656 C 31.574219 6.78125 29.90625 9.882812 29.441406 10.183594 C 29.222656 10.328125 29.003906 10.320312 28.890625 10.164062 Z M 26.171875 9.855469 C 24.9375 9.476562 25.019531 8.46875 26.300781 8.246094 C 27.417969 8.050781 28.660156 8.605469 28.445312 9.207031 C 28.257812 9.738281 26.984375 10.101562 26.171875 9.855469 Z M 27.53125 9.46875 C 27.714844 9.34375 27.863281 9.167969 27.863281 9.078125 C 27.863281 8.878906 27.171875 8.496094 26.816406 8.496094 C 26.417969 8.496094 25.769531 8.890625 25.769531 9.132812 C 25.769531 9.410156 26.292969 9.691406 26.804688 9.691406 C 27.035156 9.691406 27.332031 9.601562 27.53125 9.46875 Z M 26.617188 9.289062 C 26.273438 9.222656 26.375 8.921875 26.738281 8.921875 C 26.949219 8.921875 27.058594 8.980469 27.058594 9.089844 C 27.058594 9.277344 26.910156 9.34375 26.617188 9.289062 Z M 12.519531 9.707031 C 11.929688 9.625 11.398438 9.539062 11.339844 9.507812 C 11.28125 9.476562 11.332031 9.371094 11.445312 9.273438 C 11.710938 9.046875 12.601562 9.039062 13.757812 9.246094 C 14.4375 9.371094 14.5625 9.425781 14.5625 9.605469 C 14.5625 9.785156 14.480469 9.824219 14.078125 9.835938 C 13.8125 9.84375 13.113281 9.785156 12.519531 9.707031 Z M 41.652344 9.324219 C 37.089844 8.328125 35.929688 8.027344 35.929688 7.835938 C 35.925781 7.734375 35.984375 7.632812 36.054688 7.609375 C 36.121094 7.585938 37.191406 7.816406 38.429688 8.121094 C 41.003906 8.753906 42.605469 9.09375 43.03125 9.09375 C 43.433594 9.09375 43.574219 8.941406 43.328125 8.785156 C 43.113281 8.648438 41.367188 8.164062 40.117188 7.898438 C 38.542969 7.5625 36.652344 7.113281 36.464844 7.03125 C 36.117188 6.878906 36.410156 6.679688 36.902344 6.730469 C 38.121094 6.859375 43.855469 8.335938 44.300781 8.636719 C 44.667969 8.882812 44.742188 9.34375 44.441406 9.503906 C 44.097656 9.683594 42.980469 9.613281 41.652344 9.324219 Z M 23.757812 9.441406 C 23.707031 9.394531 23.765625 9.171875 23.894531 8.949219 C 24.023438 8.722656 24.285156 8.152344 24.476562 7.683594 C 25.3125 5.644531 25.367188 5.546875 25.699219 5.546875 C 26.148438 5.546875 26.121094 5.6875 25.21875 8.027344 C 24.722656 9.3125 24.578125 9.523438 24.171875 9.523438 C 23.996094 9.523438 23.8125 9.484375 23.757812 9.441406 Z M 22.308594 9.269531 C 22.164062 9.144531 22.695312 8.011719 23.125 7.519531 C 23.335938 7.28125 23.507812 6.972656 23.511719 6.832031 C 23.511719 6.539062 23.980469 5.582031 24.179688 5.464844 C 24.265625 5.414062 24.386719 5.417969 24.5 5.480469 C 24.722656 5.597656 24.5 6.300781 23.808594 7.683594 C 23.550781 8.199219 23.257812 8.789062 23.160156 8.988281 C 23.035156 9.246094 22.902344 9.351562 22.695312 9.351562 C 22.535156 9.351562 22.359375 9.3125 22.308594 9.269531 Z M 6.835938 7.109375 C 5.929688 6.421875 7.574219 5.1875 12.917969 2.539062 C 14.496094 1.753906 15.335938 1.726562 15.558594 2.445312 C 15.722656 2.992188 15.542969 3.144531 13.988281 3.75 C 13.183594 4.0625 12.554688 4.335938 12.589844 4.355469 C 12.628906 4.375 12.964844 4.335938 13.339844 4.265625 C 14.414062 4.0625 15.984375 4.003906 16.21875 4.152344 C 16.519531 4.34375 16.125 4.558594 15.371094 4.613281 C 14.320312 4.691406 14.230469 4.71875 14.578125 4.855469 C 14.878906 4.972656 14.878906 4.980469 14.515625 5.183594 C 14.199219 5.363281 14.035156 5.386719 13.4375 5.351562 C 12.222656 5.28125 11.925781 5.371094 10.117188 6.363281 C 8.492188 7.253906 8.382812 7.296875 7.75 7.296875 C 7.246094 7.296875 7.023438 7.253906 6.835938 7.109375 Z M 9.496094 6.011719 C 10.035156 5.722656 9.753906 5.296875 9.164062 5.503906 C 8.949219 5.578125 8.949219 5.597656 9.160156 5.667969 C 9.351562 5.734375 9.363281 5.773438 9.203125 5.859375 C 9.042969 5.941406 9 5.933594 9 5.820312 C 9 5.640625 8.703125 5.625 8.578125 5.800781 C 8.445312 5.984375 8.625 6.1875 8.917969 6.1875 C 9.050781 6.1875 9.3125 6.105469 9.496094 6.011719 Z M 12.796875 3.664062 C 14.421875 2.992188 14.675781 2.859375 14.554688 2.757812 C 14.339844 2.574219 13.882812 2.722656 12.609375 3.378906 C 11.382812 4.015625 11.078125 4.21875 11.355469 4.21875 C 11.410156 4.21875 12.058594 3.96875 12.796875 3.664062 Z M 27.609375 7.132812 C 26.894531 7.042969 26.730469 6.972656 26.46875 6.636719 C 25.984375 6.019531 26.671875 5.503906 27.984375 5.503906 C 28.582031 5.503906 28.78125 5.546875 29.171875 5.769531 C 29.734375 6.085938 29.765625 6.375 29.28125 6.753906 C 28.992188 6.976562 28.304688 7.246094 28.140625 7.203125 C 28.121094 7.199219 27.882812 7.167969 27.609375 7.132812 Z M 28.734375 6.660156 C 29.089844 6.371094 29.058594 6.105469 28.644531 5.871094 C 28.164062 5.601562 27.496094 5.613281 27.070312 5.898438 C 26.886719 6.023438 26.738281 6.191406 26.738281 6.273438 C 26.738281 6.351562 26.886719 6.519531 27.070312 6.644531 C 27.527344 6.949219 28.367188 6.957031 28.734375 6.660156 Z M 27.542969 6.265625 C 27.542969 6.144531 27.628906 6.097656 27.824219 6.117188 C 28.242188 6.160156 28.292969 6.441406 27.875 6.441406 C 27.644531 6.441406 27.542969 6.386719 27.542969 6.265625 Z M 36.738281 5.230469 C 36.558594 5.125 36.410156 4.996094 36.410156 4.941406 C 36.410156 4.746094 37.152344 4.261719 37.496094 4.234375 C 38.328125 4.171875 38.871094 4.957031 38.210938 5.273438 C 37.800781 5.472656 37.128906 5.453125 36.738281 5.230469 Z M 28.269531 4.273438 C 27.203125 4.121094 26.007812 3.9375 25.609375 3.863281 C 25.207031 3.792969 23.992188 3.625 22.902344 3.488281 C 21.355469 3.296875 20.933594 3.214844 20.976562 3.109375 C 21.042969 2.933594 22.082031 2.96875 23.671875 3.195312 C 24.339844 3.289062 25.386719 3.429688 26 3.5 C 26.617188 3.574219 27.582031 3.726562 28.140625 3.839844 C 29.335938 4.078125 30.296875 4.140625 30.402344 3.984375 C 30.554688 3.753906 26.765625 3.121094 22.804688 2.714844 C 21.25 2.554688 20.785156 2.410156 21.269531 2.242188 C 21.457031 2.175781 21.449219 2.144531 21.214844 2.050781 C 21.058594 1.984375 20.933594 1.90625 20.933594 1.867188 C 20.933594 1.773438 22.863281 1.890625 24.558594 2.089844 C 26.164062 2.277344 30.367188 2.492188 30.550781 2.394531 C 30.890625 2.214844 29.964844 2.109375 25.125 1.78125 C 21.433594 1.53125 20.699219 1.453125 20.644531 1.300781 C 20.570312 1.101562 21.261719 1.035156 22.351562 1.136719 C 22.859375 1.183594 24.578125 1.300781 26.171875 1.398438 C 29.890625 1.617188 30.675781 1.710938 31.265625 2.003906 C 31.832031 2.28125 31.84375 2.363281 31.371094 2.597656 C 31.035156 2.765625 30.859375 2.777344 29.035156 2.75 C 27.183594 2.722656 26.585938 2.769531 27.421875 2.875 C 29.363281 3.121094 31.492188 3.617188 31.609375 3.855469 C 31.730469 4.105469 31.457031 4.386719 31.003906 4.476562 C 30.453125 4.589844 30.5 4.589844 28.269531 4.273438 Z M 16.578125 3.320312 C 16.578125 3.296875 16.429688 2.90625 16.242188 2.453125 C 15.996094 1.847656 15.957031 1.609375 16.089844 1.539062 C 16.355469 1.394531 16.515625 1.578125 16.898438 2.453125 C 17.296875 3.375 17.296875 3.363281 16.902344 3.363281 C 16.722656 3.363281 16.578125 3.34375 16.578125 3.320312 Z M 17.90625 3.179688 C 17.941406 3.121094 18.246094 3.035156 18.585938 2.984375 C 19.210938 2.894531 19.652344 2.65625 19.433594 2.539062 C 19.367188 2.503906 18.894531 2.472656 18.390625 2.472656 C 17.308594 2.464844 17.09375 2.269531 18.03125 2.144531 C 18.734375 2.050781 19.074219 1.882812 18.9375 1.695312 C 18.851562 1.574219 18.699219 1.5625 18.015625 1.613281 C 17.222656 1.671875 17.199219 1.664062 17.25 1.46875 C 17.300781 1.285156 17.394531 1.265625 18.332031 1.242188 C 19.644531 1.210938 20.042969 1.363281 19.898438 1.839844 C 19.847656 2.015625 19.875 2.179688 19.964844 2.210938 C 20.054688 2.238281 20.125 2.414062 20.125 2.601562 C 20.125 2.890625 20.050781 2.964844 19.601562 3.109375 C 19.027344 3.296875 17.800781 3.34375 17.90625 3.179688 Z M 17.90625 3.179688 "/>
</g>
</svg>
