<?xml version="1.0" encoding="UTF-8"?>
<svg xmlns="http://www.w3.org/2000/svg" xmlns:xlink="http://www.w3.org/1999/xlink" width="120pt" height="90pt" viewBox="0 0 120 90" version="1.1">
<g id="surface1">
<path style=" stroke:none;fill-rule:nonzero;fill:rgb(0%,0%,0%);fill-opacity:1;" d="M 5.234375 12.792969 C 4.945312 12.734375 3.375 12.082031 3.523438 12.082031 C 3.582031 12.082031 3.46875 11.921875 3.269531 11.722656 C 2.992188 11.4375 2.910156 11.207031 2.90625 10.671875 C 2.894531 9.929688 3.171875 9.433594 3.976562 8.753906 C 4.507812 8.304688 4.535156 8.128906 4.117188 7.816406 C 3.949219 7.691406 3.609375 7.359375 3.367188 7.078125 C 2.992188 6.640625 2.929688 6.460938 2.941406 5.832031 C 2.957031 5.039062 3.179688 4.644531 3.890625 4.148438 C 4.328125 3.84375 5.378906 3.539062 6 3.535156 C 6.585938 3.53125 7.007812 3.824219 7.011719 4.238281 C 7.019531 4.898438 7.960938 5.703125 9.082031 6.003906 C 9.878906 6.21875 11.144531 6.351562 11.925781 6.300781 C 15.121094 6.101562 18.074219 5.773438 19.019531 5.519531 C 19.855469 5.292969 21.402344 4.714844 22.316406 4.285156 C 22.800781 4.058594 23.28125 3.875 23.386719 3.875 C 23.488281 3.875 23.660156 3.820312 23.765625 3.753906 C 23.980469 3.613281 26.496094 2.84375 27.425781 2.632812 C 29.753906 2.097656 33.710938 1.484375 34.847656 1.480469 C 35.285156 1.480469 35.828125 1.8125 37.15625 2.898438 L 37.796875 3.421875 L 39.773438 3.527344 C 41.757812 3.632812 43.359375 3.761719 45.460938 3.992188 C 49.265625 4.402344 49.433594 4.476562 51.003906 6.371094 C 51.214844 6.628906 51.507812 6.820312 51.820312 6.90625 C 52.402344 7.066406 52.636719 7.277344 52.636719 7.644531 C 52.636719 8.097656 51.183594 8.695312 49.332031 9.003906 C 48.09375 9.210938 46.867188 9.609375 46.613281 9.886719 C 46.324219 10.203125 46.492188 10.433594 47.070312 10.507812 C 47.550781 10.574219 50.746094 10.394531 51.457031 10.265625 C 52.160156 10.136719 52.507812 10.292969 52.441406 10.707031 C 52.398438 10.992188 52.332031 11.027344 51.585938 11.167969 C 50.886719 11.300781 50.417969 11.3125 48.039062 11.269531 C 39.460938 11.117188 39.695312 11.128906 39.1875 10.773438 C 38.972656 10.625 38.636719 10.25 38.441406 9.945312 C 37.96875 9.207031 37.945312 7.585938 38.394531 6.867188 L 38.691406 6.398438 L 39.640625 6.371094 C 40.183594 6.355469 40.667969 6.386719 40.769531 6.4375 C 40.867188 6.492188 41.019531 6.714844 41.109375 6.933594 L 41.273438 7.335938 L 44.011719 7.335938 L 44.058594 7.863281 C 44.09375 8.253906 44.171875 8.40625 44.367188 8.445312 C 44.507812 8.472656 45.210938 8.453125 45.929688 8.398438 C 48.511719 8.203125 50.539062 7.683594 50.539062 7.214844 C 50.539062 7.082031 50.425781 6.925781 50.289062 6.863281 C 50.082031 6.773438 49.949219 6.800781 49.445312 7.058594 C 47.808594 7.894531 46.066406 7.9375 44.632812 7.179688 C 43.46875 6.558594 43.324219 5.59375 44.289062 4.875 C 44.464844 4.742188 44.566406 4.609375 44.511719 4.582031 C 44.457031 4.554688 44.03125 4.511719 43.558594 4.492188 C 42.738281 4.457031 42.691406 4.464844 42.148438 4.789062 C 41.84375 4.972656 41.445312 5.226562 41.269531 5.347656 C 41.003906 5.53125 40.855469 5.5625 40.421875 5.527344 C 39.742188 5.464844 39.738281 5.269531 40.398438 4.757812 C 40.71875 4.511719 40.84375 4.34375 40.746094 4.289062 C 40.660156 4.246094 40.09375 4.21875 39.488281 4.234375 L 38.386719 4.257812 L 37.757812 4.878906 C 37.167969 5.460938 37.097656 5.5 36.578125 5.5 C 36.085938 5.5 36.027344 5.476562 36.027344 5.261719 C 36.027344 5.132812 36.179688 4.878906 36.363281 4.695312 C 36.542969 4.515625 36.660156 4.320312 36.617188 4.261719 C 36.351562 3.894531 31.632812 4.195312 27.726562 4.828125 C 26.574219 5.015625 25.375 5.210938 25.066406 5.261719 C 24.753906 5.308594 23.667969 5.515625 22.648438 5.714844 C 18.503906 6.527344 13.3125 7.042969 10.519531 6.917969 C 9.003906 6.851562 7.722656 6.558594 6.988281 6.113281 C 6.339844 5.722656 5.722656 5.019531 5.71875 4.671875 C 5.71875 4.519531 5.636719 4.371094 5.539062 4.339844 C 5.261719 4.25 4.640625 4.640625 4.300781 5.125 C 3.777344 5.863281 4.109375 6.574219 5.300781 7.28125 C 6.242188 7.839844 8.644531 8.050781 12.378906 7.90625 C 13.816406 7.851562 15.714844 7.789062 16.601562 7.761719 C 17.488281 7.738281 18.867188 7.683594 19.664062 7.636719 C 23.457031 7.429688 29.65625 7.125 31.03125 7.078125 C 31.871094 7.050781 33.070312 6.992188 33.691406 6.945312 C 36.941406 6.695312 36.835938 6.664062 36.835938 7.929688 C 36.835938 8.597656 36.941406 9.164062 37.175781 9.746094 C 37.75 11.15625 37.746094 11.058594 37.195312 11.058594 C 36.621094 11.058594 36.519531 10.953125 36.011719 9.789062 C 35.558594 8.765625 35.535156 8.757812 33.191406 9.003906 C 30.394531 9.296875 28.933594 9.550781 28.933594 9.742188 C 28.933594 9.984375 29.566406 10.519531 30.234375 10.839844 C 30.871094 11.144531 30.960938 11.160156 31.652344 11.109375 C 32.648438 11.035156 34.417969 10.59375 34.417969 10.414062 C 34.417969 10.339844 34.34375 10.203125 34.253906 10.117188 C 34.117188 9.980469 34.019531 9.96875 33.609375 10.042969 C 33 10.15625 32.644531 10.089844 32.644531 9.859375 C 32.644531 9.675781 33.003906 9.570312 33.996094 9.472656 C 34.523438 9.417969 34.585938 9.433594 34.753906 9.660156 C 35.019531 10.023438 35.1875 10.773438 35.03125 10.917969 C 34.8125 11.125 31.832031 11.828125 31.175781 11.828125 C 30.550781 11.828125 29.394531 11.375 28.511719 10.789062 C 27.148438 9.882812 26.785156 9.257812 27.523438 9.089844 C 28.292969 8.917969 32.554688 8.429688 34.617188 8.28125 C 35.039062 8.25 35.382812 8.183594 35.382812 8.132812 C 35.382812 8.011719 29.039062 8.09375 24.339844 8.277344 C 17.660156 8.539062 17.078125 8.554688 14.183594 8.566406 C 7.671875 8.601562 5.488281 8.90625 4.59375 9.917969 C 3.960938 10.628906 4.222656 11.757812 5.074219 12 C 5.457031 12.109375 5.878906 12.019531 5.535156 11.902344 C 5.359375 11.84375 5.371094 11.828125 5.578125 11.828125 C 5.753906 11.828125 5.878906 11.722656 5.953125 11.511719 C 6.226562 10.746094 7.414062 10.011719 8.816406 9.742188 C 10.644531 9.394531 15.261719 9.46875 19.582031 9.914062 C 20.691406 10.027344 22.796875 10.179688 24.257812 10.25 C 26.585938 10.367188 26.957031 10.40625 27.207031 10.5625 C 27.691406 10.863281 27.472656 10.933594 26.097656 10.90625 C 24.949219 10.886719 23.503906 10.785156 19.261719 10.417969 C 14.28125 9.988281 10.984375 9.972656 9.023438 10.371094 C 7.941406 10.589844 6.875 11.378906 6.519531 12.222656 C 6.269531 12.820312 5.988281 12.941406 5.234375 12.792969 Z M 44.699219 10.410156 C 44.832031 10.386719 44.871094 10.296875 44.804688 10.140625 C 44.582031 9.601562 44.382812 9.441406 43.792969 9.339844 C 43.03125 9.207031 42.964844 9.144531 42.964844 8.5625 C 42.964844 8.292969 42.90625 8.058594 42.839844 8.039062 C 42.773438 8.019531 42.226562 8.042969 41.625 8.089844 C 40.222656 8.203125 40 8.113281 40.007812 7.425781 C 40.011719 7.089844 39.953125 6.953125 39.800781 6.953125 C 38.957031 6.953125 38.960938 8.914062 39.804688 9.988281 C 39.9375 10.152344 40.066406 10.292969 40.09375 10.296875 C 40.117188 10.300781 40.867188 10.351562 41.753906 10.410156 C 43.210938 10.503906 44.128906 10.503906 44.699219 10.410156 Z M 48.21875 6.746094 C 48.699219 6.492188 48.765625 6.402344 48.765625 6.011719 C 48.765625 5.472656 48.425781 5.140625 47.6875 4.953125 C 46.386719 4.625 44.898438 5.121094 44.898438 5.882812 C 44.898438 6.390625 45.136719 6.636719 45.839844 6.851562 C 46.753906 7.132812 47.558594 7.097656 48.21875 6.746094 Z M 46.28125 6.253906 C 46.003906 6.042969 46.085938 5.714844 46.476562 5.476562 C 46.773438 5.292969 47.03125 5.289062 47.644531 5.457031 C 48.027344 5.5625 48.121094 5.644531 48.121094 5.871094 C 48.121094 6.039062 48 6.214844 47.824219 6.296875 C 47.398438 6.503906 46.578125 6.480469 46.28125 6.253906 Z M 24.414062 4.824219 C 29.363281 3.9375 32.523438 3.519531 35.03125 3.414062 C 35.5 3.394531 35.933594 3.355469 35.992188 3.324219 C 36.140625 3.246094 35.4375 2.5625 34.972656 2.332031 C 34.457031 2.074219 33.753906 2.089844 31.675781 2.402344 C 29.507812 2.726562 27.691406 3.144531 26.269531 3.632812 C 25.652344 3.847656 24.929688 4.082031 24.664062 4.15625 C 23.917969 4.367188 22.078125 5.15625 22.332031 5.15625 C 22.457031 5.15625 23.394531 5.007812 24.414062 4.824219 Z M 12.855469 4.839844 C 12.386719 4.792969 11.558594 4.257812 11.359375 3.875 C 10.929688 3.054688 11.414062 2.519531 12.785156 2.304688 C 13.972656 2.121094 14.847656 2.222656 15.453125 2.621094 C 15.90625 2.917969 15.953125 3.007812 15.949219 3.519531 C 15.941406 4.246094 15.621094 4.574219 14.75 4.761719 C 14.117188 4.894531 13.605469 4.917969 12.855469 4.839844 Z M 14.261719 4.214844 C 14.335938 4.214844 14.554688 4.082031 14.746094 3.917969 C 15.050781 3.65625 15.070312 3.582031 14.90625 3.316406 C 14.621094 2.855469 13.757812 2.703125 13.007812 2.980469 C 12.542969 3.152344 12.492188 3.859375 12.933594 4.0625 C 13.292969 4.230469 13.640625 4.296875 13.914062 4.253906 C 14.03125 4.234375 14.1875 4.214844 14.261719 4.214844 Z M 14.261719 4.214844 "/>
</g>
</svg>
