<?xml version="1.0" encoding="UTF-8"?>
<svg xmlns="http://www.w3.org/2000/svg" xmlns:xlink="http://www.w3.org/1999/xlink" width="120pt" height="90pt" viewBox="0 0 120 90" version="1.1">
<g id="surface1">
<path style=" stroke:none;fill-rule:nonzero;fill:rgb(100%,100%,100%);fill-opacity:1;" d="M -0.0078125 45 C -0.0078125 20.148438 26.855469 0 59.992188 0 C 93.128906 0 119.992188 20.148438 119.992188 45 C 119.992188 69.855469 93.128906 90 59.992188 90 C 26.855469 90 -0.0078125 69.855469 -0.0078125 45 Z M -0.0078125 45 "/>
<path style=" stroke:none;fill-rule:nonzero;fill:rgb(0%,0%,0%);fill-opacity:1;" d="M 59.984375 90 C 93.109375 90 119.992188 69.851562 119.992188 45.007812 C 119.992188 20.160156 93.109375 0 59.984375 0 C 26.855469 0 -0.0078125 20.164062 -0.0078125 45.007812 C -0.0078125 69.851562 26.855469 90 59.984375 90 Z M 66.414062 83.605469 C 65.824219 83.613281 65.214844 83.5 64.671875 83.234375 C 63.589844 82.699219 62.929688 81.625 62.929688 80.136719 L 62.929688 68 L 58.699219 68 L 58.699219 80.136719 C 58.699219 81.625 58.039062 82.699219 56.957031 83.234375 C 55.871094 83.765625 54.542969 83.675781 53.554688 83.261719 C 52.5625 82.851562 51.796875 82.054688 51.871094 81.085938 C 51.949219 80.117188 52.851562 79.175781 54.589844 78.425781 C 55.042969 78.207031 55.730469 78.324219 56 78.675781 C 56.269531 79.023438 56.066406 79.53125 55.585938 79.714844 C 54.195312 80.316406 53.867188 80.84375 53.84375 81.164062 C 53.820312 81.480469 54.085938 81.789062 54.527344 81.972656 C 54.96875 82.15625 55.472656 82.160156 55.855469 81.972656 C 56.238281 81.785156 56.707031 81.316406 56.707031 80.136719 L 56.707031 68 L 52.121094 68 L 52.121094 63.738281 L 48.015625 63.738281 L 48.015625 59.832031 L 45.234375 58.960938 L 24.242188 79.28125 C 23.207031 78.675781 22.210938 78.039062 21.234375 77.382812 L 44.652344 56.691406 C 46.527344 57.617188 51.109375 59.097656 56.21875 59.382812 L 56.46875 62.480469 L 64.496094 62.480469 L 64.496094 59.554688 C 73 58.054688 76.425781 52.59375 77.386719 47.015625 L 82.035156 47.015625 L 82.035156 41.414062 L 76.992188 41.414062 C 75.515625 36.949219 70.300781 33.355469 62.847656 33.058594 C 49.222656 32.523438 46.871094 47.984375 56.644531 47.28125 C 61.5625 46.925781 59.640625 43.832031 59.652344 41.972656 C 59.65625 40.789062 61.933594 39.328125 64.171875 39.40625 C 67.304688 39.519531 69.515625 41.21875 69.546875 45.132812 C 69.59375 51.285156 62.660156 53.695312 57.785156 53.734375 C 50.542969 53.796875 45.105469 50.910156 43.773438 46.328125 L 38.609375 46.203125 L 38.773438 40.742188 L 43.296875 40.742188 C 44.058594 35.5625 48.261719 28.808594 56.261719 27.101562 L 56.34375 24.097656 L 64.082031 24.160156 L 64 27.289062 C 68.417969 27.339844 75.496094 30.039062 75.496094 30.039062 L 96.738281 11.324219 C 99.039062 12.734375 101.183594 14.269531 103.167969 15.925781 L 78.183594 31.316406 L 79.738281 32.417969 L 87.984375 32.417969 L 87.984375 37.070312 L 91.84375 37.070312 L 91.84375 40.027344 L 107.484375 40.027344 C 109.054688 40.027344 109.679688 39.675781 109.929688 39.386719 C 110.183594 39.101562 110.175781 38.722656 109.929688 38.390625 C 109.6875 38.0625 109.277344 37.859375 108.851562 37.878906 C 108.429688 37.898438 107.722656 38.144531 106.921875 39.1875 C 106.679688 39.546875 106 39.699219 105.535156 39.496094 C 105.066406 39.292969 104.90625 38.777344 105.203125 38.4375 C 106.199219 37.136719 107.457031 36.457031 108.75 36.402344 C 110.039062 36.34375 111.101562 36.917969 111.652344 37.660156 C 112.203125 38.402344 112.320312 39.402344 111.609375 40.210938 C 110.902344 41.023438 109.46875 41.519531 107.484375 41.519531 L 91.84375 41.519531 L 91.84375 44.695312 L 107.484375 44.695312 C 109.46875 44.695312 110.902344 45.1875 111.609375 46 C 112.320312 46.8125 112.203125 47.808594 111.652344 48.550781 C 111.101562 49.292969 110.039062 49.867188 108.75 49.8125 C 107.457031 49.753906 106.199219 49.078125 105.203125 47.773438 C 104.90625 47.433594 105.066406 46.917969 105.535156 46.714844 C 106 46.515625 106.679688 46.667969 106.921875 47.027344 C 107.722656 48.070312 108.429688 48.316406 108.851562 48.335938 C 109.277344 48.351562 109.6875 48.152344 109.929688 47.820312 C 110.175781 47.488281 110.183594 47.113281 109.929688 46.824219 C 109.679688 46.539062 109.054688 46.1875 107.484375 46.1875 L 91.84375 46.1875 L 91.84375 49.65625 L 87.15625 49.65625 L 87.15625 53.421875 L 82.113281 53.421875 L 81.617188 55.054688 L 105.679688 71.824219 C 103.394531 74.011719 100.835938 76.011719 98.046875 77.832031 L 76.617188 58.371094 L 75.496094 58.820312 L 75.582031 64.484375 L 69.378906 64.484375 L 69.378906 68 L 64.917969 68 L 64.917969 80.132812 C 64.917969 81.3125 65.386719 81.78125 65.769531 81.96875 C 66.152344 82.160156 66.65625 82.152344 67.097656 81.96875 C 67.539062 81.785156 67.804688 81.480469 67.78125 81.160156 C 67.753906 80.84375 67.429688 80.3125 66.039062 79.714844 C 65.558594 79.53125 65.351562 79.023438 65.625 78.671875 C 65.894531 78.324219 66.582031 78.203125 67.035156 78.421875 C 68.769531 79.171875 69.675781 80.113281 69.75 81.082031 C 69.824219 82.050781 69.0625 82.847656 68.070312 83.261719 C 67.574219 83.46875 67.003906 83.597656 66.410156 83.605469 Z M 14.722656 72.21875 C 6.757812 64.769531 1.988281 55.308594 1.988281 45.007812 C 1.988281 34.328125 7.109375 24.542969 15.613281 16.972656 L 38.535156 31.675781 L 38.039062 33.308594 L 32.996094 33.308594 L 32.996094 37.074219 L 28.308594 37.074219 L 28.308594 40.542969 L 12.667969 40.542969 C 11.097656 40.542969 10.472656 40.191406 10.222656 39.902344 C 9.972656 39.617188 9.976562 39.238281 10.222656 38.910156 C 10.46875 38.578125 10.875 38.375 11.300781 38.394531 C 11.726562 38.414062 12.429688 38.660156 13.230469 39.703125 C 13.476562 40.0625 14.152344 40.214844 14.621094 40.011719 C 15.085938 39.8125 15.246094 39.292969 14.953125 38.953125 C 13.953125 37.652344 12.695312 36.972656 11.402344 36.917969 C 10.113281 36.859375 9.050781 37.433594 8.5 38.175781 C 7.949219 38.917969 7.832031 39.917969 8.542969 40.730469 C 9.253906 41.539062 10.683594 42.035156 12.667969 42.035156 L 28.308594 42.035156 L 28.308594 45.210938 L 12.667969 45.210938 C 10.683594 45.210938 9.253906 45.703125 8.542969 46.515625 C 7.832031 47.328125 7.949219 48.324219 8.5 49.066406 C 9.050781 49.808594 10.113281 50.382812 11.402344 50.328125 C 12.695312 50.273438 13.953125 49.59375 14.953125 48.289062 C 15.246094 47.949219 15.085938 47.433594 14.621094 47.230469 C 14.152344 47.03125 13.472656 47.183594 13.230469 47.542969 C 12.429688 48.585938 11.726562 48.832031 11.300781 48.851562 C 10.875 48.867188 10.46875 48.667969 10.222656 48.335938 C 9.976562 48.003906 9.972656 47.628906 10.222656 47.339844 C 10.472656 47.054688 11.097656 46.703125 12.667969 46.703125 L 28.308594 46.703125 L 28.308594 49.660156 L 32.167969 49.660156 L 32.167969 54.3125 L 40.371094 54.3125 L 41.882812 55.191406 Z M 43.535156 28.359375 L 23.953125 10.890625 C 33.84375 5.003906 46.367188 1.492188 59.984375 1.492188 C 72.402344 1.492188 83.902344 4.417969 93.339844 9.394531 L 74.917969 27.769531 L 72.140625 26.898438 L 72.140625 22.992188 L 68.03125 22.992188 L 68.03125 18.730469 L 63.449219 18.730469 L 63.449219 6.59375 C 63.449219 5.417969 63.917969 4.949219 64.300781 4.757812 C 64.679688 4.570312 65.183594 4.574219 65.625 4.757812 C 66.066406 4.941406 66.335938 5.25 66.3125 5.566406 C 66.285156 5.886719 65.960938 6.414062 64.570312 7.015625 C 64.089844 7.199219 63.882812 7.707031 64.152344 8.058594 C 64.421875 8.40625 65.113281 8.527344 65.566406 8.304688 C 67.300781 7.558594 68.207031 6.613281 68.28125 5.644531 C 68.355469 4.679688 67.59375 3.878906 66.601562 3.46875 C 65.609375 3.054688 64.28125 2.964844 63.199219 3.5 C 62.117188 4.03125 61.457031 5.105469 61.457031 6.59375 L 61.457031 18.730469 L 57.226562 18.730469 L 57.226562 6.59375 C 57.226562 5.105469 56.566406 4.03125 55.484375 3.5 C 54.402344 2.964844 53.070312 3.054688 52.082031 3.46875 C 51.089844 3.878906 50.324219 4.679688 50.402344 5.644531 C 50.476562 6.613281 51.378906 7.558594 53.117188 8.304688 C 53.570312 8.527344 54.257812 8.40625 54.527344 8.058594 C 54.796875 7.707031 54.59375 7.199219 54.113281 7.015625 C 52.722656 6.414062 52.394531 5.886719 52.371094 5.566406 C 52.347656 5.25 52.613281 4.941406 53.054688 4.757812 C 53.496094 4.574219 54 4.570312 54.382812 4.757812 C 54.765625 4.949219 55.234375 5.417969 55.234375 6.59375 L 55.234375 18.730469 L 50.773438 18.730469 L 50.773438 22.246094 L 44.570312 22.246094 L 44.65625 27.910156 Z M 43.535156 28.359375 "/>
</g>
</svg>
