<?xml version="1.0" encoding="UTF-8"?>
<svg xmlns="http://www.w3.org/2000/svg" xmlns:xlink="http://www.w3.org/1999/xlink" width="120pt" height="90pt" viewBox="0 0 120 90" version="1.1">
<g id="surface1">
<path style=" stroke:none;fill-rule:nonzero;fill:rgb(0%,0%,0%);fill-opacity:1;" d="M 0 0 L 0 89.972656 L 29.59375 90 L 120 90 L 120 89.726562 L 80.679688 57.695312 L 80.324219 57.375 L 80.5625 56.8125 C 80.816406 56.195312 81.359375 55.339844 81.65625 55.097656 C 81.824219 54.957031 82.015625 54.941406 83.785156 54.964844 C 86.199219 54.992188 85.992188 55.128906 85.972656 53.304688 C 85.949219 51.566406 85.8125 51.671875 88.21875 51.695312 C 89.515625 51.707031 90.058594 51.6875 90.140625 51.617188 C 90.207031 51.554688 90.285156 51.105469 90.316406 50.464844 C 90.359375 49.65625 90.382812 49.363281 90.496094 49.257812 C 90.691406 49.078125 91.402344 48.867188 93.363281 48.804688 L 105.75 48.75 C 105.964844 48.855469 106.199219 49.113281 106.28125 49.257812 C 106.421875 49.507812 106.417969 49.539062 106.253906 49.742188 C 105.941406 50.117188 105.816406 50.15625 105.246094 49.980469 C 104.332031 49.699219 103.960938 49.976562 104.035156 50.890625 C 104.089844 51.589844 104.21875 51.820312 104.773438 52.097656 C 105.195312 52.308594 105.34375 52.339844 106.046875 52.339844 C 106.804688 52.339844 106.875 52.332031 107.316406 52.042969 C 108.1875 51.480469 108.761719 50.03125 108.648438 48.804688 C 108.59375 48.234375 108.5625 48.113281 108.234375 47.679688 C 107.570312 46.796875 107.335938 46.71875 104.980469 46.472656 C 104.214844 46.394531 94.019531 46.328125 92.121094 46.390625 C 90.859375 46.4375 90.535156 46.398438 90.375 46.179688 C 90.300781 46.070312 90.164062 45.121094 90.199219 44.945312 C 90.238281 44.753906 90.253906 44.746094 90.878906 44.679688 C 92.589844 44.492188 93.628906 44.445312 97.972656 44.4375 C 103.667969 44.425781 105.789062 44.34375 106.488281 44.0625 C 107.058594 43.832031 107.664062 43.328125 107.847656 42.964844 C 108.242188 42.179688 108.316406 41.253906 108.027344 40.527344 C 107.789062 39.941406 107.5625 39.664062 106.84375 39.027344 C 106.128906 38.398438 105.515625 38.15625 104.390625 38.140625 C 103.640625 38.132812 103.535156 38.164062 102.96875 38.4375 C 102.058594 38.878906 101.457031 39.792969 101.609375 40.527344 C 101.703125 40.976562 102.417969 41.628906 103 41.785156 C 103.660156 41.964844 104.011719 41.835938 104.210938 41.382812 C 104.292969 41.199219 104.359375 41 104.359375 40.929688 C 104.359375 40.855469 104.46875 40.695312 104.597656 40.578125 C 105.125 40.101562 105.863281 40.492188 105.984375 41.304688 C 106.097656 42.042969 105.761719 42.320312 104.535156 42.507812 C 103.5625 42.65625 90.796875 42.660156 90.492188 42.507812 C 90.179688 42.355469 90.117188 42.089844 90.050781 40.875 C 90.015625 40.234375 89.933594 39.757812 89.875 39.722656 C 89.816406 39.691406 88.890625 39.679688 87.804688 39.695312 C 85.902344 39.722656 85.832031 39.699219 85.734375 39.535156 C 85.617188 39.335938 85.417969 36.722656 85.496094 36.429688 C 85.53125 36.3125 85.5 36.152344 85.410156 36.027344 L 85.261719 35.8125 L 82.601562 35.8125 C 79.960938 35.8125 79.945312 35.8125 79.761719 35.625 C 79.660156 35.519531 79.445312 35.296875 79.289062 35.140625 C 78.949219 34.800781 78.726562 34.464844 78.726562 34.230469 C 78.726562 34.128906 79.050781 33.773438 79.527344 33.347656 L 106.222656 11.730469 L 107.050781 10.847656 L 95.992188 10.582031 L 76.511719 31.578125 C 76.210938 31.964844 75.9375 32 75.296875 31.742188 C 75.007812 31.621094 74.667969 31.503906 74.53125 31.472656 C 74.082031 31.371094 73.976562 31.191406 73.910156 30.242188 C 73.875 29.546875 73.902344 28.84375 73.851562 28.152344 C 73.796875 27.820312 73.753906 27.78125 73.40625 27.695312 C 72.335938 27.625 71.253906 27.625 70.183594 27.5625 C 70.070312 27.496094 69.980469 26.691406 69.917969 25.179688 C 69.898438 24.699219 69.828125 24.25 69.769531 24.1875 C 68.722656 24.113281 67.5 24.253906 66.519531 23.917969 C 66.382812 23.691406 66.25 21.835938 66.191406 19.554688 C 66.164062 18.390625 66.121094 17.039062 66.105469 16.527344 C 66.023438 14.152344 66.035156 13.097656 66.132812 12.964844 C 66.292969 12.746094 66.601562 12.746094 66.84375 12.964844 C 67.050781 13.152344 67.070312 13.246094 67.050781 13.6875 C 67.027344 14.253906 67.175781 14.476562 67.699219 14.679688 C 68.773438 15.089844 69.871094 14.328125 70.15625 12.964844 C 70.257812 12.476562 70.230469 12.398438 70.007812 11.890625 C 69.765625 11.347656 69.785156 11.335938 68.972656 10.953125 C 67.90625 10.453125 67.390625 10.351562 66.871094 10.472656 C 66.65625 10.523438 66.335938 10.578125 66.164062 10.605469 C 65.769531 10.675781 65.125 11.222656 64.683594 11.839844 L 64.332031 12.292969 L 64.332031 14.328125 L 64.476562 23.890625 C 64.289062 24.214844 63.3125 24.226562 63.175781 23.917969 L 62.824219 12.160156 C 62.792969 11.90625 62.714844 11.609375 62.648438 11.492188 C 62.40625 11.058594 61.671875 10.402344 61.167969 10.179688 C 60.703125 9.972656 60.585938 9.960938 59.75 9.992188 C 58.996094 10.019531 58.734375 10.0625 58.273438 10.257812 C 57.660156 10.519531 57.132812 10.914062 56.734375 11.4375 C 55.9375 12.492188 56.199219 14.046875 57.324219 15.054688 C 58.078125 15.726562 58.785156 15.765625 59.453125 15.1875 C 59.796875 14.894531 59.832031 14.855469 59.78125 14.570312 C 59.75 14.402344 59.613281 14.160156 59.484375 14.035156 C 59.175781 13.742188 59.167969 13.402344 59.484375 13.179688 C 59.914062 12.871094 60.628906 13.003906 60.816406 13.417969 C 60.867188 13.542969 60.9375 13.894531 60.960938 14.195312 C 61.027344 14.941406 61.054688 18.898438 60.992188 18.992188 C 60.964844 19.03125 60.9375 20.109375 60.933594 21.375 C 60.929688 22.699219 60.867188 23.75 60.816406 23.839844 C 59.6875 24.011719 58.441406 23.945312 57.265625 24.105469 C 57.117188 24.207031 57.074219 24.375 57.058594 25.769531 C 57.050781 26.625 57.011719 27.371094 56.972656 27.429688 C 56.914062 27.507812 56.367188 27.535156 54.726562 27.535156 C 52.867188 27.535156 52.542969 27.558594 52.417969 27.667969 C 52.242188 27.828125 52.234375 27.761719 52.210938 29.757812 L 52.210938 31.339844 L 51.738281 31.769531 C 51.429688 32.050781 51.21875 32.195312 51.058594 32.195312 L 28.679688 10.421875 L 17.03125 10.527344 L 48.515625 35.25 C 48.488281 35.382812 47.824219 36.371094 47.511719 36.964844 C 46.613281 38.660156 46.203125 39.832031 46.0625 41.277344 C 45.992188 42 45.925781 42.527344 45.855469 42.589844 C 45.777344 42.660156 45.292969 42.722656 44.464844 42.75 C 43.429688 42.785156 43.183594 42.8125 43.046875 42.9375 C 42.894531 43.078125 42.886719 43.300781 42.898438 45.671875 C 42.910156 47.5625 42.964844 48.285156 43.046875 48.375 C 43.140625 48.476562 43.449219 48.492188 44.820312 48.484375 C 46.898438 48.464844 46.859375 48.4375 47.332031 49.632812 C 48.257812 51.960938 49.1875 53.296875 50.851562 54.671875 C 52.027344 55.640625 53.597656 56.582031 54.902344 57.109375 C 56.523438 57.761719 57.027344 57.894531 58.65625 58.019531 C 59.175781 58.058594 59.609375 58.148438 59.75 58.234375 C 60.023438 58.394531 60.054688 58.515625 60.195312 60.269531 C 60.300781 61.601562 60.394531 61.957031 60.667969 62.089844 C 60.917969 62.210938 65.378906 62.1875 65.632812 62.0625 C 66.050781 61.863281 66.042969 61.796875 66.046875 59.839844 C 66.050781 58.449219 66.078125 57.945312 66.164062 57.882812 C 66.230469 57.839844 66.535156 57.75 66.816406 57.695312 C 67.824219 57.441406 68.839844 57.226562 69.773438 56.785156 C 73.210938 55.28125 75.207031 52.839844 75.65625 49.582031 C 75.738281 46.976562 75.125 44.53125 72.964844 42.644531 C 70.996094 40.953125 68.773438 40.125 66.046875 40.554688 C 63.976562 41.191406 61.960938 42.195312 62.382812 44.464844 C 63.359375 46.53125 65.246094 46.273438 67.113281 47.464844 C 68.261719 48.886719 67.699219 50.0625 65.929688 50.921875 C 62.667969 51.816406 59.667969 51.484375 56.914062 49.609375 C 54.738281 47.882812 53.753906 45.636719 54.222656 42.964844 C 55.503906 39.441406 57.660156 37.363281 61.644531 36.347656 C 61.703125 35.5625 61.636719 34.457031 61.878906 33.722656 C 63.117188 33.550781 64.558594 33.417969 65.753906 33.882812 C 65.84375 34.484375 65.945312 35.179688 65.957031 35.839844 C 66.054688 36.066406 66.039062 36.070312 67.230469 36.109375 C 72.644531 36.414062 77.746094 38.78125 79.707031 43.6875 C 79.738281 43.859375 79.835938 44.03125 79.914062 44.089844 C 80.898438 44.214844 81.933594 44.210938 82.898438 44.410156 C 83.03125 45.453125 83.140625 46.546875 83.046875 47.625 C 82.265625 47.882812 81.394531 48.058594 80.476562 48.027344 C 80.144531 51.316406 79.21875 54.367188 77.046875 57.109375 L 77.339844 57.429688 C 77.507812 57.601562 77.871094 57.917969 78.140625 58.125 C 86.734375 65.136719 95.105469 72.40625 103.121094 79.957031 L 94.605469 79.902344 L 77.746094 61.046875 C 76.980469 60.273438 76.1875 59.054688 75.058594 59.332031 C 74.460938 59.808594 73.875 60.300781 73.253906 60.75 C 73.019531 62.351562 73.171875 64.117188 72.929688 65.761719 C 71.902344 66 70.695312 65.980469 69.585938 66.136719 C 69.496094 67.078125 69.441406 68.039062 69.410156 69 C 69.3125 70.199219 69.316406 70.207031 68.078125 70.207031 C 67.324219 70.207031 67.273438 70.222656 67.222656 70.339844 C 67.132812 70.546875 67.179688 80.175781 67.28125 80.894531 C 67.382812 81.632812 67.53125 81.984375 67.933594 82.207031 C 68.722656 82.644531 69.882812 82.136719 69.882812 81.347656 C 69.882812 81.011719 69.714844 80.851562 69.234375 80.679688 C 68.773438 80.515625 68.550781 80.21875 68.554688 79.742188 C 68.554688 79.25 68.765625 79.050781 69.378906 78.910156 C 70.144531 78.738281 70.824219 78.941406 71.273438 79.5 C 71.652344 79.976562 71.757812 80.398438 71.746094 81.324219 C 71.734375 82.042969 71.71875 82.160156 71.449219 82.582031 C 71.289062 82.835938 71.050781 83.140625 70.917969 83.25 C 70.539062 83.570312 69.703125 83.921875 68.996094 84.082031 C 68.210938 84.257812 67.617188 84.183594 66.957031 83.785156 C 66.371094 83.4375 66.183594 83.148438 66.011719 82.421875 L 65.625 71.117188 C 65.21875 69.988281 64.445312 70.125 63.082031 70.207031 L 63.113281 81.671875 C 62.78125 82.496094 62.507812 82.828125 61.871094 83.117188 C 61.117188 83.457031 60.261719 83.503906 59.300781 83.277344 C 58.261719 83.03125 57.902344 82.859375 57.140625 82.234375 C 56.546875 81.742188 56.460938 81.636719 56.3125 81.160156 C 56.03125 80.25 56.230469 79.089844 56.757812 78.671875 C 57.316406 78.226562 57.953125 78.226562 58.292969 78.699219 C 58.429688 78.886719 58.457031 79.078125 58.441406 79.742188 L 58.414062 80.574219 L 58.738281 80.921875 C 59.320312 81.539062 59.902344 81.5625 60.570312 81 C 60.851562 80.761719 61.191406 79.863281 61.222656 79.3125 L 60.984375 70.289062 C 60.921875 70.195312 60.480469 70.171875 59.121094 70.152344 C 57.902344 70.136719 57.328125 70.09375 57.230469 70.019531 C 57.109375 69.929688 57.105469 69.632812 57.140625 68.039062 C 57.164062 67.007812 57.144531 66.132812 57.109375 66.082031 C 56.996094 65.910156 55.753906 65.78125 54.09375 65.789062 C 51.917969 65.796875 52.074219 65.921875 51.964844 64.207031 C 51.921875 63.492188 51.867188 62.589844 51.847656 62.226562 C 51.8125 61.480469 51.730469 61.382812 51.140625 61.289062 C 50.390625 61.164062 49.234375 60.800781 48.597656 60.484375 C 48.226562 60.300781 47.882812 60.132812 47.828125 60.136719 C 40.765625 66.21875 34.78125 73.304688 27.929688 79.582031 L 19.179688 79.367188 L 44.222656 60.429688 C 44.398438 60.304688 44.6875 60.0625 44.871094 59.921875 C 45.054688 59.777344 45.421875 59.535156 45.667969 59.382812 C 46.34375 58.972656 46.390625 58.828125 45.996094 58.234375 C 45.816406 57.960938 45.507812 57.34375 45.316406 56.867188 C 45.042969 56.1875 44.910156 55.988281 44.753906 55.957031 C 44.644531 55.933594 43.429688 55.917969 42.035156 55.902344 L 39.253906 55.714844 C 39.027344 55.582031 39.019531 55.570312 38.988281 54.1875 C 38.964844 53.058594 38.953125 52.78125 38.839844 52.714844 C 38.765625 52.671875 38.019531 52.636719 37.214844 52.636719 C 35.414062 52.632812 35.523438 52.699219 35.441406 51.1875 C 35.359375 49.703125 35.265625 49.105469 35.144531 49.019531 C 35.089844 48.980469 34.109375 48.894531 32.957031 48.859375 C 31.132812 48.804688 29.601562 48.816406 25.449219 48.859375 C 24.933594 48.863281 23.625 48.84375 22.519531 48.832031 C 20.328125 48.808594 20.082031 48.863281 19.535156 49.289062 C 19.105469 49.617188 18.890625 49.980469 18.886719 50.386719 C 18.882812 50.664062 18.921875 50.753906 19.238281 51.027344 C 19.691406 51.417969 20.050781 51.46875 20.601562 51.164062 C 21.476562 50.675781 21.570312 50.648438 21.839844 50.789062 C 22.40625 51.074219 22.234375 52.140625 21.546875 52.636719 C 21.09375 52.960938 19.84375 53.121094 19.121094 52.929688 C 18.613281 52.796875 17.855469 52.324219 17.496094 51.914062 C 16.550781 50.824219 17.1875 48.5 18.617188 47.867188 L 19.152344 47.625 L 22.757812 47.601562 C 24.75 47.582031 28.28125 47.578125 30.59375 47.574219 C 33.964844 47.566406 34.828125 47.53125 34.96875 47.4375 C 35.121094 47.335938 35.132812 47.21875 35.117188 46.289062 C 35.105469 45.710938 35.066406 45.195312 35.027344 45.164062 C 34.871094 45.019531 32.753906 44.9375 28.523438 44.894531 C 19.832031 44.808594 19.722656 44.8125 19.179688 44.652344 C 18.570312 44.472656 17.964844 43.984375 17.554688 43.339844 C 17.265625 42.886719 17.238281 42.851562 17.257812 42.082031 C 17.273438 41.613281 17.355469 41.15625 17.4375 40.984375 C 17.511719 40.820312 17.613281 40.496094 17.671875 40.289062 C 17.742188 40.046875 17.90625 39.820312 18.117188 39.644531 C 18.683594 39.160156 18.890625 39.105469 19.949219 39.136719 C 20.871094 39.164062 20.917969 39.175781 21.425781 39.484375 C 21.984375 39.816406 22.25 40.160156 22.433594 40.824219 C 22.566406 41.296875 22.429688 41.589844 22.019531 41.8125 C 21.484375 42.109375 21.242188 42.035156 20.660156 41.464844 C 20.203125 41.019531 20.105469 40.984375 19.800781 40.984375 C 19.347656 40.984375 19.144531 41.25 19.09375 41.921875 C 19.042969 42.527344 19.152344 42.714844 19.773438 43.046875 L 20.214844 43.289062 L 23.761719 43.339844 C 25.859375 43.371094 27.574219 43.363281 27.960938 43.3125 C 28.332031 43.269531 29.929688 43.261719 31.628906 43.289062 C 34.105469 43.324219 34.636719 43.304688 34.789062 43.207031 C 34.957031 43.101562 35 42.96875 35.027344 42.027344 C 35.046875 41.308594 35.089844 40.953125 35.175781 40.875 C 35.265625 40.796875 35.664062 40.769531 36.710938 40.769531 C 38.65625 40.769531 38.546875 40.925781 38.546875 38.785156 C 38.546875 37.863281 38.570312 37.007812 38.605469 36.914062 C 38.726562 36.5625 38.945312 36.542969 41.292969 36.535156 C 43.292969 36.53125 43.546875 36.511719 43.777344 36.375 C 43.917969 36.292969 44.074219 36.125 44.101562 36 C 44.195312 35.613281 44.425781 35.140625 44.664062 34.824219 L 0.113281 0 L -0.0078125 0 Z M 0 0 "/>
</g>
</svg>
